G04 #@! TF.GenerationSoftware,KiCad,Pcbnew,5.0.2-bee76a0~70~ubuntu18.04.1*
G04 #@! TF.CreationDate,2019-01-13T17:19:06+01:00*
G04 #@! TF.ProjectId,lora_node_rfm95_minipro,6c6f7261-5f6e-46f6-9465-5f72666d3935,rev?*
G04 #@! TF.SameCoordinates,Original*
G04 #@! TF.FileFunction,Copper,L1,Top*
G04 #@! TF.FilePolarity,Positive*
%FSLAX46Y46*%
G04 Gerber Fmt 4.6, Leading zero omitted, Abs format (unit mm)*
G04 Created by KiCad (PCBNEW 5.0.2-bee76a0~70~ubuntu18.04.1) date dom 13 ene 2019 17:19:06 CET*
%MOMM*%
%LPD*%
G01*
G04 APERTURE LIST*
G04 #@! TA.AperFunction,SMDPad,CuDef*
%ADD10R,2.290000X5.080000*%
G04 #@! TD*
G04 #@! TA.AperFunction,SMDPad,CuDef*
%ADD11R,2.420000X4.080000*%
G04 #@! TD*
G04 #@! TA.AperFunction,ViaPad*
%ADD12C,0.970000*%
G04 #@! TD*
G04 #@! TA.AperFunction,Conductor*
%ADD13R,0.460000X0.950000*%
G04 #@! TD*
G04 #@! TA.AperFunction,SMDPad,CuDef*
%ADD14R,1.500000X1.000000*%
G04 #@! TD*
G04 #@! TA.AperFunction,SMDPad,CuDef*
%ADD15R,1.700000X1.000000*%
G04 #@! TD*
G04 #@! TA.AperFunction,SMDPad,CuDef*
%ADD16R,1.950000X1.050000*%
G04 #@! TD*
G04 #@! TA.AperFunction,SMDPad,CuDef*
%ADD17R,1.120000X1.400000*%
G04 #@! TD*
G04 #@! TA.AperFunction,ViaPad*
%ADD18C,0.800000*%
G04 #@! TD*
G04 #@! TA.AperFunction,Conductor*
%ADD19C,0.250000*%
G04 #@! TD*
G04 #@! TA.AperFunction,Conductor*
%ADD20C,0.400000*%
G04 #@! TD*
G04 #@! TA.AperFunction,Conductor*
%ADD21C,0.600000*%
G04 #@! TD*
G04 #@! TA.AperFunction,Conductor*
%ADD22C,0.254000*%
G04 #@! TD*
G04 APERTURE END LIST*
D10*
G04 #@! TO.P,J2,1*
G04 #@! TO.N,ANT*
X149402800Y-70212800D03*
D11*
G04 #@! TO.P,J2,2*
G04 #@! TO.N,GND*
X153132800Y-70792800D03*
X145712800Y-70772800D03*
D12*
G04 #@! TD*
G04 #@! TO.N,GND*
G04 #@! TO.C,J2*
X153142800Y-73642800D03*
G04 #@! TO.N,GND*
G04 #@! TO.C,J2*
X145712800Y-73552800D03*
D13*
X153142800Y-73192800D03*
X145712800Y-73102800D03*
G04 #@! TD*
D14*
G04 #@! TO.P,LED3,3*
G04 #@! TO.N,GND*
X174450000Y-99400000D03*
G04 #@! TO.P,LED3,4*
G04 #@! TO.N,Net-(LED2-Pad2)*
X174450000Y-96200000D03*
G04 #@! TO.P,LED3,2*
G04 #@! TO.N,N/C*
X169550000Y-99400000D03*
G04 #@! TO.P,LED3,1*
G04 #@! TO.N,+3\002C3V*
X169550000Y-96200000D03*
G04 #@! TD*
G04 #@! TO.P,LED2,1*
G04 #@! TO.N,+3\002C3V*
X169550000Y-89000000D03*
G04 #@! TO.P,LED2,2*
G04 #@! TO.N,Net-(LED2-Pad2)*
X169550000Y-92200000D03*
G04 #@! TO.P,LED2,4*
G04 #@! TO.N,Net-(LED1-Pad2)*
X174450000Y-89000000D03*
G04 #@! TO.P,LED2,3*
G04 #@! TO.N,GND*
X174450000Y-92200000D03*
G04 #@! TD*
G04 #@! TO.P,LED1,3*
G04 #@! TO.N,GND*
X174450000Y-85000000D03*
G04 #@! TO.P,LED1,4*
G04 #@! TO.N,NEOPIXELS*
X174450000Y-81800000D03*
G04 #@! TO.P,LED1,2*
G04 #@! TO.N,Net-(LED1-Pad2)*
X169550000Y-85000000D03*
G04 #@! TO.P,LED1,1*
G04 #@! TO.N,+3\002C3V*
X169550000Y-81800000D03*
G04 #@! TD*
D15*
G04 #@! TO.P,SW2,1*
G04 #@! TO.N,GND*
X169050000Y-106500000D03*
X175350000Y-106500000D03*
G04 #@! TO.P,SW2,2*
G04 #@! TO.N,PUSHBUTTON*
X169050000Y-110300000D03*
X175350000Y-110300000D03*
G04 #@! TD*
D16*
G04 #@! TO.P,U1,16*
G04 #@! TO.N,Net-(IC1-Pad3)*
X147540000Y-90870800D03*
G04 #@! TO.P,U1,15*
G04 #@! TO.N,Net-(IC1-Pad4)*
X147540000Y-88870800D03*
G04 #@! TO.P,U1,14*
G04 #@! TO.N,Net-(IC1-Pad8)*
X147540000Y-86870800D03*
G04 #@! TO.P,U1,13*
G04 #@! TO.N,+3\002C3V*
X147540000Y-84870800D03*
G04 #@! TO.P,U1,12*
G04 #@! TO.N,N/C*
X147540000Y-82870800D03*
G04 #@! TO.P,U1,11*
X147540000Y-80870800D03*
G04 #@! TO.P,U1,10*
X147540000Y-78870800D03*
G04 #@! TO.P,U1,9*
G04 #@! TO.N,ANT*
X147540000Y-76870800D03*
G04 #@! TO.P,U1,8*
G04 #@! TO.N,N/C*
X162340000Y-76870800D03*
G04 #@! TO.P,U1,7*
X162340000Y-78870800D03*
G04 #@! TO.P,U1,6*
G04 #@! TO.N,Net-(IC1-Pad1)*
X162340000Y-80870800D03*
G04 #@! TO.P,U1,5*
G04 #@! TO.N,Net-(IC1-Pad24)*
X162340000Y-82870800D03*
G04 #@! TO.P,U1,4*
G04 #@! TO.N,D13*
X162340000Y-84870800D03*
G04 #@! TO.P,U1,3*
G04 #@! TO.N,D11*
X162340000Y-86870800D03*
G04 #@! TO.P,U1,2*
G04 #@! TO.N,D12*
X162340000Y-88870800D03*
G04 #@! TO.P,U1,1*
G04 #@! TO.N,GND*
X162340000Y-90870800D03*
G04 #@! TD*
D17*
G04 #@! TO.P,D2,1*
G04 #@! TO.N,GND*
X139920000Y-72800000D03*
G04 #@! TO.P,D2,2*
G04 #@! TO.N,Net-(D2-Pad2)*
X141680000Y-72800000D03*
G04 #@! TD*
D18*
G04 #@! TO.N,Net-(IC1-Pad1)*
X165100000Y-93472000D03*
X118800000Y-101454001D03*
X115451410Y-101454001D03*
X120702659Y-101725010D03*
X145616235Y-102851307D03*
X144008328Y-102211247D03*
X111796990Y-101454001D03*
G04 #@! TO.N,Net-(IC1-Pad3)*
X149697369Y-96272656D03*
G04 #@! TO.N,Net-(IC1-Pad4)*
X150876000Y-96266000D03*
G04 #@! TO.N,Net-(IC1-Pad8)*
X153162000Y-88646000D03*
G04 #@! TO.N,Net-(IC1-Pad24)*
X163830000Y-93472000D03*
X116400000Y-100525010D03*
X147300000Y-100249989D03*
X150622000Y-100330008D03*
X111796990Y-100330008D03*
G04 #@! TO.N,GND*
X154686000Y-94234000D03*
X161061931Y-93352499D03*
X171704000Y-92456000D03*
X146807347Y-97630979D03*
X154686000Y-82042000D03*
X104400000Y-93200000D03*
X107400000Y-89200000D03*
X177800000Y-81400000D03*
X152951170Y-97674149D03*
X140800000Y-80000000D03*
X124400000Y-87500000D03*
X126000012Y-86794675D03*
X139032490Y-79500004D03*
G04 #@! TO.N,+3\002C3V*
X144297800Y-85344000D03*
X171400000Y-97000000D03*
X160200000Y-82200000D03*
X171600000Y-82800000D03*
X171400000Y-90000000D03*
G04 #@! TO.N,RX_GPS*
X118800000Y-104800000D03*
X112522000Y-103670290D03*
G04 #@! TO.N,D13*
X142494000Y-93726000D03*
X144649372Y-94400000D03*
X148300006Y-96400006D03*
G04 #@! TO.N,D12*
X143256000Y-97790012D03*
X154198321Y-97500000D03*
X157598321Y-94100000D03*
X114200000Y-97999990D03*
X111800000Y-97999996D03*
G04 #@! TO.N,D11*
X162560000Y-93472000D03*
X142494000Y-98474990D03*
X154100000Y-98874989D03*
X111700000Y-99099996D03*
X113830351Y-98929184D03*
G04 #@! TO.N,VBAT*
X105800000Y-94000000D03*
X108600000Y-86400000D03*
X123453002Y-79603868D03*
X118200000Y-79600909D03*
G04 #@! TO.N,NEOPIXELS*
X172212000Y-101854000D03*
X120453870Y-102693580D03*
X145200000Y-104000006D03*
X143100010Y-102800000D03*
X118200000Y-102399998D03*
G04 #@! TO.N,PUSHBUTTON*
X177000000Y-108200000D03*
X172600000Y-110300000D03*
X142100000Y-103600002D03*
X144700000Y-105100000D03*
G04 #@! TO.N,Net-(D2-Pad2)*
X143600000Y-75800000D03*
G04 #@! TD*
D19*
G04 #@! TO.N,Net-(IC1-Pad1)*
X165100000Y-92906315D02*
X165100000Y-93472000D01*
X165100000Y-83180800D02*
X165100000Y-92906315D01*
X162340000Y-80870800D02*
X162790000Y-80870800D01*
X162790000Y-80870800D02*
X165100000Y-83180800D01*
X118800000Y-101454001D02*
X120431650Y-101454001D01*
X120431650Y-101454001D02*
X120702659Y-101725010D01*
X144408327Y-102611246D02*
X144008328Y-102211247D01*
X145616235Y-102851307D02*
X144648388Y-102851307D01*
X144648388Y-102851307D02*
X144408327Y-102611246D01*
X111796990Y-101454001D02*
X115451410Y-101454001D01*
G04 #@! TO.N,Net-(IC1-Pad3)*
X149697369Y-95706971D02*
X149697369Y-96272656D01*
X149697369Y-93803169D02*
X149697369Y-95706971D01*
X147540000Y-90870800D02*
X147540000Y-91645800D01*
X147540000Y-91645800D02*
X149697369Y-93803169D01*
G04 #@! TO.N,Net-(IC1-Pad4)*
X147990000Y-88870800D02*
X147540000Y-88870800D01*
X150876000Y-91756800D02*
X147990000Y-88870800D01*
X150876000Y-96266000D02*
X150876000Y-91756800D01*
G04 #@! TO.N,Net-(IC1-Pad8)*
X148765000Y-86870800D02*
X148767800Y-86868000D01*
X147540000Y-86870800D02*
X148765000Y-86870800D01*
X148767800Y-86868000D02*
X152146000Y-86868000D01*
X152146000Y-86868000D02*
X153162000Y-87884000D01*
X153162000Y-87884000D02*
X153162000Y-88646000D01*
G04 #@! TO.N,Net-(IC1-Pad24)*
X161477200Y-82870800D02*
X162340000Y-82870800D01*
X164534011Y-92767989D02*
X164229999Y-93072001D01*
X164534011Y-84614811D02*
X164534011Y-92767989D01*
X164229999Y-93072001D02*
X163830000Y-93472000D01*
X162340000Y-82870800D02*
X162790000Y-82870800D01*
X162790000Y-82870800D02*
X164534011Y-84614811D01*
X147380019Y-100330008D02*
X147300000Y-100249989D01*
X150622000Y-100330008D02*
X147380019Y-100330008D01*
X111796990Y-100330008D02*
X116204998Y-100330008D01*
X116204998Y-100330008D02*
X116400000Y-100525010D01*
G04 #@! TO.N,GND*
X175154000Y-99898000D02*
X176530000Y-98522000D01*
X174154000Y-99898000D02*
X175154000Y-99898000D01*
X174154000Y-93282000D02*
X174154000Y-92532000D01*
X176530000Y-95658000D02*
X174154000Y-93282000D01*
X176530000Y-98522000D02*
X176530000Y-95658000D01*
X174404000Y-92532000D02*
X176022000Y-90914000D01*
X174154000Y-92532000D02*
X174404000Y-92532000D01*
X176022000Y-87784000D02*
X174154000Y-85916000D01*
X174154000Y-85916000D02*
X174154000Y-85166000D01*
X176022000Y-90914000D02*
X176022000Y-87784000D01*
X174078000Y-92456000D02*
X174154000Y-92532000D01*
X171704000Y-92456000D02*
X174078000Y-92456000D01*
X145712800Y-73552800D02*
X145712800Y-70772800D01*
X153142800Y-70802800D02*
X153132800Y-70792800D01*
X153142800Y-73642800D02*
X153142800Y-70802800D01*
X104400000Y-93200000D02*
X107400000Y-90200000D01*
X107400000Y-90200000D02*
X107400000Y-89200000D01*
X170150000Y-106500000D02*
X175350000Y-106500000D01*
X169050000Y-106500000D02*
X170150000Y-106500000D01*
X160700000Y-92060800D02*
X161890000Y-90870800D01*
X161061931Y-93352499D02*
X160700000Y-92990568D01*
X161890000Y-90870800D02*
X162340000Y-90870800D01*
X160700000Y-92990568D02*
X160700000Y-92060800D01*
X124400000Y-87500000D02*
X125105325Y-86794675D01*
X125105325Y-86794675D02*
X125434327Y-86794675D01*
X125434327Y-86794675D02*
X126000012Y-86794675D01*
X140800000Y-80000000D02*
X140300004Y-79500004D01*
X140300004Y-79500004D02*
X139598175Y-79500004D01*
X139598175Y-79500004D02*
X139032490Y-79500004D01*
X146807347Y-97630979D02*
X152908000Y-97630979D01*
X152908000Y-97630979D02*
X152951170Y-97674149D01*
D20*
G04 #@! TO.N,+3\002C3V*
X147540000Y-84870800D02*
X144771000Y-84870800D01*
X144771000Y-84870800D02*
X144297800Y-85344000D01*
X147540000Y-84870800D02*
X158129200Y-84870800D01*
X169550000Y-96200000D02*
X170600000Y-96200000D01*
X170600000Y-96200000D02*
X171400000Y-97000000D01*
X158129200Y-84870800D02*
X158329200Y-84870800D01*
X158329200Y-84870800D02*
X160200000Y-83000000D01*
X160200000Y-83000000D02*
X160200000Y-82200000D01*
X169550000Y-81800000D02*
X170600000Y-81800000D01*
X170600000Y-81800000D02*
X171600000Y-82800000D01*
X169550000Y-89000000D02*
X170400000Y-89000000D01*
X170400000Y-89000000D02*
X171400000Y-90000000D01*
D19*
G04 #@! TO.N,RX_GPS*
X112522000Y-103670290D02*
X113651710Y-104800000D01*
X113651710Y-104800000D02*
X118800000Y-104800000D01*
G04 #@! TO.N,D13*
X143975372Y-93726000D02*
X143059685Y-93726000D01*
X143059685Y-93726000D02*
X142494000Y-93726000D01*
X144649372Y-94400000D02*
X143975372Y-93726000D01*
X152559998Y-94200802D02*
X152559998Y-95852002D01*
X161890000Y-84870800D02*
X152559998Y-94200802D01*
X162340000Y-84870800D02*
X161890000Y-84870800D01*
X152559998Y-95852002D02*
X151412001Y-96999999D01*
X148700005Y-96800005D02*
X148300006Y-96400006D01*
X151412001Y-96999999D02*
X148899999Y-96999999D01*
X148899999Y-96999999D02*
X148700005Y-96800005D01*
G04 #@! TO.N,D12*
X143255988Y-97790000D02*
X143256000Y-97790012D01*
X160020000Y-91678321D02*
X157598321Y-94100000D01*
X143865138Y-98399150D02*
X143655999Y-98190011D01*
X153299171Y-98399150D02*
X143865138Y-98399150D01*
X143655999Y-98190011D02*
X143256000Y-97790012D01*
X161890000Y-88870800D02*
X160020000Y-90740800D01*
X160020000Y-90740800D02*
X160020000Y-91678321D01*
X162340000Y-88870800D02*
X161890000Y-88870800D01*
X154198321Y-97500000D02*
X153299171Y-98399150D01*
X114199994Y-97999996D02*
X114200000Y-97999990D01*
X111800000Y-97999996D02*
X114199994Y-97999996D01*
G04 #@! TO.N,D11*
X162340000Y-86870800D02*
X162790000Y-86870800D01*
X164084000Y-88164800D02*
X164084000Y-91948000D01*
X164084000Y-91948000D02*
X162560000Y-93472000D01*
X162790000Y-86870800D02*
X164084000Y-88164800D01*
X142893999Y-98874989D02*
X142494000Y-98474990D01*
X154100000Y-98874989D02*
X142893999Y-98874989D01*
X113659539Y-99099996D02*
X113830351Y-98929184D01*
X111700000Y-99099996D02*
X113659539Y-99099996D01*
D20*
G04 #@! TO.N,VBAT*
X105800000Y-94000000D02*
X105800000Y-93000000D01*
X105800000Y-93000000D02*
X108400000Y-90400000D01*
X108400000Y-90400000D02*
X108400000Y-89200000D01*
X108400000Y-89200000D02*
X108400000Y-86600000D01*
X108400000Y-86600000D02*
X108600000Y-86400000D01*
X123449134Y-79600000D02*
X123453002Y-79603868D01*
X123444000Y-79600000D02*
X123449134Y-79600000D01*
X123453002Y-79603868D02*
X118200000Y-79600909D01*
D21*
G04 #@! TO.N,ANT*
X149402800Y-73352800D02*
X149402800Y-70212800D01*
X149402800Y-76583000D02*
X149402800Y-73352800D01*
X149115000Y-76870800D02*
X149402800Y-76583000D01*
X147540000Y-76870800D02*
X149115000Y-76870800D01*
D19*
G04 #@! TO.N,NEOPIXELS*
X176980009Y-98906993D02*
X174033002Y-101854000D01*
X176980009Y-85542009D02*
X176980009Y-98906993D01*
X174154000Y-81966000D02*
X174154000Y-82716000D01*
X174154000Y-82716000D02*
X176980009Y-85542009D01*
X172466000Y-101854000D02*
X172212000Y-101854000D01*
X174033002Y-101854000D02*
X172466000Y-101854000D01*
G04 #@! TO.N,Net-(LED1-Pad2)*
X173154000Y-89332000D02*
X174154000Y-89332000D01*
X172670000Y-89332000D02*
X173154000Y-89332000D01*
X169254000Y-85916000D02*
X172670000Y-89332000D01*
X169254000Y-85166000D02*
X169254000Y-85916000D01*
G04 #@! TO.N,Net-(LED2-Pad2)*
X172670000Y-96698000D02*
X173154000Y-96698000D01*
X173154000Y-96698000D02*
X174154000Y-96698000D01*
X169254000Y-93282000D02*
X172670000Y-96698000D01*
X169254000Y-92532000D02*
X169254000Y-93282000D01*
G04 #@! TO.N,NEOPIXELS*
X145200000Y-104000006D02*
X144300016Y-104000006D01*
X144300016Y-104000006D02*
X143500009Y-103199999D01*
X143500009Y-103199999D02*
X143100010Y-102800000D01*
X118493582Y-102693580D02*
X118200000Y-102399998D01*
X120453870Y-102693580D02*
X118493582Y-102693580D01*
G04 #@! TO.N,PUSHBUTTON*
X175350000Y-109550000D02*
X176700000Y-108200000D01*
X176700000Y-108200000D02*
X177000000Y-108200000D01*
X175350000Y-110300000D02*
X175350000Y-109550000D01*
X169050000Y-110300000D02*
X172600000Y-110300000D01*
X172600000Y-110300000D02*
X175350000Y-110300000D01*
X144134315Y-105100000D02*
X144700000Y-105100000D01*
X143599998Y-105100000D02*
X144134315Y-105100000D01*
X142100000Y-103600002D02*
X143599998Y-105100000D01*
G04 #@! TO.N,Net-(D2-Pad2)*
X142490000Y-72800000D02*
X141680000Y-72800000D01*
X143600000Y-73910000D02*
X142490000Y-72800000D01*
X143600000Y-75800000D02*
X143600000Y-73910000D01*
G04 #@! TD*
D22*
G04 #@! TO.N,GND*
G36*
X147610360Y-72752800D02*
X147659643Y-73000565D01*
X147799991Y-73210609D01*
X148010035Y-73350957D01*
X148257800Y-73400240D01*
X148467800Y-73400240D01*
X148467800Y-73444885D01*
X148467801Y-73444890D01*
X148467800Y-75698360D01*
X146565000Y-75698360D01*
X146317235Y-75747643D01*
X146107191Y-75887991D01*
X145966843Y-76098035D01*
X145917560Y-76345800D01*
X145917560Y-77395800D01*
X145966843Y-77643565D01*
X146107191Y-77853609D01*
X146132919Y-77870800D01*
X146107191Y-77887991D01*
X145966843Y-78098035D01*
X145917560Y-78345800D01*
X145917560Y-79395800D01*
X145966843Y-79643565D01*
X146107191Y-79853609D01*
X146132919Y-79870800D01*
X146107191Y-79887991D01*
X145966843Y-80098035D01*
X145917560Y-80345800D01*
X145917560Y-81395800D01*
X145966843Y-81643565D01*
X146107191Y-81853609D01*
X146132919Y-81870800D01*
X146107191Y-81887991D01*
X145966843Y-82098035D01*
X145917560Y-82345800D01*
X145917560Y-83395800D01*
X145966843Y-83643565D01*
X146107191Y-83853609D01*
X146132919Y-83870800D01*
X146107191Y-83887991D01*
X146008427Y-84035800D01*
X144853237Y-84035800D01*
X144771000Y-84019442D01*
X144688763Y-84035800D01*
X144445199Y-84084248D01*
X144168999Y-84268799D01*
X144142138Y-84309000D01*
X144091926Y-84309000D01*
X143711520Y-84466569D01*
X143420369Y-84757720D01*
X143262800Y-85138126D01*
X143262800Y-85549874D01*
X143420369Y-85930280D01*
X143711520Y-86221431D01*
X144091926Y-86379000D01*
X144503674Y-86379000D01*
X144884080Y-86221431D01*
X145175231Y-85930280D01*
X145268213Y-85705800D01*
X146008427Y-85705800D01*
X146107191Y-85853609D01*
X146132919Y-85870800D01*
X146107191Y-85887991D01*
X145966843Y-86098035D01*
X145917560Y-86345800D01*
X145917560Y-87395800D01*
X145966843Y-87643565D01*
X146107191Y-87853609D01*
X146132919Y-87870800D01*
X146107191Y-87887991D01*
X145966843Y-88098035D01*
X145917560Y-88345800D01*
X145917560Y-89395800D01*
X145966843Y-89643565D01*
X146107191Y-89853609D01*
X146132919Y-89870800D01*
X146107191Y-89887991D01*
X145966843Y-90098035D01*
X145917560Y-90345800D01*
X145917560Y-91395800D01*
X145966843Y-91643565D01*
X146107191Y-91853609D01*
X146317235Y-91993957D01*
X146565000Y-92043240D01*
X146891518Y-92043240D01*
X146941711Y-92118358D01*
X146992072Y-92193729D01*
X147055528Y-92236129D01*
X148937369Y-94117972D01*
X148937370Y-95568944D01*
X148935013Y-95571302D01*
X148886286Y-95522575D01*
X148505880Y-95365006D01*
X148094132Y-95365006D01*
X147713726Y-95522575D01*
X147422575Y-95813726D01*
X147265006Y-96194132D01*
X147265006Y-96605880D01*
X147422575Y-96986286D01*
X147713726Y-97277437D01*
X148094132Y-97435006D01*
X148260205Y-97435006D01*
X148309668Y-97484469D01*
X148352070Y-97547928D01*
X148488593Y-97639150D01*
X144291000Y-97639150D01*
X144291000Y-97584138D01*
X144133431Y-97203732D01*
X143842280Y-96912581D01*
X143461874Y-96755012D01*
X143050126Y-96755012D01*
X142669720Y-96912581D01*
X142378569Y-97203732D01*
X142279172Y-97443699D01*
X141907720Y-97597559D01*
X141616569Y-97888710D01*
X141459000Y-98269116D01*
X141459000Y-98680864D01*
X141616569Y-99061270D01*
X141907720Y-99352421D01*
X142288126Y-99509990D01*
X142476382Y-99509990D01*
X142597462Y-99590893D01*
X142819147Y-99634989D01*
X142819151Y-99634989D01*
X142893998Y-99649877D01*
X142968845Y-99634989D01*
X146451289Y-99634989D01*
X146422569Y-99663709D01*
X146265000Y-100044115D01*
X146265000Y-100455863D01*
X146422569Y-100836269D01*
X146713720Y-101127420D01*
X147094126Y-101284989D01*
X147505874Y-101284989D01*
X147886280Y-101127420D01*
X147923692Y-101090008D01*
X149918289Y-101090008D01*
X150035720Y-101207439D01*
X150416126Y-101365008D01*
X150827874Y-101365008D01*
X151208280Y-101207439D01*
X151499431Y-100916288D01*
X151657000Y-100535882D01*
X151657000Y-100124134D01*
X151499431Y-99743728D01*
X151390692Y-99634989D01*
X153396289Y-99634989D01*
X153513720Y-99752420D01*
X153894126Y-99909989D01*
X154305874Y-99909989D01*
X154686280Y-99752420D01*
X154977431Y-99461269D01*
X155135000Y-99080863D01*
X155135000Y-98900000D01*
X168152560Y-98900000D01*
X168152560Y-99900000D01*
X168201843Y-100147765D01*
X168342191Y-100357809D01*
X168552235Y-100498157D01*
X168800000Y-100547440D01*
X170300000Y-100547440D01*
X170547765Y-100498157D01*
X170757809Y-100357809D01*
X170898157Y-100147765D01*
X170947440Y-99900000D01*
X170947440Y-98900000D01*
X170922316Y-98773690D01*
X173065000Y-98773690D01*
X173065000Y-99114250D01*
X173223750Y-99273000D01*
X174323000Y-99273000D01*
X174323000Y-98423750D01*
X174164250Y-98265000D01*
X173573691Y-98265000D01*
X173340302Y-98361673D01*
X173161673Y-98540301D01*
X173065000Y-98773690D01*
X170922316Y-98773690D01*
X170898157Y-98652235D01*
X170757809Y-98442191D01*
X170547765Y-98301843D01*
X170300000Y-98252560D01*
X168800000Y-98252560D01*
X168552235Y-98301843D01*
X168342191Y-98442191D01*
X168201843Y-98652235D01*
X168152560Y-98900000D01*
X155135000Y-98900000D01*
X155135000Y-98669115D01*
X154977431Y-98288709D01*
X154925377Y-98236655D01*
X155075752Y-98086280D01*
X155233321Y-97705874D01*
X155233321Y-97294126D01*
X155075752Y-96913720D01*
X154784601Y-96622569D01*
X154404195Y-96465000D01*
X153992447Y-96465000D01*
X153612041Y-96622569D01*
X153320890Y-96913720D01*
X153163321Y-97294126D01*
X153163321Y-97460199D01*
X152984370Y-97639150D01*
X151823407Y-97639150D01*
X151959930Y-97547928D01*
X152002332Y-97484469D01*
X153044471Y-96442331D01*
X153107927Y-96399931D01*
X153275902Y-96148539D01*
X153319998Y-95926854D01*
X153319998Y-95926849D01*
X153334886Y-95852002D01*
X153319998Y-95777155D01*
X153319998Y-94515603D01*
X160717560Y-87118043D01*
X160717560Y-87395800D01*
X160766843Y-87643565D01*
X160907191Y-87853609D01*
X160932919Y-87870800D01*
X160907191Y-87887991D01*
X160766843Y-88098035D01*
X160717560Y-88345800D01*
X160717560Y-88968438D01*
X159535530Y-90150469D01*
X159472071Y-90192871D01*
X159304096Y-90444264D01*
X159260000Y-90665949D01*
X159260000Y-90665953D01*
X159245112Y-90740800D01*
X159260000Y-90815648D01*
X159260001Y-91363518D01*
X157558520Y-93065000D01*
X157392447Y-93065000D01*
X157012041Y-93222569D01*
X156720890Y-93513720D01*
X156563321Y-93894126D01*
X156563321Y-94305874D01*
X156720890Y-94686280D01*
X157012041Y-94977431D01*
X157392447Y-95135000D01*
X157804195Y-95135000D01*
X158184601Y-94977431D01*
X158475752Y-94686280D01*
X158633321Y-94305874D01*
X158633321Y-94139801D01*
X160504473Y-92268650D01*
X160567929Y-92226250D01*
X160735904Y-91974858D01*
X160780000Y-91753173D01*
X160780000Y-91753169D01*
X160794829Y-91678620D01*
X160826673Y-91755499D01*
X161005302Y-91934127D01*
X161238691Y-92030800D01*
X162054250Y-92030800D01*
X162213000Y-91872050D01*
X162213000Y-90997800D01*
X162193000Y-90997800D01*
X162193000Y-90743800D01*
X162213000Y-90743800D01*
X162213000Y-90723800D01*
X162467000Y-90723800D01*
X162467000Y-90743800D01*
X162487000Y-90743800D01*
X162487000Y-90997800D01*
X162467000Y-90997800D01*
X162467000Y-91872050D01*
X162625750Y-92030800D01*
X162926398Y-92030800D01*
X162520198Y-92437000D01*
X162354126Y-92437000D01*
X161973720Y-92594569D01*
X161682569Y-92885720D01*
X161525000Y-93266126D01*
X161525000Y-93677874D01*
X161682569Y-94058280D01*
X161973720Y-94349431D01*
X162354126Y-94507000D01*
X162765874Y-94507000D01*
X163146280Y-94349431D01*
X163195000Y-94300711D01*
X163243720Y-94349431D01*
X163624126Y-94507000D01*
X164035874Y-94507000D01*
X164416280Y-94349431D01*
X164465000Y-94300711D01*
X164513720Y-94349431D01*
X164894126Y-94507000D01*
X165305874Y-94507000D01*
X165686280Y-94349431D01*
X165977431Y-94058280D01*
X166135000Y-93677874D01*
X166135000Y-93266126D01*
X165977431Y-92885720D01*
X165860000Y-92768289D01*
X165860000Y-91700000D01*
X168152560Y-91700000D01*
X168152560Y-92700000D01*
X168201843Y-92947765D01*
X168342191Y-93157809D01*
X168484854Y-93253134D01*
X168479112Y-93282000D01*
X168494000Y-93356847D01*
X168494000Y-93356852D01*
X168526478Y-93520126D01*
X168538097Y-93578537D01*
X168638178Y-93728318D01*
X168706072Y-93829929D01*
X168769528Y-93872329D01*
X169949759Y-95052560D01*
X168800000Y-95052560D01*
X168552235Y-95101843D01*
X168342191Y-95242191D01*
X168201843Y-95452235D01*
X168152560Y-95700000D01*
X168152560Y-96700000D01*
X168201843Y-96947765D01*
X168342191Y-97157809D01*
X168552235Y-97298157D01*
X168800000Y-97347440D01*
X170300000Y-97347440D01*
X170414227Y-97324719D01*
X170522569Y-97586280D01*
X170813720Y-97877431D01*
X171194126Y-98035000D01*
X171605874Y-98035000D01*
X171986280Y-97877431D01*
X172277431Y-97586280D01*
X172354171Y-97401013D01*
X172373463Y-97413904D01*
X172595148Y-97458000D01*
X172595152Y-97458000D01*
X172670000Y-97472888D01*
X172744848Y-97458000D01*
X174228852Y-97458000D01*
X174450537Y-97413904D01*
X174550007Y-97347440D01*
X175200000Y-97347440D01*
X175447765Y-97298157D01*
X175657809Y-97157809D01*
X175798157Y-96947765D01*
X175847440Y-96700000D01*
X175847440Y-95700000D01*
X175798157Y-95452235D01*
X175657809Y-95242191D01*
X175447765Y-95101843D01*
X175200000Y-95052560D01*
X173700000Y-95052560D01*
X173452235Y-95101843D01*
X173242191Y-95242191D01*
X173101843Y-95452235D01*
X173052560Y-95700000D01*
X173052560Y-95938000D01*
X172984802Y-95938000D01*
X170378606Y-93331805D01*
X170547765Y-93298157D01*
X170757809Y-93157809D01*
X170898157Y-92947765D01*
X170947440Y-92700000D01*
X170947440Y-92485750D01*
X173065000Y-92485750D01*
X173065000Y-92826310D01*
X173161673Y-93059699D01*
X173340302Y-93238327D01*
X173573691Y-93335000D01*
X174164250Y-93335000D01*
X174323000Y-93176250D01*
X174323000Y-92327000D01*
X174577000Y-92327000D01*
X174577000Y-93176250D01*
X174735750Y-93335000D01*
X175326309Y-93335000D01*
X175559698Y-93238327D01*
X175738327Y-93059699D01*
X175835000Y-92826310D01*
X175835000Y-92485750D01*
X175676250Y-92327000D01*
X174577000Y-92327000D01*
X174323000Y-92327000D01*
X173223750Y-92327000D01*
X173065000Y-92485750D01*
X170947440Y-92485750D01*
X170947440Y-91700000D01*
X170922316Y-91573690D01*
X173065000Y-91573690D01*
X173065000Y-91914250D01*
X173223750Y-92073000D01*
X174323000Y-92073000D01*
X174323000Y-91223750D01*
X174577000Y-91223750D01*
X174577000Y-92073000D01*
X175676250Y-92073000D01*
X175835000Y-91914250D01*
X175835000Y-91573690D01*
X175738327Y-91340301D01*
X175559698Y-91161673D01*
X175326309Y-91065000D01*
X174735750Y-91065000D01*
X174577000Y-91223750D01*
X174323000Y-91223750D01*
X174164250Y-91065000D01*
X173573691Y-91065000D01*
X173340302Y-91161673D01*
X173161673Y-91340301D01*
X173065000Y-91573690D01*
X170922316Y-91573690D01*
X170898157Y-91452235D01*
X170757809Y-91242191D01*
X170547765Y-91101843D01*
X170300000Y-91052560D01*
X168800000Y-91052560D01*
X168552235Y-91101843D01*
X168342191Y-91242191D01*
X168201843Y-91452235D01*
X168152560Y-91700000D01*
X165860000Y-91700000D01*
X165860000Y-84500000D01*
X168152560Y-84500000D01*
X168152560Y-85500000D01*
X168201843Y-85747765D01*
X168342191Y-85957809D01*
X168509690Y-86069729D01*
X168526870Y-86156097D01*
X168538097Y-86212537D01*
X168663172Y-86399724D01*
X168706072Y-86463929D01*
X168769528Y-86506329D01*
X170115759Y-87852560D01*
X168800000Y-87852560D01*
X168552235Y-87901843D01*
X168342191Y-88042191D01*
X168201843Y-88252235D01*
X168152560Y-88500000D01*
X168152560Y-89500000D01*
X168201843Y-89747765D01*
X168342191Y-89957809D01*
X168552235Y-90098157D01*
X168800000Y-90147440D01*
X170300000Y-90147440D01*
X170355527Y-90136395D01*
X170365000Y-90145868D01*
X170365000Y-90205874D01*
X170522569Y-90586280D01*
X170813720Y-90877431D01*
X171194126Y-91035000D01*
X171605874Y-91035000D01*
X171986280Y-90877431D01*
X172277431Y-90586280D01*
X172435000Y-90205874D01*
X172435000Y-90060145D01*
X172595148Y-90092000D01*
X172595152Y-90092000D01*
X172670000Y-90106888D01*
X172744848Y-90092000D01*
X173443020Y-90092000D01*
X173452235Y-90098157D01*
X173700000Y-90147440D01*
X175200000Y-90147440D01*
X175447765Y-90098157D01*
X175657809Y-89957809D01*
X175798157Y-89747765D01*
X175847440Y-89500000D01*
X175847440Y-88500000D01*
X175798157Y-88252235D01*
X175657809Y-88042191D01*
X175447765Y-87901843D01*
X175200000Y-87852560D01*
X173700000Y-87852560D01*
X173452235Y-87901843D01*
X173242191Y-88042191D01*
X173101843Y-88252235D01*
X173052560Y-88500000D01*
X173052560Y-88572000D01*
X172984802Y-88572000D01*
X170517065Y-86104264D01*
X170547765Y-86098157D01*
X170757809Y-85957809D01*
X170898157Y-85747765D01*
X170947440Y-85500000D01*
X170947440Y-85285750D01*
X173065000Y-85285750D01*
X173065000Y-85626310D01*
X173161673Y-85859699D01*
X173340302Y-86038327D01*
X173573691Y-86135000D01*
X174164250Y-86135000D01*
X174323000Y-85976250D01*
X174323000Y-85127000D01*
X173223750Y-85127000D01*
X173065000Y-85285750D01*
X170947440Y-85285750D01*
X170947440Y-84500000D01*
X170898157Y-84252235D01*
X170757809Y-84042191D01*
X170547765Y-83901843D01*
X170300000Y-83852560D01*
X168800000Y-83852560D01*
X168552235Y-83901843D01*
X168342191Y-84042191D01*
X168201843Y-84252235D01*
X168152560Y-84500000D01*
X165860000Y-84500000D01*
X165860000Y-83255646D01*
X165874888Y-83180799D01*
X165860000Y-83105952D01*
X165860000Y-83105948D01*
X165815904Y-82884263D01*
X165728583Y-82753578D01*
X165690329Y-82696326D01*
X165690327Y-82696324D01*
X165647929Y-82632871D01*
X165584476Y-82590473D01*
X164294003Y-81300000D01*
X168152560Y-81300000D01*
X168152560Y-82300000D01*
X168201843Y-82547765D01*
X168342191Y-82757809D01*
X168552235Y-82898157D01*
X168800000Y-82947440D01*
X170300000Y-82947440D01*
X170522346Y-82903213D01*
X170565000Y-82945868D01*
X170565000Y-83005874D01*
X170722569Y-83386280D01*
X171013720Y-83677431D01*
X171394126Y-83835000D01*
X171805874Y-83835000D01*
X172186280Y-83677431D01*
X172477431Y-83386280D01*
X172635000Y-83005874D01*
X172635000Y-82594126D01*
X172477431Y-82213720D01*
X172186280Y-81922569D01*
X171805874Y-81765000D01*
X171745868Y-81765000D01*
X171248587Y-81267720D01*
X171202001Y-81197999D01*
X170925801Y-81013448D01*
X170864030Y-81001161D01*
X170757809Y-80842191D01*
X170547765Y-80701843D01*
X170300000Y-80652560D01*
X168800000Y-80652560D01*
X168552235Y-80701843D01*
X168342191Y-80842191D01*
X168201843Y-81052235D01*
X168152560Y-81300000D01*
X164294003Y-81300000D01*
X163962440Y-80968438D01*
X163962440Y-80345800D01*
X163913157Y-80098035D01*
X163772809Y-79887991D01*
X163747081Y-79870800D01*
X163772809Y-79853609D01*
X163913157Y-79643565D01*
X163962440Y-79395800D01*
X163962440Y-78345800D01*
X163913157Y-78098035D01*
X163772809Y-77887991D01*
X163747081Y-77870800D01*
X163772809Y-77853609D01*
X163913157Y-77643565D01*
X163962440Y-77395800D01*
X163962440Y-76504058D01*
X164112771Y-76849341D01*
X164423511Y-77692571D01*
X164686156Y-78556203D01*
X164902128Y-79450022D01*
X165036784Y-80079406D01*
X165039717Y-80109664D01*
X165051891Y-80150019D01*
X165060711Y-80191243D01*
X165072749Y-80219160D01*
X165081808Y-80249187D01*
X165080905Y-80272056D01*
X165123819Y-80388446D01*
X165138330Y-80436548D01*
X165148810Y-80456228D01*
X165156526Y-80477154D01*
X165182778Y-80520011D01*
X165241080Y-80629489D01*
X165251845Y-80638351D01*
X165287212Y-80710670D01*
X165368797Y-80782695D01*
X165442654Y-80862624D01*
X165517533Y-80897161D01*
X165574477Y-80942804D01*
X165688175Y-80975866D01*
X165708173Y-80985090D01*
X165717657Y-80985464D01*
X165819826Y-81020522D01*
X165876979Y-81016966D01*
X165932457Y-81030352D01*
X166060097Y-81010286D01*
X166188537Y-80996138D01*
X166248645Y-80963112D01*
X166337131Y-80927024D01*
X166393037Y-80906472D01*
X166404095Y-80899713D01*
X166416090Y-80894821D01*
X166465778Y-80862011D01*
X166579551Y-80792470D01*
X166587388Y-80781709D01*
X166820402Y-80627844D01*
X167450161Y-80239028D01*
X168084919Y-79911150D01*
X168736600Y-79635151D01*
X169402811Y-79410871D01*
X170081112Y-79238232D01*
X170769076Y-79117185D01*
X171464242Y-79047715D01*
X172164072Y-79029840D01*
X172866119Y-79063608D01*
X173567782Y-79149066D01*
X174266524Y-79286273D01*
X174959819Y-79475333D01*
X175645086Y-79716325D01*
X176319727Y-80009354D01*
X176981212Y-80354562D01*
X177630793Y-80754462D01*
X178207729Y-81157743D01*
X178754118Y-81579717D01*
X179266268Y-82017452D01*
X179744289Y-82470691D01*
X180188382Y-82939252D01*
X180598785Y-83423054D01*
X180975690Y-83921944D01*
X181319320Y-84436010D01*
X181629852Y-84965205D01*
X181907432Y-85509745D01*
X182152166Y-86069798D01*
X182364105Y-86645557D01*
X182543202Y-87237240D01*
X182689366Y-87845071D01*
X182802404Y-88469209D01*
X182881511Y-89105186D01*
X182923834Y-89843566D01*
X182907416Y-90562088D01*
X182833912Y-91261213D01*
X182704557Y-91937143D01*
X182520753Y-92586214D01*
X182280815Y-93212882D01*
X182146473Y-93502075D01*
X181995787Y-93790069D01*
X181832525Y-94068757D01*
X181647964Y-94351322D01*
X181420004Y-94696285D01*
X181398516Y-94722382D01*
X181380194Y-94756527D01*
X181358829Y-94788858D01*
X181346051Y-94820158D01*
X181303051Y-94900293D01*
X181250833Y-94967940D01*
X181215613Y-95097883D01*
X181176319Y-95226673D01*
X181177474Y-95238596D01*
X181174340Y-95250159D01*
X181191530Y-95383704D01*
X181204510Y-95517710D01*
X181210140Y-95528283D01*
X181211669Y-95540165D01*
X181278652Y-95656959D01*
X181341931Y-95775806D01*
X181351180Y-95783421D01*
X181357139Y-95793812D01*
X181463720Y-95876084D01*
X181567661Y-95961667D01*
X181649398Y-95986605D01*
X182270553Y-96295155D01*
X182587806Y-96462422D01*
X182888716Y-96644398D01*
X183184082Y-96846389D01*
X183472463Y-97067245D01*
X183752548Y-97305724D01*
X184022910Y-97560419D01*
X184282240Y-97830018D01*
X184529267Y-98113089D01*
X184762672Y-98408105D01*
X184981264Y-98713663D01*
X185183893Y-99028252D01*
X185369398Y-99350247D01*
X185536699Y-99678144D01*
X185684767Y-100010321D01*
X185812663Y-100345238D01*
X185917008Y-100673438D01*
X185981941Y-100956378D01*
X186035600Y-101312365D01*
X186075195Y-101725859D01*
X186098352Y-102173198D01*
X186103972Y-102632963D01*
X186091303Y-103084482D01*
X186060516Y-103506474D01*
X186012188Y-103880631D01*
X185909284Y-104410074D01*
X185776916Y-104929393D01*
X185616306Y-105435354D01*
X185428229Y-105927039D01*
X185213507Y-106403494D01*
X184972933Y-106863625D01*
X184707303Y-107306464D01*
X184417388Y-107731019D01*
X184103982Y-108136276D01*
X183767893Y-108521159D01*
X183409824Y-108884760D01*
X183030551Y-109226102D01*
X182630828Y-109544212D01*
X182211362Y-109838054D01*
X181772848Y-110106674D01*
X181314736Y-110349763D01*
X180706064Y-110628511D01*
X180101146Y-110861574D01*
X179459479Y-111063212D01*
X178732246Y-111248653D01*
X178079491Y-111399589D01*
X176438488Y-111400002D01*
X176447765Y-111398157D01*
X176657809Y-111257809D01*
X176798157Y-111047765D01*
X176847440Y-110800000D01*
X176847440Y-109800000D01*
X176798157Y-109552235D01*
X176657809Y-109342191D01*
X176642704Y-109332098D01*
X176755713Y-109219089D01*
X176794126Y-109235000D01*
X177205874Y-109235000D01*
X177586280Y-109077431D01*
X177877431Y-108786280D01*
X178035000Y-108405874D01*
X178035000Y-107994126D01*
X177877431Y-107613720D01*
X177586280Y-107322569D01*
X177205874Y-107165000D01*
X176818974Y-107165000D01*
X176835000Y-107126310D01*
X176835000Y-106785750D01*
X176676250Y-106627000D01*
X175477000Y-106627000D01*
X175477000Y-107476250D01*
X175635750Y-107635000D01*
X176113755Y-107635000D01*
X176059702Y-107765496D01*
X174865528Y-108959671D01*
X174802072Y-109002071D01*
X174759672Y-109065527D01*
X174759671Y-109065528D01*
X174701518Y-109152560D01*
X174500000Y-109152560D01*
X174252235Y-109201843D01*
X174042191Y-109342191D01*
X173910018Y-109540000D01*
X173303711Y-109540000D01*
X173186280Y-109422569D01*
X172805874Y-109265000D01*
X172394126Y-109265000D01*
X172013720Y-109422569D01*
X171896289Y-109540000D01*
X170489982Y-109540000D01*
X170357809Y-109342191D01*
X170147765Y-109201843D01*
X169900000Y-109152560D01*
X168200000Y-109152560D01*
X167952235Y-109201843D01*
X167742191Y-109342191D01*
X167601843Y-109552235D01*
X167552560Y-109800000D01*
X167552560Y-110800000D01*
X167601843Y-111047765D01*
X167742191Y-111257809D01*
X167952235Y-111398157D01*
X167972224Y-111402133D01*
X142416668Y-111408565D01*
X117092538Y-111405389D01*
X106488070Y-111387544D01*
X106428860Y-111373426D01*
X106390290Y-111379596D01*
X105880706Y-111307599D01*
X105281147Y-111184172D01*
X104684706Y-111023026D01*
X104095311Y-110825432D01*
X103516852Y-110592712D01*
X102953141Y-110326279D01*
X102408031Y-110027702D01*
X101886907Y-109699510D01*
X101605825Y-109494615D01*
X101285465Y-109232914D01*
X100941575Y-108927618D01*
X100591015Y-108594208D01*
X100249367Y-108247712D01*
X99931710Y-107903063D01*
X99843913Y-107800000D01*
X101345000Y-107800000D01*
X101465156Y-108558637D01*
X101813863Y-109243013D01*
X102356987Y-109786137D01*
X103041363Y-110134844D01*
X103800000Y-110255000D01*
X104558637Y-110134844D01*
X105243013Y-109786137D01*
X105786137Y-109243013D01*
X106134844Y-108558637D01*
X106255000Y-107800000D01*
X106134844Y-107041363D01*
X106004603Y-106785750D01*
X167565000Y-106785750D01*
X167565000Y-107126310D01*
X167661673Y-107359699D01*
X167840302Y-107538327D01*
X168073691Y-107635000D01*
X168764250Y-107635000D01*
X168923000Y-107476250D01*
X168923000Y-106627000D01*
X169177000Y-106627000D01*
X169177000Y-107476250D01*
X169335750Y-107635000D01*
X170026309Y-107635000D01*
X170259698Y-107538327D01*
X170438327Y-107359699D01*
X170535000Y-107126310D01*
X170535000Y-106785750D01*
X173865000Y-106785750D01*
X173865000Y-107126310D01*
X173961673Y-107359699D01*
X174140302Y-107538327D01*
X174373691Y-107635000D01*
X175064250Y-107635000D01*
X175223000Y-107476250D01*
X175223000Y-106627000D01*
X174023750Y-106627000D01*
X173865000Y-106785750D01*
X170535000Y-106785750D01*
X170376250Y-106627000D01*
X169177000Y-106627000D01*
X168923000Y-106627000D01*
X167723750Y-106627000D01*
X167565000Y-106785750D01*
X106004603Y-106785750D01*
X105786137Y-106356987D01*
X105243013Y-105813863D01*
X104558637Y-105465156D01*
X103800000Y-105345000D01*
X103041363Y-105465156D01*
X102356987Y-105813863D01*
X101813863Y-106356987D01*
X101465156Y-107041363D01*
X101345000Y-107800000D01*
X99843913Y-107800000D01*
X99653581Y-107576574D01*
X99428073Y-107282589D01*
X99223190Y-106979729D01*
X99016169Y-106642228D01*
X98604561Y-105879826D01*
X98247720Y-105096521D01*
X98106856Y-104734537D01*
X97991751Y-104392767D01*
X97878409Y-103995633D01*
X97780015Y-103592728D01*
X97753860Y-103464416D01*
X111487000Y-103464416D01*
X111487000Y-103876164D01*
X111644569Y-104256570D01*
X111935720Y-104547721D01*
X112316126Y-104705290D01*
X112482199Y-104705290D01*
X113061381Y-105284473D01*
X113103781Y-105347929D01*
X113355173Y-105515904D01*
X113576858Y-105560000D01*
X113576862Y-105560000D01*
X113651709Y-105574888D01*
X113726556Y-105560000D01*
X118096289Y-105560000D01*
X118213720Y-105677431D01*
X118594126Y-105835000D01*
X119005874Y-105835000D01*
X119386280Y-105677431D01*
X119677431Y-105386280D01*
X119835000Y-105005874D01*
X119835000Y-104594126D01*
X119677431Y-104213720D01*
X119386280Y-103922569D01*
X119005874Y-103765000D01*
X118594126Y-103765000D01*
X118213720Y-103922569D01*
X118096289Y-104040000D01*
X113966512Y-104040000D01*
X113557000Y-103630489D01*
X113557000Y-103464416D01*
X113399431Y-103084010D01*
X113108280Y-102792859D01*
X112727874Y-102635290D01*
X112316126Y-102635290D01*
X111935720Y-102792859D01*
X111644569Y-103084010D01*
X111487000Y-103464416D01*
X97753860Y-103464416D01*
X97697368Y-103187286D01*
X97631616Y-102787076D01*
X97544356Y-101962850D01*
X97520566Y-101138535D01*
X97532133Y-100738523D01*
X97559582Y-100333331D01*
X97602691Y-99930472D01*
X97661421Y-99530665D01*
X97735747Y-99134496D01*
X97790865Y-98894122D01*
X110665000Y-98894122D01*
X110665000Y-99305870D01*
X110822569Y-99686276D01*
X110907979Y-99771686D01*
X110761990Y-100124134D01*
X110761990Y-100535882D01*
X110909500Y-100892005D01*
X110761990Y-101248127D01*
X110761990Y-101659875D01*
X110919559Y-102040281D01*
X111210710Y-102331432D01*
X111591116Y-102489001D01*
X112002864Y-102489001D01*
X112383270Y-102331432D01*
X112500701Y-102214001D01*
X114747699Y-102214001D01*
X114865130Y-102331432D01*
X115245536Y-102489001D01*
X115657284Y-102489001D01*
X116037690Y-102331432D01*
X116174998Y-102194124D01*
X117165000Y-102194124D01*
X117165000Y-102605872D01*
X117322569Y-102986278D01*
X117613720Y-103277429D01*
X117994126Y-103434998D01*
X118325312Y-103434998D01*
X118418730Y-103453580D01*
X118418734Y-103453580D01*
X118493582Y-103468468D01*
X118568430Y-103453580D01*
X119750159Y-103453580D01*
X119867590Y-103571011D01*
X120247996Y-103728580D01*
X120659744Y-103728580D01*
X121040150Y-103571011D01*
X121217033Y-103394128D01*
X141065000Y-103394128D01*
X141065000Y-103805876D01*
X141222569Y-104186282D01*
X141513720Y-104477433D01*
X141894126Y-104635002D01*
X142060199Y-104635002D01*
X143009669Y-105584473D01*
X143052069Y-105647929D01*
X143303461Y-105815904D01*
X143525146Y-105860000D01*
X143525150Y-105860000D01*
X143599998Y-105874888D01*
X143674846Y-105860000D01*
X143996289Y-105860000D01*
X144113720Y-105977431D01*
X144494126Y-106135000D01*
X144905874Y-106135000D01*
X145286280Y-105977431D01*
X145390021Y-105873690D01*
X167565000Y-105873690D01*
X167565000Y-106214250D01*
X167723750Y-106373000D01*
X168923000Y-106373000D01*
X168923000Y-105523750D01*
X169177000Y-105523750D01*
X169177000Y-106373000D01*
X170376250Y-106373000D01*
X170535000Y-106214250D01*
X170535000Y-105873690D01*
X173865000Y-105873690D01*
X173865000Y-106214250D01*
X174023750Y-106373000D01*
X175223000Y-106373000D01*
X175223000Y-105523750D01*
X175477000Y-105523750D01*
X175477000Y-106373000D01*
X176676250Y-106373000D01*
X176835000Y-106214250D01*
X176835000Y-105873690D01*
X176738327Y-105640301D01*
X176559698Y-105461673D01*
X176326309Y-105365000D01*
X175635750Y-105365000D01*
X175477000Y-105523750D01*
X175223000Y-105523750D01*
X175064250Y-105365000D01*
X174373691Y-105365000D01*
X174140302Y-105461673D01*
X173961673Y-105640301D01*
X173865000Y-105873690D01*
X170535000Y-105873690D01*
X170438327Y-105640301D01*
X170259698Y-105461673D01*
X170026309Y-105365000D01*
X169335750Y-105365000D01*
X169177000Y-105523750D01*
X168923000Y-105523750D01*
X168764250Y-105365000D01*
X168073691Y-105365000D01*
X167840302Y-105461673D01*
X167661673Y-105640301D01*
X167565000Y-105873690D01*
X145390021Y-105873690D01*
X145577431Y-105686280D01*
X145735000Y-105305874D01*
X145735000Y-104898678D01*
X145786280Y-104877437D01*
X146077431Y-104586286D01*
X146235000Y-104205880D01*
X146235000Y-103794132D01*
X146206332Y-103724921D01*
X146493666Y-103437587D01*
X146633498Y-103100000D01*
X180933000Y-103100000D01*
X181053156Y-103858637D01*
X181401863Y-104543013D01*
X181944987Y-105086137D01*
X182629363Y-105434844D01*
X183388000Y-105555000D01*
X184146637Y-105434844D01*
X184831013Y-105086137D01*
X185374137Y-104543013D01*
X185722844Y-103858637D01*
X185843000Y-103100000D01*
X185722844Y-102341363D01*
X185374137Y-101656987D01*
X184831013Y-101113863D01*
X184146637Y-100765156D01*
X183388000Y-100645000D01*
X182629363Y-100765156D01*
X181944987Y-101113863D01*
X181401863Y-101656987D01*
X181053156Y-102341363D01*
X180933000Y-103100000D01*
X146633498Y-103100000D01*
X146651235Y-103057181D01*
X146651235Y-102645433D01*
X146493666Y-102265027D01*
X146202515Y-101973876D01*
X145822109Y-101816307D01*
X145410361Y-101816307D01*
X145030234Y-101973761D01*
X144895352Y-101648126D01*
X171177000Y-101648126D01*
X171177000Y-102059874D01*
X171334569Y-102440280D01*
X171625720Y-102731431D01*
X172006126Y-102889000D01*
X172417874Y-102889000D01*
X172798280Y-102731431D01*
X172915711Y-102614000D01*
X173958155Y-102614000D01*
X174033002Y-102628888D01*
X174107849Y-102614000D01*
X174107854Y-102614000D01*
X174329539Y-102569904D01*
X174580931Y-102401929D01*
X174623333Y-102338470D01*
X177464482Y-99497322D01*
X177527938Y-99454922D01*
X177695913Y-99203530D01*
X177740009Y-98981845D01*
X177740009Y-98981841D01*
X177754897Y-98906994D01*
X177740009Y-98832147D01*
X177740009Y-85616855D01*
X177754897Y-85542008D01*
X177740009Y-85467161D01*
X177740009Y-85467157D01*
X177695913Y-85245472D01*
X177527938Y-84994080D01*
X177464482Y-84951680D01*
X175417065Y-82904264D01*
X175447765Y-82898157D01*
X175657809Y-82757809D01*
X175798157Y-82547765D01*
X175847440Y-82300000D01*
X175847440Y-81300000D01*
X175798157Y-81052235D01*
X175657809Y-80842191D01*
X175447765Y-80701843D01*
X175200000Y-80652560D01*
X173700000Y-80652560D01*
X173452235Y-80701843D01*
X173242191Y-80842191D01*
X173101843Y-81052235D01*
X173052560Y-81300000D01*
X173052560Y-82300000D01*
X173101843Y-82547765D01*
X173242191Y-82757809D01*
X173409690Y-82869729D01*
X173427681Y-82960173D01*
X173438097Y-83012537D01*
X173553681Y-83185520D01*
X173606072Y-83263929D01*
X173669528Y-83306329D01*
X174322998Y-83959799D01*
X174322998Y-84023748D01*
X174164250Y-83865000D01*
X173573691Y-83865000D01*
X173340302Y-83961673D01*
X173161673Y-84140301D01*
X173065000Y-84373690D01*
X173065000Y-84714250D01*
X173223750Y-84873000D01*
X174323000Y-84873000D01*
X174323000Y-84853000D01*
X174577000Y-84853000D01*
X174577000Y-84873000D01*
X174597000Y-84873000D01*
X174597000Y-85127000D01*
X174577000Y-85127000D01*
X174577000Y-85976250D01*
X174735750Y-86135000D01*
X175326309Y-86135000D01*
X175559698Y-86038327D01*
X175738327Y-85859699D01*
X175835000Y-85626310D01*
X175835000Y-85471802D01*
X176220009Y-85856811D01*
X176220010Y-98592190D01*
X175835000Y-98977200D01*
X175835000Y-98773690D01*
X175738327Y-98540301D01*
X175559698Y-98361673D01*
X175326309Y-98265000D01*
X174735750Y-98265000D01*
X174577000Y-98423750D01*
X174577000Y-99273000D01*
X174597000Y-99273000D01*
X174597000Y-99527000D01*
X174577000Y-99527000D01*
X174577000Y-99547000D01*
X174323000Y-99547000D01*
X174323000Y-99527000D01*
X173223750Y-99527000D01*
X173065000Y-99685750D01*
X173065000Y-100026310D01*
X173161673Y-100259699D01*
X173340302Y-100438327D01*
X173573691Y-100535000D01*
X174164250Y-100535000D01*
X174322998Y-100376252D01*
X174322998Y-100489203D01*
X173718201Y-101094000D01*
X172915711Y-101094000D01*
X172798280Y-100976569D01*
X172417874Y-100819000D01*
X172006126Y-100819000D01*
X171625720Y-100976569D01*
X171334569Y-101267720D01*
X171177000Y-101648126D01*
X144895352Y-101648126D01*
X144885759Y-101624967D01*
X144594608Y-101333816D01*
X144214202Y-101176247D01*
X143802454Y-101176247D01*
X143422048Y-101333816D01*
X143130897Y-101624967D01*
X143072894Y-101765000D01*
X142894136Y-101765000D01*
X142513730Y-101922569D01*
X142222579Y-102213720D01*
X142077074Y-102565002D01*
X141894126Y-102565002D01*
X141513720Y-102722571D01*
X141222569Y-103013722D01*
X141065000Y-103394128D01*
X121217033Y-103394128D01*
X121331301Y-103279860D01*
X121488870Y-102899454D01*
X121488870Y-102487706D01*
X121463917Y-102427463D01*
X121580090Y-102311290D01*
X121737659Y-101930884D01*
X121737659Y-101519136D01*
X121580090Y-101138730D01*
X121288939Y-100847579D01*
X120908533Y-100690010D01*
X120496785Y-100690010D01*
X120493426Y-100691401D01*
X120431650Y-100679113D01*
X120356803Y-100694001D01*
X119503711Y-100694001D01*
X119386280Y-100576570D01*
X119005874Y-100419001D01*
X118594126Y-100419001D01*
X118213720Y-100576570D01*
X117922569Y-100867721D01*
X117765000Y-101248127D01*
X117765000Y-101459905D01*
X117613720Y-101522567D01*
X117322569Y-101813718D01*
X117165000Y-102194124D01*
X116174998Y-102194124D01*
X116328841Y-102040281D01*
X116486410Y-101659875D01*
X116486410Y-101560010D01*
X116605874Y-101560010D01*
X116986280Y-101402441D01*
X117277431Y-101111290D01*
X117435000Y-100730884D01*
X117435000Y-100319136D01*
X117277431Y-99938730D01*
X116986280Y-99647579D01*
X116605874Y-99490010D01*
X116194126Y-99490010D01*
X116000993Y-99570008D01*
X114653238Y-99570008D01*
X114707782Y-99515464D01*
X114865351Y-99135058D01*
X114865351Y-98798350D01*
X115077431Y-98586270D01*
X115235000Y-98205864D01*
X115235000Y-97794116D01*
X115077431Y-97413710D01*
X114786280Y-97122559D01*
X114405874Y-96964990D01*
X113994126Y-96964990D01*
X113613720Y-97122559D01*
X113496283Y-97239996D01*
X112503711Y-97239996D01*
X112386280Y-97122565D01*
X112005874Y-96964996D01*
X111594126Y-96964996D01*
X111213720Y-97122565D01*
X110922569Y-97413716D01*
X110765000Y-97794122D01*
X110765000Y-98205870D01*
X110872027Y-98464258D01*
X110822569Y-98513716D01*
X110665000Y-98894122D01*
X97790865Y-98894122D01*
X97825628Y-98742522D01*
X97931032Y-98355347D01*
X98050887Y-97976838D01*
X98278643Y-97366623D01*
X98537744Y-96783026D01*
X98828258Y-96223637D01*
X99149003Y-95689303D01*
X99498843Y-95180994D01*
X99876636Y-94699540D01*
X100281288Y-94245936D01*
X100711704Y-93820980D01*
X101166798Y-93425684D01*
X101645541Y-93060934D01*
X102146908Y-92727617D01*
X102669864Y-92426753D01*
X103213479Y-92159230D01*
X103776785Y-91926045D01*
X104358791Y-91728175D01*
X104970055Y-91563637D01*
X105641605Y-91405883D01*
X105724217Y-91401042D01*
X105847780Y-91341167D01*
X105972789Y-91284277D01*
X105979071Y-91277548D01*
X105987352Y-91273535D01*
X106078601Y-91170927D01*
X106172318Y-91070534D01*
X106175546Y-91061914D01*
X106181662Y-91055037D01*
X106226705Y-90925303D01*
X106274863Y-90796706D01*
X106272019Y-90714002D01*
X106302769Y-90492299D01*
X106396935Y-90041787D01*
X106564217Y-89463865D01*
X106774470Y-88858897D01*
X106992136Y-88336577D01*
X107176999Y-87963734D01*
X107381841Y-87592513D01*
X107565001Y-87292365D01*
X107565000Y-89282236D01*
X107565001Y-89282240D01*
X107565000Y-90054131D01*
X105267718Y-92351415D01*
X105198000Y-92397999D01*
X105139367Y-92485750D01*
X105013448Y-92674200D01*
X104948643Y-93000000D01*
X104965001Y-93082237D01*
X104965001Y-93371288D01*
X104922569Y-93413720D01*
X104765000Y-93794126D01*
X104765000Y-94205874D01*
X104922569Y-94586280D01*
X105213720Y-94877431D01*
X105594126Y-95035000D01*
X106005874Y-95035000D01*
X106386280Y-94877431D01*
X106677431Y-94586280D01*
X106835000Y-94205874D01*
X106835000Y-93794126D01*
X106721506Y-93520126D01*
X141459000Y-93520126D01*
X141459000Y-93931874D01*
X141616569Y-94312280D01*
X141907720Y-94603431D01*
X142288126Y-94761000D01*
X142699874Y-94761000D01*
X143080280Y-94603431D01*
X143197711Y-94486000D01*
X143614372Y-94486000D01*
X143614372Y-94605874D01*
X143771941Y-94986280D01*
X144063092Y-95277431D01*
X144443498Y-95435000D01*
X144855246Y-95435000D01*
X145235652Y-95277431D01*
X145526803Y-94986280D01*
X145684372Y-94605874D01*
X145684372Y-94194126D01*
X145526803Y-93813720D01*
X145235652Y-93522569D01*
X144855246Y-93365000D01*
X144689173Y-93365000D01*
X144565703Y-93241530D01*
X144523301Y-93178071D01*
X144271909Y-93010096D01*
X144050224Y-92966000D01*
X144050219Y-92966000D01*
X143975372Y-92951112D01*
X143900525Y-92966000D01*
X143197711Y-92966000D01*
X143080280Y-92848569D01*
X142699874Y-92691000D01*
X142288126Y-92691000D01*
X141907720Y-92848569D01*
X141616569Y-93139720D01*
X141459000Y-93520126D01*
X106721506Y-93520126D01*
X106677431Y-93413720D01*
X106635000Y-93371289D01*
X106635000Y-93345867D01*
X108932286Y-91048583D01*
X109002001Y-91002001D01*
X109050180Y-90929897D01*
X109186552Y-90725801D01*
X109192051Y-90698154D01*
X109235000Y-90482237D01*
X109235000Y-90482234D01*
X109251357Y-90400001D01*
X109235000Y-90317768D01*
X109235000Y-87228711D01*
X109477431Y-86986280D01*
X109635000Y-86605874D01*
X109635000Y-86194126D01*
X109477431Y-85813720D01*
X109186280Y-85522569D01*
X109044948Y-85464028D01*
X109253159Y-85262762D01*
X109579357Y-84972426D01*
X109919425Y-84693716D01*
X110272946Y-84427060D01*
X110639671Y-84172836D01*
X111019270Y-83931371D01*
X111411435Y-83703063D01*
X111805627Y-83493668D01*
X112455079Y-83205074D01*
X113265378Y-82903151D01*
X114081701Y-82642760D01*
X114755531Y-82474285D01*
X115096378Y-82408549D01*
X115164579Y-82409973D01*
X115238537Y-82381132D01*
X115244019Y-82380075D01*
X115305956Y-82354842D01*
X115436999Y-82303740D01*
X115441143Y-82299766D01*
X115446459Y-82297600D01*
X115546527Y-82198691D01*
X115648028Y-82101342D01*
X115650334Y-82096088D01*
X115654419Y-82092050D01*
X115709035Y-81962339D01*
X115735878Y-81901177D01*
X115737079Y-81895734D01*
X115767888Y-81822564D01*
X115768286Y-81754343D01*
X115879219Y-81251718D01*
X116044699Y-80630780D01*
X116257867Y-80037265D01*
X116520837Y-79457769D01*
X116555452Y-79395035D01*
X117165000Y-79395035D01*
X117165000Y-79806783D01*
X117322569Y-80187189D01*
X117613720Y-80478340D01*
X117994126Y-80635909D01*
X118405874Y-80635909D01*
X118786280Y-80478340D01*
X118828357Y-80436263D01*
X122823937Y-80438514D01*
X122866722Y-80481299D01*
X123247128Y-80638868D01*
X123658876Y-80638868D01*
X124039282Y-80481299D01*
X124330433Y-80190148D01*
X124488002Y-79809742D01*
X124488002Y-79397994D01*
X124330433Y-79017588D01*
X124039282Y-78726437D01*
X123658876Y-78568868D01*
X123247128Y-78568868D01*
X122866722Y-78726437D01*
X122824645Y-78768514D01*
X118829065Y-78766263D01*
X118786280Y-78723478D01*
X118405874Y-78565909D01*
X117994126Y-78565909D01*
X117613720Y-78723478D01*
X117322569Y-79014629D01*
X117165000Y-79395035D01*
X116555452Y-79395035D01*
X116831438Y-78894860D01*
X117187415Y-78351132D01*
X117586359Y-77829314D01*
X118025798Y-77332096D01*
X118503118Y-76862235D01*
X119015668Y-76422401D01*
X119364022Y-76162180D01*
X122383000Y-76162180D01*
X122383000Y-76593820D01*
X122548182Y-76992603D01*
X122853397Y-77297818D01*
X123252180Y-77463000D01*
X123683820Y-77463000D01*
X124082603Y-77297818D01*
X124387818Y-76992603D01*
X124553000Y-76593820D01*
X124553000Y-76162180D01*
X125383000Y-76162180D01*
X125383000Y-76593820D01*
X125548182Y-76992603D01*
X125853397Y-77297818D01*
X126252180Y-77463000D01*
X126683820Y-77463000D01*
X127082603Y-77297818D01*
X127387818Y-76992603D01*
X127553000Y-76593820D01*
X127553000Y-76162180D01*
X127387818Y-75763397D01*
X127082603Y-75458182D01*
X126683820Y-75293000D01*
X126252180Y-75293000D01*
X125853397Y-75458182D01*
X125548182Y-75763397D01*
X125383000Y-76162180D01*
X124553000Y-76162180D01*
X124387818Y-75763397D01*
X124082603Y-75458182D01*
X123683820Y-75293000D01*
X123252180Y-75293000D01*
X122853397Y-75458182D01*
X122548182Y-75763397D01*
X122383000Y-76162180D01*
X119364022Y-76162180D01*
X119560731Y-76015239D01*
X120135522Y-75643348D01*
X120737272Y-75309246D01*
X121363156Y-75015422D01*
X122010394Y-74764259D01*
X122676218Y-74558100D01*
X123356521Y-74399552D01*
X123657600Y-74353389D01*
X124032581Y-74317366D01*
X124931966Y-74280956D01*
X125830334Y-74299167D01*
X126203770Y-74327564D01*
X126503411Y-74367631D01*
X126995187Y-74471616D01*
X127506121Y-74613238D01*
X128023718Y-74788590D01*
X128537405Y-74993695D01*
X129036947Y-75224281D01*
X129512139Y-75475689D01*
X129952793Y-75742810D01*
X130346348Y-76018168D01*
X130872321Y-76456418D01*
X131417303Y-76983182D01*
X131924698Y-77542062D01*
X132135584Y-77801909D01*
X132324219Y-78057870D01*
X132746527Y-78651648D01*
X132824310Y-78766086D01*
X132892586Y-78810928D01*
X132952006Y-78866979D01*
X133013615Y-78890418D01*
X133068712Y-78926604D01*
X133110079Y-78934492D01*
X133118441Y-78939416D01*
X133156424Y-78944748D01*
X133225297Y-78970950D01*
X133322809Y-78968105D01*
X133408001Y-78980064D01*
X133470913Y-78963783D01*
X133517573Y-78962422D01*
X133565013Y-78941130D01*
X133657657Y-78921938D01*
X133673054Y-78911473D01*
X133691076Y-78906809D01*
X133764054Y-78851799D01*
X133784338Y-78842695D01*
X133802377Y-78823572D01*
X133836363Y-78800471D01*
X133862368Y-78786642D01*
X133869577Y-78777896D01*
X133899484Y-78757568D01*
X133949949Y-78680731D01*
X133984802Y-78641669D01*
X133992167Y-78629161D01*
X134001400Y-78617959D01*
X134028849Y-78566866D01*
X134095718Y-78453304D01*
X134097265Y-78442286D01*
X134112207Y-78418518D01*
X134121216Y-78394933D01*
X134133162Y-78372697D01*
X134146986Y-78327469D01*
X134282577Y-77972506D01*
X134288194Y-77962948D01*
X134308380Y-77904956D01*
X134330283Y-77847616D01*
X134332142Y-77836691D01*
X134403197Y-77632558D01*
X134345000Y-78000000D01*
X134465156Y-78758637D01*
X134813863Y-79443013D01*
X135356987Y-79986137D01*
X136041363Y-80334844D01*
X136800000Y-80455000D01*
X137558637Y-80334844D01*
X138243013Y-79986137D01*
X138786137Y-79443013D01*
X139134844Y-78758637D01*
X139255000Y-78000000D01*
X139134844Y-77241363D01*
X138786137Y-76556987D01*
X138243013Y-76013863D01*
X137558637Y-75665156D01*
X136800000Y-75545000D01*
X136041363Y-75665156D01*
X135356987Y-76013863D01*
X134826730Y-76544120D01*
X134866104Y-76450602D01*
X135075502Y-75994234D01*
X135542773Y-75091244D01*
X136060221Y-74229000D01*
X136628353Y-73404328D01*
X136878574Y-73085750D01*
X138725000Y-73085750D01*
X138725000Y-73626310D01*
X138821673Y-73859699D01*
X139000302Y-74038327D01*
X139233691Y-74135000D01*
X139634250Y-74135000D01*
X139793000Y-73976250D01*
X139793000Y-72927000D01*
X138883750Y-72927000D01*
X138725000Y-73085750D01*
X136878574Y-73085750D01*
X137245017Y-72619201D01*
X137820625Y-71973690D01*
X138725000Y-71973690D01*
X138725000Y-72514250D01*
X138883750Y-72673000D01*
X139793000Y-72673000D01*
X139793000Y-71623750D01*
X140047000Y-71623750D01*
X140047000Y-72673000D01*
X140067000Y-72673000D01*
X140067000Y-72927000D01*
X140047000Y-72927000D01*
X140047000Y-73976250D01*
X140205750Y-74135000D01*
X140606309Y-74135000D01*
X140804508Y-74052903D01*
X140872235Y-74098157D01*
X141120000Y-74147440D01*
X142240000Y-74147440D01*
X142487765Y-74098157D01*
X142622996Y-74007798D01*
X142840001Y-74224803D01*
X142840000Y-75096289D01*
X142722569Y-75213720D01*
X142565000Y-75594126D01*
X142565000Y-76005874D01*
X142722569Y-76386280D01*
X143013720Y-76677431D01*
X143394126Y-76835000D01*
X143805874Y-76835000D01*
X144186280Y-76677431D01*
X144477431Y-76386280D01*
X144635000Y-76005874D01*
X144635000Y-75594126D01*
X144477431Y-75213720D01*
X144360000Y-75096289D01*
X144360000Y-73984846D01*
X144374888Y-73909999D01*
X144360000Y-73835152D01*
X144360000Y-73835148D01*
X144315904Y-73613463D01*
X144147929Y-73362071D01*
X144084473Y-73319671D01*
X143080331Y-72315530D01*
X143037929Y-72252071D01*
X142887440Y-72151517D01*
X142887440Y-72100000D01*
X142838157Y-71852235D01*
X142697809Y-71642191D01*
X142487765Y-71501843D01*
X142240000Y-71452560D01*
X141120000Y-71452560D01*
X140872235Y-71501843D01*
X140804508Y-71547097D01*
X140606309Y-71465000D01*
X140205750Y-71465000D01*
X140047000Y-71623750D01*
X139793000Y-71623750D01*
X139634250Y-71465000D01*
X139233691Y-71465000D01*
X139000302Y-71561673D01*
X138821673Y-71740301D01*
X138725000Y-71973690D01*
X137820625Y-71973690D01*
X137908085Y-71875609D01*
X138615351Y-71175607D01*
X138749377Y-71058550D01*
X143867800Y-71058550D01*
X143867800Y-72939109D01*
X143964473Y-73172498D01*
X144143101Y-73351127D01*
X144376490Y-73447800D01*
X144582285Y-73447800D01*
X144611782Y-73855768D01*
X144720032Y-74117108D01*
X144933600Y-74152395D01*
X145046485Y-74039510D01*
X145123101Y-74116127D01*
X145268749Y-74176456D01*
X145113205Y-74332000D01*
X145148492Y-74545568D01*
X145571364Y-74685949D01*
X146015768Y-74653818D01*
X146277108Y-74545568D01*
X146312395Y-74332000D01*
X146156851Y-74176456D01*
X146302499Y-74116127D01*
X146379115Y-74039510D01*
X146492000Y-74152395D01*
X146705568Y-74117108D01*
X146845949Y-73694236D01*
X146828131Y-73447800D01*
X147049110Y-73447800D01*
X147282499Y-73351127D01*
X147461127Y-73172498D01*
X147557800Y-72939109D01*
X147557800Y-71058550D01*
X147399050Y-70899800D01*
X145839800Y-70899800D01*
X145839800Y-72139550D01*
X145827800Y-72151550D01*
X145827800Y-72421562D01*
X145597800Y-72438192D01*
X145597800Y-72151550D01*
X145585800Y-72139550D01*
X145585800Y-70899800D01*
X144026550Y-70899800D01*
X143867800Y-71058550D01*
X138749377Y-71058550D01*
X139364673Y-70521161D01*
X140153877Y-69914299D01*
X140980799Y-69357031D01*
X141843263Y-68851363D01*
X142328512Y-68606491D01*
X143867800Y-68606491D01*
X143867800Y-70487050D01*
X144026550Y-70645800D01*
X145585800Y-70645800D01*
X145585800Y-68256550D01*
X145839800Y-68256550D01*
X145839800Y-70645800D01*
X147399050Y-70645800D01*
X147557800Y-70487050D01*
X147557800Y-68606491D01*
X147461127Y-68373102D01*
X147282499Y-68194473D01*
X147049110Y-68097800D01*
X145998550Y-68097800D01*
X145839800Y-68256550D01*
X145585800Y-68256550D01*
X145427050Y-68097800D01*
X144376490Y-68097800D01*
X144143101Y-68194473D01*
X143964473Y-68373102D01*
X143867800Y-68606491D01*
X142328512Y-68606491D01*
X142739153Y-68399269D01*
X143671700Y-68000460D01*
X144117719Y-67834338D01*
X144495111Y-67735000D01*
X147610360Y-67735000D01*
X147610360Y-72752800D01*
X147610360Y-72752800D01*
G37*
X147610360Y-72752800D02*
X147659643Y-73000565D01*
X147799991Y-73210609D01*
X148010035Y-73350957D01*
X148257800Y-73400240D01*
X148467800Y-73400240D01*
X148467800Y-73444885D01*
X148467801Y-73444890D01*
X148467800Y-75698360D01*
X146565000Y-75698360D01*
X146317235Y-75747643D01*
X146107191Y-75887991D01*
X145966843Y-76098035D01*
X145917560Y-76345800D01*
X145917560Y-77395800D01*
X145966843Y-77643565D01*
X146107191Y-77853609D01*
X146132919Y-77870800D01*
X146107191Y-77887991D01*
X145966843Y-78098035D01*
X145917560Y-78345800D01*
X145917560Y-79395800D01*
X145966843Y-79643565D01*
X146107191Y-79853609D01*
X146132919Y-79870800D01*
X146107191Y-79887991D01*
X145966843Y-80098035D01*
X145917560Y-80345800D01*
X145917560Y-81395800D01*
X145966843Y-81643565D01*
X146107191Y-81853609D01*
X146132919Y-81870800D01*
X146107191Y-81887991D01*
X145966843Y-82098035D01*
X145917560Y-82345800D01*
X145917560Y-83395800D01*
X145966843Y-83643565D01*
X146107191Y-83853609D01*
X146132919Y-83870800D01*
X146107191Y-83887991D01*
X146008427Y-84035800D01*
X144853237Y-84035800D01*
X144771000Y-84019442D01*
X144688763Y-84035800D01*
X144445199Y-84084248D01*
X144168999Y-84268799D01*
X144142138Y-84309000D01*
X144091926Y-84309000D01*
X143711520Y-84466569D01*
X143420369Y-84757720D01*
X143262800Y-85138126D01*
X143262800Y-85549874D01*
X143420369Y-85930280D01*
X143711520Y-86221431D01*
X144091926Y-86379000D01*
X144503674Y-86379000D01*
X144884080Y-86221431D01*
X145175231Y-85930280D01*
X145268213Y-85705800D01*
X146008427Y-85705800D01*
X146107191Y-85853609D01*
X146132919Y-85870800D01*
X146107191Y-85887991D01*
X145966843Y-86098035D01*
X145917560Y-86345800D01*
X145917560Y-87395800D01*
X145966843Y-87643565D01*
X146107191Y-87853609D01*
X146132919Y-87870800D01*
X146107191Y-87887991D01*
X145966843Y-88098035D01*
X145917560Y-88345800D01*
X145917560Y-89395800D01*
X145966843Y-89643565D01*
X146107191Y-89853609D01*
X146132919Y-89870800D01*
X146107191Y-89887991D01*
X145966843Y-90098035D01*
X145917560Y-90345800D01*
X145917560Y-91395800D01*
X145966843Y-91643565D01*
X146107191Y-91853609D01*
X146317235Y-91993957D01*
X146565000Y-92043240D01*
X146891518Y-92043240D01*
X146941711Y-92118358D01*
X146992072Y-92193729D01*
X147055528Y-92236129D01*
X148937369Y-94117972D01*
X148937370Y-95568944D01*
X148935013Y-95571302D01*
X148886286Y-95522575D01*
X148505880Y-95365006D01*
X148094132Y-95365006D01*
X147713726Y-95522575D01*
X147422575Y-95813726D01*
X147265006Y-96194132D01*
X147265006Y-96605880D01*
X147422575Y-96986286D01*
X147713726Y-97277437D01*
X148094132Y-97435006D01*
X148260205Y-97435006D01*
X148309668Y-97484469D01*
X148352070Y-97547928D01*
X148488593Y-97639150D01*
X144291000Y-97639150D01*
X144291000Y-97584138D01*
X144133431Y-97203732D01*
X143842280Y-96912581D01*
X143461874Y-96755012D01*
X143050126Y-96755012D01*
X142669720Y-96912581D01*
X142378569Y-97203732D01*
X142279172Y-97443699D01*
X141907720Y-97597559D01*
X141616569Y-97888710D01*
X141459000Y-98269116D01*
X141459000Y-98680864D01*
X141616569Y-99061270D01*
X141907720Y-99352421D01*
X142288126Y-99509990D01*
X142476382Y-99509990D01*
X142597462Y-99590893D01*
X142819147Y-99634989D01*
X142819151Y-99634989D01*
X142893998Y-99649877D01*
X142968845Y-99634989D01*
X146451289Y-99634989D01*
X146422569Y-99663709D01*
X146265000Y-100044115D01*
X146265000Y-100455863D01*
X146422569Y-100836269D01*
X146713720Y-101127420D01*
X147094126Y-101284989D01*
X147505874Y-101284989D01*
X147886280Y-101127420D01*
X147923692Y-101090008D01*
X149918289Y-101090008D01*
X150035720Y-101207439D01*
X150416126Y-101365008D01*
X150827874Y-101365008D01*
X151208280Y-101207439D01*
X151499431Y-100916288D01*
X151657000Y-100535882D01*
X151657000Y-100124134D01*
X151499431Y-99743728D01*
X151390692Y-99634989D01*
X153396289Y-99634989D01*
X153513720Y-99752420D01*
X153894126Y-99909989D01*
X154305874Y-99909989D01*
X154686280Y-99752420D01*
X154977431Y-99461269D01*
X155135000Y-99080863D01*
X155135000Y-98900000D01*
X168152560Y-98900000D01*
X168152560Y-99900000D01*
X168201843Y-100147765D01*
X168342191Y-100357809D01*
X168552235Y-100498157D01*
X168800000Y-100547440D01*
X170300000Y-100547440D01*
X170547765Y-100498157D01*
X170757809Y-100357809D01*
X170898157Y-100147765D01*
X170947440Y-99900000D01*
X170947440Y-98900000D01*
X170922316Y-98773690D01*
X173065000Y-98773690D01*
X173065000Y-99114250D01*
X173223750Y-99273000D01*
X174323000Y-99273000D01*
X174323000Y-98423750D01*
X174164250Y-98265000D01*
X173573691Y-98265000D01*
X173340302Y-98361673D01*
X173161673Y-98540301D01*
X173065000Y-98773690D01*
X170922316Y-98773690D01*
X170898157Y-98652235D01*
X170757809Y-98442191D01*
X170547765Y-98301843D01*
X170300000Y-98252560D01*
X168800000Y-98252560D01*
X168552235Y-98301843D01*
X168342191Y-98442191D01*
X168201843Y-98652235D01*
X168152560Y-98900000D01*
X155135000Y-98900000D01*
X155135000Y-98669115D01*
X154977431Y-98288709D01*
X154925377Y-98236655D01*
X155075752Y-98086280D01*
X155233321Y-97705874D01*
X155233321Y-97294126D01*
X155075752Y-96913720D01*
X154784601Y-96622569D01*
X154404195Y-96465000D01*
X153992447Y-96465000D01*
X153612041Y-96622569D01*
X153320890Y-96913720D01*
X153163321Y-97294126D01*
X153163321Y-97460199D01*
X152984370Y-97639150D01*
X151823407Y-97639150D01*
X151959930Y-97547928D01*
X152002332Y-97484469D01*
X153044471Y-96442331D01*
X153107927Y-96399931D01*
X153275902Y-96148539D01*
X153319998Y-95926854D01*
X153319998Y-95926849D01*
X153334886Y-95852002D01*
X153319998Y-95777155D01*
X153319998Y-94515603D01*
X160717560Y-87118043D01*
X160717560Y-87395800D01*
X160766843Y-87643565D01*
X160907191Y-87853609D01*
X160932919Y-87870800D01*
X160907191Y-87887991D01*
X160766843Y-88098035D01*
X160717560Y-88345800D01*
X160717560Y-88968438D01*
X159535530Y-90150469D01*
X159472071Y-90192871D01*
X159304096Y-90444264D01*
X159260000Y-90665949D01*
X159260000Y-90665953D01*
X159245112Y-90740800D01*
X159260000Y-90815648D01*
X159260001Y-91363518D01*
X157558520Y-93065000D01*
X157392447Y-93065000D01*
X157012041Y-93222569D01*
X156720890Y-93513720D01*
X156563321Y-93894126D01*
X156563321Y-94305874D01*
X156720890Y-94686280D01*
X157012041Y-94977431D01*
X157392447Y-95135000D01*
X157804195Y-95135000D01*
X158184601Y-94977431D01*
X158475752Y-94686280D01*
X158633321Y-94305874D01*
X158633321Y-94139801D01*
X160504473Y-92268650D01*
X160567929Y-92226250D01*
X160735904Y-91974858D01*
X160780000Y-91753173D01*
X160780000Y-91753169D01*
X160794829Y-91678620D01*
X160826673Y-91755499D01*
X161005302Y-91934127D01*
X161238691Y-92030800D01*
X162054250Y-92030800D01*
X162213000Y-91872050D01*
X162213000Y-90997800D01*
X162193000Y-90997800D01*
X162193000Y-90743800D01*
X162213000Y-90743800D01*
X162213000Y-90723800D01*
X162467000Y-90723800D01*
X162467000Y-90743800D01*
X162487000Y-90743800D01*
X162487000Y-90997800D01*
X162467000Y-90997800D01*
X162467000Y-91872050D01*
X162625750Y-92030800D01*
X162926398Y-92030800D01*
X162520198Y-92437000D01*
X162354126Y-92437000D01*
X161973720Y-92594569D01*
X161682569Y-92885720D01*
X161525000Y-93266126D01*
X161525000Y-93677874D01*
X161682569Y-94058280D01*
X161973720Y-94349431D01*
X162354126Y-94507000D01*
X162765874Y-94507000D01*
X163146280Y-94349431D01*
X163195000Y-94300711D01*
X163243720Y-94349431D01*
X163624126Y-94507000D01*
X164035874Y-94507000D01*
X164416280Y-94349431D01*
X164465000Y-94300711D01*
X164513720Y-94349431D01*
X164894126Y-94507000D01*
X165305874Y-94507000D01*
X165686280Y-94349431D01*
X165977431Y-94058280D01*
X166135000Y-93677874D01*
X166135000Y-93266126D01*
X165977431Y-92885720D01*
X165860000Y-92768289D01*
X165860000Y-91700000D01*
X168152560Y-91700000D01*
X168152560Y-92700000D01*
X168201843Y-92947765D01*
X168342191Y-93157809D01*
X168484854Y-93253134D01*
X168479112Y-93282000D01*
X168494000Y-93356847D01*
X168494000Y-93356852D01*
X168526478Y-93520126D01*
X168538097Y-93578537D01*
X168638178Y-93728318D01*
X168706072Y-93829929D01*
X168769528Y-93872329D01*
X169949759Y-95052560D01*
X168800000Y-95052560D01*
X168552235Y-95101843D01*
X168342191Y-95242191D01*
X168201843Y-95452235D01*
X168152560Y-95700000D01*
X168152560Y-96700000D01*
X168201843Y-96947765D01*
X168342191Y-97157809D01*
X168552235Y-97298157D01*
X168800000Y-97347440D01*
X170300000Y-97347440D01*
X170414227Y-97324719D01*
X170522569Y-97586280D01*
X170813720Y-97877431D01*
X171194126Y-98035000D01*
X171605874Y-98035000D01*
X171986280Y-97877431D01*
X172277431Y-97586280D01*
X172354171Y-97401013D01*
X172373463Y-97413904D01*
X172595148Y-97458000D01*
X172595152Y-97458000D01*
X172670000Y-97472888D01*
X172744848Y-97458000D01*
X174228852Y-97458000D01*
X174450537Y-97413904D01*
X174550007Y-97347440D01*
X175200000Y-97347440D01*
X175447765Y-97298157D01*
X175657809Y-97157809D01*
X175798157Y-96947765D01*
X175847440Y-96700000D01*
X175847440Y-95700000D01*
X175798157Y-95452235D01*
X175657809Y-95242191D01*
X175447765Y-95101843D01*
X175200000Y-95052560D01*
X173700000Y-95052560D01*
X173452235Y-95101843D01*
X173242191Y-95242191D01*
X173101843Y-95452235D01*
X173052560Y-95700000D01*
X173052560Y-95938000D01*
X172984802Y-95938000D01*
X170378606Y-93331805D01*
X170547765Y-93298157D01*
X170757809Y-93157809D01*
X170898157Y-92947765D01*
X170947440Y-92700000D01*
X170947440Y-92485750D01*
X173065000Y-92485750D01*
X173065000Y-92826310D01*
X173161673Y-93059699D01*
X173340302Y-93238327D01*
X173573691Y-93335000D01*
X174164250Y-93335000D01*
X174323000Y-93176250D01*
X174323000Y-92327000D01*
X174577000Y-92327000D01*
X174577000Y-93176250D01*
X174735750Y-93335000D01*
X175326309Y-93335000D01*
X175559698Y-93238327D01*
X175738327Y-93059699D01*
X175835000Y-92826310D01*
X175835000Y-92485750D01*
X175676250Y-92327000D01*
X174577000Y-92327000D01*
X174323000Y-92327000D01*
X173223750Y-92327000D01*
X173065000Y-92485750D01*
X170947440Y-92485750D01*
X170947440Y-91700000D01*
X170922316Y-91573690D01*
X173065000Y-91573690D01*
X173065000Y-91914250D01*
X173223750Y-92073000D01*
X174323000Y-92073000D01*
X174323000Y-91223750D01*
X174577000Y-91223750D01*
X174577000Y-92073000D01*
X175676250Y-92073000D01*
X175835000Y-91914250D01*
X175835000Y-91573690D01*
X175738327Y-91340301D01*
X175559698Y-91161673D01*
X175326309Y-91065000D01*
X174735750Y-91065000D01*
X174577000Y-91223750D01*
X174323000Y-91223750D01*
X174164250Y-91065000D01*
X173573691Y-91065000D01*
X173340302Y-91161673D01*
X173161673Y-91340301D01*
X173065000Y-91573690D01*
X170922316Y-91573690D01*
X170898157Y-91452235D01*
X170757809Y-91242191D01*
X170547765Y-91101843D01*
X170300000Y-91052560D01*
X168800000Y-91052560D01*
X168552235Y-91101843D01*
X168342191Y-91242191D01*
X168201843Y-91452235D01*
X168152560Y-91700000D01*
X165860000Y-91700000D01*
X165860000Y-84500000D01*
X168152560Y-84500000D01*
X168152560Y-85500000D01*
X168201843Y-85747765D01*
X168342191Y-85957809D01*
X168509690Y-86069729D01*
X168526870Y-86156097D01*
X168538097Y-86212537D01*
X168663172Y-86399724D01*
X168706072Y-86463929D01*
X168769528Y-86506329D01*
X170115759Y-87852560D01*
X168800000Y-87852560D01*
X168552235Y-87901843D01*
X168342191Y-88042191D01*
X168201843Y-88252235D01*
X168152560Y-88500000D01*
X168152560Y-89500000D01*
X168201843Y-89747765D01*
X168342191Y-89957809D01*
X168552235Y-90098157D01*
X168800000Y-90147440D01*
X170300000Y-90147440D01*
X170355527Y-90136395D01*
X170365000Y-90145868D01*
X170365000Y-90205874D01*
X170522569Y-90586280D01*
X170813720Y-90877431D01*
X171194126Y-91035000D01*
X171605874Y-91035000D01*
X171986280Y-90877431D01*
X172277431Y-90586280D01*
X172435000Y-90205874D01*
X172435000Y-90060145D01*
X172595148Y-90092000D01*
X172595152Y-90092000D01*
X172670000Y-90106888D01*
X172744848Y-90092000D01*
X173443020Y-90092000D01*
X173452235Y-90098157D01*
X173700000Y-90147440D01*
X175200000Y-90147440D01*
X175447765Y-90098157D01*
X175657809Y-89957809D01*
X175798157Y-89747765D01*
X175847440Y-89500000D01*
X175847440Y-88500000D01*
X175798157Y-88252235D01*
X175657809Y-88042191D01*
X175447765Y-87901843D01*
X175200000Y-87852560D01*
X173700000Y-87852560D01*
X173452235Y-87901843D01*
X173242191Y-88042191D01*
X173101843Y-88252235D01*
X173052560Y-88500000D01*
X173052560Y-88572000D01*
X172984802Y-88572000D01*
X170517065Y-86104264D01*
X170547765Y-86098157D01*
X170757809Y-85957809D01*
X170898157Y-85747765D01*
X170947440Y-85500000D01*
X170947440Y-85285750D01*
X173065000Y-85285750D01*
X173065000Y-85626310D01*
X173161673Y-85859699D01*
X173340302Y-86038327D01*
X173573691Y-86135000D01*
X174164250Y-86135000D01*
X174323000Y-85976250D01*
X174323000Y-85127000D01*
X173223750Y-85127000D01*
X173065000Y-85285750D01*
X170947440Y-85285750D01*
X170947440Y-84500000D01*
X170898157Y-84252235D01*
X170757809Y-84042191D01*
X170547765Y-83901843D01*
X170300000Y-83852560D01*
X168800000Y-83852560D01*
X168552235Y-83901843D01*
X168342191Y-84042191D01*
X168201843Y-84252235D01*
X168152560Y-84500000D01*
X165860000Y-84500000D01*
X165860000Y-83255646D01*
X165874888Y-83180799D01*
X165860000Y-83105952D01*
X165860000Y-83105948D01*
X165815904Y-82884263D01*
X165728583Y-82753578D01*
X165690329Y-82696326D01*
X165690327Y-82696324D01*
X165647929Y-82632871D01*
X165584476Y-82590473D01*
X164294003Y-81300000D01*
X168152560Y-81300000D01*
X168152560Y-82300000D01*
X168201843Y-82547765D01*
X168342191Y-82757809D01*
X168552235Y-82898157D01*
X168800000Y-82947440D01*
X170300000Y-82947440D01*
X170522346Y-82903213D01*
X170565000Y-82945868D01*
X170565000Y-83005874D01*
X170722569Y-83386280D01*
X171013720Y-83677431D01*
X171394126Y-83835000D01*
X171805874Y-83835000D01*
X172186280Y-83677431D01*
X172477431Y-83386280D01*
X172635000Y-83005874D01*
X172635000Y-82594126D01*
X172477431Y-82213720D01*
X172186280Y-81922569D01*
X171805874Y-81765000D01*
X171745868Y-81765000D01*
X171248587Y-81267720D01*
X171202001Y-81197999D01*
X170925801Y-81013448D01*
X170864030Y-81001161D01*
X170757809Y-80842191D01*
X170547765Y-80701843D01*
X170300000Y-80652560D01*
X168800000Y-80652560D01*
X168552235Y-80701843D01*
X168342191Y-80842191D01*
X168201843Y-81052235D01*
X168152560Y-81300000D01*
X164294003Y-81300000D01*
X163962440Y-80968438D01*
X163962440Y-80345800D01*
X163913157Y-80098035D01*
X163772809Y-79887991D01*
X163747081Y-79870800D01*
X163772809Y-79853609D01*
X163913157Y-79643565D01*
X163962440Y-79395800D01*
X163962440Y-78345800D01*
X163913157Y-78098035D01*
X163772809Y-77887991D01*
X163747081Y-77870800D01*
X163772809Y-77853609D01*
X163913157Y-77643565D01*
X163962440Y-77395800D01*
X163962440Y-76504058D01*
X164112771Y-76849341D01*
X164423511Y-77692571D01*
X164686156Y-78556203D01*
X164902128Y-79450022D01*
X165036784Y-80079406D01*
X165039717Y-80109664D01*
X165051891Y-80150019D01*
X165060711Y-80191243D01*
X165072749Y-80219160D01*
X165081808Y-80249187D01*
X165080905Y-80272056D01*
X165123819Y-80388446D01*
X165138330Y-80436548D01*
X165148810Y-80456228D01*
X165156526Y-80477154D01*
X165182778Y-80520011D01*
X165241080Y-80629489D01*
X165251845Y-80638351D01*
X165287212Y-80710670D01*
X165368797Y-80782695D01*
X165442654Y-80862624D01*
X165517533Y-80897161D01*
X165574477Y-80942804D01*
X165688175Y-80975866D01*
X165708173Y-80985090D01*
X165717657Y-80985464D01*
X165819826Y-81020522D01*
X165876979Y-81016966D01*
X165932457Y-81030352D01*
X166060097Y-81010286D01*
X166188537Y-80996138D01*
X166248645Y-80963112D01*
X166337131Y-80927024D01*
X166393037Y-80906472D01*
X166404095Y-80899713D01*
X166416090Y-80894821D01*
X166465778Y-80862011D01*
X166579551Y-80792470D01*
X166587388Y-80781709D01*
X166820402Y-80627844D01*
X167450161Y-80239028D01*
X168084919Y-79911150D01*
X168736600Y-79635151D01*
X169402811Y-79410871D01*
X170081112Y-79238232D01*
X170769076Y-79117185D01*
X171464242Y-79047715D01*
X172164072Y-79029840D01*
X172866119Y-79063608D01*
X173567782Y-79149066D01*
X174266524Y-79286273D01*
X174959819Y-79475333D01*
X175645086Y-79716325D01*
X176319727Y-80009354D01*
X176981212Y-80354562D01*
X177630793Y-80754462D01*
X178207729Y-81157743D01*
X178754118Y-81579717D01*
X179266268Y-82017452D01*
X179744289Y-82470691D01*
X180188382Y-82939252D01*
X180598785Y-83423054D01*
X180975690Y-83921944D01*
X181319320Y-84436010D01*
X181629852Y-84965205D01*
X181907432Y-85509745D01*
X182152166Y-86069798D01*
X182364105Y-86645557D01*
X182543202Y-87237240D01*
X182689366Y-87845071D01*
X182802404Y-88469209D01*
X182881511Y-89105186D01*
X182923834Y-89843566D01*
X182907416Y-90562088D01*
X182833912Y-91261213D01*
X182704557Y-91937143D01*
X182520753Y-92586214D01*
X182280815Y-93212882D01*
X182146473Y-93502075D01*
X181995787Y-93790069D01*
X181832525Y-94068757D01*
X181647964Y-94351322D01*
X181420004Y-94696285D01*
X181398516Y-94722382D01*
X181380194Y-94756527D01*
X181358829Y-94788858D01*
X181346051Y-94820158D01*
X181303051Y-94900293D01*
X181250833Y-94967940D01*
X181215613Y-95097883D01*
X181176319Y-95226673D01*
X181177474Y-95238596D01*
X181174340Y-95250159D01*
X181191530Y-95383704D01*
X181204510Y-95517710D01*
X181210140Y-95528283D01*
X181211669Y-95540165D01*
X181278652Y-95656959D01*
X181341931Y-95775806D01*
X181351180Y-95783421D01*
X181357139Y-95793812D01*
X181463720Y-95876084D01*
X181567661Y-95961667D01*
X181649398Y-95986605D01*
X182270553Y-96295155D01*
X182587806Y-96462422D01*
X182888716Y-96644398D01*
X183184082Y-96846389D01*
X183472463Y-97067245D01*
X183752548Y-97305724D01*
X184022910Y-97560419D01*
X184282240Y-97830018D01*
X184529267Y-98113089D01*
X184762672Y-98408105D01*
X184981264Y-98713663D01*
X185183893Y-99028252D01*
X185369398Y-99350247D01*
X185536699Y-99678144D01*
X185684767Y-100010321D01*
X185812663Y-100345238D01*
X185917008Y-100673438D01*
X185981941Y-100956378D01*
X186035600Y-101312365D01*
X186075195Y-101725859D01*
X186098352Y-102173198D01*
X186103972Y-102632963D01*
X186091303Y-103084482D01*
X186060516Y-103506474D01*
X186012188Y-103880631D01*
X185909284Y-104410074D01*
X185776916Y-104929393D01*
X185616306Y-105435354D01*
X185428229Y-105927039D01*
X185213507Y-106403494D01*
X184972933Y-106863625D01*
X184707303Y-107306464D01*
X184417388Y-107731019D01*
X184103982Y-108136276D01*
X183767893Y-108521159D01*
X183409824Y-108884760D01*
X183030551Y-109226102D01*
X182630828Y-109544212D01*
X182211362Y-109838054D01*
X181772848Y-110106674D01*
X181314736Y-110349763D01*
X180706064Y-110628511D01*
X180101146Y-110861574D01*
X179459479Y-111063212D01*
X178732246Y-111248653D01*
X178079491Y-111399589D01*
X176438488Y-111400002D01*
X176447765Y-111398157D01*
X176657809Y-111257809D01*
X176798157Y-111047765D01*
X176847440Y-110800000D01*
X176847440Y-109800000D01*
X176798157Y-109552235D01*
X176657809Y-109342191D01*
X176642704Y-109332098D01*
X176755713Y-109219089D01*
X176794126Y-109235000D01*
X177205874Y-109235000D01*
X177586280Y-109077431D01*
X177877431Y-108786280D01*
X178035000Y-108405874D01*
X178035000Y-107994126D01*
X177877431Y-107613720D01*
X177586280Y-107322569D01*
X177205874Y-107165000D01*
X176818974Y-107165000D01*
X176835000Y-107126310D01*
X176835000Y-106785750D01*
X176676250Y-106627000D01*
X175477000Y-106627000D01*
X175477000Y-107476250D01*
X175635750Y-107635000D01*
X176113755Y-107635000D01*
X176059702Y-107765496D01*
X174865528Y-108959671D01*
X174802072Y-109002071D01*
X174759672Y-109065527D01*
X174759671Y-109065528D01*
X174701518Y-109152560D01*
X174500000Y-109152560D01*
X174252235Y-109201843D01*
X174042191Y-109342191D01*
X173910018Y-109540000D01*
X173303711Y-109540000D01*
X173186280Y-109422569D01*
X172805874Y-109265000D01*
X172394126Y-109265000D01*
X172013720Y-109422569D01*
X171896289Y-109540000D01*
X170489982Y-109540000D01*
X170357809Y-109342191D01*
X170147765Y-109201843D01*
X169900000Y-109152560D01*
X168200000Y-109152560D01*
X167952235Y-109201843D01*
X167742191Y-109342191D01*
X167601843Y-109552235D01*
X167552560Y-109800000D01*
X167552560Y-110800000D01*
X167601843Y-111047765D01*
X167742191Y-111257809D01*
X167952235Y-111398157D01*
X167972224Y-111402133D01*
X142416668Y-111408565D01*
X117092538Y-111405389D01*
X106488070Y-111387544D01*
X106428860Y-111373426D01*
X106390290Y-111379596D01*
X105880706Y-111307599D01*
X105281147Y-111184172D01*
X104684706Y-111023026D01*
X104095311Y-110825432D01*
X103516852Y-110592712D01*
X102953141Y-110326279D01*
X102408031Y-110027702D01*
X101886907Y-109699510D01*
X101605825Y-109494615D01*
X101285465Y-109232914D01*
X100941575Y-108927618D01*
X100591015Y-108594208D01*
X100249367Y-108247712D01*
X99931710Y-107903063D01*
X99843913Y-107800000D01*
X101345000Y-107800000D01*
X101465156Y-108558637D01*
X101813863Y-109243013D01*
X102356987Y-109786137D01*
X103041363Y-110134844D01*
X103800000Y-110255000D01*
X104558637Y-110134844D01*
X105243013Y-109786137D01*
X105786137Y-109243013D01*
X106134844Y-108558637D01*
X106255000Y-107800000D01*
X106134844Y-107041363D01*
X106004603Y-106785750D01*
X167565000Y-106785750D01*
X167565000Y-107126310D01*
X167661673Y-107359699D01*
X167840302Y-107538327D01*
X168073691Y-107635000D01*
X168764250Y-107635000D01*
X168923000Y-107476250D01*
X168923000Y-106627000D01*
X169177000Y-106627000D01*
X169177000Y-107476250D01*
X169335750Y-107635000D01*
X170026309Y-107635000D01*
X170259698Y-107538327D01*
X170438327Y-107359699D01*
X170535000Y-107126310D01*
X170535000Y-106785750D01*
X173865000Y-106785750D01*
X173865000Y-107126310D01*
X173961673Y-107359699D01*
X174140302Y-107538327D01*
X174373691Y-107635000D01*
X175064250Y-107635000D01*
X175223000Y-107476250D01*
X175223000Y-106627000D01*
X174023750Y-106627000D01*
X173865000Y-106785750D01*
X170535000Y-106785750D01*
X170376250Y-106627000D01*
X169177000Y-106627000D01*
X168923000Y-106627000D01*
X167723750Y-106627000D01*
X167565000Y-106785750D01*
X106004603Y-106785750D01*
X105786137Y-106356987D01*
X105243013Y-105813863D01*
X104558637Y-105465156D01*
X103800000Y-105345000D01*
X103041363Y-105465156D01*
X102356987Y-105813863D01*
X101813863Y-106356987D01*
X101465156Y-107041363D01*
X101345000Y-107800000D01*
X99843913Y-107800000D01*
X99653581Y-107576574D01*
X99428073Y-107282589D01*
X99223190Y-106979729D01*
X99016169Y-106642228D01*
X98604561Y-105879826D01*
X98247720Y-105096521D01*
X98106856Y-104734537D01*
X97991751Y-104392767D01*
X97878409Y-103995633D01*
X97780015Y-103592728D01*
X97753860Y-103464416D01*
X111487000Y-103464416D01*
X111487000Y-103876164D01*
X111644569Y-104256570D01*
X111935720Y-104547721D01*
X112316126Y-104705290D01*
X112482199Y-104705290D01*
X113061381Y-105284473D01*
X113103781Y-105347929D01*
X113355173Y-105515904D01*
X113576858Y-105560000D01*
X113576862Y-105560000D01*
X113651709Y-105574888D01*
X113726556Y-105560000D01*
X118096289Y-105560000D01*
X118213720Y-105677431D01*
X118594126Y-105835000D01*
X119005874Y-105835000D01*
X119386280Y-105677431D01*
X119677431Y-105386280D01*
X119835000Y-105005874D01*
X119835000Y-104594126D01*
X119677431Y-104213720D01*
X119386280Y-103922569D01*
X119005874Y-103765000D01*
X118594126Y-103765000D01*
X118213720Y-103922569D01*
X118096289Y-104040000D01*
X113966512Y-104040000D01*
X113557000Y-103630489D01*
X113557000Y-103464416D01*
X113399431Y-103084010D01*
X113108280Y-102792859D01*
X112727874Y-102635290D01*
X112316126Y-102635290D01*
X111935720Y-102792859D01*
X111644569Y-103084010D01*
X111487000Y-103464416D01*
X97753860Y-103464416D01*
X97697368Y-103187286D01*
X97631616Y-102787076D01*
X97544356Y-101962850D01*
X97520566Y-101138535D01*
X97532133Y-100738523D01*
X97559582Y-100333331D01*
X97602691Y-99930472D01*
X97661421Y-99530665D01*
X97735747Y-99134496D01*
X97790865Y-98894122D01*
X110665000Y-98894122D01*
X110665000Y-99305870D01*
X110822569Y-99686276D01*
X110907979Y-99771686D01*
X110761990Y-100124134D01*
X110761990Y-100535882D01*
X110909500Y-100892005D01*
X110761990Y-101248127D01*
X110761990Y-101659875D01*
X110919559Y-102040281D01*
X111210710Y-102331432D01*
X111591116Y-102489001D01*
X112002864Y-102489001D01*
X112383270Y-102331432D01*
X112500701Y-102214001D01*
X114747699Y-102214001D01*
X114865130Y-102331432D01*
X115245536Y-102489001D01*
X115657284Y-102489001D01*
X116037690Y-102331432D01*
X116174998Y-102194124D01*
X117165000Y-102194124D01*
X117165000Y-102605872D01*
X117322569Y-102986278D01*
X117613720Y-103277429D01*
X117994126Y-103434998D01*
X118325312Y-103434998D01*
X118418730Y-103453580D01*
X118418734Y-103453580D01*
X118493582Y-103468468D01*
X118568430Y-103453580D01*
X119750159Y-103453580D01*
X119867590Y-103571011D01*
X120247996Y-103728580D01*
X120659744Y-103728580D01*
X121040150Y-103571011D01*
X121217033Y-103394128D01*
X141065000Y-103394128D01*
X141065000Y-103805876D01*
X141222569Y-104186282D01*
X141513720Y-104477433D01*
X141894126Y-104635002D01*
X142060199Y-104635002D01*
X143009669Y-105584473D01*
X143052069Y-105647929D01*
X143303461Y-105815904D01*
X143525146Y-105860000D01*
X143525150Y-105860000D01*
X143599998Y-105874888D01*
X143674846Y-105860000D01*
X143996289Y-105860000D01*
X144113720Y-105977431D01*
X144494126Y-106135000D01*
X144905874Y-106135000D01*
X145286280Y-105977431D01*
X145390021Y-105873690D01*
X167565000Y-105873690D01*
X167565000Y-106214250D01*
X167723750Y-106373000D01*
X168923000Y-106373000D01*
X168923000Y-105523750D01*
X169177000Y-105523750D01*
X169177000Y-106373000D01*
X170376250Y-106373000D01*
X170535000Y-106214250D01*
X170535000Y-105873690D01*
X173865000Y-105873690D01*
X173865000Y-106214250D01*
X174023750Y-106373000D01*
X175223000Y-106373000D01*
X175223000Y-105523750D01*
X175477000Y-105523750D01*
X175477000Y-106373000D01*
X176676250Y-106373000D01*
X176835000Y-106214250D01*
X176835000Y-105873690D01*
X176738327Y-105640301D01*
X176559698Y-105461673D01*
X176326309Y-105365000D01*
X175635750Y-105365000D01*
X175477000Y-105523750D01*
X175223000Y-105523750D01*
X175064250Y-105365000D01*
X174373691Y-105365000D01*
X174140302Y-105461673D01*
X173961673Y-105640301D01*
X173865000Y-105873690D01*
X170535000Y-105873690D01*
X170438327Y-105640301D01*
X170259698Y-105461673D01*
X170026309Y-105365000D01*
X169335750Y-105365000D01*
X169177000Y-105523750D01*
X168923000Y-105523750D01*
X168764250Y-105365000D01*
X168073691Y-105365000D01*
X167840302Y-105461673D01*
X167661673Y-105640301D01*
X167565000Y-105873690D01*
X145390021Y-105873690D01*
X145577431Y-105686280D01*
X145735000Y-105305874D01*
X145735000Y-104898678D01*
X145786280Y-104877437D01*
X146077431Y-104586286D01*
X146235000Y-104205880D01*
X146235000Y-103794132D01*
X146206332Y-103724921D01*
X146493666Y-103437587D01*
X146633498Y-103100000D01*
X180933000Y-103100000D01*
X181053156Y-103858637D01*
X181401863Y-104543013D01*
X181944987Y-105086137D01*
X182629363Y-105434844D01*
X183388000Y-105555000D01*
X184146637Y-105434844D01*
X184831013Y-105086137D01*
X185374137Y-104543013D01*
X185722844Y-103858637D01*
X185843000Y-103100000D01*
X185722844Y-102341363D01*
X185374137Y-101656987D01*
X184831013Y-101113863D01*
X184146637Y-100765156D01*
X183388000Y-100645000D01*
X182629363Y-100765156D01*
X181944987Y-101113863D01*
X181401863Y-101656987D01*
X181053156Y-102341363D01*
X180933000Y-103100000D01*
X146633498Y-103100000D01*
X146651235Y-103057181D01*
X146651235Y-102645433D01*
X146493666Y-102265027D01*
X146202515Y-101973876D01*
X145822109Y-101816307D01*
X145410361Y-101816307D01*
X145030234Y-101973761D01*
X144895352Y-101648126D01*
X171177000Y-101648126D01*
X171177000Y-102059874D01*
X171334569Y-102440280D01*
X171625720Y-102731431D01*
X172006126Y-102889000D01*
X172417874Y-102889000D01*
X172798280Y-102731431D01*
X172915711Y-102614000D01*
X173958155Y-102614000D01*
X174033002Y-102628888D01*
X174107849Y-102614000D01*
X174107854Y-102614000D01*
X174329539Y-102569904D01*
X174580931Y-102401929D01*
X174623333Y-102338470D01*
X177464482Y-99497322D01*
X177527938Y-99454922D01*
X177695913Y-99203530D01*
X177740009Y-98981845D01*
X177740009Y-98981841D01*
X177754897Y-98906994D01*
X177740009Y-98832147D01*
X177740009Y-85616855D01*
X177754897Y-85542008D01*
X177740009Y-85467161D01*
X177740009Y-85467157D01*
X177695913Y-85245472D01*
X177527938Y-84994080D01*
X177464482Y-84951680D01*
X175417065Y-82904264D01*
X175447765Y-82898157D01*
X175657809Y-82757809D01*
X175798157Y-82547765D01*
X175847440Y-82300000D01*
X175847440Y-81300000D01*
X175798157Y-81052235D01*
X175657809Y-80842191D01*
X175447765Y-80701843D01*
X175200000Y-80652560D01*
X173700000Y-80652560D01*
X173452235Y-80701843D01*
X173242191Y-80842191D01*
X173101843Y-81052235D01*
X173052560Y-81300000D01*
X173052560Y-82300000D01*
X173101843Y-82547765D01*
X173242191Y-82757809D01*
X173409690Y-82869729D01*
X173427681Y-82960173D01*
X173438097Y-83012537D01*
X173553681Y-83185520D01*
X173606072Y-83263929D01*
X173669528Y-83306329D01*
X174322998Y-83959799D01*
X174322998Y-84023748D01*
X174164250Y-83865000D01*
X173573691Y-83865000D01*
X173340302Y-83961673D01*
X173161673Y-84140301D01*
X173065000Y-84373690D01*
X173065000Y-84714250D01*
X173223750Y-84873000D01*
X174323000Y-84873000D01*
X174323000Y-84853000D01*
X174577000Y-84853000D01*
X174577000Y-84873000D01*
X174597000Y-84873000D01*
X174597000Y-85127000D01*
X174577000Y-85127000D01*
X174577000Y-85976250D01*
X174735750Y-86135000D01*
X175326309Y-86135000D01*
X175559698Y-86038327D01*
X175738327Y-85859699D01*
X175835000Y-85626310D01*
X175835000Y-85471802D01*
X176220009Y-85856811D01*
X176220010Y-98592190D01*
X175835000Y-98977200D01*
X175835000Y-98773690D01*
X175738327Y-98540301D01*
X175559698Y-98361673D01*
X175326309Y-98265000D01*
X174735750Y-98265000D01*
X174577000Y-98423750D01*
X174577000Y-99273000D01*
X174597000Y-99273000D01*
X174597000Y-99527000D01*
X174577000Y-99527000D01*
X174577000Y-99547000D01*
X174323000Y-99547000D01*
X174323000Y-99527000D01*
X173223750Y-99527000D01*
X173065000Y-99685750D01*
X173065000Y-100026310D01*
X173161673Y-100259699D01*
X173340302Y-100438327D01*
X173573691Y-100535000D01*
X174164250Y-100535000D01*
X174322998Y-100376252D01*
X174322998Y-100489203D01*
X173718201Y-101094000D01*
X172915711Y-101094000D01*
X172798280Y-100976569D01*
X172417874Y-100819000D01*
X172006126Y-100819000D01*
X171625720Y-100976569D01*
X171334569Y-101267720D01*
X171177000Y-101648126D01*
X144895352Y-101648126D01*
X144885759Y-101624967D01*
X144594608Y-101333816D01*
X144214202Y-101176247D01*
X143802454Y-101176247D01*
X143422048Y-101333816D01*
X143130897Y-101624967D01*
X143072894Y-101765000D01*
X142894136Y-101765000D01*
X142513730Y-101922569D01*
X142222579Y-102213720D01*
X142077074Y-102565002D01*
X141894126Y-102565002D01*
X141513720Y-102722571D01*
X141222569Y-103013722D01*
X141065000Y-103394128D01*
X121217033Y-103394128D01*
X121331301Y-103279860D01*
X121488870Y-102899454D01*
X121488870Y-102487706D01*
X121463917Y-102427463D01*
X121580090Y-102311290D01*
X121737659Y-101930884D01*
X121737659Y-101519136D01*
X121580090Y-101138730D01*
X121288939Y-100847579D01*
X120908533Y-100690010D01*
X120496785Y-100690010D01*
X120493426Y-100691401D01*
X120431650Y-100679113D01*
X120356803Y-100694001D01*
X119503711Y-100694001D01*
X119386280Y-100576570D01*
X119005874Y-100419001D01*
X118594126Y-100419001D01*
X118213720Y-100576570D01*
X117922569Y-100867721D01*
X117765000Y-101248127D01*
X117765000Y-101459905D01*
X117613720Y-101522567D01*
X117322569Y-101813718D01*
X117165000Y-102194124D01*
X116174998Y-102194124D01*
X116328841Y-102040281D01*
X116486410Y-101659875D01*
X116486410Y-101560010D01*
X116605874Y-101560010D01*
X116986280Y-101402441D01*
X117277431Y-101111290D01*
X117435000Y-100730884D01*
X117435000Y-100319136D01*
X117277431Y-99938730D01*
X116986280Y-99647579D01*
X116605874Y-99490010D01*
X116194126Y-99490010D01*
X116000993Y-99570008D01*
X114653238Y-99570008D01*
X114707782Y-99515464D01*
X114865351Y-99135058D01*
X114865351Y-98798350D01*
X115077431Y-98586270D01*
X115235000Y-98205864D01*
X115235000Y-97794116D01*
X115077431Y-97413710D01*
X114786280Y-97122559D01*
X114405874Y-96964990D01*
X113994126Y-96964990D01*
X113613720Y-97122559D01*
X113496283Y-97239996D01*
X112503711Y-97239996D01*
X112386280Y-97122565D01*
X112005874Y-96964996D01*
X111594126Y-96964996D01*
X111213720Y-97122565D01*
X110922569Y-97413716D01*
X110765000Y-97794122D01*
X110765000Y-98205870D01*
X110872027Y-98464258D01*
X110822569Y-98513716D01*
X110665000Y-98894122D01*
X97790865Y-98894122D01*
X97825628Y-98742522D01*
X97931032Y-98355347D01*
X98050887Y-97976838D01*
X98278643Y-97366623D01*
X98537744Y-96783026D01*
X98828258Y-96223637D01*
X99149003Y-95689303D01*
X99498843Y-95180994D01*
X99876636Y-94699540D01*
X100281288Y-94245936D01*
X100711704Y-93820980D01*
X101166798Y-93425684D01*
X101645541Y-93060934D01*
X102146908Y-92727617D01*
X102669864Y-92426753D01*
X103213479Y-92159230D01*
X103776785Y-91926045D01*
X104358791Y-91728175D01*
X104970055Y-91563637D01*
X105641605Y-91405883D01*
X105724217Y-91401042D01*
X105847780Y-91341167D01*
X105972789Y-91284277D01*
X105979071Y-91277548D01*
X105987352Y-91273535D01*
X106078601Y-91170927D01*
X106172318Y-91070534D01*
X106175546Y-91061914D01*
X106181662Y-91055037D01*
X106226705Y-90925303D01*
X106274863Y-90796706D01*
X106272019Y-90714002D01*
X106302769Y-90492299D01*
X106396935Y-90041787D01*
X106564217Y-89463865D01*
X106774470Y-88858897D01*
X106992136Y-88336577D01*
X107176999Y-87963734D01*
X107381841Y-87592513D01*
X107565001Y-87292365D01*
X107565000Y-89282236D01*
X107565001Y-89282240D01*
X107565000Y-90054131D01*
X105267718Y-92351415D01*
X105198000Y-92397999D01*
X105139367Y-92485750D01*
X105013448Y-92674200D01*
X104948643Y-93000000D01*
X104965001Y-93082237D01*
X104965001Y-93371288D01*
X104922569Y-93413720D01*
X104765000Y-93794126D01*
X104765000Y-94205874D01*
X104922569Y-94586280D01*
X105213720Y-94877431D01*
X105594126Y-95035000D01*
X106005874Y-95035000D01*
X106386280Y-94877431D01*
X106677431Y-94586280D01*
X106835000Y-94205874D01*
X106835000Y-93794126D01*
X106721506Y-93520126D01*
X141459000Y-93520126D01*
X141459000Y-93931874D01*
X141616569Y-94312280D01*
X141907720Y-94603431D01*
X142288126Y-94761000D01*
X142699874Y-94761000D01*
X143080280Y-94603431D01*
X143197711Y-94486000D01*
X143614372Y-94486000D01*
X143614372Y-94605874D01*
X143771941Y-94986280D01*
X144063092Y-95277431D01*
X144443498Y-95435000D01*
X144855246Y-95435000D01*
X145235652Y-95277431D01*
X145526803Y-94986280D01*
X145684372Y-94605874D01*
X145684372Y-94194126D01*
X145526803Y-93813720D01*
X145235652Y-93522569D01*
X144855246Y-93365000D01*
X144689173Y-93365000D01*
X144565703Y-93241530D01*
X144523301Y-93178071D01*
X144271909Y-93010096D01*
X144050224Y-92966000D01*
X144050219Y-92966000D01*
X143975372Y-92951112D01*
X143900525Y-92966000D01*
X143197711Y-92966000D01*
X143080280Y-92848569D01*
X142699874Y-92691000D01*
X142288126Y-92691000D01*
X141907720Y-92848569D01*
X141616569Y-93139720D01*
X141459000Y-93520126D01*
X106721506Y-93520126D01*
X106677431Y-93413720D01*
X106635000Y-93371289D01*
X106635000Y-93345867D01*
X108932286Y-91048583D01*
X109002001Y-91002001D01*
X109050180Y-90929897D01*
X109186552Y-90725801D01*
X109192051Y-90698154D01*
X109235000Y-90482237D01*
X109235000Y-90482234D01*
X109251357Y-90400001D01*
X109235000Y-90317768D01*
X109235000Y-87228711D01*
X109477431Y-86986280D01*
X109635000Y-86605874D01*
X109635000Y-86194126D01*
X109477431Y-85813720D01*
X109186280Y-85522569D01*
X109044948Y-85464028D01*
X109253159Y-85262762D01*
X109579357Y-84972426D01*
X109919425Y-84693716D01*
X110272946Y-84427060D01*
X110639671Y-84172836D01*
X111019270Y-83931371D01*
X111411435Y-83703063D01*
X111805627Y-83493668D01*
X112455079Y-83205074D01*
X113265378Y-82903151D01*
X114081701Y-82642760D01*
X114755531Y-82474285D01*
X115096378Y-82408549D01*
X115164579Y-82409973D01*
X115238537Y-82381132D01*
X115244019Y-82380075D01*
X115305956Y-82354842D01*
X115436999Y-82303740D01*
X115441143Y-82299766D01*
X115446459Y-82297600D01*
X115546527Y-82198691D01*
X115648028Y-82101342D01*
X115650334Y-82096088D01*
X115654419Y-82092050D01*
X115709035Y-81962339D01*
X115735878Y-81901177D01*
X115737079Y-81895734D01*
X115767888Y-81822564D01*
X115768286Y-81754343D01*
X115879219Y-81251718D01*
X116044699Y-80630780D01*
X116257867Y-80037265D01*
X116520837Y-79457769D01*
X116555452Y-79395035D01*
X117165000Y-79395035D01*
X117165000Y-79806783D01*
X117322569Y-80187189D01*
X117613720Y-80478340D01*
X117994126Y-80635909D01*
X118405874Y-80635909D01*
X118786280Y-80478340D01*
X118828357Y-80436263D01*
X122823937Y-80438514D01*
X122866722Y-80481299D01*
X123247128Y-80638868D01*
X123658876Y-80638868D01*
X124039282Y-80481299D01*
X124330433Y-80190148D01*
X124488002Y-79809742D01*
X124488002Y-79397994D01*
X124330433Y-79017588D01*
X124039282Y-78726437D01*
X123658876Y-78568868D01*
X123247128Y-78568868D01*
X122866722Y-78726437D01*
X122824645Y-78768514D01*
X118829065Y-78766263D01*
X118786280Y-78723478D01*
X118405874Y-78565909D01*
X117994126Y-78565909D01*
X117613720Y-78723478D01*
X117322569Y-79014629D01*
X117165000Y-79395035D01*
X116555452Y-79395035D01*
X116831438Y-78894860D01*
X117187415Y-78351132D01*
X117586359Y-77829314D01*
X118025798Y-77332096D01*
X118503118Y-76862235D01*
X119015668Y-76422401D01*
X119364022Y-76162180D01*
X122383000Y-76162180D01*
X122383000Y-76593820D01*
X122548182Y-76992603D01*
X122853397Y-77297818D01*
X123252180Y-77463000D01*
X123683820Y-77463000D01*
X124082603Y-77297818D01*
X124387818Y-76992603D01*
X124553000Y-76593820D01*
X124553000Y-76162180D01*
X125383000Y-76162180D01*
X125383000Y-76593820D01*
X125548182Y-76992603D01*
X125853397Y-77297818D01*
X126252180Y-77463000D01*
X126683820Y-77463000D01*
X127082603Y-77297818D01*
X127387818Y-76992603D01*
X127553000Y-76593820D01*
X127553000Y-76162180D01*
X127387818Y-75763397D01*
X127082603Y-75458182D01*
X126683820Y-75293000D01*
X126252180Y-75293000D01*
X125853397Y-75458182D01*
X125548182Y-75763397D01*
X125383000Y-76162180D01*
X124553000Y-76162180D01*
X124387818Y-75763397D01*
X124082603Y-75458182D01*
X123683820Y-75293000D01*
X123252180Y-75293000D01*
X122853397Y-75458182D01*
X122548182Y-75763397D01*
X122383000Y-76162180D01*
X119364022Y-76162180D01*
X119560731Y-76015239D01*
X120135522Y-75643348D01*
X120737272Y-75309246D01*
X121363156Y-75015422D01*
X122010394Y-74764259D01*
X122676218Y-74558100D01*
X123356521Y-74399552D01*
X123657600Y-74353389D01*
X124032581Y-74317366D01*
X124931966Y-74280956D01*
X125830334Y-74299167D01*
X126203770Y-74327564D01*
X126503411Y-74367631D01*
X126995187Y-74471616D01*
X127506121Y-74613238D01*
X128023718Y-74788590D01*
X128537405Y-74993695D01*
X129036947Y-75224281D01*
X129512139Y-75475689D01*
X129952793Y-75742810D01*
X130346348Y-76018168D01*
X130872321Y-76456418D01*
X131417303Y-76983182D01*
X131924698Y-77542062D01*
X132135584Y-77801909D01*
X132324219Y-78057870D01*
X132746527Y-78651648D01*
X132824310Y-78766086D01*
X132892586Y-78810928D01*
X132952006Y-78866979D01*
X133013615Y-78890418D01*
X133068712Y-78926604D01*
X133110079Y-78934492D01*
X133118441Y-78939416D01*
X133156424Y-78944748D01*
X133225297Y-78970950D01*
X133322809Y-78968105D01*
X133408001Y-78980064D01*
X133470913Y-78963783D01*
X133517573Y-78962422D01*
X133565013Y-78941130D01*
X133657657Y-78921938D01*
X133673054Y-78911473D01*
X133691076Y-78906809D01*
X133764054Y-78851799D01*
X133784338Y-78842695D01*
X133802377Y-78823572D01*
X133836363Y-78800471D01*
X133862368Y-78786642D01*
X133869577Y-78777896D01*
X133899484Y-78757568D01*
X133949949Y-78680731D01*
X133984802Y-78641669D01*
X133992167Y-78629161D01*
X134001400Y-78617959D01*
X134028849Y-78566866D01*
X134095718Y-78453304D01*
X134097265Y-78442286D01*
X134112207Y-78418518D01*
X134121216Y-78394933D01*
X134133162Y-78372697D01*
X134146986Y-78327469D01*
X134282577Y-77972506D01*
X134288194Y-77962948D01*
X134308380Y-77904956D01*
X134330283Y-77847616D01*
X134332142Y-77836691D01*
X134403197Y-77632558D01*
X134345000Y-78000000D01*
X134465156Y-78758637D01*
X134813863Y-79443013D01*
X135356987Y-79986137D01*
X136041363Y-80334844D01*
X136800000Y-80455000D01*
X137558637Y-80334844D01*
X138243013Y-79986137D01*
X138786137Y-79443013D01*
X139134844Y-78758637D01*
X139255000Y-78000000D01*
X139134844Y-77241363D01*
X138786137Y-76556987D01*
X138243013Y-76013863D01*
X137558637Y-75665156D01*
X136800000Y-75545000D01*
X136041363Y-75665156D01*
X135356987Y-76013863D01*
X134826730Y-76544120D01*
X134866104Y-76450602D01*
X135075502Y-75994234D01*
X135542773Y-75091244D01*
X136060221Y-74229000D01*
X136628353Y-73404328D01*
X136878574Y-73085750D01*
X138725000Y-73085750D01*
X138725000Y-73626310D01*
X138821673Y-73859699D01*
X139000302Y-74038327D01*
X139233691Y-74135000D01*
X139634250Y-74135000D01*
X139793000Y-73976250D01*
X139793000Y-72927000D01*
X138883750Y-72927000D01*
X138725000Y-73085750D01*
X136878574Y-73085750D01*
X137245017Y-72619201D01*
X137820625Y-71973690D01*
X138725000Y-71973690D01*
X138725000Y-72514250D01*
X138883750Y-72673000D01*
X139793000Y-72673000D01*
X139793000Y-71623750D01*
X140047000Y-71623750D01*
X140047000Y-72673000D01*
X140067000Y-72673000D01*
X140067000Y-72927000D01*
X140047000Y-72927000D01*
X140047000Y-73976250D01*
X140205750Y-74135000D01*
X140606309Y-74135000D01*
X140804508Y-74052903D01*
X140872235Y-74098157D01*
X141120000Y-74147440D01*
X142240000Y-74147440D01*
X142487765Y-74098157D01*
X142622996Y-74007798D01*
X142840001Y-74224803D01*
X142840000Y-75096289D01*
X142722569Y-75213720D01*
X142565000Y-75594126D01*
X142565000Y-76005874D01*
X142722569Y-76386280D01*
X143013720Y-76677431D01*
X143394126Y-76835000D01*
X143805874Y-76835000D01*
X144186280Y-76677431D01*
X144477431Y-76386280D01*
X144635000Y-76005874D01*
X144635000Y-75594126D01*
X144477431Y-75213720D01*
X144360000Y-75096289D01*
X144360000Y-73984846D01*
X144374888Y-73909999D01*
X144360000Y-73835152D01*
X144360000Y-73835148D01*
X144315904Y-73613463D01*
X144147929Y-73362071D01*
X144084473Y-73319671D01*
X143080331Y-72315530D01*
X143037929Y-72252071D01*
X142887440Y-72151517D01*
X142887440Y-72100000D01*
X142838157Y-71852235D01*
X142697809Y-71642191D01*
X142487765Y-71501843D01*
X142240000Y-71452560D01*
X141120000Y-71452560D01*
X140872235Y-71501843D01*
X140804508Y-71547097D01*
X140606309Y-71465000D01*
X140205750Y-71465000D01*
X140047000Y-71623750D01*
X139793000Y-71623750D01*
X139634250Y-71465000D01*
X139233691Y-71465000D01*
X139000302Y-71561673D01*
X138821673Y-71740301D01*
X138725000Y-71973690D01*
X137820625Y-71973690D01*
X137908085Y-71875609D01*
X138615351Y-71175607D01*
X138749377Y-71058550D01*
X143867800Y-71058550D01*
X143867800Y-72939109D01*
X143964473Y-73172498D01*
X144143101Y-73351127D01*
X144376490Y-73447800D01*
X144582285Y-73447800D01*
X144611782Y-73855768D01*
X144720032Y-74117108D01*
X144933600Y-74152395D01*
X145046485Y-74039510D01*
X145123101Y-74116127D01*
X145268749Y-74176456D01*
X145113205Y-74332000D01*
X145148492Y-74545568D01*
X145571364Y-74685949D01*
X146015768Y-74653818D01*
X146277108Y-74545568D01*
X146312395Y-74332000D01*
X146156851Y-74176456D01*
X146302499Y-74116127D01*
X146379115Y-74039510D01*
X146492000Y-74152395D01*
X146705568Y-74117108D01*
X146845949Y-73694236D01*
X146828131Y-73447800D01*
X147049110Y-73447800D01*
X147282499Y-73351127D01*
X147461127Y-73172498D01*
X147557800Y-72939109D01*
X147557800Y-71058550D01*
X147399050Y-70899800D01*
X145839800Y-70899800D01*
X145839800Y-72139550D01*
X145827800Y-72151550D01*
X145827800Y-72421562D01*
X145597800Y-72438192D01*
X145597800Y-72151550D01*
X145585800Y-72139550D01*
X145585800Y-70899800D01*
X144026550Y-70899800D01*
X143867800Y-71058550D01*
X138749377Y-71058550D01*
X139364673Y-70521161D01*
X140153877Y-69914299D01*
X140980799Y-69357031D01*
X141843263Y-68851363D01*
X142328512Y-68606491D01*
X143867800Y-68606491D01*
X143867800Y-70487050D01*
X144026550Y-70645800D01*
X145585800Y-70645800D01*
X145585800Y-68256550D01*
X145839800Y-68256550D01*
X145839800Y-70645800D01*
X147399050Y-70645800D01*
X147557800Y-70487050D01*
X147557800Y-68606491D01*
X147461127Y-68373102D01*
X147282499Y-68194473D01*
X147049110Y-68097800D01*
X145998550Y-68097800D01*
X145839800Y-68256550D01*
X145585800Y-68256550D01*
X145427050Y-68097800D01*
X144376490Y-68097800D01*
X144143101Y-68194473D01*
X143964473Y-68373102D01*
X143867800Y-68606491D01*
X142328512Y-68606491D01*
X142739153Y-68399269D01*
X143671700Y-68000460D01*
X144117719Y-67834338D01*
X144495111Y-67735000D01*
X147610360Y-67735000D01*
X147610360Y-72752800D01*
G36*
X154637487Y-67810923D02*
X155445544Y-68128139D01*
X156301261Y-68516826D01*
X157117400Y-68940444D01*
X157901199Y-69405881D01*
X158652918Y-69912243D01*
X159371263Y-70457826D01*
X160054886Y-71040924D01*
X160702442Y-71659792D01*
X161312585Y-72312737D01*
X161884009Y-72998051D01*
X162415312Y-73713946D01*
X162905182Y-74458754D01*
X163352266Y-75230714D01*
X163639344Y-75798812D01*
X163562765Y-75747643D01*
X163315000Y-75698360D01*
X161365000Y-75698360D01*
X161117235Y-75747643D01*
X160907191Y-75887991D01*
X160766843Y-76098035D01*
X160717560Y-76345800D01*
X160717560Y-77395800D01*
X160766843Y-77643565D01*
X160907191Y-77853609D01*
X160932919Y-77870800D01*
X160907191Y-77887991D01*
X160766843Y-78098035D01*
X160717560Y-78345800D01*
X160717560Y-79395800D01*
X160766843Y-79643565D01*
X160907191Y-79853609D01*
X160932919Y-79870800D01*
X160907191Y-79887991D01*
X160766843Y-80098035D01*
X160717560Y-80345800D01*
X160717560Y-81294104D01*
X160405874Y-81165000D01*
X159994126Y-81165000D01*
X159613720Y-81322569D01*
X159322569Y-81613720D01*
X159165000Y-81994126D01*
X159165000Y-82405874D01*
X159296292Y-82722841D01*
X157983333Y-84035800D01*
X149071573Y-84035800D01*
X148972809Y-83887991D01*
X148947081Y-83870800D01*
X148972809Y-83853609D01*
X149113157Y-83643565D01*
X149162440Y-83395800D01*
X149162440Y-82345800D01*
X149113157Y-82098035D01*
X148972809Y-81887991D01*
X148947081Y-81870800D01*
X148972809Y-81853609D01*
X149113157Y-81643565D01*
X149162440Y-81395800D01*
X149162440Y-80345800D01*
X149113157Y-80098035D01*
X148972809Y-79887991D01*
X148947081Y-79870800D01*
X148972809Y-79853609D01*
X149113157Y-79643565D01*
X149162440Y-79395800D01*
X149162440Y-78345800D01*
X149113157Y-78098035D01*
X148972809Y-77887991D01*
X148947081Y-77870800D01*
X148972809Y-77853609D01*
X149004754Y-77805800D01*
X149022914Y-77805800D01*
X149115000Y-77824117D01*
X149207086Y-77805800D01*
X149479819Y-77751550D01*
X149789097Y-77544897D01*
X149841262Y-77466827D01*
X149998826Y-77309262D01*
X150076897Y-77257097D01*
X150283550Y-76947819D01*
X150337800Y-76675086D01*
X150337800Y-76675085D01*
X150356117Y-76583000D01*
X150337800Y-76490914D01*
X150337800Y-73400240D01*
X150547800Y-73400240D01*
X150795565Y-73350957D01*
X151005609Y-73210609D01*
X151145957Y-73000565D01*
X151195240Y-72752800D01*
X151195240Y-71078550D01*
X151287800Y-71078550D01*
X151287800Y-72959109D01*
X151384473Y-73192498D01*
X151563101Y-73371127D01*
X151796490Y-73467800D01*
X152020793Y-73467800D01*
X152009651Y-73501364D01*
X152041782Y-73945768D01*
X152150032Y-74207108D01*
X152363600Y-74242395D01*
X152476485Y-74129510D01*
X152553101Y-74206127D01*
X152698749Y-74266456D01*
X152543205Y-74422000D01*
X152578492Y-74635568D01*
X153001364Y-74775949D01*
X153445768Y-74743818D01*
X153707108Y-74635568D01*
X153742395Y-74422000D01*
X153586851Y-74266456D01*
X153732499Y-74206127D01*
X153809115Y-74129510D01*
X153922000Y-74242395D01*
X154135568Y-74207108D01*
X154275949Y-73784236D01*
X154253070Y-73467800D01*
X154469110Y-73467800D01*
X154702499Y-73371127D01*
X154881127Y-73192498D01*
X154977800Y-72959109D01*
X154977800Y-72833658D01*
X155045206Y-72833658D01*
X155165380Y-73605484D01*
X155497351Y-74312558D01*
X156014430Y-74898038D01*
X156675050Y-75314858D01*
X157426104Y-75529510D01*
X158207215Y-75524739D01*
X158955590Y-75300927D01*
X159611069Y-74876067D01*
X160120956Y-74284314D01*
X160444264Y-73573237D01*
X160555000Y-72800000D01*
X160554178Y-72732689D01*
X160424582Y-71962389D01*
X160083999Y-71259424D01*
X159559805Y-70680304D01*
X158894142Y-70271586D01*
X158140522Y-70066126D01*
X157359527Y-70080440D01*
X156613942Y-70313378D01*
X155963703Y-70746214D01*
X155461083Y-71344152D01*
X155146487Y-72059126D01*
X155045206Y-72833658D01*
X154977800Y-72833658D01*
X154977800Y-71078550D01*
X154819050Y-70919800D01*
X153259800Y-70919800D01*
X153259800Y-72239550D01*
X153257800Y-72241550D01*
X153257800Y-72511562D01*
X153027800Y-72528192D01*
X153027800Y-72241550D01*
X153005800Y-72219550D01*
X153005800Y-70919800D01*
X151446550Y-70919800D01*
X151287800Y-71078550D01*
X151195240Y-71078550D01*
X151195240Y-68626491D01*
X151287800Y-68626491D01*
X151287800Y-70507050D01*
X151446550Y-70665800D01*
X153005800Y-70665800D01*
X153005800Y-68276550D01*
X153259800Y-68276550D01*
X153259800Y-70665800D01*
X154819050Y-70665800D01*
X154977800Y-70507050D01*
X154977800Y-68626491D01*
X154881127Y-68393102D01*
X154702499Y-68214473D01*
X154469110Y-68117800D01*
X153418550Y-68117800D01*
X153259800Y-68276550D01*
X153005800Y-68276550D01*
X152847050Y-68117800D01*
X151796490Y-68117800D01*
X151563101Y-68214473D01*
X151384473Y-68393102D01*
X151287800Y-68626491D01*
X151195240Y-68626491D01*
X151195240Y-67735000D01*
X154314722Y-67735000D01*
X154637487Y-67810923D01*
X154637487Y-67810923D01*
G37*
X154637487Y-67810923D02*
X155445544Y-68128139D01*
X156301261Y-68516826D01*
X157117400Y-68940444D01*
X157901199Y-69405881D01*
X158652918Y-69912243D01*
X159371263Y-70457826D01*
X160054886Y-71040924D01*
X160702442Y-71659792D01*
X161312585Y-72312737D01*
X161884009Y-72998051D01*
X162415312Y-73713946D01*
X162905182Y-74458754D01*
X163352266Y-75230714D01*
X163639344Y-75798812D01*
X163562765Y-75747643D01*
X163315000Y-75698360D01*
X161365000Y-75698360D01*
X161117235Y-75747643D01*
X160907191Y-75887991D01*
X160766843Y-76098035D01*
X160717560Y-76345800D01*
X160717560Y-77395800D01*
X160766843Y-77643565D01*
X160907191Y-77853609D01*
X160932919Y-77870800D01*
X160907191Y-77887991D01*
X160766843Y-78098035D01*
X160717560Y-78345800D01*
X160717560Y-79395800D01*
X160766843Y-79643565D01*
X160907191Y-79853609D01*
X160932919Y-79870800D01*
X160907191Y-79887991D01*
X160766843Y-80098035D01*
X160717560Y-80345800D01*
X160717560Y-81294104D01*
X160405874Y-81165000D01*
X159994126Y-81165000D01*
X159613720Y-81322569D01*
X159322569Y-81613720D01*
X159165000Y-81994126D01*
X159165000Y-82405874D01*
X159296292Y-82722841D01*
X157983333Y-84035800D01*
X149071573Y-84035800D01*
X148972809Y-83887991D01*
X148947081Y-83870800D01*
X148972809Y-83853609D01*
X149113157Y-83643565D01*
X149162440Y-83395800D01*
X149162440Y-82345800D01*
X149113157Y-82098035D01*
X148972809Y-81887991D01*
X148947081Y-81870800D01*
X148972809Y-81853609D01*
X149113157Y-81643565D01*
X149162440Y-81395800D01*
X149162440Y-80345800D01*
X149113157Y-80098035D01*
X148972809Y-79887991D01*
X148947081Y-79870800D01*
X148972809Y-79853609D01*
X149113157Y-79643565D01*
X149162440Y-79395800D01*
X149162440Y-78345800D01*
X149113157Y-78098035D01*
X148972809Y-77887991D01*
X148947081Y-77870800D01*
X148972809Y-77853609D01*
X149004754Y-77805800D01*
X149022914Y-77805800D01*
X149115000Y-77824117D01*
X149207086Y-77805800D01*
X149479819Y-77751550D01*
X149789097Y-77544897D01*
X149841262Y-77466827D01*
X149998826Y-77309262D01*
X150076897Y-77257097D01*
X150283550Y-76947819D01*
X150337800Y-76675086D01*
X150337800Y-76675085D01*
X150356117Y-76583000D01*
X150337800Y-76490914D01*
X150337800Y-73400240D01*
X150547800Y-73400240D01*
X150795565Y-73350957D01*
X151005609Y-73210609D01*
X151145957Y-73000565D01*
X151195240Y-72752800D01*
X151195240Y-71078550D01*
X151287800Y-71078550D01*
X151287800Y-72959109D01*
X151384473Y-73192498D01*
X151563101Y-73371127D01*
X151796490Y-73467800D01*
X152020793Y-73467800D01*
X152009651Y-73501364D01*
X152041782Y-73945768D01*
X152150032Y-74207108D01*
X152363600Y-74242395D01*
X152476485Y-74129510D01*
X152553101Y-74206127D01*
X152698749Y-74266456D01*
X152543205Y-74422000D01*
X152578492Y-74635568D01*
X153001364Y-74775949D01*
X153445768Y-74743818D01*
X153707108Y-74635568D01*
X153742395Y-74422000D01*
X153586851Y-74266456D01*
X153732499Y-74206127D01*
X153809115Y-74129510D01*
X153922000Y-74242395D01*
X154135568Y-74207108D01*
X154275949Y-73784236D01*
X154253070Y-73467800D01*
X154469110Y-73467800D01*
X154702499Y-73371127D01*
X154881127Y-73192498D01*
X154977800Y-72959109D01*
X154977800Y-72833658D01*
X155045206Y-72833658D01*
X155165380Y-73605484D01*
X155497351Y-74312558D01*
X156014430Y-74898038D01*
X156675050Y-75314858D01*
X157426104Y-75529510D01*
X158207215Y-75524739D01*
X158955590Y-75300927D01*
X159611069Y-74876067D01*
X160120956Y-74284314D01*
X160444264Y-73573237D01*
X160555000Y-72800000D01*
X160554178Y-72732689D01*
X160424582Y-71962389D01*
X160083999Y-71259424D01*
X159559805Y-70680304D01*
X158894142Y-70271586D01*
X158140522Y-70066126D01*
X157359527Y-70080440D01*
X156613942Y-70313378D01*
X155963703Y-70746214D01*
X155461083Y-71344152D01*
X155146487Y-72059126D01*
X155045206Y-72833658D01*
X154977800Y-72833658D01*
X154977800Y-71078550D01*
X154819050Y-70919800D01*
X153259800Y-70919800D01*
X153259800Y-72239550D01*
X153257800Y-72241550D01*
X153257800Y-72511562D01*
X153027800Y-72528192D01*
X153027800Y-72241550D01*
X153005800Y-72219550D01*
X153005800Y-70919800D01*
X151446550Y-70919800D01*
X151287800Y-71078550D01*
X151195240Y-71078550D01*
X151195240Y-68626491D01*
X151287800Y-68626491D01*
X151287800Y-70507050D01*
X151446550Y-70665800D01*
X153005800Y-70665800D01*
X153005800Y-68276550D01*
X153259800Y-68276550D01*
X153259800Y-70665800D01*
X154819050Y-70665800D01*
X154977800Y-70507050D01*
X154977800Y-68626491D01*
X154881127Y-68393102D01*
X154702499Y-68214473D01*
X154469110Y-68117800D01*
X153418550Y-68117800D01*
X153259800Y-68276550D01*
X153005800Y-68276550D01*
X152847050Y-68117800D01*
X151796490Y-68117800D01*
X151563101Y-68214473D01*
X151384473Y-68393102D01*
X151287800Y-68626491D01*
X151195240Y-68626491D01*
X151195240Y-67735000D01*
X154314722Y-67735000D01*
X154637487Y-67810923D01*
G04 #@! TD*
M02*
