G04 #@! TF.GenerationSoftware,KiCad,Pcbnew,5.0.2-bee76a0~70~ubuntu18.04.1*
G04 #@! TF.CreationDate,2019-01-13T17:19:06+01:00*
G04 #@! TF.ProjectId,lora_node_rfm95_minipro,6c6f7261-5f6e-46f6-9465-5f72666d3935,rev?*
G04 #@! TF.SameCoordinates,Original*
G04 #@! TF.FileFunction,Copper,L2,Bot*
G04 #@! TF.FilePolarity,Positive*
%FSLAX46Y46*%
G04 Gerber Fmt 4.6, Leading zero omitted, Abs format (unit mm)*
G04 Created by KiCad (PCBNEW 5.0.2-bee76a0~70~ubuntu18.04.1) date dom 13 ene 2019 17:19:06 CET*
%MOMM*%
%LPD*%
G01*
G04 APERTURE LIST*
G04 #@! TA.AperFunction,SMDPad,CuDef*
%ADD10R,2.420000X4.080000*%
G04 #@! TD*
G04 #@! TA.AperFunction,ViaPad*
%ADD11C,0.970000*%
G04 #@! TD*
G04 #@! TA.AperFunction,Conductor*
%ADD12R,0.460000X0.950000*%
G04 #@! TD*
G04 #@! TA.AperFunction,SMDPad,CuDef*
%ADD13R,1.600200X0.838200*%
G04 #@! TD*
G04 #@! TA.AperFunction,SMDPad,CuDef*
%ADD14R,1.600200X3.098800*%
G04 #@! TD*
G04 #@! TA.AperFunction,SMDPad,CuDef*
%ADD15R,1.900000X1.000000*%
G04 #@! TD*
G04 #@! TA.AperFunction,SMDPad,CuDef*
%ADD16R,1.000000X2.510000*%
G04 #@! TD*
G04 #@! TA.AperFunction,SMDPad,CuDef*
%ADD17R,1.295000X1.400000*%
G04 #@! TD*
G04 #@! TA.AperFunction,SMDPad,CuDef*
%ADD18R,1.220000X1.800000*%
G04 #@! TD*
G04 #@! TA.AperFunction,SMDPad,CuDef*
%ADD19R,0.700000X1.500000*%
G04 #@! TD*
G04 #@! TA.AperFunction,SMDPad,CuDef*
%ADD20R,1.000000X0.800000*%
G04 #@! TD*
G04 #@! TA.AperFunction,SMDPad,CuDef*
%ADD21R,5.500000X1.000000*%
G04 #@! TD*
G04 #@! TA.AperFunction,SMDPad,CuDef*
%ADD22R,3.000000X1.600000*%
G04 #@! TD*
G04 #@! TA.AperFunction,ViaPad*
%ADD23C,0.800000*%
G04 #@! TD*
G04 #@! TA.AperFunction,Conductor*
%ADD24C,0.250000*%
G04 #@! TD*
G04 #@! TA.AperFunction,Conductor*
%ADD25C,0.400000*%
G04 #@! TD*
G04 #@! TA.AperFunction,Conductor*
%ADD26C,0.254000*%
G04 #@! TD*
G04 APERTURE END LIST*
D10*
G04 #@! TO.P,J2,2*
G04 #@! TO.N,GND*
X153142800Y-70792800D03*
X145702800Y-70772800D03*
D11*
G04 #@! TD*
G04 #@! TO.N,GND*
G04 #@! TO.C,J2*
X153142800Y-73642800D03*
G04 #@! TO.N,GND*
G04 #@! TO.C,J2*
X145712800Y-73552800D03*
D12*
X153142800Y-73192800D03*
X145712800Y-73102800D03*
G04 #@! TD*
D13*
G04 #@! TO.P,U2,1*
G04 #@! TO.N,GND*
X127399600Y-86911400D03*
G04 #@! TO.P,U2,2*
G04 #@! TO.N,+3\002C3V*
X127399600Y-84600000D03*
G04 #@! TO.P,U2,3*
G04 #@! TO.N,Net-(C1-Pad1)*
X127399600Y-82288600D03*
D14*
G04 #@! TO.P,U2,4*
G04 #@! TO.N,N/C*
X133800400Y-84600000D03*
G04 #@! TD*
D15*
G04 #@! TO.P,J3,3*
G04 #@! TO.N,TX_GPS*
X145109200Y-92506800D03*
G04 #@! TO.P,J3,1*
G04 #@! TO.N,GND*
X145109200Y-97586800D03*
G04 #@! TO.P,J3,4*
G04 #@! TO.N,+3\002C3V*
X141809200Y-89966800D03*
G04 #@! TO.P,J3,2*
G04 #@! TO.N,RX_GPS*
X141809200Y-95046800D03*
G04 #@! TD*
D16*
G04 #@! TO.P,IC1,24*
G04 #@! TO.N,Net-(IC1-Pad24)*
X107133441Y-91519098D03*
G04 #@! TO.P,IC1,22*
G04 #@! TO.N,D12*
X112213441Y-91519098D03*
G04 #@! TO.P,IC1,20*
G04 #@! TO.N,N/C*
X117293441Y-91519098D03*
G04 #@! TO.P,IC1,18*
X122373441Y-91519098D03*
G04 #@! TO.P,IC1,16*
G04 #@! TO.N,+3\002C3V*
X127453441Y-91519098D03*
G04 #@! TO.P,IC1,14*
G04 #@! TO.N,N/C*
X132533441Y-91519098D03*
G04 #@! TO.P,IC1,23*
G04 #@! TO.N,D11*
X109673441Y-94829098D03*
G04 #@! TO.P,IC1,21*
G04 #@! TO.N,D13*
X114753441Y-94829098D03*
G04 #@! TO.P,IC1,19*
G04 #@! TO.N,N/C*
X119833441Y-94829098D03*
G04 #@! TO.P,IC1,17*
X124913441Y-94829098D03*
G04 #@! TO.P,IC1,15*
X129993441Y-94829098D03*
G04 #@! TO.P,IC1,13*
X135073441Y-94829098D03*
G04 #@! TO.P,IC1,12*
X135046400Y-109995400D03*
G04 #@! TO.P,IC1,10*
X129966400Y-109995400D03*
G04 #@! TO.P,IC1,8*
G04 #@! TO.N,Net-(IC1-Pad8)*
X124886400Y-109995400D03*
G04 #@! TO.P,IC1,6*
G04 #@! TO.N,RX_GPS*
X119806400Y-109995400D03*
G04 #@! TO.P,IC1,4*
G04 #@! TO.N,Net-(IC1-Pad4)*
X114726400Y-109995400D03*
G04 #@! TO.P,IC1,2*
G04 #@! TO.N,NEOPIXELS*
X109646400Y-109995400D03*
G04 #@! TO.P,IC1,11*
G04 #@! TO.N,N/C*
X132506400Y-106685400D03*
G04 #@! TO.P,IC1,9*
X127426400Y-106685400D03*
G04 #@! TO.P,IC1,7*
G04 #@! TO.N,PUSHBUTTON*
X122346400Y-106685400D03*
G04 #@! TO.P,IC1,5*
G04 #@! TO.N,TX_GPS*
X117266400Y-106685400D03*
G04 #@! TO.P,IC1,3*
G04 #@! TO.N,Net-(IC1-Pad3)*
X112186400Y-106685400D03*
G04 #@! TO.P,IC1,1*
G04 #@! TO.N,Net-(IC1-Pad1)*
X107106400Y-106685400D03*
G04 #@! TD*
D17*
G04 #@! TO.P,C1,1*
G04 #@! TO.N,Net-(C1-Pad1)*
X121617500Y-86106000D03*
G04 #@! TO.P,C1,2*
G04 #@! TO.N,GND*
X119682500Y-86106000D03*
G04 #@! TD*
G04 #@! TO.P,C3,1*
G04 #@! TO.N,+3\002C3V*
X137032500Y-84200000D03*
G04 #@! TO.P,C3,2*
G04 #@! TO.N,GND*
X138967500Y-84200000D03*
G04 #@! TD*
D18*
G04 #@! TO.P,D1,1*
G04 #@! TO.N,Net-(C1-Pad1)*
X122080000Y-82804000D03*
G04 #@! TO.P,D1,2*
G04 #@! TO.N,VBAT_SW*
X119220000Y-82804000D03*
G04 #@! TD*
D19*
G04 #@! TO.P,SW1,1*
G04 #@! TO.N,VBAT_SW*
X122718000Y-78138000D03*
G04 #@! TO.P,SW1,2*
G04 #@! TO.N,VBAT*
X125718000Y-78138000D03*
G04 #@! TO.P,SW1,3*
G04 #@! TO.N,N/C*
X127218000Y-78138000D03*
D20*
G04 #@! TO.P,SW1,*
G04 #@! TO.N,*
X121318000Y-75278000D03*
X128618000Y-75278000D03*
X128618000Y-77488000D03*
X121318000Y-77488000D03*
G04 #@! TD*
D21*
G04 #@! TO.P,J1,1*
G04 #@! TO.N,GND*
X103100000Y-100000000D03*
G04 #@! TO.P,J1,2*
G04 #@! TO.N,VBAT*
X103100000Y-102000000D03*
D22*
G04 #@! TO.P,J1,MP*
G04 #@! TO.N,N/C*
X100850000Y-97600000D03*
X100850000Y-104400000D03*
G04 #@! TD*
D17*
G04 #@! TO.P,R1,2*
G04 #@! TO.N,PUSHBUTTON*
X178032500Y-101800000D03*
G04 #@! TO.P,R1,1*
G04 #@! TO.N,+3\002C3V*
X179967500Y-101800000D03*
G04 #@! TD*
G04 #@! TO.P,R2,1*
G04 #@! TO.N,+3\002C3V*
X139832500Y-76800000D03*
G04 #@! TO.P,R2,2*
G04 #@! TO.N,Net-(D2-Pad2)*
X141767500Y-76800000D03*
G04 #@! TD*
D23*
G04 #@! TO.N,Net-(IC1-Pad1)*
X165100000Y-93472000D03*
X118800000Y-101454001D03*
X115451410Y-101454001D03*
X120702659Y-101725010D03*
X145616235Y-102851307D03*
X144008328Y-102211247D03*
X111796990Y-101454001D03*
G04 #@! TO.N,Net-(IC1-Pad3)*
X149697369Y-96272656D03*
G04 #@! TO.N,Net-(IC1-Pad4)*
X150876000Y-96266000D03*
G04 #@! TO.N,Net-(IC1-Pad8)*
X153162000Y-88646000D03*
G04 #@! TO.N,Net-(IC1-Pad24)*
X163830000Y-93472000D03*
X116400000Y-100525010D03*
X147300000Y-100249989D03*
X150622000Y-100330008D03*
X111796990Y-100330008D03*
G04 #@! TO.N,GND*
X154686000Y-94234000D03*
X161061931Y-93352499D03*
X171704000Y-92456000D03*
X146807347Y-97630979D03*
X154686000Y-82042000D03*
X104400000Y-93200000D03*
X107400000Y-89200000D03*
X177800000Y-81400000D03*
X152951170Y-97674149D03*
X140800000Y-80000000D03*
X124400000Y-87500000D03*
X126000012Y-86794675D03*
X139032490Y-79500004D03*
G04 #@! TO.N,+3\002C3V*
X144297800Y-85344000D03*
X171400000Y-97000000D03*
X160200000Y-82200000D03*
X171600000Y-82800000D03*
X171400000Y-90000000D03*
G04 #@! TO.N,RX_GPS*
X118800000Y-104800000D03*
X112522000Y-103670290D03*
G04 #@! TO.N,D13*
X142494000Y-93726000D03*
X144649372Y-94400000D03*
X148300006Y-96400006D03*
G04 #@! TO.N,D12*
X143256000Y-97790012D03*
X154198321Y-97500000D03*
X157598321Y-94100000D03*
X114200000Y-97999990D03*
X111800000Y-97999996D03*
G04 #@! TO.N,D11*
X162560000Y-93472000D03*
X142494000Y-98474990D03*
X154100000Y-98874989D03*
X111700000Y-99099996D03*
X113830351Y-98929184D03*
G04 #@! TO.N,VBAT*
X105800000Y-94000000D03*
X108600000Y-86400000D03*
X123453002Y-79603868D03*
X118200000Y-79600909D03*
G04 #@! TO.N,NEOPIXELS*
X172212000Y-101854000D03*
X120453870Y-102693580D03*
X145200000Y-104000006D03*
X143100010Y-102800000D03*
X118200000Y-102399998D03*
G04 #@! TO.N,PUSHBUTTON*
X177000000Y-108200000D03*
X172600000Y-110300000D03*
X142100000Y-103600002D03*
X144700000Y-105100000D03*
G04 #@! TO.N,Net-(D2-Pad2)*
X143600000Y-75800000D03*
G04 #@! TD*
D24*
G04 #@! TO.N,Net-(IC1-Pad1)*
X118234315Y-101454001D02*
X115451410Y-101454001D01*
X118800000Y-101454001D02*
X118234315Y-101454001D01*
X165100000Y-93472000D02*
X155720693Y-102851307D01*
X155720693Y-102851307D02*
X146181920Y-102851307D01*
X146181920Y-102851307D02*
X145616235Y-102851307D01*
X120702659Y-101725010D02*
X143522091Y-101725010D01*
X143522091Y-101725010D02*
X143608329Y-101811248D01*
X143608329Y-101811248D02*
X144008328Y-102211247D01*
X107106400Y-106685400D02*
X107188000Y-106603800D01*
X107188000Y-106603800D02*
X107188000Y-102712000D01*
X107188000Y-102712000D02*
X108445999Y-101454001D01*
X108445999Y-101454001D02*
X111796990Y-101454001D01*
G04 #@! TO.N,Net-(IC1-Pad3)*
X146790585Y-99049989D02*
X146920036Y-99049989D01*
X112186400Y-105180400D02*
X114180013Y-103186787D01*
X114180013Y-99650012D02*
X114630025Y-99200000D01*
X146920036Y-99049989D02*
X149297370Y-96672655D01*
X112186400Y-106685400D02*
X112186400Y-105180400D01*
X114630025Y-99200000D02*
X146640574Y-99200000D01*
X146640574Y-99200000D02*
X146790585Y-99049989D01*
X114180013Y-103186787D02*
X114180013Y-99650012D01*
X149297370Y-96672655D02*
X149697369Y-96272656D01*
G04 #@! TO.N,Net-(IC1-Pad4)*
X146976985Y-99500000D02*
X147642000Y-99500000D01*
X146677007Y-99799978D02*
X146976985Y-99500000D01*
X150476001Y-96665999D02*
X150876000Y-96266000D01*
X115846022Y-99799978D02*
X146677007Y-99799978D01*
X114726400Y-100919600D02*
X115846022Y-99799978D01*
X147642000Y-99500000D02*
X150476001Y-96665999D01*
X114726400Y-109995400D02*
X114726400Y-100919600D01*
G04 #@! TO.N,Net-(IC1-Pad8)*
X147800000Y-101600000D02*
X153162000Y-96238000D01*
X145781802Y-101600000D02*
X147800000Y-101600000D01*
X127216401Y-111575401D02*
X135806401Y-111575401D01*
X153162000Y-89211685D02*
X153162000Y-88646000D01*
X125636400Y-109995400D02*
X127216401Y-111575401D01*
X124886400Y-109995400D02*
X125636400Y-109995400D01*
X135806401Y-111575401D02*
X145781802Y-101600000D01*
X153162000Y-96238000D02*
X153162000Y-89211685D01*
G04 #@! TO.N,Net-(IC1-Pad24)*
X146734315Y-100249989D02*
X147300000Y-100249989D01*
X117240706Y-100249989D02*
X146734315Y-100249989D01*
X116400000Y-100525010D02*
X116965685Y-100525010D01*
X116965685Y-100525010D02*
X117240706Y-100249989D01*
X163830000Y-93472000D02*
X156971992Y-100330008D01*
X156971992Y-100330008D02*
X151187685Y-100330008D01*
X151187685Y-100330008D02*
X150622000Y-100330008D01*
X110230008Y-100330008D02*
X111796990Y-100330008D01*
X109728000Y-99828000D02*
X110230008Y-100330008D01*
X107133441Y-91519098D02*
X107133441Y-97227439D01*
X107133441Y-97227439D02*
X109728000Y-99821998D01*
X109728000Y-99821998D02*
X109728000Y-99828000D01*
G04 #@! TO.N,Net-(C1-Pad1)*
X122080000Y-82804000D02*
X122080000Y-83094000D01*
X122080000Y-85643500D02*
X121617500Y-86106000D01*
X122080000Y-82804000D02*
X122080000Y-85643500D01*
X124911400Y-82288600D02*
X126349500Y-82288600D01*
X126349500Y-82288600D02*
X127399600Y-82288600D01*
X123444000Y-83756000D02*
X124911400Y-82288600D01*
X123444000Y-85598000D02*
X123444000Y-83756000D01*
X121617500Y-86106000D02*
X122936000Y-86106000D01*
X122936000Y-86106000D02*
X123444000Y-85598000D01*
G04 #@! TO.N,GND*
X127713500Y-87122000D02*
X127713500Y-87069500D01*
X127713500Y-87069500D02*
X127762000Y-87021000D01*
X162502998Y-92456000D02*
X171704000Y-92456000D01*
X161061931Y-93352499D02*
X161958430Y-92456000D01*
X161958430Y-92456000D02*
X162502998Y-92456000D01*
X145109200Y-97586800D02*
X146763168Y-97586800D01*
X146763168Y-97586800D02*
X146807347Y-97630979D01*
X119682500Y-86106000D02*
X117094000Y-86106000D01*
X145022800Y-90558198D02*
X145022800Y-74242800D01*
X143510000Y-92070998D02*
X145022800Y-90558198D01*
X145022800Y-74242800D02*
X145712800Y-73552800D01*
X145109200Y-97586800D02*
X145109200Y-96836800D01*
X143510000Y-95237600D02*
X143510000Y-92070998D01*
X145109200Y-96836800D02*
X143510000Y-95237600D01*
X153052800Y-73552800D02*
X153142800Y-73642800D01*
X145712800Y-73552800D02*
X153052800Y-73552800D01*
X103100000Y-100000000D02*
X103100000Y-94500000D01*
X103100000Y-94500000D02*
X104400000Y-93200000D01*
X107400000Y-88634315D02*
X109928315Y-86106000D01*
X118785000Y-86106000D02*
X119682500Y-86106000D01*
X109928315Y-86106000D02*
X118785000Y-86106000D01*
X107400000Y-89200000D02*
X107400000Y-88634315D01*
X161061931Y-93352499D02*
X157272820Y-93352499D01*
X153351169Y-97274150D02*
X152951170Y-97674149D01*
X157272820Y-93352499D02*
X153351169Y-97274150D01*
X138967500Y-84200000D02*
X138967500Y-83250000D01*
X138967500Y-83250000D02*
X140800000Y-81417500D01*
X140800000Y-80565685D02*
X140800000Y-80000000D01*
X140800000Y-81417500D02*
X140800000Y-80565685D01*
X121024000Y-87500000D02*
X123834315Y-87500000D01*
X123834315Y-87500000D02*
X124400000Y-87500000D01*
X119682500Y-86106000D02*
X119682500Y-86158500D01*
X119682500Y-86158500D02*
X121024000Y-87500000D01*
X126116737Y-86911400D02*
X126000012Y-86794675D01*
X127399600Y-86911400D02*
X126116737Y-86911400D01*
X138332498Y-80199996D02*
X138632491Y-79900003D01*
X138632491Y-79900003D02*
X139032490Y-79500004D01*
X134492004Y-80199996D02*
X138332498Y-80199996D01*
X127780600Y-86911400D02*
X134492004Y-80199996D01*
X127399600Y-86911400D02*
X127780600Y-86911400D01*
D25*
G04 #@! TO.N,+3\002C3V*
X125400000Y-88000000D02*
X135600000Y-88000000D01*
X137032500Y-86567500D02*
X137032500Y-84200000D01*
X135600000Y-88000000D02*
X137032500Y-86567500D01*
X142259200Y-89966800D02*
X141809200Y-89966800D01*
X144297800Y-87928200D02*
X142259200Y-89966800D01*
X144297800Y-85344000D02*
X144297800Y-87928200D01*
X139639198Y-89966800D02*
X141809200Y-89966800D01*
X137032500Y-86567500D02*
X137032500Y-87360102D01*
X137032500Y-87360102D02*
X139639198Y-89966800D01*
X171400000Y-97000000D02*
X176000000Y-97000000D01*
X176000000Y-97000000D02*
X176400000Y-96600000D01*
X160200000Y-82200000D02*
X160200000Y-81400000D01*
X160200000Y-81400000D02*
X160600000Y-81000000D01*
X160600000Y-81000000D02*
X176000000Y-81000000D01*
X176000000Y-81000000D02*
X176400000Y-81400000D01*
X176400000Y-81400000D02*
X176400000Y-82200000D01*
X176000000Y-82800000D02*
X176400000Y-82400000D01*
X171600000Y-82800000D02*
X176000000Y-82800000D01*
X176400000Y-82200000D02*
X176400000Y-82400000D01*
X176400000Y-82400000D02*
X176400000Y-83400000D01*
X176000000Y-90000000D02*
X176400000Y-89600000D01*
X171400000Y-90000000D02*
X176000000Y-90000000D01*
X176400000Y-83400000D02*
X176400000Y-89600000D01*
X176400000Y-89600000D02*
X176400000Y-96600000D01*
X125400000Y-88565685D02*
X125400000Y-88000000D01*
X127453441Y-90764098D02*
X125400000Y-88710657D01*
X125400000Y-88710657D02*
X125400000Y-88565685D01*
X127453441Y-91519098D02*
X127453441Y-90764098D01*
X137032500Y-84200000D02*
X136800000Y-84200000D01*
X125200002Y-87800002D02*
X125400000Y-88000000D01*
X126199500Y-84600000D02*
X125200002Y-85599498D01*
X127399600Y-84600000D02*
X126199500Y-84600000D01*
X125200002Y-85599498D02*
X125200002Y-87800002D01*
X139832500Y-81347500D02*
X139832500Y-77900000D01*
X137032500Y-84147500D02*
X139832500Y-81347500D01*
X137032500Y-84200000D02*
X137032500Y-84147500D01*
X139832500Y-77900000D02*
X139832500Y-76800000D01*
X176400000Y-96600000D02*
X178300000Y-98500000D01*
X179967500Y-100167500D02*
X178300000Y-98500000D01*
X179967500Y-101800000D02*
X179967500Y-100167500D01*
G04 #@! TO.N,VBAT_SW*
X122718000Y-79288000D02*
X121406000Y-80600000D01*
X122718000Y-78138000D02*
X122718000Y-79288000D01*
X121406000Y-80600000D02*
X118200000Y-80600000D01*
X118200000Y-80600000D02*
X117600000Y-81200000D01*
X117600000Y-81200000D02*
X117600000Y-82600000D01*
X117804000Y-82804000D02*
X119220000Y-82804000D01*
X117600000Y-82600000D02*
X117804000Y-82804000D01*
D24*
G04 #@! TO.N,TX_GPS*
X119597001Y-102849799D02*
X117266400Y-105180400D01*
X119597001Y-101636999D02*
X119597001Y-102849799D01*
X117266400Y-105180400D02*
X117266400Y-106685400D01*
X151006800Y-92506800D02*
X151892000Y-93392000D01*
X145109200Y-92506800D02*
X151006800Y-92506800D01*
X151892000Y-96806014D02*
X147723015Y-100974999D01*
X151892000Y-93392000D02*
X151892000Y-96806014D01*
X147723015Y-100974999D02*
X120259001Y-100974999D01*
X120259001Y-100974999D02*
X119597001Y-101636999D01*
G04 #@! TO.N,RX_GPS*
X119806400Y-108490400D02*
X121303999Y-106992801D01*
X119806400Y-109995400D02*
X119806400Y-108490400D01*
X121303999Y-105047999D02*
X121303999Y-106400000D01*
X121303999Y-106992801D02*
X121303999Y-106400000D01*
X121056000Y-104800000D02*
X121303999Y-105047999D01*
X118800000Y-104800000D02*
X121056000Y-104800000D01*
X112522000Y-98082718D02*
X112522000Y-103104605D01*
X140609200Y-95046800D02*
X138672226Y-96983774D01*
X141809200Y-95046800D02*
X140609200Y-95046800D01*
X112522000Y-103104605D02*
X112522000Y-103670290D01*
X113620944Y-96983774D02*
X112522000Y-98082718D01*
X138672226Y-96983774D02*
X113620944Y-96983774D01*
G04 #@! TO.N,D13*
X115503441Y-94829098D02*
X117194343Y-96520000D01*
X141928315Y-93726000D02*
X142494000Y-93726000D01*
X114753441Y-94829098D02*
X115503441Y-94829098D01*
X117194343Y-96520000D02*
X137414000Y-96520000D01*
X137414000Y-96520000D02*
X140208000Y-93726000D01*
X140208000Y-93726000D02*
X141928315Y-93726000D01*
X147900007Y-96000007D02*
X148300006Y-96400006D01*
X146300000Y-94400000D02*
X147900007Y-96000007D01*
X144649372Y-94400000D02*
X146300000Y-94400000D01*
G04 #@! TO.N,D12*
X154198321Y-97500000D02*
X157598321Y-94100000D01*
X143255988Y-97790000D02*
X143065979Y-97599991D01*
X114599999Y-97599991D02*
X114200000Y-97999990D01*
X143065979Y-97599991D02*
X114599999Y-97599991D01*
X111300000Y-97499996D02*
X111800000Y-97999996D01*
X112213441Y-91519098D02*
X111300000Y-92432539D01*
X111300000Y-92432539D02*
X111300000Y-97499996D01*
G04 #@! TO.N,D11*
X161932000Y-94100000D02*
X162560000Y-93472000D01*
X159000000Y-94100000D02*
X161932000Y-94100000D01*
X154100000Y-98874989D02*
X154225011Y-98874989D01*
X154225011Y-98874989D02*
X159000000Y-94100000D01*
X111300001Y-98699997D02*
X111700000Y-99099996D01*
X109673441Y-97073437D02*
X111300001Y-98699997D01*
X109673441Y-94829098D02*
X109673441Y-97073437D01*
X114034526Y-98725009D02*
X113830351Y-98929184D01*
X141928315Y-98474990D02*
X141678296Y-98725009D01*
X142494000Y-98474990D02*
X141928315Y-98474990D01*
X141678296Y-98725009D02*
X114034526Y-98725009D01*
D25*
G04 #@! TO.N,VBAT*
X106250001Y-94450001D02*
X105800000Y-94000000D01*
X106250000Y-101100000D02*
X106250001Y-94450001D01*
X103100000Y-102000000D02*
X105350000Y-102000000D01*
X105350000Y-102000000D02*
X106250000Y-101100000D01*
X123453002Y-79603868D02*
X125114132Y-79603868D01*
X125114132Y-79603868D02*
X125718000Y-79000000D01*
X125718000Y-79000000D02*
X125718000Y-78138000D01*
X108600000Y-86400000D02*
X109800000Y-85200000D01*
X109800000Y-85200000D02*
X114800000Y-85200000D01*
X114800000Y-85200000D02*
X115800000Y-84200000D01*
X117164473Y-80636436D02*
X118200000Y-79600909D01*
X115800000Y-82000909D02*
X117164473Y-80636436D01*
X115800000Y-84200000D02*
X115800000Y-82000909D01*
D24*
G04 #@! TO.N,NEOPIXELS*
X116638000Y-102362000D02*
X118000000Y-102362000D01*
X116000000Y-103000000D02*
X116638000Y-102362000D01*
X116000000Y-111061802D02*
X116000000Y-103000000D01*
X109646400Y-109995400D02*
X110396400Y-109995400D01*
X117856000Y-102362000D02*
X118000000Y-102362000D01*
X110396400Y-109995400D02*
X111976401Y-111575401D01*
X111976401Y-111575401D02*
X115486401Y-111575401D01*
X115486401Y-111575401D02*
X116000000Y-111061802D01*
X120453870Y-102693580D02*
X142993590Y-102693580D01*
X142993590Y-102693580D02*
X143100010Y-102800000D01*
X145765685Y-104000006D02*
X145200000Y-104000006D01*
X158763584Y-104000006D02*
X145765685Y-104000006D01*
X160909590Y-101854000D02*
X158763584Y-104000006D01*
X172212000Y-101854000D02*
X160909590Y-101854000D01*
X118000000Y-102362000D02*
X118162002Y-102362000D01*
X118162002Y-102362000D02*
X118200000Y-102399998D01*
G04 #@! TO.N,PUSHBUTTON*
X126181798Y-103600002D02*
X141534315Y-103600002D01*
X141534315Y-103600002D02*
X142100000Y-103600002D01*
X123096400Y-106685400D02*
X126181798Y-103600002D01*
X122346400Y-106685400D02*
X123096400Y-106685400D01*
X167400000Y-109100000D02*
X163400000Y-105100000D01*
X172600000Y-110300000D02*
X171400000Y-109100000D01*
X163400000Y-105100000D02*
X144700000Y-105100000D01*
X171400000Y-109100000D02*
X167400000Y-109100000D01*
X178032500Y-107167500D02*
X178032500Y-101800000D01*
X177000000Y-108200000D02*
X178032500Y-107167500D01*
G04 #@! TO.N,Net-(D2-Pad2)*
X141767500Y-76800000D02*
X142600000Y-76800000D01*
X142600000Y-76800000D02*
X143600000Y-75800000D01*
G04 #@! TD*
D26*
G04 #@! TO.N,GND*
G36*
X154637487Y-67810923D02*
X155445544Y-68128139D01*
X156301261Y-68516826D01*
X157117400Y-68940444D01*
X157901199Y-69405881D01*
X158652918Y-69912243D01*
X159371263Y-70457826D01*
X160054886Y-71040924D01*
X160702442Y-71659792D01*
X161312585Y-72312737D01*
X161884009Y-72998051D01*
X162415312Y-73713946D01*
X162905182Y-74458754D01*
X163352266Y-75230714D01*
X163755234Y-76028147D01*
X164112771Y-76849341D01*
X164423511Y-77692571D01*
X164686156Y-78556203D01*
X164902128Y-79450022D01*
X165036784Y-80079406D01*
X165039717Y-80109664D01*
X165051891Y-80150019D01*
X165055096Y-80165000D01*
X160682232Y-80165000D01*
X160599999Y-80148643D01*
X160517766Y-80165000D01*
X160517763Y-80165000D01*
X160274199Y-80213448D01*
X159997999Y-80397999D01*
X159951414Y-80467718D01*
X159667718Y-80751415D01*
X159598000Y-80797999D01*
X159551417Y-80867716D01*
X159551416Y-80867717D01*
X159413448Y-81074200D01*
X159389093Y-81196640D01*
X159365000Y-81317763D01*
X159365000Y-81317767D01*
X159348643Y-81400000D01*
X159365000Y-81482233D01*
X159365000Y-81571289D01*
X159322569Y-81613720D01*
X159165000Y-81994126D01*
X159165000Y-82405874D01*
X159322569Y-82786280D01*
X159613720Y-83077431D01*
X159994126Y-83235000D01*
X160405874Y-83235000D01*
X160786280Y-83077431D01*
X161077431Y-82786280D01*
X161235000Y-82405874D01*
X161235000Y-81994126D01*
X161169088Y-81835000D01*
X171225131Y-81835000D01*
X171013720Y-81922569D01*
X170722569Y-82213720D01*
X170565000Y-82594126D01*
X170565000Y-83005874D01*
X170722569Y-83386280D01*
X171013720Y-83677431D01*
X171394126Y-83835000D01*
X171805874Y-83835000D01*
X172186280Y-83677431D01*
X172228711Y-83635000D01*
X175565000Y-83635000D01*
X175565001Y-89165000D01*
X172028711Y-89165000D01*
X171986280Y-89122569D01*
X171605874Y-88965000D01*
X171194126Y-88965000D01*
X170813720Y-89122569D01*
X170522569Y-89413720D01*
X170365000Y-89794126D01*
X170365000Y-90205874D01*
X170522569Y-90586280D01*
X170813720Y-90877431D01*
X171194126Y-91035000D01*
X171605874Y-91035000D01*
X171986280Y-90877431D01*
X172028711Y-90835000D01*
X175565000Y-90835000D01*
X175565001Y-96165000D01*
X172028711Y-96165000D01*
X171986280Y-96122569D01*
X171605874Y-95965000D01*
X171194126Y-95965000D01*
X170813720Y-96122569D01*
X170522569Y-96413720D01*
X170365000Y-96794126D01*
X170365000Y-97205874D01*
X170522569Y-97586280D01*
X170813720Y-97877431D01*
X171194126Y-98035000D01*
X171605874Y-98035000D01*
X171986280Y-97877431D01*
X172028711Y-97835000D01*
X175917767Y-97835000D01*
X176000000Y-97851357D01*
X176082233Y-97835000D01*
X176082237Y-97835000D01*
X176325801Y-97786552D01*
X176373688Y-97754555D01*
X177767716Y-99148584D01*
X177767719Y-99148586D01*
X179112889Y-100493757D01*
X179072235Y-100501843D01*
X179000000Y-100550109D01*
X178927765Y-100501843D01*
X178680000Y-100452560D01*
X177385000Y-100452560D01*
X177137235Y-100501843D01*
X176927191Y-100642191D01*
X176786843Y-100852235D01*
X176737560Y-101100000D01*
X176737560Y-102500000D01*
X176786843Y-102747765D01*
X176927191Y-102957809D01*
X177137235Y-103098157D01*
X177272501Y-103125063D01*
X177272500Y-106852698D01*
X176960199Y-107165000D01*
X176794126Y-107165000D01*
X176413720Y-107322569D01*
X176122569Y-107613720D01*
X175965000Y-107994126D01*
X175965000Y-108405874D01*
X176122569Y-108786280D01*
X176413720Y-109077431D01*
X176794126Y-109235000D01*
X177205874Y-109235000D01*
X177586280Y-109077431D01*
X177877431Y-108786280D01*
X178035000Y-108405874D01*
X178035000Y-108239801D01*
X178516973Y-107757829D01*
X178580429Y-107715429D01*
X178748404Y-107464037D01*
X178792500Y-107242352D01*
X178792500Y-107242348D01*
X178807388Y-107167500D01*
X178792500Y-107092652D01*
X178792500Y-103125063D01*
X178927765Y-103098157D01*
X179000000Y-103049891D01*
X179072235Y-103098157D01*
X179320000Y-103147440D01*
X180615000Y-103147440D01*
X180862765Y-103098157D01*
X180941639Y-103045455D01*
X180933000Y-103100000D01*
X181053156Y-103858637D01*
X181401863Y-104543013D01*
X181944987Y-105086137D01*
X182629363Y-105434844D01*
X183388000Y-105555000D01*
X184146637Y-105434844D01*
X184831013Y-105086137D01*
X185374137Y-104543013D01*
X185722844Y-103858637D01*
X185843000Y-103100000D01*
X185722844Y-102341363D01*
X185374137Y-101656987D01*
X184831013Y-101113863D01*
X184146637Y-100765156D01*
X183388000Y-100645000D01*
X182629363Y-100765156D01*
X181944987Y-101113863D01*
X181401863Y-101656987D01*
X181262440Y-101930620D01*
X181262440Y-101100000D01*
X181213157Y-100852235D01*
X181072809Y-100642191D01*
X180862765Y-100501843D01*
X180802500Y-100489856D01*
X180802500Y-100249732D01*
X180818857Y-100167499D01*
X180802500Y-100085266D01*
X180802500Y-100085263D01*
X180754052Y-99841699D01*
X180569501Y-99565499D01*
X180499783Y-99518915D01*
X178948586Y-97967719D01*
X178948584Y-97967716D01*
X177235000Y-96254133D01*
X177235000Y-89682234D01*
X177251357Y-89600001D01*
X177235000Y-89517768D01*
X177235000Y-82482234D01*
X177251357Y-82400001D01*
X177235000Y-82317768D01*
X177235000Y-81482232D01*
X177251357Y-81399999D01*
X177235000Y-81317764D01*
X177235000Y-81317763D01*
X177186552Y-81074199D01*
X177002001Y-80797999D01*
X176932283Y-80751415D01*
X176648587Y-80467720D01*
X176602001Y-80397999D01*
X176325801Y-80213448D01*
X176082237Y-80165000D01*
X176082233Y-80165000D01*
X176000000Y-80148643D01*
X175917767Y-80165000D01*
X167593476Y-80165000D01*
X168084919Y-79911150D01*
X168736600Y-79635151D01*
X169402811Y-79410871D01*
X170081112Y-79238232D01*
X170769076Y-79117185D01*
X171464242Y-79047715D01*
X172164072Y-79029840D01*
X172866119Y-79063608D01*
X173567782Y-79149066D01*
X174266524Y-79286273D01*
X174959819Y-79475333D01*
X175645086Y-79716325D01*
X176319727Y-80009354D01*
X176981212Y-80354562D01*
X177630793Y-80754462D01*
X178207729Y-81157743D01*
X178754118Y-81579717D01*
X179266263Y-82017448D01*
X179744289Y-82470691D01*
X180188382Y-82939252D01*
X180598785Y-83423054D01*
X180975690Y-83921944D01*
X181319320Y-84436010D01*
X181629852Y-84965205D01*
X181907432Y-85509745D01*
X182152166Y-86069798D01*
X182364105Y-86645557D01*
X182543202Y-87237240D01*
X182689366Y-87845071D01*
X182802404Y-88469209D01*
X182881511Y-89105186D01*
X182923834Y-89843566D01*
X182907416Y-90562088D01*
X182833912Y-91261213D01*
X182704557Y-91937143D01*
X182520753Y-92586214D01*
X182280815Y-93212882D01*
X182146473Y-93502075D01*
X181995787Y-93790069D01*
X181832525Y-94068757D01*
X181647964Y-94351322D01*
X181420004Y-94696285D01*
X181398516Y-94722382D01*
X181380194Y-94756527D01*
X181358829Y-94788858D01*
X181346051Y-94820158D01*
X181303051Y-94900293D01*
X181250833Y-94967940D01*
X181215613Y-95097883D01*
X181176319Y-95226673D01*
X181177474Y-95238596D01*
X181174340Y-95250159D01*
X181191530Y-95383704D01*
X181204510Y-95517710D01*
X181210140Y-95528283D01*
X181211669Y-95540165D01*
X181278652Y-95656959D01*
X181341931Y-95775806D01*
X181351180Y-95783421D01*
X181357139Y-95793812D01*
X181463720Y-95876084D01*
X181567661Y-95961667D01*
X181649398Y-95986605D01*
X182270553Y-96295155D01*
X182587806Y-96462422D01*
X182888716Y-96644398D01*
X183184082Y-96846389D01*
X183472463Y-97067245D01*
X183752548Y-97305724D01*
X184022910Y-97560419D01*
X184282240Y-97830018D01*
X184529267Y-98113089D01*
X184762672Y-98408105D01*
X184981264Y-98713663D01*
X185183893Y-99028252D01*
X185369398Y-99350247D01*
X185536699Y-99678144D01*
X185684767Y-100010321D01*
X185812663Y-100345238D01*
X185917008Y-100673438D01*
X185981941Y-100956378D01*
X186035600Y-101312365D01*
X186075195Y-101725859D01*
X186098352Y-102173198D01*
X186103972Y-102632963D01*
X186091303Y-103084482D01*
X186060516Y-103506474D01*
X186012188Y-103880631D01*
X185909284Y-104410074D01*
X185776916Y-104929393D01*
X185616306Y-105435354D01*
X185428229Y-105927039D01*
X185213507Y-106403494D01*
X184972933Y-106863625D01*
X184707303Y-107306464D01*
X184417388Y-107731019D01*
X184103982Y-108136276D01*
X183767893Y-108521159D01*
X183409824Y-108884760D01*
X183030551Y-109226102D01*
X182630828Y-109544212D01*
X182211362Y-109838054D01*
X181772848Y-110106674D01*
X181314736Y-110349763D01*
X180706064Y-110628511D01*
X180101146Y-110861574D01*
X179459479Y-111063212D01*
X178732246Y-111248653D01*
X178079491Y-111399589D01*
X142416668Y-111408565D01*
X137048711Y-111407892D01*
X143737493Y-104719111D01*
X143665000Y-104894126D01*
X143665000Y-105305874D01*
X143822569Y-105686280D01*
X144113720Y-105977431D01*
X144494126Y-106135000D01*
X144905874Y-106135000D01*
X145286280Y-105977431D01*
X145403711Y-105860000D01*
X163085199Y-105860000D01*
X166809670Y-109584472D01*
X166852071Y-109647929D01*
X167103463Y-109815904D01*
X167325148Y-109860000D01*
X167325152Y-109860000D01*
X167399999Y-109874888D01*
X167474846Y-109860000D01*
X171085199Y-109860000D01*
X171565000Y-110339802D01*
X171565000Y-110505874D01*
X171722569Y-110886280D01*
X172013720Y-111177431D01*
X172394126Y-111335000D01*
X172805874Y-111335000D01*
X173186280Y-111177431D01*
X173477431Y-110886280D01*
X173635000Y-110505874D01*
X173635000Y-110094126D01*
X173477431Y-109713720D01*
X173186280Y-109422569D01*
X172805874Y-109265000D01*
X172639802Y-109265000D01*
X171990331Y-108615530D01*
X171947929Y-108552071D01*
X171696537Y-108384096D01*
X171474852Y-108340000D01*
X171474847Y-108340000D01*
X171400000Y-108325112D01*
X171325153Y-108340000D01*
X167714802Y-108340000D01*
X163990331Y-104615530D01*
X163947929Y-104552071D01*
X163696537Y-104384096D01*
X163474852Y-104340000D01*
X163474847Y-104340000D01*
X163400000Y-104325112D01*
X163325153Y-104340000D01*
X159498391Y-104340000D01*
X161224392Y-102614000D01*
X171508289Y-102614000D01*
X171625720Y-102731431D01*
X172006126Y-102889000D01*
X172417874Y-102889000D01*
X172798280Y-102731431D01*
X173089431Y-102440280D01*
X173247000Y-102059874D01*
X173247000Y-101648126D01*
X173089431Y-101267720D01*
X172798280Y-100976569D01*
X172417874Y-100819000D01*
X172006126Y-100819000D01*
X171625720Y-100976569D01*
X171508289Y-101094000D01*
X160984438Y-101094000D01*
X160909590Y-101079112D01*
X160834742Y-101094000D01*
X160834738Y-101094000D01*
X160666725Y-101127420D01*
X160613052Y-101138096D01*
X160481096Y-101226267D01*
X160361661Y-101306071D01*
X160319261Y-101369527D01*
X158448783Y-103240006D01*
X156406795Y-103240006D01*
X165139802Y-94507000D01*
X165305874Y-94507000D01*
X165686280Y-94349431D01*
X165977431Y-94058280D01*
X166135000Y-93677874D01*
X166135000Y-93266126D01*
X165977431Y-92885720D01*
X165686280Y-92594569D01*
X165305874Y-92437000D01*
X164894126Y-92437000D01*
X164513720Y-92594569D01*
X164465000Y-92643289D01*
X164416280Y-92594569D01*
X164035874Y-92437000D01*
X163624126Y-92437000D01*
X163243720Y-92594569D01*
X163195000Y-92643289D01*
X163146280Y-92594569D01*
X162765874Y-92437000D01*
X162354126Y-92437000D01*
X161973720Y-92594569D01*
X161682569Y-92885720D01*
X161525000Y-93266126D01*
X161525000Y-93340000D01*
X159074846Y-93340000D01*
X158999999Y-93325112D01*
X158925152Y-93340000D01*
X158925148Y-93340000D01*
X158703463Y-93384096D01*
X158483061Y-93531364D01*
X158475752Y-93513720D01*
X158184601Y-93222569D01*
X157804195Y-93065000D01*
X157392447Y-93065000D01*
X157012041Y-93222569D01*
X156720890Y-93513720D01*
X156563321Y-93894126D01*
X156563321Y-94060198D01*
X154158520Y-96465000D01*
X153992447Y-96465000D01*
X153882693Y-96510462D01*
X153922000Y-96312852D01*
X153922000Y-96312848D01*
X153936888Y-96238001D01*
X153922000Y-96163154D01*
X153922000Y-89349711D01*
X154039431Y-89232280D01*
X154197000Y-88851874D01*
X154197000Y-88440126D01*
X154039431Y-88059720D01*
X153748280Y-87768569D01*
X153367874Y-87611000D01*
X152956126Y-87611000D01*
X152575720Y-87768569D01*
X152284569Y-88059720D01*
X152127000Y-88440126D01*
X152127000Y-88851874D01*
X152284569Y-89232280D01*
X152402001Y-89349712D01*
X152402000Y-92818728D01*
X152376473Y-92801671D01*
X151597131Y-92022330D01*
X151554729Y-91958871D01*
X151303337Y-91790896D01*
X151081652Y-91746800D01*
X151081647Y-91746800D01*
X151006800Y-91731912D01*
X150931953Y-91746800D01*
X146649182Y-91746800D01*
X146517009Y-91548991D01*
X146306965Y-91408643D01*
X146059200Y-91359360D01*
X144159200Y-91359360D01*
X143911435Y-91408643D01*
X143701391Y-91548991D01*
X143561043Y-91759035D01*
X143511760Y-92006800D01*
X143511760Y-93006800D01*
X143561043Y-93254565D01*
X143701391Y-93464609D01*
X143911435Y-93604957D01*
X143969212Y-93616449D01*
X143771941Y-93813720D01*
X143614372Y-94194126D01*
X143614372Y-94605874D01*
X143771941Y-94986280D01*
X144063092Y-95277431D01*
X144443498Y-95435000D01*
X144855246Y-95435000D01*
X145235652Y-95277431D01*
X145353083Y-95160000D01*
X145985199Y-95160000D01*
X147265006Y-96439808D01*
X147265006Y-96605880D01*
X147422575Y-96986286D01*
X147665756Y-97229467D01*
X146694200Y-98201024D01*
X146694200Y-97872550D01*
X146535450Y-97713800D01*
X145236200Y-97713800D01*
X145236200Y-97733800D01*
X144982200Y-97733800D01*
X144982200Y-97713800D01*
X144962200Y-97713800D01*
X144962200Y-97459800D01*
X144982200Y-97459800D01*
X144982200Y-96610550D01*
X145236200Y-96610550D01*
X145236200Y-97459800D01*
X146535450Y-97459800D01*
X146694200Y-97301050D01*
X146694200Y-96960490D01*
X146597527Y-96727101D01*
X146418898Y-96548473D01*
X146185509Y-96451800D01*
X145394950Y-96451800D01*
X145236200Y-96610550D01*
X144982200Y-96610550D01*
X144823450Y-96451800D01*
X144032891Y-96451800D01*
X143799502Y-96548473D01*
X143620873Y-96727101D01*
X143587720Y-96807139D01*
X143461874Y-96755012D01*
X143050126Y-96755012D01*
X142844968Y-96839991D01*
X139890810Y-96839991D01*
X140596095Y-96134707D01*
X140611435Y-96144957D01*
X140859200Y-96194240D01*
X142759200Y-96194240D01*
X143006965Y-96144957D01*
X143217009Y-96004609D01*
X143357357Y-95794565D01*
X143406640Y-95546800D01*
X143406640Y-94546800D01*
X143361889Y-94321822D01*
X143371431Y-94312280D01*
X143529000Y-93931874D01*
X143529000Y-93520126D01*
X143371431Y-93139720D01*
X143080280Y-92848569D01*
X142699874Y-92691000D01*
X142288126Y-92691000D01*
X141907720Y-92848569D01*
X141790289Y-92966000D01*
X140282848Y-92966000D01*
X140208000Y-92951112D01*
X140133152Y-92966000D01*
X140133148Y-92966000D01*
X139966668Y-92999115D01*
X139911462Y-93010096D01*
X139800735Y-93084082D01*
X139660071Y-93178071D01*
X139617671Y-93241527D01*
X137099199Y-95760000D01*
X136220881Y-95760000D01*
X136220881Y-93574098D01*
X136171598Y-93326333D01*
X136031250Y-93116289D01*
X135821206Y-92975941D01*
X135573441Y-92926658D01*
X134573441Y-92926658D01*
X134325676Y-92975941D01*
X134115632Y-93116289D01*
X133975284Y-93326333D01*
X133926001Y-93574098D01*
X133926001Y-95760000D01*
X131140881Y-95760000D01*
X131140881Y-93574098D01*
X131091598Y-93326333D01*
X130951250Y-93116289D01*
X130741206Y-92975941D01*
X130493441Y-92926658D01*
X129493441Y-92926658D01*
X129245676Y-92975941D01*
X129035632Y-93116289D01*
X128895284Y-93326333D01*
X128846001Y-93574098D01*
X128846001Y-95760000D01*
X126060881Y-95760000D01*
X126060881Y-93574098D01*
X126011598Y-93326333D01*
X125871250Y-93116289D01*
X125661206Y-92975941D01*
X125413441Y-92926658D01*
X124413441Y-92926658D01*
X124165676Y-92975941D01*
X123955632Y-93116289D01*
X123815284Y-93326333D01*
X123766001Y-93574098D01*
X123766001Y-95760000D01*
X120980881Y-95760000D01*
X120980881Y-93574098D01*
X120931598Y-93326333D01*
X120791250Y-93116289D01*
X120581206Y-92975941D01*
X120333441Y-92926658D01*
X119333441Y-92926658D01*
X119085676Y-92975941D01*
X118875632Y-93116289D01*
X118735284Y-93326333D01*
X118686001Y-93574098D01*
X118686001Y-95760000D01*
X117509145Y-95760000D01*
X116093772Y-94344628D01*
X116051370Y-94281169D01*
X115900881Y-94180615D01*
X115900881Y-93574098D01*
X115851598Y-93326333D01*
X115711250Y-93116289D01*
X115501206Y-92975941D01*
X115253441Y-92926658D01*
X114253441Y-92926658D01*
X114005676Y-92975941D01*
X113795632Y-93116289D01*
X113655284Y-93326333D01*
X113606001Y-93574098D01*
X113606001Y-96084098D01*
X113631230Y-96210932D01*
X113620944Y-96208886D01*
X113546096Y-96223774D01*
X113546092Y-96223774D01*
X113324407Y-96267870D01*
X113073015Y-96435845D01*
X113030615Y-96499301D01*
X112396816Y-97133101D01*
X112386280Y-97122565D01*
X112060000Y-96987416D01*
X112060000Y-93421538D01*
X112713441Y-93421538D01*
X112961206Y-93372255D01*
X113171250Y-93231907D01*
X113311598Y-93021863D01*
X113360881Y-92774098D01*
X113360881Y-90264098D01*
X116146001Y-90264098D01*
X116146001Y-92774098D01*
X116195284Y-93021863D01*
X116335632Y-93231907D01*
X116545676Y-93372255D01*
X116793441Y-93421538D01*
X117793441Y-93421538D01*
X118041206Y-93372255D01*
X118251250Y-93231907D01*
X118391598Y-93021863D01*
X118440881Y-92774098D01*
X118440881Y-90264098D01*
X121226001Y-90264098D01*
X121226001Y-92774098D01*
X121275284Y-93021863D01*
X121415632Y-93231907D01*
X121625676Y-93372255D01*
X121873441Y-93421538D01*
X122873441Y-93421538D01*
X123121206Y-93372255D01*
X123331250Y-93231907D01*
X123471598Y-93021863D01*
X123520881Y-92774098D01*
X123520881Y-90264098D01*
X123471598Y-90016333D01*
X123331250Y-89806289D01*
X123121206Y-89665941D01*
X122873441Y-89616658D01*
X121873441Y-89616658D01*
X121625676Y-89665941D01*
X121415632Y-89806289D01*
X121275284Y-90016333D01*
X121226001Y-90264098D01*
X118440881Y-90264098D01*
X118391598Y-90016333D01*
X118251250Y-89806289D01*
X118041206Y-89665941D01*
X117793441Y-89616658D01*
X116793441Y-89616658D01*
X116545676Y-89665941D01*
X116335632Y-89806289D01*
X116195284Y-90016333D01*
X116146001Y-90264098D01*
X113360881Y-90264098D01*
X113311598Y-90016333D01*
X113171250Y-89806289D01*
X112961206Y-89665941D01*
X112713441Y-89616658D01*
X111713441Y-89616658D01*
X111465676Y-89665941D01*
X111255632Y-89806289D01*
X111115284Y-90016333D01*
X111066001Y-90264098D01*
X111066001Y-91591737D01*
X110815530Y-91842208D01*
X110752071Y-91884610D01*
X110584096Y-92136003D01*
X110540000Y-92357688D01*
X110540000Y-92357692D01*
X110525112Y-92432539D01*
X110540000Y-92507386D01*
X110540000Y-93055317D01*
X110421206Y-92975941D01*
X110173441Y-92926658D01*
X109173441Y-92926658D01*
X108925676Y-92975941D01*
X108715632Y-93116289D01*
X108575284Y-93326333D01*
X108526001Y-93574098D01*
X108526001Y-96084098D01*
X108575284Y-96331863D01*
X108715632Y-96541907D01*
X108913442Y-96674080D01*
X108913442Y-96998585D01*
X108898553Y-97073437D01*
X108957538Y-97369974D01*
X109076523Y-97548047D01*
X109125513Y-97621366D01*
X109188969Y-97663766D01*
X110665000Y-99139798D01*
X110665000Y-99305870D01*
X110774409Y-99570008D01*
X110544810Y-99570008D01*
X110330417Y-99355616D01*
X110275929Y-99274069D01*
X110212473Y-99231669D01*
X107893441Y-96912638D01*
X107893441Y-93364080D01*
X108091250Y-93231907D01*
X108231598Y-93021863D01*
X108280881Y-92774098D01*
X108280881Y-90264098D01*
X108231598Y-90016333D01*
X108091250Y-89806289D01*
X107881206Y-89665941D01*
X107633441Y-89616658D01*
X106633441Y-89616658D01*
X106513059Y-89640603D01*
X106564217Y-89463865D01*
X106774470Y-88858897D01*
X106992136Y-88336577D01*
X107176999Y-87963734D01*
X107381841Y-87592513D01*
X107602890Y-87230275D01*
X107748976Y-87012687D01*
X108013720Y-87277431D01*
X108394126Y-87435000D01*
X108805874Y-87435000D01*
X109186280Y-87277431D01*
X109477431Y-86986280D01*
X109635000Y-86605874D01*
X109635000Y-86545868D01*
X109789118Y-86391750D01*
X118400000Y-86391750D01*
X118400000Y-86932310D01*
X118496673Y-87165699D01*
X118675302Y-87344327D01*
X118908691Y-87441000D01*
X119396750Y-87441000D01*
X119555500Y-87282250D01*
X119555500Y-86233000D01*
X118558750Y-86233000D01*
X118400000Y-86391750D01*
X109789118Y-86391750D01*
X110145869Y-86035000D01*
X114717767Y-86035000D01*
X114800000Y-86051357D01*
X114882233Y-86035000D01*
X114882237Y-86035000D01*
X115125801Y-85986552D01*
X115402001Y-85802001D01*
X115448587Y-85732280D01*
X115901177Y-85279690D01*
X118400000Y-85279690D01*
X118400000Y-85820250D01*
X118558750Y-85979000D01*
X119555500Y-85979000D01*
X119555500Y-84929750D01*
X119396750Y-84771000D01*
X118908691Y-84771000D01*
X118675302Y-84867673D01*
X118496673Y-85046301D01*
X118400000Y-85279690D01*
X115901177Y-85279690D01*
X116332283Y-84848585D01*
X116402001Y-84802001D01*
X116586552Y-84525801D01*
X116635000Y-84282237D01*
X116635000Y-84282236D01*
X116651358Y-84200000D01*
X116635000Y-84117763D01*
X116635000Y-82346776D01*
X116765001Y-82216776D01*
X116765001Y-82517762D01*
X116748643Y-82600000D01*
X116813448Y-82925800D01*
X116897676Y-83051855D01*
X116998000Y-83202001D01*
X117067718Y-83248585D01*
X117155413Y-83336280D01*
X117201999Y-83406001D01*
X117478199Y-83590552D01*
X117721763Y-83639000D01*
X117804000Y-83655358D01*
X117886237Y-83639000D01*
X117962560Y-83639000D01*
X117962560Y-83704000D01*
X118011843Y-83951765D01*
X118152191Y-84161809D01*
X118362235Y-84302157D01*
X118610000Y-84351440D01*
X119830000Y-84351440D01*
X120077765Y-84302157D01*
X120287809Y-84161809D01*
X120428157Y-83951765D01*
X120477440Y-83704000D01*
X120477440Y-81904000D01*
X120428157Y-81656235D01*
X120287809Y-81446191D01*
X120271061Y-81435000D01*
X121028939Y-81435000D01*
X121012191Y-81446191D01*
X120871843Y-81656235D01*
X120822560Y-81904000D01*
X120822560Y-83704000D01*
X120871843Y-83951765D01*
X121012191Y-84161809D01*
X121222235Y-84302157D01*
X121320001Y-84321604D01*
X121320001Y-84758560D01*
X120970000Y-84758560D01*
X120722235Y-84807843D01*
X120654508Y-84853097D01*
X120456309Y-84771000D01*
X119968250Y-84771000D01*
X119809500Y-84929750D01*
X119809500Y-85979000D01*
X119829500Y-85979000D01*
X119829500Y-86233000D01*
X119809500Y-86233000D01*
X119809500Y-87282250D01*
X119968250Y-87441000D01*
X120456309Y-87441000D01*
X120654508Y-87358903D01*
X120722235Y-87404157D01*
X120970000Y-87453440D01*
X122265000Y-87453440D01*
X122512765Y-87404157D01*
X122722809Y-87263809D01*
X122863157Y-87053765D01*
X122899008Y-86873530D01*
X122936000Y-86880888D01*
X123010847Y-86866000D01*
X123010852Y-86866000D01*
X123232537Y-86821904D01*
X123483929Y-86653929D01*
X123526330Y-86590471D01*
X123928475Y-86188327D01*
X123991929Y-86145929D01*
X124034327Y-86082476D01*
X124034329Y-86082474D01*
X124159903Y-85894538D01*
X124159904Y-85894537D01*
X124204000Y-85672852D01*
X124204000Y-85672848D01*
X124218888Y-85598001D01*
X124204000Y-85523154D01*
X124204000Y-84070801D01*
X125226202Y-83048600D01*
X126063574Y-83048600D01*
X126141691Y-83165509D01*
X126351735Y-83305857D01*
X126599500Y-83355140D01*
X128199700Y-83355140D01*
X128447465Y-83305857D01*
X128657509Y-83165509D01*
X128734289Y-83050600D01*
X132352860Y-83050600D01*
X132352860Y-86149400D01*
X132402143Y-86397165D01*
X132542491Y-86607209D01*
X132752535Y-86747557D01*
X133000300Y-86796840D01*
X134600500Y-86796840D01*
X134848265Y-86747557D01*
X135058309Y-86607209D01*
X135198657Y-86397165D01*
X135247940Y-86149400D01*
X135247940Y-83050600D01*
X135198657Y-82802835D01*
X135058309Y-82592791D01*
X134848265Y-82452443D01*
X134600500Y-82403160D01*
X133000300Y-82403160D01*
X132752535Y-82452443D01*
X132542491Y-82592791D01*
X132402143Y-82802835D01*
X132352860Y-83050600D01*
X128734289Y-83050600D01*
X128797857Y-82955465D01*
X128847140Y-82707700D01*
X128847140Y-81869500D01*
X128797857Y-81621735D01*
X128657509Y-81411691D01*
X128447465Y-81271343D01*
X128199700Y-81222060D01*
X126599500Y-81222060D01*
X126351735Y-81271343D01*
X126141691Y-81411691D01*
X126063574Y-81528600D01*
X124986247Y-81528600D01*
X124911400Y-81513712D01*
X124836553Y-81528600D01*
X124836548Y-81528600D01*
X124614863Y-81572696D01*
X124363471Y-81740671D01*
X124321071Y-81804127D01*
X123337440Y-82787759D01*
X123337440Y-81904000D01*
X123288157Y-81656235D01*
X123147809Y-81446191D01*
X122937765Y-81305843D01*
X122690000Y-81256560D01*
X121926348Y-81256560D01*
X122008001Y-81202001D01*
X122054587Y-81132280D01*
X122786145Y-80400722D01*
X122866722Y-80481299D01*
X123247128Y-80638868D01*
X123658876Y-80638868D01*
X124039282Y-80481299D01*
X124081713Y-80438868D01*
X125031899Y-80438868D01*
X125114132Y-80455225D01*
X125196365Y-80438868D01*
X125196369Y-80438868D01*
X125439933Y-80390420D01*
X125716133Y-80205869D01*
X125762719Y-80136149D01*
X126250285Y-79648583D01*
X126320001Y-79602001D01*
X126366821Y-79531931D01*
X126463255Y-79387607D01*
X126468000Y-79384436D01*
X126620235Y-79486157D01*
X126868000Y-79535440D01*
X127568000Y-79535440D01*
X127815765Y-79486157D01*
X128025809Y-79345809D01*
X128166157Y-79135765D01*
X128215440Y-78888000D01*
X128215440Y-78535440D01*
X129118000Y-78535440D01*
X129365765Y-78486157D01*
X129575809Y-78345809D01*
X129716157Y-78135765D01*
X129765440Y-77888000D01*
X129765440Y-77088000D01*
X129716157Y-76840235D01*
X129575809Y-76630191D01*
X129365765Y-76489843D01*
X129118000Y-76440560D01*
X128118000Y-76440560D01*
X127870235Y-76489843D01*
X127660191Y-76630191D01*
X127584280Y-76743798D01*
X127568000Y-76740560D01*
X127492218Y-76740560D01*
X127553000Y-76593820D01*
X127553000Y-76162180D01*
X127387818Y-75763397D01*
X127082603Y-75458182D01*
X126683820Y-75293000D01*
X126252180Y-75293000D01*
X125853397Y-75458182D01*
X125548182Y-75763397D01*
X125383000Y-76162180D01*
X125383000Y-76593820D01*
X125443782Y-76740560D01*
X125368000Y-76740560D01*
X125120235Y-76789843D01*
X124910191Y-76930191D01*
X124769843Y-77140235D01*
X124720560Y-77388000D01*
X124720560Y-78768868D01*
X124081713Y-78768868D01*
X124039282Y-78726437D01*
X123715440Y-78592298D01*
X123715440Y-77449903D01*
X124082603Y-77297818D01*
X124387818Y-76992603D01*
X124553000Y-76593820D01*
X124553000Y-76162180D01*
X124387818Y-75763397D01*
X124082603Y-75458182D01*
X123683820Y-75293000D01*
X123252180Y-75293000D01*
X122853397Y-75458182D01*
X122548182Y-75763397D01*
X122383000Y-76162180D01*
X122383000Y-76593820D01*
X122443782Y-76740560D01*
X122368000Y-76740560D01*
X122351720Y-76743798D01*
X122275809Y-76630191D01*
X122065765Y-76489843D01*
X121818000Y-76440560D01*
X120818000Y-76440560D01*
X120570235Y-76489843D01*
X120360191Y-76630191D01*
X120219843Y-76840235D01*
X120170560Y-77088000D01*
X120170560Y-77888000D01*
X120219843Y-78135765D01*
X120360191Y-78345809D01*
X120570235Y-78486157D01*
X120818000Y-78535440D01*
X121720560Y-78535440D01*
X121720560Y-78888000D01*
X121756491Y-79068641D01*
X121060133Y-79765000D01*
X119235000Y-79765000D01*
X119235000Y-79395035D01*
X119077431Y-79014629D01*
X118786280Y-78723478D01*
X118405874Y-78565909D01*
X117994126Y-78565909D01*
X117613720Y-78723478D01*
X117322569Y-79014629D01*
X117165000Y-79395035D01*
X117165000Y-79455041D01*
X116075769Y-80544272D01*
X116257867Y-80037265D01*
X116520837Y-79457769D01*
X116831438Y-78894860D01*
X117187415Y-78351132D01*
X117586359Y-77829314D01*
X118025798Y-77332096D01*
X118503118Y-76862235D01*
X119015668Y-76422401D01*
X119560731Y-76015239D01*
X120135522Y-75643348D01*
X120170560Y-75623894D01*
X120170560Y-75678000D01*
X120219843Y-75925765D01*
X120360191Y-76135809D01*
X120570235Y-76276157D01*
X120818000Y-76325440D01*
X121818000Y-76325440D01*
X122065765Y-76276157D01*
X122275809Y-76135809D01*
X122416157Y-75925765D01*
X122465440Y-75678000D01*
X122465440Y-74878000D01*
X122417729Y-74638136D01*
X122676218Y-74558100D01*
X123356521Y-74399552D01*
X123657600Y-74353389D01*
X124032581Y-74317366D01*
X124931966Y-74280956D01*
X125830334Y-74299167D01*
X126203770Y-74327564D01*
X126503411Y-74367631D01*
X126995187Y-74471616D01*
X127506121Y-74613238D01*
X127526571Y-74620166D01*
X127519843Y-74630235D01*
X127470560Y-74878000D01*
X127470560Y-75678000D01*
X127519843Y-75925765D01*
X127660191Y-76135809D01*
X127870235Y-76276157D01*
X128118000Y-76325440D01*
X129118000Y-76325440D01*
X129365765Y-76276157D01*
X129575809Y-76135809D01*
X129716157Y-75925765D01*
X129765440Y-75678000D01*
X129765440Y-75629238D01*
X129952793Y-75742810D01*
X130346348Y-76018168D01*
X130872321Y-76456418D01*
X131417303Y-76983182D01*
X131924698Y-77542062D01*
X132135584Y-77801909D01*
X132324219Y-78057870D01*
X132746527Y-78651648D01*
X132824310Y-78766086D01*
X132892586Y-78810928D01*
X132952006Y-78866979D01*
X133013615Y-78890418D01*
X133068712Y-78926604D01*
X133110079Y-78934492D01*
X133118441Y-78939416D01*
X133156424Y-78944748D01*
X133225297Y-78970950D01*
X133322809Y-78968105D01*
X133408001Y-78980064D01*
X133470913Y-78963783D01*
X133517573Y-78962422D01*
X133565013Y-78941130D01*
X133657657Y-78921938D01*
X133673054Y-78911473D01*
X133691076Y-78906809D01*
X133764054Y-78851799D01*
X133784338Y-78842695D01*
X133802377Y-78823572D01*
X133836363Y-78800471D01*
X133862368Y-78786642D01*
X133869577Y-78777896D01*
X133899484Y-78757568D01*
X133949949Y-78680731D01*
X133984802Y-78641669D01*
X133992167Y-78629161D01*
X134001400Y-78617959D01*
X134028849Y-78566866D01*
X134095718Y-78453304D01*
X134097265Y-78442286D01*
X134112207Y-78418518D01*
X134121216Y-78394933D01*
X134133162Y-78372697D01*
X134146986Y-78327469D01*
X134282577Y-77972506D01*
X134288194Y-77962948D01*
X134308380Y-77904956D01*
X134330283Y-77847616D01*
X134332142Y-77836691D01*
X134403197Y-77632558D01*
X134345000Y-78000000D01*
X134465156Y-78758637D01*
X134813863Y-79443013D01*
X135356987Y-79986137D01*
X136041363Y-80334844D01*
X136800000Y-80455000D01*
X137558637Y-80334844D01*
X138243013Y-79986137D01*
X138786137Y-79443013D01*
X138997501Y-79028188D01*
X138997500Y-81001632D01*
X137146573Y-82852560D01*
X136385000Y-82852560D01*
X136137235Y-82901843D01*
X135927191Y-83042191D01*
X135786843Y-83252235D01*
X135737560Y-83500000D01*
X135737560Y-84900000D01*
X135786843Y-85147765D01*
X135927191Y-85357809D01*
X136137235Y-85498157D01*
X136197500Y-85510144D01*
X136197500Y-86221632D01*
X135254133Y-87165000D01*
X128802550Y-87165000D01*
X128675950Y-87038400D01*
X127526600Y-87038400D01*
X127526600Y-87058400D01*
X127272600Y-87058400D01*
X127272600Y-87038400D01*
X127252600Y-87038400D01*
X127252600Y-86784400D01*
X127272600Y-86784400D01*
X127272600Y-86016050D01*
X127526600Y-86016050D01*
X127526600Y-86784400D01*
X128675950Y-86784400D01*
X128834700Y-86625650D01*
X128834700Y-86365990D01*
X128738027Y-86132601D01*
X128559398Y-85953973D01*
X128326009Y-85857300D01*
X127685350Y-85857300D01*
X127526600Y-86016050D01*
X127272600Y-86016050D01*
X127113850Y-85857300D01*
X126473191Y-85857300D01*
X126239802Y-85953973D01*
X126061173Y-86132601D01*
X126035002Y-86195783D01*
X126035002Y-85945365D01*
X126361223Y-85619144D01*
X126599500Y-85666540D01*
X128199700Y-85666540D01*
X128447465Y-85617257D01*
X128657509Y-85476909D01*
X128797857Y-85266865D01*
X128847140Y-85019100D01*
X128847140Y-84180900D01*
X128797857Y-83933135D01*
X128657509Y-83723091D01*
X128447465Y-83582743D01*
X128199700Y-83533460D01*
X126599500Y-83533460D01*
X126351735Y-83582743D01*
X126141691Y-83723091D01*
X126113140Y-83765820D01*
X125873699Y-83813448D01*
X125597499Y-83997999D01*
X125550915Y-84067718D01*
X124667722Y-84950911D01*
X124598001Y-84997497D01*
X124413450Y-85273698D01*
X124365002Y-85517262D01*
X124365002Y-85517265D01*
X124348645Y-85599498D01*
X124365002Y-85681731D01*
X124365003Y-87717764D01*
X124348645Y-87800002D01*
X124413450Y-88125802D01*
X124499110Y-88254001D01*
X124565000Y-88352612D01*
X124565000Y-88628424D01*
X124548643Y-88710657D01*
X124565000Y-88792890D01*
X124565000Y-88792893D01*
X124613448Y-89036457D01*
X124797999Y-89312658D01*
X124867720Y-89359244D01*
X126306001Y-90797526D01*
X126306001Y-92774098D01*
X126355284Y-93021863D01*
X126495632Y-93231907D01*
X126705676Y-93372255D01*
X126953441Y-93421538D01*
X127953441Y-93421538D01*
X128201206Y-93372255D01*
X128411250Y-93231907D01*
X128551598Y-93021863D01*
X128600881Y-92774098D01*
X128600881Y-90264098D01*
X131386001Y-90264098D01*
X131386001Y-92774098D01*
X131435284Y-93021863D01*
X131575632Y-93231907D01*
X131785676Y-93372255D01*
X132033441Y-93421538D01*
X133033441Y-93421538D01*
X133281206Y-93372255D01*
X133491250Y-93231907D01*
X133631598Y-93021863D01*
X133680881Y-92774098D01*
X133680881Y-90264098D01*
X133631598Y-90016333D01*
X133491250Y-89806289D01*
X133281206Y-89665941D01*
X133033441Y-89616658D01*
X132033441Y-89616658D01*
X131785676Y-89665941D01*
X131575632Y-89806289D01*
X131435284Y-90016333D01*
X131386001Y-90264098D01*
X128600881Y-90264098D01*
X128551598Y-90016333D01*
X128411250Y-89806289D01*
X128201206Y-89665941D01*
X127953441Y-89616658D01*
X127486869Y-89616658D01*
X126705210Y-88835000D01*
X135517767Y-88835000D01*
X135600000Y-88851357D01*
X135682233Y-88835000D01*
X135682237Y-88835000D01*
X135925801Y-88786552D01*
X136202001Y-88602001D01*
X136248587Y-88532280D01*
X136636199Y-88144668D01*
X138990613Y-90499083D01*
X139037197Y-90568801D01*
X139313397Y-90753352D01*
X139556961Y-90801800D01*
X139639198Y-90818158D01*
X139721435Y-90801800D01*
X140319332Y-90801800D01*
X140401391Y-90924609D01*
X140611435Y-91064957D01*
X140859200Y-91114240D01*
X142759200Y-91114240D01*
X143006965Y-91064957D01*
X143217009Y-90924609D01*
X143357357Y-90714565D01*
X143406640Y-90466800D01*
X143406640Y-90000227D01*
X144830083Y-88576785D01*
X144899801Y-88530201D01*
X145084352Y-88254001D01*
X145132800Y-88010437D01*
X145149158Y-87928200D01*
X145132800Y-87845963D01*
X145132800Y-85972711D01*
X145175231Y-85930280D01*
X145332800Y-85549874D01*
X145332800Y-85138126D01*
X145175231Y-84757720D01*
X144884080Y-84466569D01*
X144503674Y-84309000D01*
X144091926Y-84309000D01*
X143711520Y-84466569D01*
X143420369Y-84757720D01*
X143262800Y-85138126D01*
X143262800Y-85549874D01*
X143420369Y-85930280D01*
X143462800Y-85972711D01*
X143462801Y-87582331D01*
X142225773Y-88819360D01*
X140859200Y-88819360D01*
X140611435Y-88868643D01*
X140401391Y-89008991D01*
X140319332Y-89131800D01*
X139985066Y-89131800D01*
X137867500Y-87014235D01*
X137867500Y-86649736D01*
X137883858Y-86567500D01*
X137867500Y-86485263D01*
X137867500Y-85510144D01*
X137927765Y-85498157D01*
X137995492Y-85452903D01*
X138193691Y-85535000D01*
X138681750Y-85535000D01*
X138840500Y-85376250D01*
X138840500Y-84327000D01*
X139094500Y-84327000D01*
X139094500Y-85376250D01*
X139253250Y-85535000D01*
X139741309Y-85535000D01*
X139974698Y-85438327D01*
X140153327Y-85259699D01*
X140250000Y-85026310D01*
X140250000Y-84485750D01*
X140091250Y-84327000D01*
X139094500Y-84327000D01*
X138840500Y-84327000D01*
X138820500Y-84327000D01*
X138820500Y-84073000D01*
X138840500Y-84073000D01*
X138840500Y-84053000D01*
X139094500Y-84053000D01*
X139094500Y-84073000D01*
X140091250Y-84073000D01*
X140250000Y-83914250D01*
X140250000Y-83373690D01*
X140153327Y-83140301D01*
X139974698Y-82961673D01*
X139741309Y-82865000D01*
X139495868Y-82865000D01*
X140364783Y-81996085D01*
X140434501Y-81949501D01*
X140619052Y-81673301D01*
X140667500Y-81429737D01*
X140667500Y-81429733D01*
X140683857Y-81347500D01*
X140667500Y-81265267D01*
X140667500Y-78110144D01*
X140727765Y-78098157D01*
X140800000Y-78049891D01*
X140872235Y-78098157D01*
X141120000Y-78147440D01*
X142415000Y-78147440D01*
X142662765Y-78098157D01*
X142872809Y-77957809D01*
X143013157Y-77747765D01*
X143062440Y-77500000D01*
X143062440Y-77405051D01*
X143147929Y-77347929D01*
X143190331Y-77284470D01*
X143639802Y-76835000D01*
X143805874Y-76835000D01*
X144186280Y-76677431D01*
X144477431Y-76386280D01*
X144635000Y-76005874D01*
X144635000Y-75594126D01*
X144477431Y-75213720D01*
X144186280Y-74922569D01*
X143805874Y-74765000D01*
X143394126Y-74765000D01*
X143013720Y-74922569D01*
X142722569Y-75213720D01*
X142607757Y-75490901D01*
X142415000Y-75452560D01*
X141120000Y-75452560D01*
X140872235Y-75501843D01*
X140800000Y-75550109D01*
X140727765Y-75501843D01*
X140480000Y-75452560D01*
X139185000Y-75452560D01*
X138937235Y-75501843D01*
X138727191Y-75642191D01*
X138586843Y-75852235D01*
X138537560Y-76100000D01*
X138537560Y-76308410D01*
X138243013Y-76013863D01*
X137558637Y-75665156D01*
X136800000Y-75545000D01*
X136041363Y-75665156D01*
X135356987Y-76013863D01*
X134826730Y-76544120D01*
X134866104Y-76450602D01*
X135075502Y-75994234D01*
X135542773Y-75091244D01*
X136060221Y-74229000D01*
X136628353Y-73404328D01*
X137245017Y-72619201D01*
X137908085Y-71875609D01*
X138615351Y-71175607D01*
X138749377Y-71058550D01*
X143857800Y-71058550D01*
X143857800Y-72939109D01*
X143954473Y-73172498D01*
X144133101Y-73351127D01*
X144366490Y-73447800D01*
X144582285Y-73447800D01*
X144611782Y-73855768D01*
X144720032Y-74117108D01*
X144933600Y-74152395D01*
X145046485Y-74039510D01*
X145123101Y-74116127D01*
X145268749Y-74176456D01*
X145113205Y-74332000D01*
X145148492Y-74545568D01*
X145571364Y-74685949D01*
X146015768Y-74653818D01*
X146277108Y-74545568D01*
X146312395Y-74332000D01*
X146156851Y-74176456D01*
X146302499Y-74116127D01*
X146379115Y-74039510D01*
X146492000Y-74152395D01*
X146705568Y-74117108D01*
X146845949Y-73694236D01*
X146828131Y-73447800D01*
X147039110Y-73447800D01*
X147272499Y-73351127D01*
X147451127Y-73172498D01*
X147547800Y-72939109D01*
X147547800Y-71078550D01*
X151297800Y-71078550D01*
X151297800Y-72959109D01*
X151394473Y-73192498D01*
X151573101Y-73371127D01*
X151806490Y-73467800D01*
X152020793Y-73467800D01*
X152009651Y-73501364D01*
X152041782Y-73945768D01*
X152150032Y-74207108D01*
X152363600Y-74242395D01*
X152476485Y-74129510D01*
X152553101Y-74206127D01*
X152698749Y-74266456D01*
X152543205Y-74422000D01*
X152578492Y-74635568D01*
X153001364Y-74775949D01*
X153445768Y-74743818D01*
X153707108Y-74635568D01*
X153742395Y-74422000D01*
X153586851Y-74266456D01*
X153732499Y-74206127D01*
X153809115Y-74129510D01*
X153922000Y-74242395D01*
X154135568Y-74207108D01*
X154275949Y-73784236D01*
X154253070Y-73467800D01*
X154479110Y-73467800D01*
X154712499Y-73371127D01*
X154891127Y-73192498D01*
X154987800Y-72959109D01*
X154987800Y-72833658D01*
X155045206Y-72833658D01*
X155165380Y-73605484D01*
X155497351Y-74312558D01*
X156014430Y-74898038D01*
X156675050Y-75314858D01*
X157426104Y-75529510D01*
X158207215Y-75524739D01*
X158955590Y-75300927D01*
X159611069Y-74876067D01*
X160120956Y-74284314D01*
X160444264Y-73573237D01*
X160555000Y-72800000D01*
X160554178Y-72732689D01*
X160424582Y-71962389D01*
X160083999Y-71259424D01*
X159559805Y-70680304D01*
X158894142Y-70271586D01*
X158140522Y-70066126D01*
X157359527Y-70080440D01*
X156613942Y-70313378D01*
X155963703Y-70746214D01*
X155461083Y-71344152D01*
X155146487Y-72059126D01*
X155045206Y-72833658D01*
X154987800Y-72833658D01*
X154987800Y-71078550D01*
X154829050Y-70919800D01*
X153269800Y-70919800D01*
X153269800Y-72229550D01*
X153257800Y-72241550D01*
X153257800Y-72511562D01*
X153027800Y-72528192D01*
X153027800Y-72241550D01*
X153015800Y-72229550D01*
X153015800Y-70919800D01*
X151456550Y-70919800D01*
X151297800Y-71078550D01*
X147547800Y-71078550D01*
X147547800Y-71058550D01*
X147389050Y-70899800D01*
X145829800Y-70899800D01*
X145829800Y-72149550D01*
X145827800Y-72151550D01*
X145827800Y-72421562D01*
X145597800Y-72438192D01*
X145597800Y-72151550D01*
X145575800Y-72129550D01*
X145575800Y-70899800D01*
X144016550Y-70899800D01*
X143857800Y-71058550D01*
X138749377Y-71058550D01*
X139364673Y-70521161D01*
X140153877Y-69914299D01*
X140980799Y-69357031D01*
X141843263Y-68851363D01*
X142328512Y-68606491D01*
X143857800Y-68606491D01*
X143857800Y-70487050D01*
X144016550Y-70645800D01*
X145575800Y-70645800D01*
X145575800Y-68256550D01*
X145829800Y-68256550D01*
X145829800Y-70645800D01*
X147389050Y-70645800D01*
X147547800Y-70487050D01*
X147547800Y-68626491D01*
X151297800Y-68626491D01*
X151297800Y-70507050D01*
X151456550Y-70665800D01*
X153015800Y-70665800D01*
X153015800Y-68276550D01*
X153269800Y-68276550D01*
X153269800Y-70665800D01*
X154829050Y-70665800D01*
X154987800Y-70507050D01*
X154987800Y-68626491D01*
X154891127Y-68393102D01*
X154712499Y-68214473D01*
X154479110Y-68117800D01*
X153428550Y-68117800D01*
X153269800Y-68276550D01*
X153015800Y-68276550D01*
X152857050Y-68117800D01*
X151806490Y-68117800D01*
X151573101Y-68214473D01*
X151394473Y-68393102D01*
X151297800Y-68626491D01*
X147547800Y-68626491D01*
X147547800Y-68606491D01*
X147451127Y-68373102D01*
X147272499Y-68194473D01*
X147039110Y-68097800D01*
X145988550Y-68097800D01*
X145829800Y-68256550D01*
X145575800Y-68256550D01*
X145417050Y-68097800D01*
X144366490Y-68097800D01*
X144133101Y-68194473D01*
X143954473Y-68373102D01*
X143857800Y-68606491D01*
X142328512Y-68606491D01*
X142739153Y-68399269D01*
X143671700Y-68000460D01*
X144117719Y-67834338D01*
X144495111Y-67735000D01*
X154314722Y-67735000D01*
X154637487Y-67810923D01*
X154637487Y-67810923D01*
G37*
X154637487Y-67810923D02*
X155445544Y-68128139D01*
X156301261Y-68516826D01*
X157117400Y-68940444D01*
X157901199Y-69405881D01*
X158652918Y-69912243D01*
X159371263Y-70457826D01*
X160054886Y-71040924D01*
X160702442Y-71659792D01*
X161312585Y-72312737D01*
X161884009Y-72998051D01*
X162415312Y-73713946D01*
X162905182Y-74458754D01*
X163352266Y-75230714D01*
X163755234Y-76028147D01*
X164112771Y-76849341D01*
X164423511Y-77692571D01*
X164686156Y-78556203D01*
X164902128Y-79450022D01*
X165036784Y-80079406D01*
X165039717Y-80109664D01*
X165051891Y-80150019D01*
X165055096Y-80165000D01*
X160682232Y-80165000D01*
X160599999Y-80148643D01*
X160517766Y-80165000D01*
X160517763Y-80165000D01*
X160274199Y-80213448D01*
X159997999Y-80397999D01*
X159951414Y-80467718D01*
X159667718Y-80751415D01*
X159598000Y-80797999D01*
X159551417Y-80867716D01*
X159551416Y-80867717D01*
X159413448Y-81074200D01*
X159389093Y-81196640D01*
X159365000Y-81317763D01*
X159365000Y-81317767D01*
X159348643Y-81400000D01*
X159365000Y-81482233D01*
X159365000Y-81571289D01*
X159322569Y-81613720D01*
X159165000Y-81994126D01*
X159165000Y-82405874D01*
X159322569Y-82786280D01*
X159613720Y-83077431D01*
X159994126Y-83235000D01*
X160405874Y-83235000D01*
X160786280Y-83077431D01*
X161077431Y-82786280D01*
X161235000Y-82405874D01*
X161235000Y-81994126D01*
X161169088Y-81835000D01*
X171225131Y-81835000D01*
X171013720Y-81922569D01*
X170722569Y-82213720D01*
X170565000Y-82594126D01*
X170565000Y-83005874D01*
X170722569Y-83386280D01*
X171013720Y-83677431D01*
X171394126Y-83835000D01*
X171805874Y-83835000D01*
X172186280Y-83677431D01*
X172228711Y-83635000D01*
X175565000Y-83635000D01*
X175565001Y-89165000D01*
X172028711Y-89165000D01*
X171986280Y-89122569D01*
X171605874Y-88965000D01*
X171194126Y-88965000D01*
X170813720Y-89122569D01*
X170522569Y-89413720D01*
X170365000Y-89794126D01*
X170365000Y-90205874D01*
X170522569Y-90586280D01*
X170813720Y-90877431D01*
X171194126Y-91035000D01*
X171605874Y-91035000D01*
X171986280Y-90877431D01*
X172028711Y-90835000D01*
X175565000Y-90835000D01*
X175565001Y-96165000D01*
X172028711Y-96165000D01*
X171986280Y-96122569D01*
X171605874Y-95965000D01*
X171194126Y-95965000D01*
X170813720Y-96122569D01*
X170522569Y-96413720D01*
X170365000Y-96794126D01*
X170365000Y-97205874D01*
X170522569Y-97586280D01*
X170813720Y-97877431D01*
X171194126Y-98035000D01*
X171605874Y-98035000D01*
X171986280Y-97877431D01*
X172028711Y-97835000D01*
X175917767Y-97835000D01*
X176000000Y-97851357D01*
X176082233Y-97835000D01*
X176082237Y-97835000D01*
X176325801Y-97786552D01*
X176373688Y-97754555D01*
X177767716Y-99148584D01*
X177767719Y-99148586D01*
X179112889Y-100493757D01*
X179072235Y-100501843D01*
X179000000Y-100550109D01*
X178927765Y-100501843D01*
X178680000Y-100452560D01*
X177385000Y-100452560D01*
X177137235Y-100501843D01*
X176927191Y-100642191D01*
X176786843Y-100852235D01*
X176737560Y-101100000D01*
X176737560Y-102500000D01*
X176786843Y-102747765D01*
X176927191Y-102957809D01*
X177137235Y-103098157D01*
X177272501Y-103125063D01*
X177272500Y-106852698D01*
X176960199Y-107165000D01*
X176794126Y-107165000D01*
X176413720Y-107322569D01*
X176122569Y-107613720D01*
X175965000Y-107994126D01*
X175965000Y-108405874D01*
X176122569Y-108786280D01*
X176413720Y-109077431D01*
X176794126Y-109235000D01*
X177205874Y-109235000D01*
X177586280Y-109077431D01*
X177877431Y-108786280D01*
X178035000Y-108405874D01*
X178035000Y-108239801D01*
X178516973Y-107757829D01*
X178580429Y-107715429D01*
X178748404Y-107464037D01*
X178792500Y-107242352D01*
X178792500Y-107242348D01*
X178807388Y-107167500D01*
X178792500Y-107092652D01*
X178792500Y-103125063D01*
X178927765Y-103098157D01*
X179000000Y-103049891D01*
X179072235Y-103098157D01*
X179320000Y-103147440D01*
X180615000Y-103147440D01*
X180862765Y-103098157D01*
X180941639Y-103045455D01*
X180933000Y-103100000D01*
X181053156Y-103858637D01*
X181401863Y-104543013D01*
X181944987Y-105086137D01*
X182629363Y-105434844D01*
X183388000Y-105555000D01*
X184146637Y-105434844D01*
X184831013Y-105086137D01*
X185374137Y-104543013D01*
X185722844Y-103858637D01*
X185843000Y-103100000D01*
X185722844Y-102341363D01*
X185374137Y-101656987D01*
X184831013Y-101113863D01*
X184146637Y-100765156D01*
X183388000Y-100645000D01*
X182629363Y-100765156D01*
X181944987Y-101113863D01*
X181401863Y-101656987D01*
X181262440Y-101930620D01*
X181262440Y-101100000D01*
X181213157Y-100852235D01*
X181072809Y-100642191D01*
X180862765Y-100501843D01*
X180802500Y-100489856D01*
X180802500Y-100249732D01*
X180818857Y-100167499D01*
X180802500Y-100085266D01*
X180802500Y-100085263D01*
X180754052Y-99841699D01*
X180569501Y-99565499D01*
X180499783Y-99518915D01*
X178948586Y-97967719D01*
X178948584Y-97967716D01*
X177235000Y-96254133D01*
X177235000Y-89682234D01*
X177251357Y-89600001D01*
X177235000Y-89517768D01*
X177235000Y-82482234D01*
X177251357Y-82400001D01*
X177235000Y-82317768D01*
X177235000Y-81482232D01*
X177251357Y-81399999D01*
X177235000Y-81317764D01*
X177235000Y-81317763D01*
X177186552Y-81074199D01*
X177002001Y-80797999D01*
X176932283Y-80751415D01*
X176648587Y-80467720D01*
X176602001Y-80397999D01*
X176325801Y-80213448D01*
X176082237Y-80165000D01*
X176082233Y-80165000D01*
X176000000Y-80148643D01*
X175917767Y-80165000D01*
X167593476Y-80165000D01*
X168084919Y-79911150D01*
X168736600Y-79635151D01*
X169402811Y-79410871D01*
X170081112Y-79238232D01*
X170769076Y-79117185D01*
X171464242Y-79047715D01*
X172164072Y-79029840D01*
X172866119Y-79063608D01*
X173567782Y-79149066D01*
X174266524Y-79286273D01*
X174959819Y-79475333D01*
X175645086Y-79716325D01*
X176319727Y-80009354D01*
X176981212Y-80354562D01*
X177630793Y-80754462D01*
X178207729Y-81157743D01*
X178754118Y-81579717D01*
X179266263Y-82017448D01*
X179744289Y-82470691D01*
X180188382Y-82939252D01*
X180598785Y-83423054D01*
X180975690Y-83921944D01*
X181319320Y-84436010D01*
X181629852Y-84965205D01*
X181907432Y-85509745D01*
X182152166Y-86069798D01*
X182364105Y-86645557D01*
X182543202Y-87237240D01*
X182689366Y-87845071D01*
X182802404Y-88469209D01*
X182881511Y-89105186D01*
X182923834Y-89843566D01*
X182907416Y-90562088D01*
X182833912Y-91261213D01*
X182704557Y-91937143D01*
X182520753Y-92586214D01*
X182280815Y-93212882D01*
X182146473Y-93502075D01*
X181995787Y-93790069D01*
X181832525Y-94068757D01*
X181647964Y-94351322D01*
X181420004Y-94696285D01*
X181398516Y-94722382D01*
X181380194Y-94756527D01*
X181358829Y-94788858D01*
X181346051Y-94820158D01*
X181303051Y-94900293D01*
X181250833Y-94967940D01*
X181215613Y-95097883D01*
X181176319Y-95226673D01*
X181177474Y-95238596D01*
X181174340Y-95250159D01*
X181191530Y-95383704D01*
X181204510Y-95517710D01*
X181210140Y-95528283D01*
X181211669Y-95540165D01*
X181278652Y-95656959D01*
X181341931Y-95775806D01*
X181351180Y-95783421D01*
X181357139Y-95793812D01*
X181463720Y-95876084D01*
X181567661Y-95961667D01*
X181649398Y-95986605D01*
X182270553Y-96295155D01*
X182587806Y-96462422D01*
X182888716Y-96644398D01*
X183184082Y-96846389D01*
X183472463Y-97067245D01*
X183752548Y-97305724D01*
X184022910Y-97560419D01*
X184282240Y-97830018D01*
X184529267Y-98113089D01*
X184762672Y-98408105D01*
X184981264Y-98713663D01*
X185183893Y-99028252D01*
X185369398Y-99350247D01*
X185536699Y-99678144D01*
X185684767Y-100010321D01*
X185812663Y-100345238D01*
X185917008Y-100673438D01*
X185981941Y-100956378D01*
X186035600Y-101312365D01*
X186075195Y-101725859D01*
X186098352Y-102173198D01*
X186103972Y-102632963D01*
X186091303Y-103084482D01*
X186060516Y-103506474D01*
X186012188Y-103880631D01*
X185909284Y-104410074D01*
X185776916Y-104929393D01*
X185616306Y-105435354D01*
X185428229Y-105927039D01*
X185213507Y-106403494D01*
X184972933Y-106863625D01*
X184707303Y-107306464D01*
X184417388Y-107731019D01*
X184103982Y-108136276D01*
X183767893Y-108521159D01*
X183409824Y-108884760D01*
X183030551Y-109226102D01*
X182630828Y-109544212D01*
X182211362Y-109838054D01*
X181772848Y-110106674D01*
X181314736Y-110349763D01*
X180706064Y-110628511D01*
X180101146Y-110861574D01*
X179459479Y-111063212D01*
X178732246Y-111248653D01*
X178079491Y-111399589D01*
X142416668Y-111408565D01*
X137048711Y-111407892D01*
X143737493Y-104719111D01*
X143665000Y-104894126D01*
X143665000Y-105305874D01*
X143822569Y-105686280D01*
X144113720Y-105977431D01*
X144494126Y-106135000D01*
X144905874Y-106135000D01*
X145286280Y-105977431D01*
X145403711Y-105860000D01*
X163085199Y-105860000D01*
X166809670Y-109584472D01*
X166852071Y-109647929D01*
X167103463Y-109815904D01*
X167325148Y-109860000D01*
X167325152Y-109860000D01*
X167399999Y-109874888D01*
X167474846Y-109860000D01*
X171085199Y-109860000D01*
X171565000Y-110339802D01*
X171565000Y-110505874D01*
X171722569Y-110886280D01*
X172013720Y-111177431D01*
X172394126Y-111335000D01*
X172805874Y-111335000D01*
X173186280Y-111177431D01*
X173477431Y-110886280D01*
X173635000Y-110505874D01*
X173635000Y-110094126D01*
X173477431Y-109713720D01*
X173186280Y-109422569D01*
X172805874Y-109265000D01*
X172639802Y-109265000D01*
X171990331Y-108615530D01*
X171947929Y-108552071D01*
X171696537Y-108384096D01*
X171474852Y-108340000D01*
X171474847Y-108340000D01*
X171400000Y-108325112D01*
X171325153Y-108340000D01*
X167714802Y-108340000D01*
X163990331Y-104615530D01*
X163947929Y-104552071D01*
X163696537Y-104384096D01*
X163474852Y-104340000D01*
X163474847Y-104340000D01*
X163400000Y-104325112D01*
X163325153Y-104340000D01*
X159498391Y-104340000D01*
X161224392Y-102614000D01*
X171508289Y-102614000D01*
X171625720Y-102731431D01*
X172006126Y-102889000D01*
X172417874Y-102889000D01*
X172798280Y-102731431D01*
X173089431Y-102440280D01*
X173247000Y-102059874D01*
X173247000Y-101648126D01*
X173089431Y-101267720D01*
X172798280Y-100976569D01*
X172417874Y-100819000D01*
X172006126Y-100819000D01*
X171625720Y-100976569D01*
X171508289Y-101094000D01*
X160984438Y-101094000D01*
X160909590Y-101079112D01*
X160834742Y-101094000D01*
X160834738Y-101094000D01*
X160666725Y-101127420D01*
X160613052Y-101138096D01*
X160481096Y-101226267D01*
X160361661Y-101306071D01*
X160319261Y-101369527D01*
X158448783Y-103240006D01*
X156406795Y-103240006D01*
X165139802Y-94507000D01*
X165305874Y-94507000D01*
X165686280Y-94349431D01*
X165977431Y-94058280D01*
X166135000Y-93677874D01*
X166135000Y-93266126D01*
X165977431Y-92885720D01*
X165686280Y-92594569D01*
X165305874Y-92437000D01*
X164894126Y-92437000D01*
X164513720Y-92594569D01*
X164465000Y-92643289D01*
X164416280Y-92594569D01*
X164035874Y-92437000D01*
X163624126Y-92437000D01*
X163243720Y-92594569D01*
X163195000Y-92643289D01*
X163146280Y-92594569D01*
X162765874Y-92437000D01*
X162354126Y-92437000D01*
X161973720Y-92594569D01*
X161682569Y-92885720D01*
X161525000Y-93266126D01*
X161525000Y-93340000D01*
X159074846Y-93340000D01*
X158999999Y-93325112D01*
X158925152Y-93340000D01*
X158925148Y-93340000D01*
X158703463Y-93384096D01*
X158483061Y-93531364D01*
X158475752Y-93513720D01*
X158184601Y-93222569D01*
X157804195Y-93065000D01*
X157392447Y-93065000D01*
X157012041Y-93222569D01*
X156720890Y-93513720D01*
X156563321Y-93894126D01*
X156563321Y-94060198D01*
X154158520Y-96465000D01*
X153992447Y-96465000D01*
X153882693Y-96510462D01*
X153922000Y-96312852D01*
X153922000Y-96312848D01*
X153936888Y-96238001D01*
X153922000Y-96163154D01*
X153922000Y-89349711D01*
X154039431Y-89232280D01*
X154197000Y-88851874D01*
X154197000Y-88440126D01*
X154039431Y-88059720D01*
X153748280Y-87768569D01*
X153367874Y-87611000D01*
X152956126Y-87611000D01*
X152575720Y-87768569D01*
X152284569Y-88059720D01*
X152127000Y-88440126D01*
X152127000Y-88851874D01*
X152284569Y-89232280D01*
X152402001Y-89349712D01*
X152402000Y-92818728D01*
X152376473Y-92801671D01*
X151597131Y-92022330D01*
X151554729Y-91958871D01*
X151303337Y-91790896D01*
X151081652Y-91746800D01*
X151081647Y-91746800D01*
X151006800Y-91731912D01*
X150931953Y-91746800D01*
X146649182Y-91746800D01*
X146517009Y-91548991D01*
X146306965Y-91408643D01*
X146059200Y-91359360D01*
X144159200Y-91359360D01*
X143911435Y-91408643D01*
X143701391Y-91548991D01*
X143561043Y-91759035D01*
X143511760Y-92006800D01*
X143511760Y-93006800D01*
X143561043Y-93254565D01*
X143701391Y-93464609D01*
X143911435Y-93604957D01*
X143969212Y-93616449D01*
X143771941Y-93813720D01*
X143614372Y-94194126D01*
X143614372Y-94605874D01*
X143771941Y-94986280D01*
X144063092Y-95277431D01*
X144443498Y-95435000D01*
X144855246Y-95435000D01*
X145235652Y-95277431D01*
X145353083Y-95160000D01*
X145985199Y-95160000D01*
X147265006Y-96439808D01*
X147265006Y-96605880D01*
X147422575Y-96986286D01*
X147665756Y-97229467D01*
X146694200Y-98201024D01*
X146694200Y-97872550D01*
X146535450Y-97713800D01*
X145236200Y-97713800D01*
X145236200Y-97733800D01*
X144982200Y-97733800D01*
X144982200Y-97713800D01*
X144962200Y-97713800D01*
X144962200Y-97459800D01*
X144982200Y-97459800D01*
X144982200Y-96610550D01*
X145236200Y-96610550D01*
X145236200Y-97459800D01*
X146535450Y-97459800D01*
X146694200Y-97301050D01*
X146694200Y-96960490D01*
X146597527Y-96727101D01*
X146418898Y-96548473D01*
X146185509Y-96451800D01*
X145394950Y-96451800D01*
X145236200Y-96610550D01*
X144982200Y-96610550D01*
X144823450Y-96451800D01*
X144032891Y-96451800D01*
X143799502Y-96548473D01*
X143620873Y-96727101D01*
X143587720Y-96807139D01*
X143461874Y-96755012D01*
X143050126Y-96755012D01*
X142844968Y-96839991D01*
X139890810Y-96839991D01*
X140596095Y-96134707D01*
X140611435Y-96144957D01*
X140859200Y-96194240D01*
X142759200Y-96194240D01*
X143006965Y-96144957D01*
X143217009Y-96004609D01*
X143357357Y-95794565D01*
X143406640Y-95546800D01*
X143406640Y-94546800D01*
X143361889Y-94321822D01*
X143371431Y-94312280D01*
X143529000Y-93931874D01*
X143529000Y-93520126D01*
X143371431Y-93139720D01*
X143080280Y-92848569D01*
X142699874Y-92691000D01*
X142288126Y-92691000D01*
X141907720Y-92848569D01*
X141790289Y-92966000D01*
X140282848Y-92966000D01*
X140208000Y-92951112D01*
X140133152Y-92966000D01*
X140133148Y-92966000D01*
X139966668Y-92999115D01*
X139911462Y-93010096D01*
X139800735Y-93084082D01*
X139660071Y-93178071D01*
X139617671Y-93241527D01*
X137099199Y-95760000D01*
X136220881Y-95760000D01*
X136220881Y-93574098D01*
X136171598Y-93326333D01*
X136031250Y-93116289D01*
X135821206Y-92975941D01*
X135573441Y-92926658D01*
X134573441Y-92926658D01*
X134325676Y-92975941D01*
X134115632Y-93116289D01*
X133975284Y-93326333D01*
X133926001Y-93574098D01*
X133926001Y-95760000D01*
X131140881Y-95760000D01*
X131140881Y-93574098D01*
X131091598Y-93326333D01*
X130951250Y-93116289D01*
X130741206Y-92975941D01*
X130493441Y-92926658D01*
X129493441Y-92926658D01*
X129245676Y-92975941D01*
X129035632Y-93116289D01*
X128895284Y-93326333D01*
X128846001Y-93574098D01*
X128846001Y-95760000D01*
X126060881Y-95760000D01*
X126060881Y-93574098D01*
X126011598Y-93326333D01*
X125871250Y-93116289D01*
X125661206Y-92975941D01*
X125413441Y-92926658D01*
X124413441Y-92926658D01*
X124165676Y-92975941D01*
X123955632Y-93116289D01*
X123815284Y-93326333D01*
X123766001Y-93574098D01*
X123766001Y-95760000D01*
X120980881Y-95760000D01*
X120980881Y-93574098D01*
X120931598Y-93326333D01*
X120791250Y-93116289D01*
X120581206Y-92975941D01*
X120333441Y-92926658D01*
X119333441Y-92926658D01*
X119085676Y-92975941D01*
X118875632Y-93116289D01*
X118735284Y-93326333D01*
X118686001Y-93574098D01*
X118686001Y-95760000D01*
X117509145Y-95760000D01*
X116093772Y-94344628D01*
X116051370Y-94281169D01*
X115900881Y-94180615D01*
X115900881Y-93574098D01*
X115851598Y-93326333D01*
X115711250Y-93116289D01*
X115501206Y-92975941D01*
X115253441Y-92926658D01*
X114253441Y-92926658D01*
X114005676Y-92975941D01*
X113795632Y-93116289D01*
X113655284Y-93326333D01*
X113606001Y-93574098D01*
X113606001Y-96084098D01*
X113631230Y-96210932D01*
X113620944Y-96208886D01*
X113546096Y-96223774D01*
X113546092Y-96223774D01*
X113324407Y-96267870D01*
X113073015Y-96435845D01*
X113030615Y-96499301D01*
X112396816Y-97133101D01*
X112386280Y-97122565D01*
X112060000Y-96987416D01*
X112060000Y-93421538D01*
X112713441Y-93421538D01*
X112961206Y-93372255D01*
X113171250Y-93231907D01*
X113311598Y-93021863D01*
X113360881Y-92774098D01*
X113360881Y-90264098D01*
X116146001Y-90264098D01*
X116146001Y-92774098D01*
X116195284Y-93021863D01*
X116335632Y-93231907D01*
X116545676Y-93372255D01*
X116793441Y-93421538D01*
X117793441Y-93421538D01*
X118041206Y-93372255D01*
X118251250Y-93231907D01*
X118391598Y-93021863D01*
X118440881Y-92774098D01*
X118440881Y-90264098D01*
X121226001Y-90264098D01*
X121226001Y-92774098D01*
X121275284Y-93021863D01*
X121415632Y-93231907D01*
X121625676Y-93372255D01*
X121873441Y-93421538D01*
X122873441Y-93421538D01*
X123121206Y-93372255D01*
X123331250Y-93231907D01*
X123471598Y-93021863D01*
X123520881Y-92774098D01*
X123520881Y-90264098D01*
X123471598Y-90016333D01*
X123331250Y-89806289D01*
X123121206Y-89665941D01*
X122873441Y-89616658D01*
X121873441Y-89616658D01*
X121625676Y-89665941D01*
X121415632Y-89806289D01*
X121275284Y-90016333D01*
X121226001Y-90264098D01*
X118440881Y-90264098D01*
X118391598Y-90016333D01*
X118251250Y-89806289D01*
X118041206Y-89665941D01*
X117793441Y-89616658D01*
X116793441Y-89616658D01*
X116545676Y-89665941D01*
X116335632Y-89806289D01*
X116195284Y-90016333D01*
X116146001Y-90264098D01*
X113360881Y-90264098D01*
X113311598Y-90016333D01*
X113171250Y-89806289D01*
X112961206Y-89665941D01*
X112713441Y-89616658D01*
X111713441Y-89616658D01*
X111465676Y-89665941D01*
X111255632Y-89806289D01*
X111115284Y-90016333D01*
X111066001Y-90264098D01*
X111066001Y-91591737D01*
X110815530Y-91842208D01*
X110752071Y-91884610D01*
X110584096Y-92136003D01*
X110540000Y-92357688D01*
X110540000Y-92357692D01*
X110525112Y-92432539D01*
X110540000Y-92507386D01*
X110540000Y-93055317D01*
X110421206Y-92975941D01*
X110173441Y-92926658D01*
X109173441Y-92926658D01*
X108925676Y-92975941D01*
X108715632Y-93116289D01*
X108575284Y-93326333D01*
X108526001Y-93574098D01*
X108526001Y-96084098D01*
X108575284Y-96331863D01*
X108715632Y-96541907D01*
X108913442Y-96674080D01*
X108913442Y-96998585D01*
X108898553Y-97073437D01*
X108957538Y-97369974D01*
X109076523Y-97548047D01*
X109125513Y-97621366D01*
X109188969Y-97663766D01*
X110665000Y-99139798D01*
X110665000Y-99305870D01*
X110774409Y-99570008D01*
X110544810Y-99570008D01*
X110330417Y-99355616D01*
X110275929Y-99274069D01*
X110212473Y-99231669D01*
X107893441Y-96912638D01*
X107893441Y-93364080D01*
X108091250Y-93231907D01*
X108231598Y-93021863D01*
X108280881Y-92774098D01*
X108280881Y-90264098D01*
X108231598Y-90016333D01*
X108091250Y-89806289D01*
X107881206Y-89665941D01*
X107633441Y-89616658D01*
X106633441Y-89616658D01*
X106513059Y-89640603D01*
X106564217Y-89463865D01*
X106774470Y-88858897D01*
X106992136Y-88336577D01*
X107176999Y-87963734D01*
X107381841Y-87592513D01*
X107602890Y-87230275D01*
X107748976Y-87012687D01*
X108013720Y-87277431D01*
X108394126Y-87435000D01*
X108805874Y-87435000D01*
X109186280Y-87277431D01*
X109477431Y-86986280D01*
X109635000Y-86605874D01*
X109635000Y-86545868D01*
X109789118Y-86391750D01*
X118400000Y-86391750D01*
X118400000Y-86932310D01*
X118496673Y-87165699D01*
X118675302Y-87344327D01*
X118908691Y-87441000D01*
X119396750Y-87441000D01*
X119555500Y-87282250D01*
X119555500Y-86233000D01*
X118558750Y-86233000D01*
X118400000Y-86391750D01*
X109789118Y-86391750D01*
X110145869Y-86035000D01*
X114717767Y-86035000D01*
X114800000Y-86051357D01*
X114882233Y-86035000D01*
X114882237Y-86035000D01*
X115125801Y-85986552D01*
X115402001Y-85802001D01*
X115448587Y-85732280D01*
X115901177Y-85279690D01*
X118400000Y-85279690D01*
X118400000Y-85820250D01*
X118558750Y-85979000D01*
X119555500Y-85979000D01*
X119555500Y-84929750D01*
X119396750Y-84771000D01*
X118908691Y-84771000D01*
X118675302Y-84867673D01*
X118496673Y-85046301D01*
X118400000Y-85279690D01*
X115901177Y-85279690D01*
X116332283Y-84848585D01*
X116402001Y-84802001D01*
X116586552Y-84525801D01*
X116635000Y-84282237D01*
X116635000Y-84282236D01*
X116651358Y-84200000D01*
X116635000Y-84117763D01*
X116635000Y-82346776D01*
X116765001Y-82216776D01*
X116765001Y-82517762D01*
X116748643Y-82600000D01*
X116813448Y-82925800D01*
X116897676Y-83051855D01*
X116998000Y-83202001D01*
X117067718Y-83248585D01*
X117155413Y-83336280D01*
X117201999Y-83406001D01*
X117478199Y-83590552D01*
X117721763Y-83639000D01*
X117804000Y-83655358D01*
X117886237Y-83639000D01*
X117962560Y-83639000D01*
X117962560Y-83704000D01*
X118011843Y-83951765D01*
X118152191Y-84161809D01*
X118362235Y-84302157D01*
X118610000Y-84351440D01*
X119830000Y-84351440D01*
X120077765Y-84302157D01*
X120287809Y-84161809D01*
X120428157Y-83951765D01*
X120477440Y-83704000D01*
X120477440Y-81904000D01*
X120428157Y-81656235D01*
X120287809Y-81446191D01*
X120271061Y-81435000D01*
X121028939Y-81435000D01*
X121012191Y-81446191D01*
X120871843Y-81656235D01*
X120822560Y-81904000D01*
X120822560Y-83704000D01*
X120871843Y-83951765D01*
X121012191Y-84161809D01*
X121222235Y-84302157D01*
X121320001Y-84321604D01*
X121320001Y-84758560D01*
X120970000Y-84758560D01*
X120722235Y-84807843D01*
X120654508Y-84853097D01*
X120456309Y-84771000D01*
X119968250Y-84771000D01*
X119809500Y-84929750D01*
X119809500Y-85979000D01*
X119829500Y-85979000D01*
X119829500Y-86233000D01*
X119809500Y-86233000D01*
X119809500Y-87282250D01*
X119968250Y-87441000D01*
X120456309Y-87441000D01*
X120654508Y-87358903D01*
X120722235Y-87404157D01*
X120970000Y-87453440D01*
X122265000Y-87453440D01*
X122512765Y-87404157D01*
X122722809Y-87263809D01*
X122863157Y-87053765D01*
X122899008Y-86873530D01*
X122936000Y-86880888D01*
X123010847Y-86866000D01*
X123010852Y-86866000D01*
X123232537Y-86821904D01*
X123483929Y-86653929D01*
X123526330Y-86590471D01*
X123928475Y-86188327D01*
X123991929Y-86145929D01*
X124034327Y-86082476D01*
X124034329Y-86082474D01*
X124159903Y-85894538D01*
X124159904Y-85894537D01*
X124204000Y-85672852D01*
X124204000Y-85672848D01*
X124218888Y-85598001D01*
X124204000Y-85523154D01*
X124204000Y-84070801D01*
X125226202Y-83048600D01*
X126063574Y-83048600D01*
X126141691Y-83165509D01*
X126351735Y-83305857D01*
X126599500Y-83355140D01*
X128199700Y-83355140D01*
X128447465Y-83305857D01*
X128657509Y-83165509D01*
X128734289Y-83050600D01*
X132352860Y-83050600D01*
X132352860Y-86149400D01*
X132402143Y-86397165D01*
X132542491Y-86607209D01*
X132752535Y-86747557D01*
X133000300Y-86796840D01*
X134600500Y-86796840D01*
X134848265Y-86747557D01*
X135058309Y-86607209D01*
X135198657Y-86397165D01*
X135247940Y-86149400D01*
X135247940Y-83050600D01*
X135198657Y-82802835D01*
X135058309Y-82592791D01*
X134848265Y-82452443D01*
X134600500Y-82403160D01*
X133000300Y-82403160D01*
X132752535Y-82452443D01*
X132542491Y-82592791D01*
X132402143Y-82802835D01*
X132352860Y-83050600D01*
X128734289Y-83050600D01*
X128797857Y-82955465D01*
X128847140Y-82707700D01*
X128847140Y-81869500D01*
X128797857Y-81621735D01*
X128657509Y-81411691D01*
X128447465Y-81271343D01*
X128199700Y-81222060D01*
X126599500Y-81222060D01*
X126351735Y-81271343D01*
X126141691Y-81411691D01*
X126063574Y-81528600D01*
X124986247Y-81528600D01*
X124911400Y-81513712D01*
X124836553Y-81528600D01*
X124836548Y-81528600D01*
X124614863Y-81572696D01*
X124363471Y-81740671D01*
X124321071Y-81804127D01*
X123337440Y-82787759D01*
X123337440Y-81904000D01*
X123288157Y-81656235D01*
X123147809Y-81446191D01*
X122937765Y-81305843D01*
X122690000Y-81256560D01*
X121926348Y-81256560D01*
X122008001Y-81202001D01*
X122054587Y-81132280D01*
X122786145Y-80400722D01*
X122866722Y-80481299D01*
X123247128Y-80638868D01*
X123658876Y-80638868D01*
X124039282Y-80481299D01*
X124081713Y-80438868D01*
X125031899Y-80438868D01*
X125114132Y-80455225D01*
X125196365Y-80438868D01*
X125196369Y-80438868D01*
X125439933Y-80390420D01*
X125716133Y-80205869D01*
X125762719Y-80136149D01*
X126250285Y-79648583D01*
X126320001Y-79602001D01*
X126366821Y-79531931D01*
X126463255Y-79387607D01*
X126468000Y-79384436D01*
X126620235Y-79486157D01*
X126868000Y-79535440D01*
X127568000Y-79535440D01*
X127815765Y-79486157D01*
X128025809Y-79345809D01*
X128166157Y-79135765D01*
X128215440Y-78888000D01*
X128215440Y-78535440D01*
X129118000Y-78535440D01*
X129365765Y-78486157D01*
X129575809Y-78345809D01*
X129716157Y-78135765D01*
X129765440Y-77888000D01*
X129765440Y-77088000D01*
X129716157Y-76840235D01*
X129575809Y-76630191D01*
X129365765Y-76489843D01*
X129118000Y-76440560D01*
X128118000Y-76440560D01*
X127870235Y-76489843D01*
X127660191Y-76630191D01*
X127584280Y-76743798D01*
X127568000Y-76740560D01*
X127492218Y-76740560D01*
X127553000Y-76593820D01*
X127553000Y-76162180D01*
X127387818Y-75763397D01*
X127082603Y-75458182D01*
X126683820Y-75293000D01*
X126252180Y-75293000D01*
X125853397Y-75458182D01*
X125548182Y-75763397D01*
X125383000Y-76162180D01*
X125383000Y-76593820D01*
X125443782Y-76740560D01*
X125368000Y-76740560D01*
X125120235Y-76789843D01*
X124910191Y-76930191D01*
X124769843Y-77140235D01*
X124720560Y-77388000D01*
X124720560Y-78768868D01*
X124081713Y-78768868D01*
X124039282Y-78726437D01*
X123715440Y-78592298D01*
X123715440Y-77449903D01*
X124082603Y-77297818D01*
X124387818Y-76992603D01*
X124553000Y-76593820D01*
X124553000Y-76162180D01*
X124387818Y-75763397D01*
X124082603Y-75458182D01*
X123683820Y-75293000D01*
X123252180Y-75293000D01*
X122853397Y-75458182D01*
X122548182Y-75763397D01*
X122383000Y-76162180D01*
X122383000Y-76593820D01*
X122443782Y-76740560D01*
X122368000Y-76740560D01*
X122351720Y-76743798D01*
X122275809Y-76630191D01*
X122065765Y-76489843D01*
X121818000Y-76440560D01*
X120818000Y-76440560D01*
X120570235Y-76489843D01*
X120360191Y-76630191D01*
X120219843Y-76840235D01*
X120170560Y-77088000D01*
X120170560Y-77888000D01*
X120219843Y-78135765D01*
X120360191Y-78345809D01*
X120570235Y-78486157D01*
X120818000Y-78535440D01*
X121720560Y-78535440D01*
X121720560Y-78888000D01*
X121756491Y-79068641D01*
X121060133Y-79765000D01*
X119235000Y-79765000D01*
X119235000Y-79395035D01*
X119077431Y-79014629D01*
X118786280Y-78723478D01*
X118405874Y-78565909D01*
X117994126Y-78565909D01*
X117613720Y-78723478D01*
X117322569Y-79014629D01*
X117165000Y-79395035D01*
X117165000Y-79455041D01*
X116075769Y-80544272D01*
X116257867Y-80037265D01*
X116520837Y-79457769D01*
X116831438Y-78894860D01*
X117187415Y-78351132D01*
X117586359Y-77829314D01*
X118025798Y-77332096D01*
X118503118Y-76862235D01*
X119015668Y-76422401D01*
X119560731Y-76015239D01*
X120135522Y-75643348D01*
X120170560Y-75623894D01*
X120170560Y-75678000D01*
X120219843Y-75925765D01*
X120360191Y-76135809D01*
X120570235Y-76276157D01*
X120818000Y-76325440D01*
X121818000Y-76325440D01*
X122065765Y-76276157D01*
X122275809Y-76135809D01*
X122416157Y-75925765D01*
X122465440Y-75678000D01*
X122465440Y-74878000D01*
X122417729Y-74638136D01*
X122676218Y-74558100D01*
X123356521Y-74399552D01*
X123657600Y-74353389D01*
X124032581Y-74317366D01*
X124931966Y-74280956D01*
X125830334Y-74299167D01*
X126203770Y-74327564D01*
X126503411Y-74367631D01*
X126995187Y-74471616D01*
X127506121Y-74613238D01*
X127526571Y-74620166D01*
X127519843Y-74630235D01*
X127470560Y-74878000D01*
X127470560Y-75678000D01*
X127519843Y-75925765D01*
X127660191Y-76135809D01*
X127870235Y-76276157D01*
X128118000Y-76325440D01*
X129118000Y-76325440D01*
X129365765Y-76276157D01*
X129575809Y-76135809D01*
X129716157Y-75925765D01*
X129765440Y-75678000D01*
X129765440Y-75629238D01*
X129952793Y-75742810D01*
X130346348Y-76018168D01*
X130872321Y-76456418D01*
X131417303Y-76983182D01*
X131924698Y-77542062D01*
X132135584Y-77801909D01*
X132324219Y-78057870D01*
X132746527Y-78651648D01*
X132824310Y-78766086D01*
X132892586Y-78810928D01*
X132952006Y-78866979D01*
X133013615Y-78890418D01*
X133068712Y-78926604D01*
X133110079Y-78934492D01*
X133118441Y-78939416D01*
X133156424Y-78944748D01*
X133225297Y-78970950D01*
X133322809Y-78968105D01*
X133408001Y-78980064D01*
X133470913Y-78963783D01*
X133517573Y-78962422D01*
X133565013Y-78941130D01*
X133657657Y-78921938D01*
X133673054Y-78911473D01*
X133691076Y-78906809D01*
X133764054Y-78851799D01*
X133784338Y-78842695D01*
X133802377Y-78823572D01*
X133836363Y-78800471D01*
X133862368Y-78786642D01*
X133869577Y-78777896D01*
X133899484Y-78757568D01*
X133949949Y-78680731D01*
X133984802Y-78641669D01*
X133992167Y-78629161D01*
X134001400Y-78617959D01*
X134028849Y-78566866D01*
X134095718Y-78453304D01*
X134097265Y-78442286D01*
X134112207Y-78418518D01*
X134121216Y-78394933D01*
X134133162Y-78372697D01*
X134146986Y-78327469D01*
X134282577Y-77972506D01*
X134288194Y-77962948D01*
X134308380Y-77904956D01*
X134330283Y-77847616D01*
X134332142Y-77836691D01*
X134403197Y-77632558D01*
X134345000Y-78000000D01*
X134465156Y-78758637D01*
X134813863Y-79443013D01*
X135356987Y-79986137D01*
X136041363Y-80334844D01*
X136800000Y-80455000D01*
X137558637Y-80334844D01*
X138243013Y-79986137D01*
X138786137Y-79443013D01*
X138997501Y-79028188D01*
X138997500Y-81001632D01*
X137146573Y-82852560D01*
X136385000Y-82852560D01*
X136137235Y-82901843D01*
X135927191Y-83042191D01*
X135786843Y-83252235D01*
X135737560Y-83500000D01*
X135737560Y-84900000D01*
X135786843Y-85147765D01*
X135927191Y-85357809D01*
X136137235Y-85498157D01*
X136197500Y-85510144D01*
X136197500Y-86221632D01*
X135254133Y-87165000D01*
X128802550Y-87165000D01*
X128675950Y-87038400D01*
X127526600Y-87038400D01*
X127526600Y-87058400D01*
X127272600Y-87058400D01*
X127272600Y-87038400D01*
X127252600Y-87038400D01*
X127252600Y-86784400D01*
X127272600Y-86784400D01*
X127272600Y-86016050D01*
X127526600Y-86016050D01*
X127526600Y-86784400D01*
X128675950Y-86784400D01*
X128834700Y-86625650D01*
X128834700Y-86365990D01*
X128738027Y-86132601D01*
X128559398Y-85953973D01*
X128326009Y-85857300D01*
X127685350Y-85857300D01*
X127526600Y-86016050D01*
X127272600Y-86016050D01*
X127113850Y-85857300D01*
X126473191Y-85857300D01*
X126239802Y-85953973D01*
X126061173Y-86132601D01*
X126035002Y-86195783D01*
X126035002Y-85945365D01*
X126361223Y-85619144D01*
X126599500Y-85666540D01*
X128199700Y-85666540D01*
X128447465Y-85617257D01*
X128657509Y-85476909D01*
X128797857Y-85266865D01*
X128847140Y-85019100D01*
X128847140Y-84180900D01*
X128797857Y-83933135D01*
X128657509Y-83723091D01*
X128447465Y-83582743D01*
X128199700Y-83533460D01*
X126599500Y-83533460D01*
X126351735Y-83582743D01*
X126141691Y-83723091D01*
X126113140Y-83765820D01*
X125873699Y-83813448D01*
X125597499Y-83997999D01*
X125550915Y-84067718D01*
X124667722Y-84950911D01*
X124598001Y-84997497D01*
X124413450Y-85273698D01*
X124365002Y-85517262D01*
X124365002Y-85517265D01*
X124348645Y-85599498D01*
X124365002Y-85681731D01*
X124365003Y-87717764D01*
X124348645Y-87800002D01*
X124413450Y-88125802D01*
X124499110Y-88254001D01*
X124565000Y-88352612D01*
X124565000Y-88628424D01*
X124548643Y-88710657D01*
X124565000Y-88792890D01*
X124565000Y-88792893D01*
X124613448Y-89036457D01*
X124797999Y-89312658D01*
X124867720Y-89359244D01*
X126306001Y-90797526D01*
X126306001Y-92774098D01*
X126355284Y-93021863D01*
X126495632Y-93231907D01*
X126705676Y-93372255D01*
X126953441Y-93421538D01*
X127953441Y-93421538D01*
X128201206Y-93372255D01*
X128411250Y-93231907D01*
X128551598Y-93021863D01*
X128600881Y-92774098D01*
X128600881Y-90264098D01*
X131386001Y-90264098D01*
X131386001Y-92774098D01*
X131435284Y-93021863D01*
X131575632Y-93231907D01*
X131785676Y-93372255D01*
X132033441Y-93421538D01*
X133033441Y-93421538D01*
X133281206Y-93372255D01*
X133491250Y-93231907D01*
X133631598Y-93021863D01*
X133680881Y-92774098D01*
X133680881Y-90264098D01*
X133631598Y-90016333D01*
X133491250Y-89806289D01*
X133281206Y-89665941D01*
X133033441Y-89616658D01*
X132033441Y-89616658D01*
X131785676Y-89665941D01*
X131575632Y-89806289D01*
X131435284Y-90016333D01*
X131386001Y-90264098D01*
X128600881Y-90264098D01*
X128551598Y-90016333D01*
X128411250Y-89806289D01*
X128201206Y-89665941D01*
X127953441Y-89616658D01*
X127486869Y-89616658D01*
X126705210Y-88835000D01*
X135517767Y-88835000D01*
X135600000Y-88851357D01*
X135682233Y-88835000D01*
X135682237Y-88835000D01*
X135925801Y-88786552D01*
X136202001Y-88602001D01*
X136248587Y-88532280D01*
X136636199Y-88144668D01*
X138990613Y-90499083D01*
X139037197Y-90568801D01*
X139313397Y-90753352D01*
X139556961Y-90801800D01*
X139639198Y-90818158D01*
X139721435Y-90801800D01*
X140319332Y-90801800D01*
X140401391Y-90924609D01*
X140611435Y-91064957D01*
X140859200Y-91114240D01*
X142759200Y-91114240D01*
X143006965Y-91064957D01*
X143217009Y-90924609D01*
X143357357Y-90714565D01*
X143406640Y-90466800D01*
X143406640Y-90000227D01*
X144830083Y-88576785D01*
X144899801Y-88530201D01*
X145084352Y-88254001D01*
X145132800Y-88010437D01*
X145149158Y-87928200D01*
X145132800Y-87845963D01*
X145132800Y-85972711D01*
X145175231Y-85930280D01*
X145332800Y-85549874D01*
X145332800Y-85138126D01*
X145175231Y-84757720D01*
X144884080Y-84466569D01*
X144503674Y-84309000D01*
X144091926Y-84309000D01*
X143711520Y-84466569D01*
X143420369Y-84757720D01*
X143262800Y-85138126D01*
X143262800Y-85549874D01*
X143420369Y-85930280D01*
X143462800Y-85972711D01*
X143462801Y-87582331D01*
X142225773Y-88819360D01*
X140859200Y-88819360D01*
X140611435Y-88868643D01*
X140401391Y-89008991D01*
X140319332Y-89131800D01*
X139985066Y-89131800D01*
X137867500Y-87014235D01*
X137867500Y-86649736D01*
X137883858Y-86567500D01*
X137867500Y-86485263D01*
X137867500Y-85510144D01*
X137927765Y-85498157D01*
X137995492Y-85452903D01*
X138193691Y-85535000D01*
X138681750Y-85535000D01*
X138840500Y-85376250D01*
X138840500Y-84327000D01*
X139094500Y-84327000D01*
X139094500Y-85376250D01*
X139253250Y-85535000D01*
X139741309Y-85535000D01*
X139974698Y-85438327D01*
X140153327Y-85259699D01*
X140250000Y-85026310D01*
X140250000Y-84485750D01*
X140091250Y-84327000D01*
X139094500Y-84327000D01*
X138840500Y-84327000D01*
X138820500Y-84327000D01*
X138820500Y-84073000D01*
X138840500Y-84073000D01*
X138840500Y-84053000D01*
X139094500Y-84053000D01*
X139094500Y-84073000D01*
X140091250Y-84073000D01*
X140250000Y-83914250D01*
X140250000Y-83373690D01*
X140153327Y-83140301D01*
X139974698Y-82961673D01*
X139741309Y-82865000D01*
X139495868Y-82865000D01*
X140364783Y-81996085D01*
X140434501Y-81949501D01*
X140619052Y-81673301D01*
X140667500Y-81429737D01*
X140667500Y-81429733D01*
X140683857Y-81347500D01*
X140667500Y-81265267D01*
X140667500Y-78110144D01*
X140727765Y-78098157D01*
X140800000Y-78049891D01*
X140872235Y-78098157D01*
X141120000Y-78147440D01*
X142415000Y-78147440D01*
X142662765Y-78098157D01*
X142872809Y-77957809D01*
X143013157Y-77747765D01*
X143062440Y-77500000D01*
X143062440Y-77405051D01*
X143147929Y-77347929D01*
X143190331Y-77284470D01*
X143639802Y-76835000D01*
X143805874Y-76835000D01*
X144186280Y-76677431D01*
X144477431Y-76386280D01*
X144635000Y-76005874D01*
X144635000Y-75594126D01*
X144477431Y-75213720D01*
X144186280Y-74922569D01*
X143805874Y-74765000D01*
X143394126Y-74765000D01*
X143013720Y-74922569D01*
X142722569Y-75213720D01*
X142607757Y-75490901D01*
X142415000Y-75452560D01*
X141120000Y-75452560D01*
X140872235Y-75501843D01*
X140800000Y-75550109D01*
X140727765Y-75501843D01*
X140480000Y-75452560D01*
X139185000Y-75452560D01*
X138937235Y-75501843D01*
X138727191Y-75642191D01*
X138586843Y-75852235D01*
X138537560Y-76100000D01*
X138537560Y-76308410D01*
X138243013Y-76013863D01*
X137558637Y-75665156D01*
X136800000Y-75545000D01*
X136041363Y-75665156D01*
X135356987Y-76013863D01*
X134826730Y-76544120D01*
X134866104Y-76450602D01*
X135075502Y-75994234D01*
X135542773Y-75091244D01*
X136060221Y-74229000D01*
X136628353Y-73404328D01*
X137245017Y-72619201D01*
X137908085Y-71875609D01*
X138615351Y-71175607D01*
X138749377Y-71058550D01*
X143857800Y-71058550D01*
X143857800Y-72939109D01*
X143954473Y-73172498D01*
X144133101Y-73351127D01*
X144366490Y-73447800D01*
X144582285Y-73447800D01*
X144611782Y-73855768D01*
X144720032Y-74117108D01*
X144933600Y-74152395D01*
X145046485Y-74039510D01*
X145123101Y-74116127D01*
X145268749Y-74176456D01*
X145113205Y-74332000D01*
X145148492Y-74545568D01*
X145571364Y-74685949D01*
X146015768Y-74653818D01*
X146277108Y-74545568D01*
X146312395Y-74332000D01*
X146156851Y-74176456D01*
X146302499Y-74116127D01*
X146379115Y-74039510D01*
X146492000Y-74152395D01*
X146705568Y-74117108D01*
X146845949Y-73694236D01*
X146828131Y-73447800D01*
X147039110Y-73447800D01*
X147272499Y-73351127D01*
X147451127Y-73172498D01*
X147547800Y-72939109D01*
X147547800Y-71078550D01*
X151297800Y-71078550D01*
X151297800Y-72959109D01*
X151394473Y-73192498D01*
X151573101Y-73371127D01*
X151806490Y-73467800D01*
X152020793Y-73467800D01*
X152009651Y-73501364D01*
X152041782Y-73945768D01*
X152150032Y-74207108D01*
X152363600Y-74242395D01*
X152476485Y-74129510D01*
X152553101Y-74206127D01*
X152698749Y-74266456D01*
X152543205Y-74422000D01*
X152578492Y-74635568D01*
X153001364Y-74775949D01*
X153445768Y-74743818D01*
X153707108Y-74635568D01*
X153742395Y-74422000D01*
X153586851Y-74266456D01*
X153732499Y-74206127D01*
X153809115Y-74129510D01*
X153922000Y-74242395D01*
X154135568Y-74207108D01*
X154275949Y-73784236D01*
X154253070Y-73467800D01*
X154479110Y-73467800D01*
X154712499Y-73371127D01*
X154891127Y-73192498D01*
X154987800Y-72959109D01*
X154987800Y-72833658D01*
X155045206Y-72833658D01*
X155165380Y-73605484D01*
X155497351Y-74312558D01*
X156014430Y-74898038D01*
X156675050Y-75314858D01*
X157426104Y-75529510D01*
X158207215Y-75524739D01*
X158955590Y-75300927D01*
X159611069Y-74876067D01*
X160120956Y-74284314D01*
X160444264Y-73573237D01*
X160555000Y-72800000D01*
X160554178Y-72732689D01*
X160424582Y-71962389D01*
X160083999Y-71259424D01*
X159559805Y-70680304D01*
X158894142Y-70271586D01*
X158140522Y-70066126D01*
X157359527Y-70080440D01*
X156613942Y-70313378D01*
X155963703Y-70746214D01*
X155461083Y-71344152D01*
X155146487Y-72059126D01*
X155045206Y-72833658D01*
X154987800Y-72833658D01*
X154987800Y-71078550D01*
X154829050Y-70919800D01*
X153269800Y-70919800D01*
X153269800Y-72229550D01*
X153257800Y-72241550D01*
X153257800Y-72511562D01*
X153027800Y-72528192D01*
X153027800Y-72241550D01*
X153015800Y-72229550D01*
X153015800Y-70919800D01*
X151456550Y-70919800D01*
X151297800Y-71078550D01*
X147547800Y-71078550D01*
X147547800Y-71058550D01*
X147389050Y-70899800D01*
X145829800Y-70899800D01*
X145829800Y-72149550D01*
X145827800Y-72151550D01*
X145827800Y-72421562D01*
X145597800Y-72438192D01*
X145597800Y-72151550D01*
X145575800Y-72129550D01*
X145575800Y-70899800D01*
X144016550Y-70899800D01*
X143857800Y-71058550D01*
X138749377Y-71058550D01*
X139364673Y-70521161D01*
X140153877Y-69914299D01*
X140980799Y-69357031D01*
X141843263Y-68851363D01*
X142328512Y-68606491D01*
X143857800Y-68606491D01*
X143857800Y-70487050D01*
X144016550Y-70645800D01*
X145575800Y-70645800D01*
X145575800Y-68256550D01*
X145829800Y-68256550D01*
X145829800Y-70645800D01*
X147389050Y-70645800D01*
X147547800Y-70487050D01*
X147547800Y-68626491D01*
X151297800Y-68626491D01*
X151297800Y-70507050D01*
X151456550Y-70665800D01*
X153015800Y-70665800D01*
X153015800Y-68276550D01*
X153269800Y-68276550D01*
X153269800Y-70665800D01*
X154829050Y-70665800D01*
X154987800Y-70507050D01*
X154987800Y-68626491D01*
X154891127Y-68393102D01*
X154712499Y-68214473D01*
X154479110Y-68117800D01*
X153428550Y-68117800D01*
X153269800Y-68276550D01*
X153015800Y-68276550D01*
X152857050Y-68117800D01*
X151806490Y-68117800D01*
X151573101Y-68214473D01*
X151394473Y-68393102D01*
X151297800Y-68626491D01*
X147547800Y-68626491D01*
X147547800Y-68606491D01*
X147451127Y-68373102D01*
X147272499Y-68194473D01*
X147039110Y-68097800D01*
X145988550Y-68097800D01*
X145829800Y-68256550D01*
X145575800Y-68256550D01*
X145417050Y-68097800D01*
X144366490Y-68097800D01*
X144133101Y-68194473D01*
X143954473Y-68373102D01*
X143857800Y-68606491D01*
X142328512Y-68606491D01*
X142739153Y-68399269D01*
X143671700Y-68000460D01*
X144117719Y-67834338D01*
X144495111Y-67735000D01*
X154314722Y-67735000D01*
X154637487Y-67810923D01*
G36*
X105986001Y-92774098D02*
X106025598Y-92973170D01*
X106005874Y-92965000D01*
X105594126Y-92965000D01*
X105213720Y-93122569D01*
X104922569Y-93413720D01*
X104765000Y-93794126D01*
X104765000Y-94205874D01*
X104922569Y-94586280D01*
X105213720Y-94877431D01*
X105415002Y-94960804D01*
X105415001Y-98865000D01*
X103385750Y-98865000D01*
X103227000Y-99023750D01*
X103227000Y-99873000D01*
X103247000Y-99873000D01*
X103247000Y-100127000D01*
X103227000Y-100127000D01*
X103227000Y-100147000D01*
X102973000Y-100147000D01*
X102973000Y-100127000D01*
X99873750Y-100127000D01*
X99715000Y-100285750D01*
X99715000Y-100626309D01*
X99811673Y-100859698D01*
X99953320Y-101001346D01*
X99892191Y-101042191D01*
X99751843Y-101252235D01*
X99702560Y-101500000D01*
X99702560Y-102500000D01*
X99751843Y-102747765D01*
X99888684Y-102952560D01*
X99350000Y-102952560D01*
X99102235Y-103001843D01*
X98892191Y-103142191D01*
X98751843Y-103352235D01*
X98702560Y-103600000D01*
X98702560Y-105200000D01*
X98751843Y-105447765D01*
X98892191Y-105657809D01*
X99102235Y-105798157D01*
X99350000Y-105847440D01*
X102323410Y-105847440D01*
X101813863Y-106356987D01*
X101465156Y-107041363D01*
X101345000Y-107800000D01*
X101465156Y-108558637D01*
X101813863Y-109243013D01*
X102356987Y-109786137D01*
X103041363Y-110134844D01*
X103800000Y-110255000D01*
X104558637Y-110134844D01*
X105243013Y-109786137D01*
X105786137Y-109243013D01*
X106134844Y-108558637D01*
X106159137Y-108405256D01*
X106358635Y-108538557D01*
X106606400Y-108587840D01*
X107606400Y-108587840D01*
X107854165Y-108538557D01*
X108064209Y-108398209D01*
X108204557Y-108188165D01*
X108253840Y-107940400D01*
X108253840Y-105430400D01*
X108204557Y-105182635D01*
X108064209Y-104972591D01*
X107948000Y-104894942D01*
X107948000Y-103026801D01*
X108760801Y-102214001D01*
X111093279Y-102214001D01*
X111210710Y-102331432D01*
X111591116Y-102489001D01*
X111762001Y-102489001D01*
X111762001Y-102966578D01*
X111644569Y-103084010D01*
X111487000Y-103464416D01*
X111487000Y-103876164D01*
X111644569Y-104256570D01*
X111839999Y-104452000D01*
X111701928Y-104590071D01*
X111638472Y-104632471D01*
X111596072Y-104695927D01*
X111596071Y-104695928D01*
X111515159Y-104817022D01*
X111438635Y-104832243D01*
X111228591Y-104972591D01*
X111088243Y-105182635D01*
X111038960Y-105430400D01*
X111038960Y-107940400D01*
X111088243Y-108188165D01*
X111228591Y-108398209D01*
X111438635Y-108538557D01*
X111686400Y-108587840D01*
X112686400Y-108587840D01*
X112934165Y-108538557D01*
X113144209Y-108398209D01*
X113284557Y-108188165D01*
X113333840Y-107940400D01*
X113333840Y-105430400D01*
X113284557Y-105182635D01*
X113274307Y-105167295D01*
X113966401Y-104475201D01*
X113966400Y-108150418D01*
X113768591Y-108282591D01*
X113628243Y-108492635D01*
X113578960Y-108740400D01*
X113578960Y-110815401D01*
X112291203Y-110815401D01*
X110986731Y-109510930D01*
X110944329Y-109447471D01*
X110793840Y-109346917D01*
X110793840Y-108740400D01*
X110744557Y-108492635D01*
X110604209Y-108282591D01*
X110394165Y-108142243D01*
X110146400Y-108092960D01*
X109146400Y-108092960D01*
X108898635Y-108142243D01*
X108688591Y-108282591D01*
X108548243Y-108492635D01*
X108498960Y-108740400D01*
X108498960Y-111250400D01*
X108526922Y-111390975D01*
X106488070Y-111387544D01*
X106428860Y-111373426D01*
X106390290Y-111379596D01*
X105880706Y-111307599D01*
X105281147Y-111184172D01*
X104684706Y-111023026D01*
X104095311Y-110825432D01*
X103516852Y-110592712D01*
X102953141Y-110326279D01*
X102408031Y-110027702D01*
X101886907Y-109699510D01*
X101605825Y-109494615D01*
X101285465Y-109232914D01*
X100941575Y-108927618D01*
X100591015Y-108594208D01*
X100249367Y-108247712D01*
X99931710Y-107903063D01*
X99653581Y-107576574D01*
X99428073Y-107282589D01*
X99223190Y-106979729D01*
X99016169Y-106642228D01*
X98604561Y-105879826D01*
X98247720Y-105096521D01*
X98106856Y-104734537D01*
X97991751Y-104392767D01*
X97878409Y-103995633D01*
X97780015Y-103592728D01*
X97697368Y-103187286D01*
X97631616Y-102787076D01*
X97544356Y-101962850D01*
X97520566Y-101138535D01*
X97532133Y-100738523D01*
X97559582Y-100333331D01*
X97602691Y-99930472D01*
X97661421Y-99530665D01*
X97735747Y-99134496D01*
X97825628Y-98742522D01*
X97931032Y-98355347D01*
X98050887Y-97976838D01*
X98278643Y-97366623D01*
X98530208Y-96800000D01*
X98702560Y-96800000D01*
X98702560Y-98400000D01*
X98751843Y-98647765D01*
X98892191Y-98857809D01*
X99102235Y-98998157D01*
X99350000Y-99047440D01*
X99904534Y-99047440D01*
X99811673Y-99140302D01*
X99715000Y-99373691D01*
X99715000Y-99714250D01*
X99873750Y-99873000D01*
X102973000Y-99873000D01*
X102973000Y-99023750D01*
X102814250Y-98865000D01*
X102797047Y-98865000D01*
X102807809Y-98857809D01*
X102948157Y-98647765D01*
X102997440Y-98400000D01*
X102997440Y-96800000D01*
X102948157Y-96552235D01*
X102807809Y-96342191D01*
X102597765Y-96201843D01*
X102350000Y-96152560D01*
X99350000Y-96152560D01*
X99102235Y-96201843D01*
X98892191Y-96342191D01*
X98751843Y-96552235D01*
X98702560Y-96800000D01*
X98530208Y-96800000D01*
X98537744Y-96783026D01*
X98828258Y-96223637D01*
X99149003Y-95689303D01*
X99498843Y-95180994D01*
X99876636Y-94699540D01*
X100281288Y-94245936D01*
X100711704Y-93820980D01*
X101166798Y-93425684D01*
X101645541Y-93060934D01*
X102146908Y-92727617D01*
X102669864Y-92426753D01*
X103213479Y-92159230D01*
X103776785Y-91926045D01*
X104358791Y-91728175D01*
X104970055Y-91563637D01*
X105641605Y-91405883D01*
X105724217Y-91401042D01*
X105847780Y-91341167D01*
X105972789Y-91284277D01*
X105979071Y-91277548D01*
X105986001Y-91274190D01*
X105986001Y-92774098D01*
X105986001Y-92774098D01*
G37*
X105986001Y-92774098D02*
X106025598Y-92973170D01*
X106005874Y-92965000D01*
X105594126Y-92965000D01*
X105213720Y-93122569D01*
X104922569Y-93413720D01*
X104765000Y-93794126D01*
X104765000Y-94205874D01*
X104922569Y-94586280D01*
X105213720Y-94877431D01*
X105415002Y-94960804D01*
X105415001Y-98865000D01*
X103385750Y-98865000D01*
X103227000Y-99023750D01*
X103227000Y-99873000D01*
X103247000Y-99873000D01*
X103247000Y-100127000D01*
X103227000Y-100127000D01*
X103227000Y-100147000D01*
X102973000Y-100147000D01*
X102973000Y-100127000D01*
X99873750Y-100127000D01*
X99715000Y-100285750D01*
X99715000Y-100626309D01*
X99811673Y-100859698D01*
X99953320Y-101001346D01*
X99892191Y-101042191D01*
X99751843Y-101252235D01*
X99702560Y-101500000D01*
X99702560Y-102500000D01*
X99751843Y-102747765D01*
X99888684Y-102952560D01*
X99350000Y-102952560D01*
X99102235Y-103001843D01*
X98892191Y-103142191D01*
X98751843Y-103352235D01*
X98702560Y-103600000D01*
X98702560Y-105200000D01*
X98751843Y-105447765D01*
X98892191Y-105657809D01*
X99102235Y-105798157D01*
X99350000Y-105847440D01*
X102323410Y-105847440D01*
X101813863Y-106356987D01*
X101465156Y-107041363D01*
X101345000Y-107800000D01*
X101465156Y-108558637D01*
X101813863Y-109243013D01*
X102356987Y-109786137D01*
X103041363Y-110134844D01*
X103800000Y-110255000D01*
X104558637Y-110134844D01*
X105243013Y-109786137D01*
X105786137Y-109243013D01*
X106134844Y-108558637D01*
X106159137Y-108405256D01*
X106358635Y-108538557D01*
X106606400Y-108587840D01*
X107606400Y-108587840D01*
X107854165Y-108538557D01*
X108064209Y-108398209D01*
X108204557Y-108188165D01*
X108253840Y-107940400D01*
X108253840Y-105430400D01*
X108204557Y-105182635D01*
X108064209Y-104972591D01*
X107948000Y-104894942D01*
X107948000Y-103026801D01*
X108760801Y-102214001D01*
X111093279Y-102214001D01*
X111210710Y-102331432D01*
X111591116Y-102489001D01*
X111762001Y-102489001D01*
X111762001Y-102966578D01*
X111644569Y-103084010D01*
X111487000Y-103464416D01*
X111487000Y-103876164D01*
X111644569Y-104256570D01*
X111839999Y-104452000D01*
X111701928Y-104590071D01*
X111638472Y-104632471D01*
X111596072Y-104695927D01*
X111596071Y-104695928D01*
X111515159Y-104817022D01*
X111438635Y-104832243D01*
X111228591Y-104972591D01*
X111088243Y-105182635D01*
X111038960Y-105430400D01*
X111038960Y-107940400D01*
X111088243Y-108188165D01*
X111228591Y-108398209D01*
X111438635Y-108538557D01*
X111686400Y-108587840D01*
X112686400Y-108587840D01*
X112934165Y-108538557D01*
X113144209Y-108398209D01*
X113284557Y-108188165D01*
X113333840Y-107940400D01*
X113333840Y-105430400D01*
X113284557Y-105182635D01*
X113274307Y-105167295D01*
X113966401Y-104475201D01*
X113966400Y-108150418D01*
X113768591Y-108282591D01*
X113628243Y-108492635D01*
X113578960Y-108740400D01*
X113578960Y-110815401D01*
X112291203Y-110815401D01*
X110986731Y-109510930D01*
X110944329Y-109447471D01*
X110793840Y-109346917D01*
X110793840Y-108740400D01*
X110744557Y-108492635D01*
X110604209Y-108282591D01*
X110394165Y-108142243D01*
X110146400Y-108092960D01*
X109146400Y-108092960D01*
X108898635Y-108142243D01*
X108688591Y-108282591D01*
X108548243Y-108492635D01*
X108498960Y-108740400D01*
X108498960Y-111250400D01*
X108526922Y-111390975D01*
X106488070Y-111387544D01*
X106428860Y-111373426D01*
X106390290Y-111379596D01*
X105880706Y-111307599D01*
X105281147Y-111184172D01*
X104684706Y-111023026D01*
X104095311Y-110825432D01*
X103516852Y-110592712D01*
X102953141Y-110326279D01*
X102408031Y-110027702D01*
X101886907Y-109699510D01*
X101605825Y-109494615D01*
X101285465Y-109232914D01*
X100941575Y-108927618D01*
X100591015Y-108594208D01*
X100249367Y-108247712D01*
X99931710Y-107903063D01*
X99653581Y-107576574D01*
X99428073Y-107282589D01*
X99223190Y-106979729D01*
X99016169Y-106642228D01*
X98604561Y-105879826D01*
X98247720Y-105096521D01*
X98106856Y-104734537D01*
X97991751Y-104392767D01*
X97878409Y-103995633D01*
X97780015Y-103592728D01*
X97697368Y-103187286D01*
X97631616Y-102787076D01*
X97544356Y-101962850D01*
X97520566Y-101138535D01*
X97532133Y-100738523D01*
X97559582Y-100333331D01*
X97602691Y-99930472D01*
X97661421Y-99530665D01*
X97735747Y-99134496D01*
X97825628Y-98742522D01*
X97931032Y-98355347D01*
X98050887Y-97976838D01*
X98278643Y-97366623D01*
X98530208Y-96800000D01*
X98702560Y-96800000D01*
X98702560Y-98400000D01*
X98751843Y-98647765D01*
X98892191Y-98857809D01*
X99102235Y-98998157D01*
X99350000Y-99047440D01*
X99904534Y-99047440D01*
X99811673Y-99140302D01*
X99715000Y-99373691D01*
X99715000Y-99714250D01*
X99873750Y-99873000D01*
X102973000Y-99873000D01*
X102973000Y-99023750D01*
X102814250Y-98865000D01*
X102797047Y-98865000D01*
X102807809Y-98857809D01*
X102948157Y-98647765D01*
X102997440Y-98400000D01*
X102997440Y-96800000D01*
X102948157Y-96552235D01*
X102807809Y-96342191D01*
X102597765Y-96201843D01*
X102350000Y-96152560D01*
X99350000Y-96152560D01*
X99102235Y-96201843D01*
X98892191Y-96342191D01*
X98751843Y-96552235D01*
X98702560Y-96800000D01*
X98530208Y-96800000D01*
X98537744Y-96783026D01*
X98828258Y-96223637D01*
X99149003Y-95689303D01*
X99498843Y-95180994D01*
X99876636Y-94699540D01*
X100281288Y-94245936D01*
X100711704Y-93820980D01*
X101166798Y-93425684D01*
X101645541Y-93060934D01*
X102146908Y-92727617D01*
X102669864Y-92426753D01*
X103213479Y-92159230D01*
X103776785Y-91926045D01*
X104358791Y-91728175D01*
X104970055Y-91563637D01*
X105641605Y-91405883D01*
X105724217Y-91401042D01*
X105847780Y-91341167D01*
X105972789Y-91284277D01*
X105979071Y-91277548D01*
X105986001Y-91274190D01*
X105986001Y-92774098D01*
G36*
X153163321Y-97705874D02*
X153320890Y-98086280D01*
X153372944Y-98138334D01*
X153222569Y-98288709D01*
X153065000Y-98669115D01*
X153065000Y-99080863D01*
X153222569Y-99461269D01*
X153331308Y-99570008D01*
X151325711Y-99570008D01*
X151208280Y-99452577D01*
X151076719Y-99398083D01*
X153163321Y-97311481D01*
X153163321Y-97705874D01*
X153163321Y-97705874D01*
G37*
X153163321Y-97705874D02*
X153320890Y-98086280D01*
X153372944Y-98138334D01*
X153222569Y-98288709D01*
X153065000Y-98669115D01*
X153065000Y-99080863D01*
X153222569Y-99461269D01*
X153331308Y-99570008D01*
X151325711Y-99570008D01*
X151208280Y-99452577D01*
X151076719Y-99398083D01*
X153163321Y-97311481D01*
X153163321Y-97705874D01*
G36*
X126035002Y-87126648D02*
X126035002Y-87038402D01*
X126123248Y-87038402D01*
X126035002Y-87126648D01*
X126035002Y-87126648D01*
G37*
X126035002Y-87126648D02*
X126035002Y-87038402D01*
X126123248Y-87038402D01*
X126035002Y-87126648D01*
G36*
X126123248Y-86784398D02*
X126035002Y-86784398D01*
X126035002Y-86696152D01*
X126123248Y-86784398D01*
X126123248Y-86784398D01*
G37*
X126123248Y-86784398D02*
X126035002Y-86784398D01*
X126035002Y-86696152D01*
X126123248Y-86784398D01*
G04 #@! TD*
M02*
