M48
;DRILL file {KiCad 5.0.2-bee76a0~70~ubuntu18.04.1} date dom 13 ene 2019 17:19:09 CET
;FORMAT={-:-/ absolute / metric / decimal}
FMAT,2
METRIC,TZ
T1C0.400
T2C0.460
%
G90
G05
T1
X104.4Y-93.2
X105.8Y-94.
X107.4Y-89.2
X108.6Y-86.4
X111.7Y-99.1
X111.797Y-100.33
X111.797Y-101.454
X111.8Y-98.
X112.522Y-103.67
X113.83Y-98.929
X114.2Y-98.
X115.451Y-101.454
X116.4Y-100.525
X118.2Y-79.601
X118.2Y-102.4
X118.8Y-101.454
X118.8Y-104.8
X120.454Y-102.694
X120.703Y-101.725
X123.453Y-79.604
X124.4Y-87.5
X126.Y-86.795
X139.032Y-79.5
X140.8Y-80.
X142.1Y-103.6
X142.494Y-93.726
X142.494Y-98.475
X143.1Y-102.8
X143.256Y-97.79
X143.6Y-75.8
X144.008Y-102.211
X144.298Y-85.344
X144.649Y-94.4
X144.7Y-105.1
X145.2Y-104.
X145.616Y-102.851
X146.807Y-97.631
X147.3Y-100.25
X148.3Y-96.4
X149.697Y-96.273
X150.622Y-100.33
X150.876Y-96.266
X152.951Y-97.674
X153.162Y-88.646
X154.1Y-98.875
X154.198Y-97.5
X154.686Y-82.042
X154.686Y-94.234
X157.598Y-94.1
X160.2Y-82.2
X161.062Y-93.352
X162.56Y-93.472
X163.83Y-93.472
X165.1Y-93.472
X171.4Y-90.
X171.4Y-97.
X171.6Y-82.8
X171.704Y-92.456
X172.212Y-101.854
X172.6Y-110.3
X177.Y-108.2
X177.8Y-81.4
T2
X145.713Y-73.553
X153.143Y-73.643
T0
M30
