G04 #@! TF.GenerationSoftware,KiCad,Pcbnew,5.0.2-bee76a0~70~ubuntu18.04.1*
G04 #@! TF.CreationDate,2019-01-13T17:19:06+01:00*
G04 #@! TF.ProjectId,lora_node_rfm95_minipro,6c6f7261-5f6e-46f6-9465-5f72666d3935,rev?*
G04 #@! TF.SameCoordinates,Original*
G04 #@! TF.FileFunction,Paste,Top*
G04 #@! TF.FilePolarity,Positive*
%FSLAX46Y46*%
G04 Gerber Fmt 4.6, Leading zero omitted, Abs format (unit mm)*
G04 Created by KiCad (PCBNEW 5.0.2-bee76a0~70~ubuntu18.04.1) date dom 13 ene 2019 17:19:06 CET*
%MOMM*%
%LPD*%
G01*
G04 APERTURE LIST*
%ADD10R,2.290000X5.080000*%
%ADD11R,2.420000X4.080000*%
%ADD12R,1.500000X1.000000*%
%ADD13R,1.700000X1.000000*%
%ADD14R,1.950000X1.050000*%
%ADD15R,1.120000X1.400000*%
G04 APERTURE END LIST*
D10*
G04 #@! TO.C,J2*
X149402800Y-70212800D03*
D11*
X153132800Y-70792800D03*
X145712800Y-70772800D03*
G04 #@! TD*
D12*
G04 #@! TO.C,LED3*
X174450000Y-99400000D03*
X174450000Y-96200000D03*
X169550000Y-99400000D03*
X169550000Y-96200000D03*
G04 #@! TD*
G04 #@! TO.C,LED2*
X169550000Y-89000000D03*
X169550000Y-92200000D03*
X174450000Y-89000000D03*
X174450000Y-92200000D03*
G04 #@! TD*
G04 #@! TO.C,LED1*
X174450000Y-85000000D03*
X174450000Y-81800000D03*
X169550000Y-85000000D03*
X169550000Y-81800000D03*
G04 #@! TD*
D13*
G04 #@! TO.C,SW2*
X169050000Y-106500000D03*
X175350000Y-106500000D03*
X169050000Y-110300000D03*
X175350000Y-110300000D03*
G04 #@! TD*
D14*
G04 #@! TO.C,U1*
X147540000Y-90870800D03*
X147540000Y-88870800D03*
X147540000Y-86870800D03*
X147540000Y-84870800D03*
X147540000Y-82870800D03*
X147540000Y-80870800D03*
X147540000Y-78870800D03*
X147540000Y-76870800D03*
X162340000Y-76870800D03*
X162340000Y-78870800D03*
X162340000Y-80870800D03*
X162340000Y-82870800D03*
X162340000Y-84870800D03*
X162340000Y-86870800D03*
X162340000Y-88870800D03*
X162340000Y-90870800D03*
G04 #@! TD*
D15*
G04 #@! TO.C,D2*
X139920000Y-72800000D03*
X141680000Y-72800000D03*
G04 #@! TD*
M02*
