<?xml version="1.0" encoding="UTF-8" standalone="no"?>
<!-- Created with Inkscape (http://www.inkscape.org/) -->

<svg
   xmlns:osb="http://www.openswatchbook.org/uri/2009/osb"
   xmlns:dc="http://purl.org/dc/elements/1.1/"
   xmlns:cc="http://creativecommons.org/ns#"
   xmlns:rdf="http://www.w3.org/1999/02/22-rdf-syntax-ns#"
   xmlns:svg="http://www.w3.org/2000/svg"
   xmlns="http://www.w3.org/2000/svg"
   xmlns:sodipodi="http://sodipodi.sourceforge.net/DTD/sodipodi-0.dtd"
   xmlns:inkscape="http://www.inkscape.org/namespaces/inkscape"
   width="90cm"
   height="45cm"
   viewBox="0 0 3188.9764 1594.4881"
   id="svg2"
   version="1.1"
   inkscape:version="0.91 r13725"
   sodipodi:docname="drawing.svg">
  <defs
     id="defs4">
    <linearGradient
       id="linearGradient4648"
       osb:paint="solid">
      <stop
         style="stop-color:#000000;stop-opacity:1;"
         offset="0"
         id="stop4650" />
    </linearGradient>
    <marker
       style="overflow:visible"
       refY="0.0"
       refX="0.0"
       orient="auto"
       id="DistanceX">
      <path
         id="path4706"
         style="stroke:#000000; stroke-width:0.5"
         d="M 3,-3 L -3,3 M 0,-5 L  0,5" />
    </marker>
    <pattern
       y="0"
       x="0"
       width="8"
       patternUnits="userSpaceOnUse"
       id="Hatch"
       height="8">
      <path
         id="path4709"
         stroke-width="0.25"
         stroke="#000000"
         linecap="square"
         d="M8 4 l-4,4" />
      <path
         id="path4711"
         stroke-width="0.25"
         stroke="#000000"
         linecap="square"
         d="M6 2 l-4,4" />
      <path
         id="path4713"
         stroke-width="0.25"
         stroke="#000000"
         linecap="square"
         d="M4 0 l-4,4" />
    </pattern>
    <symbol
       id="*MODEL_SPACE" />
    <symbol
       id="*PAPER_SPACE" />
  </defs>
  <sodipodi:namedview
     id="base"
     pagecolor="#ffffff"
     bordercolor="#666666"
     borderopacity="1.0"
     inkscape:pageopacity="0.0"
     inkscape:pageshadow="2"
     inkscape:zoom="126.71353"
     inkscape:cx="1373.0362"
     inkscape:cy="573.28556"
     inkscape:document-units="cm"
     inkscape:current-layer="layer2"
     showgrid="false"
     units="cm"
     inkscape:object-paths="true"
     inkscape:snap-intersection-paths="true"
     inkscape:window-width="1865"
     inkscape:window-height="1056"
     inkscape:window-x="55"
     inkscape:window-y="24"
     inkscape:window-maximized="1" />
  <metadata
     id="metadata7">
    <rdf:RDF>
      <cc:Work
         rdf:about="">
        <dc:format>image/svg+xml</dc:format>
        <dc:type
           rdf:resource="http://purl.org/dc/dcmitype/StillImage" />
        <dc:title></dc:title>
      </cc:Work>
    </rdf:RDF>
  </metadata>
  <g
     inkscape:label="Capa 1"
     inkscape:groupmode="layer"
     id="layer1"
     transform="translate(0,542.12593)"
     style="display:none" />
  <g
     inkscape:groupmode="layer"
     id="layer2"
     inkscape:label="RASTER"
     style="display:inline">
    <g
       style="display:inline;fill:none;fill-opacity:1;stroke:#000000;stroke-width:36.14668274;stroke-miterlimit:4;stroke-dasharray:none;stroke-opacity:0.3901734"
       transform="matrix(4.9012892,0,0,4.9012892,10.164958,-3507.8545)"
       id="g4752">
      <g
         inkscape:label="0"
         id="g4754"
         style="fill:none;fill-opacity:1;stroke:#000000;stroke-width:36.14668274;stroke-miterlimit:4;stroke-dasharray:none;stroke-opacity:0.3901734" />
      <g
         inkscape:label="Edge.Cuts"
         id="g4756"
         style="fill:none;fill-opacity:1;stroke:#000000;stroke-width:36.14668274;stroke-miterlimit:4;stroke-dasharray:none;stroke-opacity:0.3901734" />
      <g
         inkscape:label="Cuts"
         id="g4758"
         style="fill:none;fill-opacity:1;stroke:#000000;stroke-width:36.14668274;stroke-miterlimit:4;stroke-dasharray:none;stroke-opacity:0.3901734">
        <path
           inkscape:connector-curvature="0"
           d="m 25.298826,726.52631 -1.540644,0.0521 -1.534053,0.20934 -1.514381,0.36825 -1.481638,0.52887 -1.435804,0.69118 -1.376905,0.85518 -1.304918,1.02088 -1.219858,1.18826 -1.234697,1.49733 -1.020668,1.569 -0.80933,1.62589 -0.600686,1.66797 -0.394739,1.69528 -0.191484,1.70779 0.00908,1.70551 0.206947,1.68845 0.402116,1.65658 0.594599,1.60993 0.784382,1.54849 0.971475,1.47226 1.155869,1.38124 1.337578,1.27542 1.516585,1.15482 1.6929,1.01943 1.302282,0.52543 1.577874,0.36883 1.766965,0.21311 1.869566,0.0582 1.88567,-0.0958 1.815275,-0.2489 1.658385,-0.40117 1.414998,-0.55259 2.69336,-1.33789 1.994138,2.39649 17.525392,20.38671 15.53125,17.99219 -5.578125,5.73242 -3.08452,3.24493 -1.671513,2.09947 -0.439947,0.83218 -0.247589,0.80018 -0.132605,1.84355 0.04555,1.30242 0.196044,1.2053 0.439275,1.26388 0.775243,1.4782 2.929337,4.22216 5.386036,6.94796 5.055204,6.57383 2.102999,3.02383 -1.009421,2.50423 -2.426127,5.32584 -2.998899,6.94214 -2.38782,6.3899 -2.119139,6.20117 -12.074219,1.59375 -8.781648,1.10975 -5.277773,0.988 -1.700618,0.54711 -1.275473,0.63518 -1.000598,0.76276 -0.876001,0.92985 -1.816406,2.15821 0,22.0957 0,22.0957 2.009767,2.14844 1.637706,1.52979 0.951385,0.53154 1.271658,0.43962 4.199892,0.79441 7.568263,0.99956 3.860823,0.41025 5.081652,0.31452 18.713778,0.39828 -1.159501,0.19955 -0.391281,0.25162 1.148294,2.84586 2.761863,5.69125 3.912108,7.71875 -2.765625,3.63281 -9.193359,11.7461 -4.540578,6.15203 -1.383693,2.19953 -0.511278,1.19726 0.225117,0.55628 0.675755,0.96293 2.672539,3.11211 4.382416,4.63777 6.030503,6.09615 7.040104,6.93071 4.484591,4.18082 2.558182,1.98053 0.753283,0.33689 0.507589,-0.007 4.315142,-3.02623 8.479781,-6.5558 11.44531,-9.06836 6.54688,3.49414 5.81546,2.83815 6.49024,2.74321 6.29637,2.30507 5.23386,1.52373 2.48706,0.76584 0.75656,0.38253 0.27787,0.31843 1.77734,15.22656 0.91682,7.1073 0.73598,4.6174 0.64883,2.6173 0.32102,0.7117 0.33438,0.3955 0.73984,0.2372 1.46889,0.2034 4.70378,0.3066 13.52329,0.2197 13.39524,-0.2901 4.54371,-0.3307 1.36485,-0.2108 0.61978,-0.2408 0.45921,-1.5437 0.64512,-3.4741 1.50504,-10.6794 1.40379,-10.51151 0.53578,-3.29213 0.32606,-1.32138 2.74689,-1.05199 5.93475,-1.94801 3.84006,-1.33572 4.39066,-1.72553 4.39981,-1.89266 3.86752,-1.8371 8.29296,-4.20508 11.01758,8.68555 8.26908,6.39207 4.40866,3.17043 0.58003,0.22191 0.66027,-0.047 0.89782,-0.44714 1.29271,-0.97846 4.39943,-4.07564 7.867,-7.7752 6.04907,-6.11461 4.39522,-4.65049 2.67992,-3.11951 0.67751,-0.96473 0.22563,-0.55692 -0.51114,-1.19726 -1.38371,-2.19953 -4.5407,-6.15203 -9.19141,-11.7461 -2.76758,-3.63281 3.91211,-7.71875 2.76284,-5.69125 1.14927,-2.84586 -0.17522,-0.16836 c -0.15816,-0.0482 -0.31478,-0.0963 -0.47723,-0.14448 l 10.17915,-0.1707 6.77813,-0.25478 4.77248,-0.35534 4.15902,-0.47079 9.00473,-1.35362 3.27361,-0.66534 1.8369,-0.5455 1.41386,-0.74719 1.07248,-0.91287 0.77819,-1.36361 0.53105,-2.09942 0.33101,-3.12029 0.1781,-4.42622 0.0859,-13.91047 0,-21.5 -1.81445,-2.15821 -0.87462,-0.92879 -0.99882,-0.76204 -1.27407,-0.63517 -1.70039,-0.54816 -5.28392,-0.99478 -8.80178,-1.1252 -12.07421,-1.59375 -2.09766,-6.17968 -2.3888,-6.3899 -2.99987,-6.94214 -2.42516,-5.33339 -1.00844,-2.52207 2.38422,-3.41802 5.73297,-7.48628 5.86116,-7.84119 1.88232,-2.78091 0.80926,-1.49118 0.26047,-1.41235 0.0401,-1.3479 -0.19559,-1.31909 -0.44664,-1.32592 -0.71301,-1.36841 -0.99472,-1.44654 -2.89594,-3.27002 -4.54687,-4.62695 15.88867,-18.34376 17.88281,-20.74023 1.99219,-2.39648 2.38476,1.13281 2.81517,1.06087 2.8179,0.53641 2.77197,0.0253 2.67738,-0.47238 2.53415,-0.95674 2.34225,-1.42773 2.10171,-1.88536 1.81252,-2.32962 0.93668,-1.63839 0.55537,-1.61249 0.26589,-1.98997 0.0682,-2.77087 -0.13377,-3.63959 -0.21401,-1.3881 -0.35367,-1.21045 -0.52454,-1.11536 -0.7266,-1.10289 -2.18413,-2.49869 -1.38267,-1.27137 -1.49217,-1.05236 -1.58203,-0.83665 -1.65227,-0.62425 -1.70288,-0.41517 -1.73388,-0.20937 -1.74524,-0.007 -1.73697,0.19227 -1.70909,0.38814 -1.66158,0.58071 -1.59444,0.76995 -1.50768,0.95591 -1.40129,1.13855 -1.27528,1.31788 -1.12964,1.49391 -0.96437,1.66664 -1.0817,2.77359 -0.50568,2.79977 0.0756,2.75918 0.25743,1.3435 0.40472,1.30833 0.85386,2.57014 0.42153,1.78924 -0.30238,0.56861 -0.95778,1.09462 -3.8506,3.73827 -6.37872,5.75529 -8.8445,7.7143 -20.44922,17.63672 -6.10156,-6.07031 -3.36145,-3.26302 -2.25924,-1.87858 -1.76286,-0.91471 -1.87231,-0.37143 -2.7102,-0.0133 -1.16332,0.19422 -0.87062,0.31126 -4.07631,2.93012 -7.57408,5.85308 -10.06446,7.93555 -6.97265,-3.38086 -6.94394,-3.05328 -6.90567,-2.59125 -4.86252,-1.82183 -1.48226,-0.72933 -0.5478,-0.47619 -1.72266,-14.11718 -1.00998,-7.60503 -0.76035,-4.23253 -0.39099,-1.26863 -0.45391,-0.92598 -1.26367,-1.49127 -2.17383,-2.17187 -22.54883,0 -22.55273,0 -2.22852,2.23046 -1.29888,1.51107 -0.46113,0.91138 -0.39214,1.23629 -0.74692,4.11029 -0.97984,7.39894 -1.66406,14.06055 -0.10063,0.3063 -0.3003,0.33071 -1.23522,0.7523 -2.14078,0.90286 -3.1176,1.08869 -6.9197,2.59744 -6.97678,3.06857 -7.01563,3.40235 -9.56445,-7.53907 -7.55768,-5.90961 -2.429345,-1.79148 -1.79882,-1.17259 -1.370147,-0.67116 -1.143323,-0.28722 -1.118349,-0.0208 -1.295228,0.12822 -1.897419,0.35826 -1.705245,0.83109 -2.071393,1.67538 -2.995866,2.89113 -5.423829,5.39258 -20.289061,-17.45313 -9.06987,-7.88507 -6.252453,-5.63233 -3.575664,-3.50986 -0.827986,-0.99971 -0.211529,-0.51795 1.496095,-4.21485 0.410357,-1.34578 0.254526,-1.37056 0.09891,-1.39316 -0.05649,-1.41357 -0.578321,-2.87968 -1.19734,-2.93514 -1.115373,-1.85542 -1.320924,-1.62448 -1.498631,-1.38985 -1.648491,-1.1515 -1.770517,-0.90948 -1.864686,-0.66373 -1.931017,-0.4143 -1.969502,-0.16116 0,0"
           style="fill:none;fill-opacity:1;stroke:#000000;stroke-width:36.14668274;stroke-miterlimit:4;stroke-dasharray:none;stroke-opacity:0.3901734"
           id="path4760"
           sodipodi:nodetypes="ccccccccccccccccccccccccccccccccccccccccccccccccccccccccccccccccccccccccccccccccccccccccccccccccccccccccccccccccccccccccccccccccccccccccccccccccccccccccccccccccccccccccccccccccccccccccccccccccccccccccccccccccccccccccccccccccccccccccccccccccccccccccccccccccccccccccccccccccccccccccccccccccccccccccccccccccccccccccccccccccccccc" />
      </g>
      <g
         inkscape:label="Mask"
         id="g4762"
         style="fill:none;fill-opacity:1;stroke:#000000;stroke-width:36.14668274;stroke-miterlimit:4;stroke-dasharray:none;stroke-opacity:0.3901734" />
    </g>
  </g>
  <g
     inkscape:groupmode="layer"
     id="layer3"
     inkscape:label="GRAVAR"
     style="display:none" />
  <g
     inkscape:groupmode="layer"
     id="layer4"
     inkscape:label="CORTE"
     style="display:none">
    <path
       transform="translate(0,542.12593)"
       style="display:inline;opacity:1;fill:none;fill-opacity:1;stroke:#ff0000;stroke-width:0.35433072;stroke-linecap:round;stroke-linejoin:round;stroke-miterlimit:4;stroke-dasharray:none;stroke-dashoffset:0;stroke-opacity:1"
       d="m 501.33825,219.06441 c 0.75597,-4.41313 -16.48215,-45.99671 -19.5229,-47.09563 -1.19304,-0.43113 -13.58875,-2.77957 -27.54658,-5.2187 l -25.37768,-4.43485 0,-27.37668 0,-27.37668 19.4604,-3.75019 c 10.70356,-2.06265 23.44874,-5.010068 28.32308,-6.549829 l 8.86222,-2.799644 4.35606,-9.283187 c 2.39612,-5.105737 6.50126,-14.733105 9.12275,-21.394128 L 503.78181,51.673967 490.99557,32.854566 C 483.9628,22.503899 477.08655,11.814158 475.71513,9.0996 l -2.49329,-4.935556 3.11558,-4.188996 c 4.34921,-5.846837 31.43957,-33.273524 32.86574,-33.273524 0.6442,0 12.04578,7.234048 25.33707,16.075653 19.98277,13.292374 24.62763,15.929877 26.82984,15.233989 1.46496,-0.462887 8.78559,-3.575953 16.26819,-6.917965 15.73346,-7.027051 21.22827,-11.638916 24.59797,-20.644578 1.87738,-5.017738 9.13094,-39.929833 9.13094,-43.948153 0,-0.84101 8.41376,-0.96255 27.6287,-0.39921 15.19557,0.44574 27.84632,1.02766 28.11185,1.29346 0.26461,0.26598 2.64794,12.57103 5.29407,27.345066 2.64611,14.774024 5.00847,27.031498 5.24981,27.238812 0.88097,0.756967 42.1673,16.658746 43.25177,16.658746 0.61454,0 11.10185,-6.93731 23.30457,-15.416258 12.20273,-8.478947 22.84834,-15.670197 23.65724,-15.98057 0.83626,-0.320729 9.70351,7.68329 20.55398,18.552827 l 19.0831,19.117129 -16.51682,23.660344 c -9.0844,13.013216 -16.51682,23.974587 -16.51682,24.358643 0,0.384137 4.17997,10.1278 9.28926,21.652798 6.64496,14.988995 9.93618,21.159708 11.56036,21.67529 1.24914,0.396463 13.79495,2.933546 27.88008,5.638063 14.08466,2.70453 25.87907,5.18773 26.20983,5.51823 0.32848,0.33075 0.15512,12.81365 -0.38779,27.74032 l -0.98682,27.1394 -5.70285,0.9657 c -16.49309,2.7929 -34.2586,6.72435 -39.86519,8.82208 -7.75359,2.90101 -9.54018,5.6455 -19.16294,29.43669 -5.37345,13.28562 -6.49257,17.08504 -5.50028,18.67495 1.1798,1.88983 -1.46951,1.99558 -49.80411,1.98814 l -51.05007,-0.009 -6.00259,-14.40033 c -4.659,-11.17845 -5.71016,-14.75195 -4.69778,-15.97185 0.71719,-0.86428 4.89258,-3.95709 9.27876,-6.87285 17.94754,-11.93193 28.2478,-38.94035 23.7234,-62.20655 -7.45706,-38.345531 -52.48537,-60.087992 -87.82615,-42.40765 -16.74218,8.375829 -30.88114,27.86342 -33.00945,45.49644 -2.61783,21.68958 5.28676,40.36795 25.0898,59.28754 l 9.31845,8.903 -5.57602,13.80866 -5.57601,13.80865 -50.4442,0.297 -50.44419,0.297 0.53925,-3.14838 z"
       id="path4158"
       inkscape:connector-curvature="0" />
    <path
       transform="translate(0,542.12593)"
       style="display:inline;opacity:1;fill:none;fill-opacity:1;stroke:#ff0000;stroke-width:0.35433072;stroke-linecap:round;stroke-linejoin:round;stroke-miterlimit:4;stroke-dasharray:none;stroke-dashoffset:0;stroke-opacity:1"
       d="M 831.44738,667.8765 C 796.6641,663.83636 749.09962,648.95858 713.25196,630.9061 666.36817,607.29588 613.47997,562.37891 582.68596,520.01962 l -13.97472,-19.22352 0,-24.6885 0,-24.68846 305.67265,0 305.67261,0 0,26.5137 0,26.51374 -10.7661,15.11699 c -28.6561,40.23774 -78.347,82.90969 -128.3834,110.24871 -57.76388,31.56108 -138.74614,46.27759 -209.45962,38.06422 z"
       id="path5618"
       inkscape:connector-curvature="0" />
    <path
       transform="translate(0,542.12593)"
       style="display:inline;opacity:1;fill:none;fill-opacity:1;stroke:#ff0000;stroke-width:0.35433072;stroke-linecap:round;stroke-linejoin:round;stroke-miterlimit:4;stroke-dasharray:none;stroke-dashoffset:0;stroke-opacity:1"
       d="m 971.46369,198.81848 c -4.94596,-12.25214 -9.86136,-22.8748 -10.92301,-23.60591 -1.06118,-0.7311 -13.69549,-3.24096 -28.07534,-5.57743 l -26.14551,-4.24817 0,-26.74754 0,-26.74755 7.41371,-1.5086 c 34.40596,-7.00132 47.5914,-10.997283 50.63764,-15.346326 1.81213,-2.587443 6.50626,-12.670588 10.43119,-22.406986 L 981.93824,54.927465 966.9402,32.653729 C 958.6916,20.403242 951.94262,9.392363 951.94262,8.185184 c 0,-1.20718 7.95524,-10.285064 17.67883,-20.173029 l 17.67882,-17.978107 23.95193,15.996208 c 13.1736,8.79795 25.0072,15.998087 26.2975,16.000323 4.507,0.0092 34.186,-15.364197 38.0426,-19.703972 4.2679,-4.802896 9.4576,-22.655688 12.0087,-41.312349 l 1.6379,-11.975978 14.2785,0 c 7.8536,0 20.4021,0.64 27.8865,1.42225 l 13.6071,1.42224 4.0899,24.240571 c 2.2498,13.332301 4.8562,25.648076 5.7924,27.368426 1.5001,2.757068 38.5216,18.54297 43.4877,18.54297 1.0516,0 12.4052,-7.251882 25.2302,-16.115252 22.2995,-15.411742 23.4835,-15.934525 27.1132,-11.975976 2.0878,2.276572 10.33,11.098882 18.3166,19.605069 l 14.5205,15.465807 -16.1994,23.533088 -16.1993,23.533099 9.2692,21.066823 c 6.1733,14.029929 10.8701,21.671601 14.0614,22.877445 2.6361,0.99592 15.3439,3.72169 28.2401,6.0573 l 23.4473,4.24661 -0.636,27.28672 -0.6359,27.28665 -21.6709,4.18727 c -11.9188,2.30299 -24.237,6.03804 -27.3736,8.30015 -3.5193,2.53809 -8.76,11.66835 -13.6868,23.84439 l -7.9841,19.73144 -50.4515,0.0274 -50.4508,0.0274 -4.9859,-11.97599 -4.9857,-11.97597 6.3923,-5.03914 c 19.277,-15.19602 28.0635,-31.35214 28.0635,-51.60246 0,-18.64621 -3.8022,-29.67642 -14.3662,-41.677862 -13.9701,-15.870708 -24.1481,-20.239962 -47.2246,-20.272538 -16.9137,-0.02273 -20.7009,0.745941 -29.6547,6.028691 -21.0678,12.429056 -30.8292,29.346659 -30.7279,53.253549 0.082,19.24957 5.1503,30.2943 22.1539,48.27283 l 11.4522,12.10943 -4.4591,10.86936 -4.4591,10.86938 -50.0168,0.60579 -50.01624,0.60584 -8.99317,-22.27665 z"
       id="path5620"
       inkscape:connector-curvature="0" />
    <g
       id="g4739"
       transform="matrix(4.9012892,0,0,4.9012892,10.164958,-3507.8545)">
      <g
         id="g4717"
         inkscape:label="0" />
      <g
         id="g4719"
         inkscape:label="Edge.Cuts" />
      <g
         id="g4721"
         inkscape:label="Cuts">
        <path
           id="path4723"
           style="fill:none;stroke:#000000"
           d="m 25.298826,726.52631 -1.540644,0.0521 -1.534053,0.20934 -1.514381,0.36825 -1.481638,0.52887 -1.435804,0.69118 -1.376905,0.85518 -1.304918,1.02088 -1.219858,1.18826 -1.234697,1.49733 -1.020668,1.569 -0.80933,1.62589 -0.600686,1.66797 -0.394739,1.69528 -0.191484,1.70779 0.00908,1.70551 0.206947,1.68845 0.402116,1.65658 0.594599,1.60993 0.784382,1.54849 0.971475,1.47226 1.155869,1.38124 1.337578,1.27542 1.516585,1.15482 1.6929,1.01943 1.302282,0.52543 1.577874,0.36883 1.766965,0.21311 1.869566,0.0582 1.88567,-0.0958 1.815275,-0.2489 1.658385,-0.40117 1.414998,-0.55259 2.69336,-1.33789 1.994138,2.39649 17.525392,20.38671 15.53125,17.99219 -5.578125,5.73242 -3.08452,3.24493 -1.671513,2.09947 -0.439947,0.83218 -0.247589,0.80018 -0.132605,1.84355 0.04555,1.30242 0.196044,1.2053 0.439275,1.26388 0.775243,1.4782 2.929337,4.22216 5.386036,6.94796 5.055204,6.57383 2.102999,3.02383 -1.009421,2.50423 -2.426127,5.32584 -2.998899,6.94214 -2.38782,6.3899 -2.119139,6.20117 -12.074219,1.59375 -8.781648,1.10975 -5.277773,0.988 -1.700618,0.54711 -1.275473,0.63518 -1.000598,0.76276 -0.876001,0.92985 -1.816406,2.15821 0,22.0957 0,22.0957 2.009767,2.14844 1.637706,1.52979 0.951385,0.53154 1.271658,0.43962 4.199892,0.79441 7.568263,0.99956 3.860823,0.41025 5.081652,0.31452 18.713778,0.39828 -1.159501,0.19955 -0.391281,0.25162 1.148294,2.84586 2.761863,5.69125 3.912108,7.71875 -2.765625,3.63281 -9.193359,11.7461 -4.540578,6.15203 -1.383693,2.19953 -0.511278,1.19726 0.225117,0.55628 0.675755,0.96293 2.672539,3.11211 4.382416,4.63777 6.030503,6.09615 7.040104,6.93071 4.484591,4.18082 2.558182,1.98053 0.753283,0.33689 0.507589,-0.007 4.315142,-3.02623 8.479781,-6.5558 11.44531,-9.06836 6.54688,3.49414 5.81546,2.83815 6.49024,2.74321 6.29637,2.30507 5.23386,1.52373 2.48706,0.76584 0.75656,0.38253 0.27787,0.31843 1.77734,15.22656 0.91682,7.1073 0.73598,4.6174 0.64883,2.6173 0.32102,0.7117 0.33438,0.3955 0.73984,0.2372 1.46889,0.2034 4.70378,0.3066 13.52329,0.2197 13.39524,-0.2901 4.54371,-0.3307 1.36485,-0.2108 0.61978,-0.2408 0.45921,-1.5437 0.64512,-3.4741 1.50504,-10.6794 1.40379,-10.51151 0.53578,-3.29213 0.32606,-1.32138 2.74689,-1.05199 5.93475,-1.94801 3.84006,-1.33572 4.39066,-1.72553 4.39981,-1.89266 3.86752,-1.8371 8.29296,-4.20508 11.01758,8.68555 8.26908,6.39207 4.40866,3.17043 0.58003,0.22191 0.66027,-0.047 0.89782,-0.44714 1.29271,-0.97846 4.39943,-4.07564 7.867,-7.7752 6.04907,-6.11461 4.39522,-4.65049 2.67992,-3.11951 0.67751,-0.96473 0.22563,-0.55692 -0.51114,-1.19726 -1.38371,-2.19953 -4.5407,-6.15203 -9.19141,-11.7461 -2.76758,-3.63281 3.91211,-7.71875 2.76284,-5.69125 1.14927,-2.84586 -0.17683,-0.16836 -0.48528,-0.14609 10.18559,-0.16909 6.78135,-0.25478 4.77248,-0.35534 4.15902,-0.47079 9.00473,-1.35362 3.27361,-0.66534 1.8369,-0.5455 1.41386,-0.74719 1.07248,-0.91287 0.77819,-1.36361 0.53105,-2.09942 0.33101,-3.12029 0.1781,-4.42622 0.0859,-13.91047 0,-21.5 -1.81445,-2.15821 -0.87462,-0.92879 -0.99882,-0.76204 -1.27407,-0.63517 -1.70039,-0.54816 -5.28392,-0.99478 -8.80178,-1.1252 -12.07421,-1.59375 -2.09766,-6.17968 -2.3888,-6.3899 -2.99987,-6.94214 -2.42516,-5.33339 -1.00844,-2.52207 2.38422,-3.41802 5.73297,-7.48628 5.86116,-7.84119 1.88232,-2.78091 0.80926,-1.49118 0.26047,-1.41235 0.0401,-1.3479 -0.19559,-1.31909 -0.44664,-1.32592 -0.71301,-1.36841 -0.99472,-1.44654 -2.89594,-3.27002 -4.54687,-4.62695 15.88867,-18.34376 17.88281,-20.74023 1.99219,-2.39648 2.38476,1.13281 2.81517,1.06087 2.8179,0.53641 2.77197,0.0253 2.67738,-0.47238 2.53415,-0.95674 2.34225,-1.42773 2.10171,-1.88536 1.81252,-2.32962 0.93668,-1.63839 0.55537,-1.61249 0.26589,-1.98997 0.0682,-2.77087 -0.13377,-3.63959 -0.21401,-1.3881 -0.35367,-1.21045 -0.52454,-1.11536 -0.7266,-1.10289 -2.18413,-2.49869 -1.38267,-1.27137 -1.49217,-1.05236 -1.58203,-0.83665 -1.65227,-0.62425 -1.70288,-0.41517 -1.73388,-0.20937 -1.74524,-0.007 -1.73697,0.19227 -1.70909,0.38814 -1.66158,0.58071 -1.59444,0.76995 -1.50768,0.95591 -1.40129,1.13855 -1.27528,1.31788 -1.12964,1.49391 -0.96437,1.66664 -1.0817,2.77359 -0.50568,2.79977 0.0756,2.75918 0.25743,1.3435 0.40472,1.30833 0.85386,2.57014 0.42153,1.78924 -0.30238,0.56861 -0.95778,1.09462 -3.8506,3.73827 -6.37872,5.75529 -8.8445,7.7143 -20.44922,17.63672 -6.10156,-6.07031 -3.36145,-3.26302 -2.25924,-1.87858 -1.76286,-0.91471 -1.87231,-0.37143 -2.7102,-0.0133 -1.16332,0.19422 -0.87062,0.31126 -4.07631,2.93012 -7.57408,5.85308 -10.06446,7.93555 -6.97265,-3.38086 -6.94394,-3.05328 -6.90567,-2.59125 -4.86252,-1.82183 -1.48226,-0.72933 -0.5478,-0.47619 -1.72266,-14.11718 -1.00998,-7.60503 -0.76035,-4.23253 -0.39099,-1.26863 -0.45391,-0.92598 -1.26367,-1.49127 -2.17383,-2.17187 -22.54883,0 -22.55273,0 -2.22852,2.23046 -1.29888,1.51107 -0.46113,0.91138 -0.39214,1.23629 -0.74692,4.11029 -0.97984,7.39894 -1.66406,14.06055 -0.10063,0.3063 -0.3003,0.33071 -1.23522,0.7523 -2.14078,0.90286 -3.1176,1.08869 -6.9197,2.59744 -6.97678,3.06857 -7.01563,3.40235 -9.56445,-7.53907 -7.55768,-5.90961 -2.429345,-1.79148 -1.79882,-1.17259 -1.370147,-0.67116 -1.143323,-0.28722 -1.118349,-0.0208 -1.295228,0.12822 -1.897419,0.35826 -1.705245,0.83109 -2.071393,1.67538 -2.995866,2.89113 -5.423829,5.39258 -20.289061,-17.45313 -9.06987,-7.88507 -6.252453,-5.63233 -3.575664,-3.50986 -0.827986,-0.99971 -0.211529,-0.51795 1.496095,-4.21485 0.410357,-1.34578 0.254526,-1.37056 0.09891,-1.39316 -0.05649,-1.41357 -0.578321,-2.87968 -1.19734,-2.93514 -1.115373,-1.85542 -1.320924,-1.62448 -1.498631,-1.38985 -1.648491,-1.1515 -1.770517,-0.90948 -1.864686,-0.66373 -1.931017,-0.4143 -1.969502,-0.16116 0,0"
           inkscape:connector-curvature="0" />
      </g>
      <g
         id="g4725"
         inkscape:label="Mask" />
    </g>
  </g>
</svg>
