<?xml version="1.0" encoding="UTF-8" standalone="no"?>
<!-- Created with Inkscape (http://www.inkscape.org/) -->

<svg
   xmlns:dc="http://purl.org/dc/elements/1.1/"
   xmlns:cc="http://creativecommons.org/ns#"
   xmlns:rdf="http://www.w3.org/1999/02/22-rdf-syntax-ns#"
   xmlns:svg="http://www.w3.org/2000/svg"
   xmlns="http://www.w3.org/2000/svg"
   xmlns:sodipodi="http://sodipodi.sourceforge.net/DTD/sodipodi-0.dtd"
   xmlns:inkscape="http://www.inkscape.org/namespaces/inkscape"
   id="svg3377"
   version="1.1"
   inkscape:version="0.91 r13725"
   width="7.2715425mm"
   height="4.7771645mm"
   viewBox="0 0 25.765309 16.92696"
   sodipodi:docname="LoRa_logo_7x4mm_v2.svg">
  <sodipodi:namedview
     pagecolor="#ffffff"
     bordercolor="#666666"
     borderopacity="1"
     objecttolerance="10"
     gridtolerance="10"
     guidetolerance="10"
     inkscape:pageopacity="0"
     inkscape:pageshadow="2"
     inkscape:window-width="1865"
     inkscape:window-height="1056"
     id="namedview3379"
     showgrid="false"
     inkscape:document-units="mm"
     units="mm"
     fit-margin-top="0"
     fit-margin-left="0"
     fit-margin-right="0"
     fit-margin-bottom="0"
     inkscape:zoom="16"
     inkscape:cx="4.5007073"
     inkscape:cy="15.763704"
     inkscape:window-x="55"
     inkscape:window-y="24"
     inkscape:window-maximized="1"
     inkscape:current-layer="layer1" />
  <metadata
     id="metadata3383">
    <rdf:RDF>
      <cc:Work
         rdf:about="">
        <dc:format>image/svg+xml</dc:format>
        <dc:type
           rdf:resource="http://purl.org/dc/dcmitype/StillImage" />
        <dc:title />
      </cc:Work>
    </rdf:RDF>
  </metadata>
  <defs
     id="defs3381" />
  <g
     inkscape:groupmode="layer"
     id="layer1"
     inkscape:label="SilkS"
     transform="translate(-0.12557843,-17.479831)">
    <path
       style="fill:#000000"
       d="m 9.1259463,33.890583 c -0.2146274,-0.0186 -0.5482748,-0.06246 -0.7414392,-0.09745 -0.1931647,-0.035 -0.5180321,-0.109897 -0.721928,-0.166451 L 7.2918599,33.523847 6.8430942,33.339618 C 6.5962728,33.238293 6.2977448,33.100722 6.1796997,33.033905 6.0616563,32.967091 5.8287309,32.829023 5.6620907,32.727093 l -0.3029836,-0.185327 0.010307,-0.03116 c 0.00567,-0.01714 0.1221845,-0.195024 0.2589252,-0.3953 l 0.2486207,-0.364143 0.038945,0 c 0.021425,0 0.1378306,0.06158 0.2586814,0.136836 0.1208546,0.07525 0.350961,0.204688 0.5113543,0.287618 0.1603933,0.08293 0.4414188,0.210626 0.6245032,0.283769 0.1830844,0.07315 0.5106289,0.180473 0.7278745,0.238508 0.217246,0.05803 0.5859552,0.135756 0.8193527,0.172716 l 0.424361,0.0672 0.4877894,-0.0016 0.4877895,-0.0016 0.3935,-0.06388 c 0.216427,-0.03513 0.541294,-0.10034 0.721928,-0.144912 0.180635,-0.04457 0.486471,-0.138851 0.679635,-0.209508 0.193166,-0.07066 0.509251,-0.206849 0.702416,-0.302649 0.193164,-0.0958 0.442179,-0.23076 0.553367,-0.299913 l 0.20216,-0.125728 0.256362,0.374953 c 0.140997,0.206224 0.25636,0.394495 0.25636,0.418378 l 0,0.04342 -0.282917,0.16705 c -0.155603,0.09188 -0.484861,0.265397 -0.731682,0.3856 -0.246822,0.120201 -0.589249,0.265458 -0.760951,0.322787 -0.171702,0.05733 -0.452668,0.140266 -0.624369,0.184299 -0.171702,0.04403 -0.49657,0.107414 -0.721928,0.140832 l -0.409743,0.06077 -0.48779,0.0191 -0.4877877,0.0191 -0.3902318,-0.03383 z m -0.019514,-1.759296 c -0.053656,-0.0099 -0.2643822,-0.04711 -0.4682782,-0.08264 L 8.2674373,31.984055 7.8062512,31.828351 7.3450639,31.672647 6.9282301,31.447981 C 6.6989696,31.324414 6.4714178,31.191773 6.4225569,31.153222 l -0.088836,-0.0701 0.1806572,-0.281594 c 0.099365,-0.154876 0.2008013,-0.303263 0.2254208,-0.329748 l 0.044762,-0.04815 0.3121842,0.184973 c 0.1717019,0.101737 0.4702284,0.252004 0.663393,0.333932 0.1931646,0.08193 0.4572857,0.179181 0.5869394,0.216121 0.1296538,0.03695 0.4106209,0.09443 0.6243705,0.127756 l 0.3886379,0.06059 0.4097436,0 0.4097435,0 0.370719,-0.05825 0.37072,-0.05825 0.351208,-0.103212 0.351208,-0.103213 0.487788,-0.252078 c 0.268284,-0.138639 0.499716,-0.2577 0.514294,-0.264577 l 0.0265,-0.01251 0.20097,0.30809 0.200973,0.308089 -0.01823,0.04912 -0.01822,0.04912 -0.423878,0.227083 -0.423876,0.227084 -0.403558,0.144656 -0.403553,0.144656 -0.37691,0.08316 -0.376903,0.08316 -0.7024171,0.01508 c -0.3863291,0.0083 -0.7463173,0.007 -0.7999741,-0.003 z m 0.2731619,-1.696322 c -0.075119,-0.0093 -0.2507241,-0.0357 -0.3902316,-0.05864 -0.1395079,-0.02294 -0.4029135,-0.08806 -0.5853469,-0.14472 L 8.0723199,30.12858 7.6918444,29.926926 7.3113683,29.725271 l 0,-0.04636 c 0,-0.0255 0.0636,-0.141893 0.1413309,-0.258649 l 0.1413327,-0.212281 0.054376,0 c 0.029905,0 0.1484358,0.05491 0.263398,0.122032 0.1149628,0.06712 0.3522614,0.176109 0.5273227,0.2422 l 0.3183005,0.12017 0.3357042,0.06056 0.3357041,0.06056 0.3613001,0 0.3612945,0 0.320385,-0.06286 0.320379,-0.06286 0.279031,-0.102943 c 0.15347,-0.05662 0.38032,-0.158192 0.504112,-0.225714 0.123794,-0.06753 0.230183,-0.115522 0.236422,-0.106671 0.0062,0.0089 0.07738,0.113259 0.158099,0.232011 l 0.146751,0.215912 -0.01836,0.04951 -0.01836,0.0495 -0.30433,0.15351 c -0.167378,0.08444 -0.426249,0.196408 -0.575267,0.24884 -0.149017,0.05243 -0.396943,0.122252 -0.550948,0.155159 l -0.280011,0.05983 -0.4265762,0.0176 c -0.234619,0.0097 -0.488039,0.01002 -0.5631583,6.94e-4 z M 8.9463305,28.705548 8.6886726,28.650116 8.3924951,28.522568 8.0963179,28.395019 7.8458588,28.198883 7.5954008,28.002747 7.4342783,27.808097 7.2731559,27.613445 7.139759,27.330872 7.0063672,27.048295 l -0.070418,-0.262393 -0.070413,-0.26239 -0.00149,-0.666073 -0.00149,-0.666071 0.068489,-0.262392 0.068491,-0.262392 0.1575129,-0.332466 0.1575085,-0.332467 0.2527536,-0.261464 0.2527568,-0.261466 0.2394101,-0.145152 0.2394143,-0.145152 0.2837651,-0.09854 0.283769,-0.09854 0.3053388,-0.04492 0.3053408,-0.04491 0.4292545,0.02336 0.4292544,0.02335 0.25365,0.06358 0.253651,0.06359 0.331696,0.165516 0.331697,0.165515 0.301522,0.311395 0.301526,0.311395 0.156259,0.338868 0.156264,0.338867 0.06443,0.302759 0.06443,0.30276 -0.0016,0.56515 -0.0016,0.565153 -0.08088,0.316563 -0.08089,0.316565 -0.122914,0.258298 -0.122923,0.258301 -0.180185,0.215418 c -0.09919,0.118481 -0.275816,0.29195 -0.392585,0.385486 l -0.212338,0.170063 -0.236458,0.11613 c -0.129992,0.06387 -0.341759,0.14669 -0.470536,0.184031 l -0.234138,0.06789 -0.6048577,0.01473 -0.6048592,0.01473 -0.2576618,-0.05543 z m 1.2983035,-1.344663 0.169075,-0.07763 0.145447,-0.167039 0.14545,-0.16704 0.06299,-0.152279 c 0.03464,-0.08376 0.08908,-0.297604 0.120976,-0.475224 l 0.05799,-0.322949 -0.02145,-0.343645 -0.02145,-0.343645 -0.07535,-0.226557 -0.07535,-0.226559 -0.104424,-0.163239 -0.104431,-0.163237 -0.143246,-0.10194 c -0.07879,-0.05606 -0.195925,-0.122804 -0.260314,-0.148308 l -0.117068,-0.04637 -0.2731623,-0.0041 -0.2731621,-0.0041 -0.2026312,0.07081 -0.202632,0.07081 -0.1567161,0.15733 -0.156722,0.157332 -0.079844,0.161908 c -0.04392,0.08905 -0.106104,0.266187 -0.1381969,0.393642 l -0.058348,0.23174 0,0.366532 0,0.366534 0.060444,0.240597 0.060446,0.240596 0.1095182,0.200836 0.1095181,0.200836 0.1404633,0.117604 0.1404645,0.117604 0.2066273,0.07648 0.2066315,0.07648 0.2796904,-0.01816 0.2796893,-0.01816 0.169076,-0.07763 z m 11.34721,1.329348 -0.255637,-0.06905 -0.20349,-0.13508 -0.203492,-0.13508 -0.154184,-0.181199 -0.154184,-0.1812 -0.07806,-0.215817 -0.07806,-0.215816 -0.02568,-0.259273 -0.02568,-0.259272 0.04594,-0.272894 0.04593,-0.272897 0.112715,-0.230983 0.112716,-0.230984 0.205628,-0.191249 0.20563,-0.19125 0.216184,-0.11266 c 0.1189,-0.06196 0.359527,-0.159412 0.534726,-0.216555 0.175199,-0.05714 0.491287,-0.139433 0.702416,-0.182868 0.21113,-0.04343 0.555086,-0.101872 0.764349,-0.129851 l 0.380475,-0.05088 -7.8e-5,-0.265505 -7.8e-5,-0.265506 -0.06824,-0.141289 -0.06824,-0.141287 -0.136581,-0.07058 -0.136581,-0.07058 -0.292673,0 -0.292674,0 -0.135802,0.07058 -0.135804,0.07058 -0.08919,0.138094 -0.08919,0.138096 -0.02389,0.154571 -0.02389,0.154575 -0.773171,0 -0.773172,0 -0.02289,-0.0383 -0.02289,-0.0383 0.04207,-0.274551 0.04207,-0.274551 0.09207,-0.20891 0.09207,-0.208911 0.158091,-0.177418 0.15809,-0.177418 0.188034,-0.105871 0.188033,-0.105871 0.31101,-0.09253 0.311009,-0.09253 0.741441,0.0014 0.741438,0.0014 0.289003,0.06785 0.289003,0.06785 0.237809,0.119535 c 0.130796,0.06575 0.274293,0.152792 0.318886,0.193443 0.04458,0.04065 0.136625,0.153237 0.20452,0.250191 l 0.123443,0.176283 0.04623,0.145825 0.04623,0.145825 0.02614,2.058767 0.02614,2.058767 0.06102,0.211931 0.06102,0.211934 -0.755586,0 -0.755584,0 -0.04064,-0.151382 c -0.02235,-0.08326 -0.04073,-0.20349 -0.04085,-0.267181 l -2.6e-4,-0.115802 -0.126825,0.130979 -0.126825,0.130977 -0.273162,0.134929 -0.273162,0.134927 -0.232582,0.06183 -0.232581,0.06183 -0.372277,-0.0023 -0.372277,-0.0023 -0.255638,-0.06905 z m 1.645517,-1.308065 0.171046,-0.103967 0.08395,-0.118021 c 0.04617,-0.06491 0.111954,-0.203347 0.146177,-0.307634 l 0.06223,-0.189608 0.02578,-0.346927 0.02577,-0.346926 -0.0744,0.02294 c -0.04092,0.01262 -0.302682,0.08973 -0.581697,0.171355 l -0.507301,0.148412 -0.182941,0.09517 -0.18294,0.09517 -0.09998,0.135593 -0.09998,0.135596 0,0.169758 0,0.169759 0.06112,0.12227 0.06112,0.122271 0.163261,0.07919 0.16326,0.07919 0.297232,-0.01481 0.297231,-0.01482 0.171046,-0.103967 z m -21.5062968,-2.474122 0,-3.734783 0.9072876,0.01081 0.907288,0.01081 0.010014,2.895885 0.010014,2.895888 1.3753068,0.01059 1.3753073,0.01059 0.010566,0.817453 0.010566,0.817451 -2.3031721,0 -2.3031717,0 0,-3.734782 z m 11.8630298,7.93e-4 0,-3.734038 1.765793,6.94e-4 1.765797,6.94e-4 0.454052,0.03893 0.454052,0.03893 0.30996,0.101286 0.309957,0.101287 0.231405,0.154718 0.231404,0.154718 0.157316,0.18488 0.157316,0.184879 0.102176,0.215895 c 0.0562,0.11874 0.129321,0.324888 0.162491,0.458101 l 0.06031,0.242208 0.02505,0.363313 0.02505,0.363312 -0.06201,0.301805 -0.062,0.301806 -0.100385,0.212244 c -0.0552,0.116734 -0.162834,0.289737 -0.239164,0.38445 -0.07634,0.09471 -0.228827,0.242834 -0.338885,0.329161 l -0.200105,0.156954 -0.224021,0.105432 -0.224026,0.105443 0.799107,1.453248 c 0.439508,0.799284 0.799335,1.467166 0.799614,1.484182 l 5.27e-4,0.03093 -1.037266,-0.0107 -1.037266,-0.0107 -0.692483,-1.311958 -0.692481,-1.311961 -0.533593,-0.01126 -0.533592,-0.01126 0,1.333283 0,1.333282 -0.917044,0 -0.917044,0 0,-3.734038 z m 3.972796,-0.514737 0.162112,-0.111053 0.08466,-0.171519 0.08466,-0.171518 0.018,-0.262392 0.01801,-0.262392 -0.04547,-0.173851 -0.04547,-0.173852 -0.138819,-0.158954 -0.138822,-0.158953 -0.197859,-0.06078 -0.197858,-0.06078 -0.870938,0 -0.870938,0 0,0.951166 0,0.951167 0.9883,-0.01262 0.9883,-0.01262 0.162111,-0.111053 z m -6.158091,-2.071306 -0.331697,-0.17642 -0.351208,-0.109768 -0.351208,-0.109768 -0.6829042,-0.0027 -0.6829044,-0.0027 -0.331697,0.0934 -0.331697,0.0934 -0.367914,0.179923 -0.3679136,0.179924 -0.022316,-0.03306 C 7.5750654,22.416946 7.5109354,22.321198 7.4448349,22.222354 7.3787335,22.123509 7.3129097,22.021708 7.2985559,21.99613 l -0.026091,-0.04651 0.1352339,-0.08253 c 0.074379,-0.04541 0.2733614,-0.145364 0.442179,-0.222148 l 0.3069478,-0.139608 0.4260277,-0.112822 0.4260273,-0.112823 0.6243694,-0.0016 0.624371,-0.0016 0.234138,0.05215 c 0.128776,0.02869 0.374622,0.09861 0.546324,0.155367 l 0.312184,0.103213 0.380476,0.201207 c 0.209262,0.110659 0.380474,0.214732 0.380474,0.231259 0,0.01653 -0.0712,0.132922 -0.158241,0.258649 -0.08703,0.125728 -0.170445,0.226856 -0.185361,0.224729 -0.01491,-0.0021 -0.17638,-0.08325 -0.358813,-0.180283 z m 1.034114,-1.153138 c -0.06439,-0.04398 -0.266334,-0.158526 -0.448767,-0.25453 l -0.331697,-0.174552 -0.380381,-0.125828 -0.380379,-0.125828 -0.361061,-0.06058 -0.361057,-0.06058 -0.4978029,-1.34e-4 -0.497802,-1.34e-4 -0.3860599,0.05999 -0.3860599,0.05999 -0.4224911,0.143166 -0.4224962,0.143169 -0.4046687,0.223546 c -0.2225726,0.122941 -0.4091193,0.21772 -0.4145514,0.210613 -0.00543,-0.0071 -0.102771,-0.156643 -0.2163041,-0.332297 l -0.206425,-0.319371 0.07373,-0.05729 c 0.040551,-0.03152 0.2844588,-0.164062 0.5420118,-0.294565 0.2575526,-0.1305 0.5736402,-0.272957 0.7024167,-0.316568 0.1287761,-0.04361 0.3307205,-0.106063 0.4487654,-0.138772 0.118045,-0.03271 0.3375505,-0.08408 0.4877892,-0.114131 l 0.2731612,-0.05465 0.7999751,0 0.7999738,0 0.273161,0.05517 c 0.150239,0.03035 0.404865,0.09157 0.565835,0.136032 0.160971,0.04447 0.421028,0.133416 0.577909,0.197657 0.156878,0.06424 0.376383,0.163777 0.487789,0.221189 0.111404,0.05741 0.312306,0.169939 0.446448,0.250061 0.134142,0.08012 0.243895,0.160885 0.243895,0.179478 0,0.0186 -0.08834,0.169224 -0.196306,0.334739 l -0.196305,0.300936 -0.04759,-0.0029 c -0.02618,-0.0016 -0.100272,-0.03894 -0.164658,-0.08293 z m 0.799973,-1.352459 c -0.118045,-0.07709 -0.390231,-0.226991 -0.604858,-0.333132 -0.214628,-0.106142 -0.521935,-0.240874 -0.682906,-0.299405 -0.160971,-0.05852 -0.433156,-0.14327 -0.604858,-0.188311 -0.171701,-0.04504 -0.479008,-0.111961 -0.682904,-0.14871 l -0.370721,-0.06682 -0.5840931,-0.01616 -0.5840907,-0.01616 -0.079302,0.03933 c -0.043618,0.02164 -0.1837139,0.05042 -0.3113305,0.06395 -0.127618,0.01354 -0.3646829,0.05279 -0.526813,0.08726 -0.162129,0.03446 -0.4853138,0.126205 -0.7181885,0.203885 L 7.0694163,19.284162 6.4761595,19.59592 5.8829065,19.907679 5.6323823,19.535345 C 5.494591,19.330562 5.3773195,19.147901 5.3717729,19.129431 l -0.01007,-0.03358 0.2431523,-0.14775 c 0.1337362,-0.08127 0.38364,-0.220419 0.5553419,-0.309239 0.1717019,-0.08882 0.4175482,-0.206169 0.5463242,-0.260775 0.1287766,-0.0546 0.3746215,-0.146643 0.5463233,-0.204526 0.1717015,-0.05789 0.4351077,-0.134649 0.5853464,-0.170591 0.1502392,-0.03594 0.4312064,-0.0908 0.6243704,-0.121917 l 0.3512083,-0.05657 0.5268121,-0.02569 0.5268119,-0.02569 0.4877893,0.04824 0.487789,0.04824 0.390231,0.08122 0.390232,0.08122 0.525689,0.180067 0.525691,0.180066 0.449886,0.234369 c 0.247438,0.128904 0.550862,0.301412 0.674271,0.383349 0.123411,0.08193 0.224426,0.162045 0.224477,0.178014 3.9e-5,0.01597 -0.109701,0.196518 -0.243895,0.40122 l -0.243986,0.372187 -0.03903,-0.0019 c -0.02147,-0.0011 -0.135606,-0.06505 -0.253651,-0.142137 z"
       id="path3781"
       inkscape:connector-curvature="0" />
  </g>
</svg>
