<?xml version="1.0" standalone="no"?>
 <!DOCTYPE svg PUBLIC "-//W3C//DTD SVG 1.1//EN" 
 "http://www.w3.org/Graphics/SVG/1.1/DTD/svg11.dtd"> 
<svg xmlns="http://www.w3.org/2000/svg" version="1.1" 
    width="11.5824cm" height="6.73608cm" viewBox="0 0 45600 26520 ">
<title>SVG Picture created as lora_node_rfm95_minipro-Edge.Cuts.svg date 2019/02/18 14:31:34 </title>
  <desc>Picture generated by PCBNEW </desc>
<g style="fill:#000000; fill-opacity:1;stroke:#000000; stroke-opacity:1;
stroke-linecap:round; stroke-linejoin:round; "
 transform="translate(0 0) scale(1 1)">
</g>
<g style="fill:#000000; fill-opacity:0.0; 
stroke:#000000; stroke-width:-0.000393701; stroke-opacity:1; 
stroke-linecap:round; stroke-linejoin:round;">
</g>
<g style="fill:#878700; fill-opacity:0.0; 
stroke:#878700; stroke-width:-0.000393701; stroke-opacity:1; 
stroke-linecap:round; stroke-linejoin:round;">
</g>
<g style="fill:#878700; fill-opacity:0.0; 
stroke:#878700; stroke-width:78.7402; stroke-opacity:1; 
stroke-linecap:round; stroke-linejoin:round;">
<path d="M20550 3693
L24487 3693
" />
<circle cx="35900" cy="17906.4" r="669.291" /> 
<circle cx="4566.14" cy="19756.8" r="669.291" /> 
<circle cx="17558.3" cy="8024.49" r="669.291" /> 
<circle cx="25826" cy="5977.24" r="787.402" /> 
<path d="M25011 3871
L25362 4030
" />
<path d="M12348 6301
L12512 6285
" />
<path d="M2029 15795
L2124 15539
" />
<path d="M25362 4030
L25697 4204
" />
<path d="M2799 14413
L2970 14221
" />
<path d="M33843 21463
L19769 21466
" />
<path d="M34135 21395
L33843 21463
" />
<path d="M9040 9236
L9110 8973
" />
<path d="M37218 18259
L37175 18485
" />
<path d="M36766 16016
L36854 16152
" />
<path d="M5726 11655
L5819 11502
" />
<path d="M29082 8907
L29221 8815
" />
<path d="M14831 6778
L15020 6893
" />
<path d="M2124 15539
L2233 15293
" />
<path d="M16450 7491
L16531 7297
" />
<path d="M5249 13014
L5266 12893
" />
<path d="M26330 4604
L26626 4829
" />
<path d="M35407 20916
L35211 21020
" />
<path d="M35595 20801
L35407 20916
" />
<path d="M1820 16791
L1839 16622
" />
<path d="M35322 14836
L35591 14969
" />
<path d="M1977 15956
L2029 15795
" />
<path d="M35775 20675
L35595 20801
" />
<path d="M15193 7014
L15417 7201
" />
<path d="M3762 13576
L3985 13448
" />
<path d="M36970 19130
L36879 19333
" />
<path d="M6026 11207
L6139 11066
" />
<path d="M37050 18921
L36970 19130
" />
<path d="M36261 20237
L36108 20393
" />
<path d="M36879 19333
L36776 19529
" />
<path d="M35946 20539
L35775 20675
" />
<path d="M8816 9503
L8988 9470
" />
<path d="M28432 7125
L28579 7463
" />
<path d="M3985 13448
L4215 13335
" />
<path d="M15417 7201
L15646 7422
" />
<path d="M28961 8798
L28983 8872
" />
<path d="M10605 7005
L10848 6848
" />
<path d="M35833 13858
L35730 14126
" />
<path d="M28708 7811
L28816 8167
" />
<path d="M29221 8815
L29482 8653
" />
<path d="M13553 6309
L13766 6354
" />
<path d="M37253 17914
L37240 18095
" />
<path d="M2356 15057
L2491 14832
" />
<path d="M11366 6583
L11640 6477
" />
<path d="M12882 6270
L13253 6278
" />
<path d="M18075 5125
L18384 4856
" />
<path d="M16531 7297
L16619 7107
" />
<path d="M26020 4396
L26330 4604
" />
<path d="M6259 10930
L6384 10798
" />
<path d="M6796 10432
L6944 10320
" />
<path d="M24487 3693
L24667 3736
" />
<path d="M3153 14040
L3346 13873
" />
<path d="M3244 20413
L3099 20275
" />
<path d="M27425 5593
L27661 5876
" />
<path d="M27880 6171
L28082 6478
" />
<path d="M33520 8699
L33792 8866
" />
<path d="M13766 6354
L13984 6414
" />
<path d="M36108 20393
L35946 20539
" />
<path d="M36236 15409
L36353 15519
" />
<path d="M2970 14221
L3153 14040
" />
<path d="M25697 4204
L26020 4396
" />
<path d="M1804 17134
L1809 16962
" />
<path d="M24667 3736
L25011 3871
" />
<path d="M18384 4856
L18709 4606
" />
<path d="M5919 11353
L6026 11207
" />
<path d="M10848 6848
L11102 6707
" />
<path d="M19050 4376
L19405 4168
" />
<path d="M30312 8302
L30600 8228
" />
<path d="M14419 6574
L14630 6672
" />
<path d="M1839 16622
L1863 16453
" />
<path d="M13416 6290
L13553 6309
" />
<path d="M2610 19722
L2520 19590
" />
<path d="M32957 8430
L33241 8554
" />
<path d="M5466 12196
L5559 11973
" />
<path d="M16374 7688
L16450 7491
" />
<path d="M35461 10627
L35578 10857
" />
<path d="M35908 11840
L35955 12102
" />
<path d="M3650 20744
L3525 20653
" />
<path d="M3871 20883
L3650 20744
" />
<path d="M2052 18648
L2003 18501
" />
<path d="M10375 7177
L10605 7005
" />
<path d="M35027 9978
L35186 10188
" />
<path d="M2431 19445
L2261 19129
" />
<path d="M3525 20653
L3388 20541
" />
<path d="M5335 21422
L5082 21370
" />
<path d="M4582 21219
L4338 21121
" />
<path d="M6516 10671
L6653 10549
" />
<path d="M36465 15636
L36571 15758
" />
<path d="M2826 19989
L2708 19850
" />
<path d="M35955 12102
L35988 12370
" />
<path d="M2708 19850
L2610 19722
" />
<path d="M28082 6478
L28266 6796
" />
<path d="M36934 16292
L37007 16434
" />
<path d="M15858 7655
L15950 7769
" />
<path d="M1814 17478
L1804 17134
" />
<path d="M12512 6285
L12882 6270
" />
<path d="M15020 6893
L15193 7014
" />
<path d="M35912 13578
L35833 13858
" />
<path d="M35999 12988
L35968 13287
" />
<path d="M9600 7995
L9770 7773
" />
<path d="M37071 16579
L37127 16726
" />
<path d="M28579 7463
L28708 7811
" />
<path d="M27174 5324
L27425 5593
" />
<path d="M5819 11502
L5919 11353
" />
<path d="M36854 16152
L36934 16292
" />
<path d="M5378 12450
L5466 12196
" />
<path d="M16030 7877
L16200 8115
" />
<path d="M2491 14832
L2639 14617
" />
<path d="M14203 6488
L14419 6574
" />
<path d="M34956 21137
L34701 21235
" />
<path d="M35211 21020
L34956 21137
" />
<path d="M26907 5069
L27174 5324
" />
<path d="M8988 9470
L9040 9236
" />
<path d="M2003 18501
L1955 18333
" />
<path d="M26626 4829
L26907 5069
" />
<path d="M9202 8717
L9315 8468
" />
<path d="M20351 3746
L20550 3693
" />
<path d="M19774 3982
L20156 3818
" />
<path d="M13984 6414
L14203 6488
" />
<path d="M7422 10016
L7591 9927
" />
<path d="M9448 8227
L9600 7995
" />
<path d="M3549 13718
L3762 13576
" />
<path d="M34855 9775
L35027 9978
" />
<path d="M11640 6477
L11921 6389
" />
<path d="M9956 7562
L10158 7363
" />
<path d="M31781 8154
L32079 8190
" />
<path d="M31484 8140
L31781 8154
" />
<path d="M3099 20275
L2958 20132
" />
<path d="M5559 11973
L5639 11812
" />
<path d="M30028 8397
L30312 8302
" />
<path d="M16239 8059
L16305 7887
" />
<path d="M37127 16726
L37175 16874
" />
<path d="M34470 9391
L34670 9579
" />
<path d="M36115 15306
L36236 15409
" />
<path d="M35605 14381
L35533 14503
" />
<path d="M36663 19718
L36539 19899
" />
<path d="M1809 16962
L1820 16791
" />
<path d="M35578 10857
L35682 11093
" />
<path d="M2520 19590
L2431 19445
" />
<path d="M9110 8973
L9202 8717
" />
<path d="M9799 21465
L5589 21458
" />
<path d="M19769 21466
L9799 21465
" />
<path d="M37256 17532
L37258 17724
" />
<path d="M15646 7422
L15858 7655
" />
<path d="M10158 7363
L10375 7177
" />
<path d="M20156 3818
L20351 3746
" />
<path d="M6384 10798
L6516 10671
" />
<path d="M18709 4606
L19050 4376
" />
<path d="M29482 8653
L29752 8514
" />
<path d="M37175 18485
L37118 18706
" />
<path d="M35682 11093
L35771 11336
" />
<path d="M35358 14770
L35322 14836
" />
<path d="M34432 21319
L34135 21395
" />
<path d="M34701 21235
L34432 21319
" />
<path d="M35727 15041
L35860 15121
" />
<path d="M37118 18706
L37050 18921
" />
<path d="M17023 6383
L17257 6043
" />
<path d="M35846 11585
L35908 11840
" />
<path d="M9770 7773
L9956 7562
" />
<path d="M35186 10188
L35330 10404
" />
<path d="M12210 6322
L12348 6301
" />
<path d="M6653 10549
L6796 10432
" />
<path d="M33241 8554
L33520 8699
" />
<path d="M36776 19529
L36663 19718
" />
<path d="M16206 8115
L16215 8105
" />
<path d="M34031 9034
L34258 9209
" />
<path d="M29022 8921
L29039 8922
" />
<path d="M29752 8514
L30028 8397
" />
<path d="M5307 12695
L5378 12450
" />
<path d="M2639 14617
L2799 14413
" />
<path d="M35591 14969
L35727 15041
" />
<path d="M2261 19129
L2113 18804
" />
<path d="M8534 9573
L8816 9503
" />
<path d="M17511 5720
L17784 5413
" />
<path d="M35456 14620
L35358 14770
" />
<path d="M29039 8922
L29082 8907
" />
<path d="M4830 21302
L4582 21219
" />
<path d="M1895 16286
L1933 16120
" />
<path d="M1955 18333
L1913 18163
" />
<path d="M32079 8190
L32374 8248
" />
<path d="M7864 9805
L8198 9681
" />
<path d="M7098 10213
L7257 10112
" />
<path d="M28983 8872
L29008 8912
" />
<path d="M37240 18095
L37218 18259
" />
<path d="M28266 6796
L28432 7125
" />
<path d="M4215 13335
L4454 13236
" />
<path d="M36571 15758
L36672 15885
" />
<path d="M1933 16120
L1977 15956
" />
<path d="M36672 15885
L36766 16016
" />
<path d="M37007 16434
L37071 16579
" />
<path d="M4454 13236
L4701 13152
" />
<path d="M15950 7769
L16030 7877
" />
<path d="M16619 7107
L16810 6738
" />
<path d="M7591 9927
L7864 9805
" />
<path d="M11102 6707
L11366 6583
" />
<path d="M29008 8912
L29022 8921
" />
<path d="M35771 11336
L35846 11585
" />
<path d="M4338 21121
L4101 21009
" />
<path d="M1850 17821
L1814 17478
" />
<path d="M1878 17993
L1850 17821
" />
<path d="M35330 10404
L35461 10627
" />
<path d="M33792 8866
L34031 9034
" />
<path d="M7257 10112
L7422 10016
" />
<path d="M4101 21009
L3871 20883
" />
<path d="M4701 13152
L4956 13083
" />
<path d="M5589 21458
L5590 21458
" />
<path d="M37229 17167
L37246 17344
" />
<path d="M11921 6389
L12210 6322
" />
<path d="M1913 18163
L1878 17993
" />
<path d="M28816 8167
L28904 8531
" />
<path d="M3346 13873
L3549 13718
" />
<path d="M37246 17344
L37256 17532
" />
<path d="M30892 8177
L31187 8147
" />
<path d="M14630 6672
L14831 6778
" />
<path d="M17257 6043
L17511 5720
" />
<path d="M2113 18804
L2052 18648
" />
<path d="M37258 17724
L37253 17914
" />
<path d="M5589 21458
L5335 21422
" />
<path d="M6139 11066
L6259 10930
" />
<path d="M35730 14126
L35670 14255
" />
<path d="M6944 10320
L7098 10213
" />
<path d="M32374 8248
L32667 8328
" />
<path d="M9315 8468
L9448 8227
" />
<path d="M35860 15121
L35989 15209
" />
<path d="M36353 15519
L36465 15636
" />
<path d="M5639 11812
L5726 11655
" />
<path d="M13253 6278
L13416 6290
" />
<path d="M31187 8147
L31484 8140
" />
<path d="M27661 5876
L27880 6171
" />
<path d="M32667 8328
L32957 8430
" />
<path d="M35533 14503
L35456 14620
" />
<path d="M35989 15209
L36115 15306
" />
<path d="M37205 17008
L37229 17167
" />
<path d="M8198 9681
L8534 9573
" />
<path d="M19405 4168
L19774 3982
" />
<path d="M35988 12370
L36006 12682
" />
<path d="M37175 16874
L37205 17008
" />
<path d="M16305 7887
L16374 7688
" />
<path d="M34258 9209
L34470 9391
" />
<path d="M1863 16453
L1895 16286
" />
<path d="M2958 20132
L2826 19989
" />
<path d="M35968 13287
L35912 13578
" />
<path d="M4956 13083
L5249 13014
" />
<path d="M17784 5413
L18075 5125
" />
<path d="M30600 8228
L30892 8177
" />
<path d="M5082 21370
L4830 21302
" />
<path d="M35670 14255
L35605 14381
" />
<path d="M36405 20073
L36261 20237
" />
<path d="M3388 20541
L3244 20413
" />
<path d="M16215 8105
L16239 8059
" />
<path d="M2233 15293
L2356 15057
" />
<path d="M16810 6738
L17023 6383
" />
<path d="M36539 19899
L36405 20073
" />
<path d="M36006 12682
L35999 12988
" />
<path d="M28904 8531
L28961 8798
" />
<path d="M5266 12893
L5307 12695
" />
<path d="M34670 9579
L34855 9775
" />
<path d="M16200 8115
L16206 8115
" />
</g> 
</svg>
