<?xml version="1.0" encoding="UTF-8" standalone="no"?>
<!-- Created with Inkscape (http://www.inkscape.org/) -->

<svg
   xmlns:dc="http://purl.org/dc/elements/1.1/"
   xmlns:cc="http://creativecommons.org/ns#"
   xmlns:rdf="http://www.w3.org/1999/02/22-rdf-syntax-ns#"
   xmlns:svg="http://www.w3.org/2000/svg"
   xmlns="http://www.w3.org/2000/svg"
   xmlns:sodipodi="http://sodipodi.sourceforge.net/DTD/sodipodi-0.dtd"
   xmlns:inkscape="http://www.inkscape.org/namespaces/inkscape"
   id="svg3377"
   version="1.1"
   inkscape:version="0.91 r13725"
   width="14.668902mm"
   height="9.6505938mm"
   viewBox="0 0 51.976427 34.195016"
   sodipodi:docname="LoRa_logo_15x9mm.svg">
  <sodipodi:namedview
     pagecolor="#ffffff"
     bordercolor="#666666"
     borderopacity="1"
     objecttolerance="10"
     gridtolerance="10"
     guidetolerance="10"
     inkscape:pageopacity="0"
     inkscape:pageshadow="2"
     inkscape:window-width="1865"
     inkscape:window-height="1056"
     id="namedview3379"
     showgrid="false"
     inkscape:document-units="mm"
     units="mm"
     fit-margin-top="0"
     fit-margin-left="0"
     fit-margin-right="0"
     fit-margin-bottom="0"
     inkscape:zoom="7.9605263"
     inkscape:cx="29.801152"
     inkscape:cy="1.3255652"
     inkscape:window-x="55"
     inkscape:window-y="24"
     inkscape:window-maximized="1"
     inkscape:current-layer="layer1" />
  <metadata
     id="metadata3383">
    <rdf:RDF>
      <cc:Work
         rdf:about="">
        <dc:format>image/svg+xml</dc:format>
        <dc:type
           rdf:resource="http://purl.org/dc/dcmitype/StillImage" />
        <dc:title />
      </cc:Work>
    </rdf:RDF>
  </metadata>
  <defs
     id="defs3381" />
  <g
     inkscape:groupmode="layer"
     id="layer1"
     inkscape:label="SilkS">
    <path
       transform="translate(0,1.9073486e-6)"
       inkscape:connector-curvature="0"
       id="path3387"
       d="M16.32551 34.360599L15.4747155053 34.2660621172L14.6074784172 34.1255873125L13.7383065799 33.9432524766L12.8817078375 33.7231355L12.0521900342 33.4693142734L11.2642610141 33.1858666875L10.5324286213 32.8768706328L9.8712007 32.546404L9.17098965625 32.1524343906L8.602379725 31.811839375L8.22441090625 31.5614781719L8.12536691406 31.4816537559L8.0961232 31.43821L8.16252197988 31.3165807168L8.29925072656 31.1097388594L8.6906105625 30.565467875L9.08402759219 30.0554979531L9.22332783105 29.8915324238L9.2933267 29.82993L9.494989325 29.915052875L9.8600177 30.11971L10.3071159894 30.3781155862L10.7654641916 30.6220400332L11.2339417265 30.8511674988L11.7114280141 31.0651821406L12.196802474 31.2637681165L12.6889445264 31.446609584L13.1867335909 31.6133907009L13.6890490875 31.763795625L14.1947704361 31.8975085139L14.7027770564 32.0142135254L15.2119483685 32.1135948171L15.7211637922 32.1953365469L16.2293027473 32.2591228723L16.7352446537 32.3046379512L17.2378689313 32.3315659412L17.736055 32.339591L18.2249877114 32.3286163071L18.7207536758 32.2989884258L19.2217620757 32.2511516519L19.7264220937 32.1855502812L20.2331429126 32.1026286099L20.7403337148 32.0028309336L21.2464036831 31.8866015483L21.749762 31.75438475L22.2488178481 31.6066248345L22.7419804102 31.4437660977L23.2276588687 31.2662528354L23.7042624062 31.0745293437L24.1702002056 30.8690399185L24.6238814492 30.6502288555L25.0637153198 30.4185404507L25.488111 30.174419L25.930983 29.908162L26.49259 30.702203L26.8892255 31.290008375L27.0098835625 31.4898437656L27.054198 31.588205L27.0236916648 31.6408864739L26.9362559277 31.717058541L26.6150958594 31.9276180781L26.1397170176 32.1953708574L25.559118625 32.495804125L24.9222999043 32.804405127L24.2782600781 33.0966611094L23.6759983691 33.3480593184L23.164514 33.534087L22.3321135039 33.7793514434L21.4777093437 33.9859417969L20.6090926367 34.1529164707L19.7340545 34.279333875L18.8603860508 34.3642524199L17.9958784063 34.4067305156L17.1483226836 34.4058265723L16.32551 34.360599L16.32551 34.360599M16.28277 30.634925L15.256919 30.459915L14.8130842832 30.3731438535L14.3422713281 30.2589411406L13.8544828027 30.1207035762L13.359721375 29.961827875L12.8679897129 29.785710752L12.3892904844 29.5957489219L11.9336263574 29.3953390996L11.511 29.187878L10.808915625 28.808257125L10.403229 28.563664L10.208613 28.415227L10.604383 27.818893L10.9415073594 27.3196627812L11.0602928535 27.1838051523L11.170017375 27.11606025L11.2271357126 27.1059193853L11.2887735371 27.1106338789L11.4346539531 27.1617318437L11.880158 27.410324L12.5684161934 27.7765105957L13.2694532969 28.0939957656L13.9831268457 28.362741459L14.709294375 28.582709625L15.4478134199 28.7538622129L16.1985415156 28.8761611719L16.9613361973 28.9495684512L17.736055 28.974046L18.4144536074 28.9557194922L19.0771611719 28.9003403125L19.7267029316 28.8073089766L20.365604125 28.676026L20.9963899902 28.5058918984L21.6215857656 28.2963071875L22.2437166895 28.0466723828L22.865308 27.756388L23.991967 27.19608L24.0177273835 27.2034133757L24.058848334 27.2386825215L24.1774807344 27.3781197344L24.492469125 27.828231125L24.7818729531 28.3078799531L24.8685246504 28.4842389629L24.890633 28.578532L24.7910730234 28.6733003184L24.561493375 28.8191762969L23.83055175 29.205895375L22.9343615 29.6219775156L22.4982210703 29.8045573223L22.109476 29.950711L21.5862438867 30.1242633086L21.1010494062 30.2671188437L20.6368673477 30.3821630195L20.1766725 30.47228125L19.7034396523 30.5403589492L19.2001435937 30.5892815312L18.6497591133 30.6219344102L18.035261 30.641203L16.885721125 30.65253175L16.282767 30.634903L16.28277 30.634925M16.881182 27.042609L16.3023908281 26.9627535938L15.760418375 26.86580475L15.2445307344 26.7495985313L14.743994 26.611971L14.4089607207 26.4982226758L14.0288218906 26.3481101563L13.243911125 25.99291525L12.8944809629 25.8148942227L12.6106287969 25.6546317188L12.4200255137 25.525658418L12.3683393552 25.4771335562L12.350342 25.441505L12.376934543 25.3501165254L12.4481088438 25.2143598906L12.67258275 24.879465375L12.9205237813 24.5762679219L13.0210319883 24.4801326152L13.088692 24.444214L13.1710727969 24.4646056406L13.307327125 24.520127375L13.665718 24.702642L14.1167021563 24.936352498L14.5856921719 25.1395012812L15.0702759297 25.3120698457L15.5680413125 25.4540396875L16.0765762031 25.5653923027L16.5934684844 25.6461091875L17.1163060391 25.6961718379L17.64267675 25.71556175L18.1701685 25.7042604199L18.6963691719 25.6622493437L19.2188666484 25.5895100176L19.7352488125 25.4860239375L20.2431035469 25.3517725996L20.7400187344 25.1867375L21.2235822578 24.9909001348L21.691382 24.764242L22.046918125 24.590643875L22.1607552031 24.5456290469L22.209312 24.538353L22.5010579531 24.9507153125L22.703294875 25.2643885L22.8154393594 25.4783934375L22.837544623 25.5477143359L22.836908 25.591751L22.7968880957 25.6473669021L22.7176161563 25.7136249043L22.4568623125 25.8717712344L22.08573875 26.053598041L21.63533775 26.246513375L21.1367515938 26.4379252871L20.6210725625 26.6152418281L20.1193929375 26.7658710488L19.662805 26.877221L19.0330955 26.9673196875L18.22908 27.03267775L17.44652125 27.0616551875L17.1244640156 27.0588636719L16.881182 27.042612L16.881182 27.042609M15.932039 23.380215L15.4591021289 23.2603951445L14.9911484688 23.1001395313L14.5340980742 22.9028448398L14.093871 22.67190775L13.6763873008 22.4107249414L13.2875670313 22.1226930938L12.9333302461 21.8112088867L12.619597 21.479669L12.4603087266 21.2766074355L12.3009501875 21.0411799844L12.1448176797 20.7799228848L11.9952075 20.499372375L11.7287393125 19.9065360781L11.6184738984 19.6073227676L11.527916 19.314961L11.4559061113 18.9524608281L11.4038924531 18.4799329375L11.3719740371 17.9339550156L11.360249875 17.35110475L11.3688189785 16.7679598281L11.3977803594 16.2210979375L11.4472330293 15.7470967656L11.517276 15.382534L11.6807861387 14.8624274531L11.8815416875 14.3732208125L12.1185290332 13.9155740781L12.3907345625 13.49014725L12.6971446621 13.0976003281L13.0367457188 12.7385933125L13.4085241191 12.4137862031L13.81146625 12.123839L14.244558498 11.8694117031L14.70678725 11.6511643125L15.1971388926 11.4697568281L15.7145998125 11.32584925L16.2581563965 11.2201015781L16.8267950313 11.1531738125L17.4195021035 11.1257259531L18.035264 11.138418L18.4560583164 11.1667947891L18.8382469688 11.2067263125L19.1906326367 11.2603330547L19.522018 11.3297355L19.8412057383 11.4170541328L20.1569985313 11.5244094375L20.4781990586 11.6539218984L20.81361 11.807712L21.0788613796 11.9458994626L21.3350099902 12.0998986699L21.5815591018 12.2690621008L21.8180119844 12.4527422344L22.043871908 12.6502915496L22.2586421426 12.8610625254L22.4618259583 13.0844076409L22.652926625 13.319679375L22.8314474128 13.5662302068L22.9968915918 13.8234126152L23.1487624319 14.0905790793L23.2865632031 14.3670820781L23.4097971755 14.6522740906L23.5179676191 14.9455075957L23.610577804 15.2461350725L23.687131 15.553509L23.7550651777 15.9507438906L23.8015196719 16.4118558125L23.8267572988 16.9143226406L23.831040875 17.43562225L23.8146332168 17.9532325156L23.7777971406 18.4446313125L23.7207954629 18.8872965156L23.643891 19.258706L23.5329528887 19.6327260066L23.4018742188 19.9922329902L23.2510255488 20.3368518967L23.0807774375 20.6662076719L22.8915004434 20.9799252615L22.683565125 21.2776296113L22.457342041 21.5589456672L22.21320175 21.823498375L21.9515148105 22.0709126804L21.6726517812 22.3008135293L21.3769832207 22.5128258674L21.0648796875 22.7065746406L20.7367117402 22.8816847947L20.3928499375 23.0377812754L20.0336648379 23.1744890286L19.659527 23.291433L19.329970043 23.3582606445L18.8905165938 23.4108549063L18.3766321602 23.4483710273L17.82378225 23.46996425L17.2674323711 23.4747898164L16.7430480312 23.4620029688L16.2860947383 23.4307589492L15.932038 23.380213L15.932039 23.380215M18.776212 20.53261L18.9405039297 20.4456248887L19.108347625 20.3308529219L19.2749549453 20.1932859004L19.43553775 20.037915625L19.5853078984 19.8697338965L19.71947725 19.6937325156L19.8332576641 19.5149032832L19.921861 19.338238L20.0567712656 18.9520324102L20.159201375 18.5108329062L20.2284936719 18.0325667617L20.2639905 17.53516125L20.2650342031 17.0365436445L20.230967125 16.5546412187L20.1611316094 16.1073812461L20.05487 15.712691L19.8812737441 15.2821361465L19.6769310156 14.9130896719L19.5626053674 14.7511541091L19.439843873 14.6040220801L19.3083967898 14.4715023977L19.168014375 14.353403875L19.018446886 14.249535325L18.8594445801 14.1597055605L18.6907577146 14.0837233948L18.5121365469 14.0213976406L18.3233313342 13.9725371111L18.124092334 13.9369506191L17.693314 13.904835L17.368086926 13.9145622678L17.0616751738 13.9530437988L16.7743777605 14.0199135593L16.5064937031 14.1148055156L16.2583220188 14.237353634L16.0301617246 14.3871918809L15.8223118376 14.5639542224L15.635071375 14.767274625L15.4687393538 14.9967870549L15.323614791 15.2521254785L15.1999967039 15.5329238621L15.0981841094 15.8388161719L15.0184760247 16.1694363743L14.9611714668 16.5244184355L14.9265694529 16.903396322L14.914969 17.306004L14.9276026245 17.7162018225L14.9651325898 18.1033792051L15.0270025337 18.4668732078L15.1126560938 18.8060208906L15.2215369077 19.1201593137L15.3530886133 19.4086255371L15.5067548481 19.6707566208L15.68197925 19.905889625L15.8782054565 20.1133616096L16.0948771055 20.2925096348L16.3314378345 20.4426707605L16.5873312813 20.5631820469L16.8620010835 20.653380554L17.1548908789 20.7126033418L17.4654443052 20.7401874705L17.793105 20.73547L18.0606218594 20.7075798437L18.334807625 20.66010625L18.5839188281 20.5995995312L18.776212 20.53261L18.776212 20.53261M43.634431 23.34778L43.3033117239 23.24525803L42.992046666 23.116492709L42.7014115447 22.9627584202L42.4321820781 22.7853295469L42.1851339846 22.5854804724L41.9610429824 22.3644855801L41.7606847898 22.1236192532L41.584835125 21.864155875L41.4342697063 21.5873698289L41.309764252 21.294535498L41.2120944802 20.9869272659L41.1420361094 20.6658195156L41.1003648577 20.3324866306L41.0878564434 19.9882029941L41.1052865847 19.6342429895L41.153431 19.271881L41.2113104985 18.9937395032L41.2859783164 18.7287789004L41.377791187 18.4766512107L41.4871058438 18.2370084531L41.61427902 18.0095026467L41.7596674492 17.7937858105L41.9236278647 17.5895099636L42.106517 17.396327125L42.3086915884 17.2138893137L42.5305083633 17.0418485488L42.7723240581 16.8798568494L43.0344954063 16.7275662344L43.3173791411 16.5846287229L43.6213319961 16.450696334L43.9467107046 16.3254210867L44.293872 16.208455L44.9780705469 16.0170633906L45.770993125 15.836849125L46.6286611406 15.6768760469L47.507096 15.546208L48.3406 15.438469L48.340429 14.876204L48.3208021738 14.5042324922L48.2595437031 14.1937253125L48.2120975657 14.0603777256L48.1527974746 13.9410244766L48.0811614158 13.8352083174L47.996707375 13.742472L47.8989533381 13.6623582764L47.787417291 13.5944098984L47.6616172195 13.5381696182L47.5210711094 13.4931801875L47.1938127168 13.4351248828L46.801786 13.416586L46.448149291 13.4352225879L46.1362625156 13.4912968906L45.8657834512 13.5850557168L45.636369875 13.716745875L45.4476795645 13.8866141738L45.2993702969 14.0949074219L45.1910998496 14.3418724277L45.122526 14.627756L45.070186 14.955096L43.376407 14.955096L42.149273625 14.9320685L41.7799165469 14.906377875L41.632499 14.873986L41.6129540234 14.7790778203L41.6183358125 14.6141883125L41.68919 14.148207L41.8156821875 13.6235254375L41.8906114766 13.3852606172L41.968433 13.187627L42.1405388535 12.859655668L42.3443607656 12.5634240312L42.5823030137 12.2970902539L42.856769875 12.0588125L43.170165627 11.8467489336L43.5248945469 11.6590577187L43.9233609121 11.4938970195L44.367969 11.349425L44.780663375 11.2454346094L45.20656 11.186615125L45.789558375 11.1609105781L46.673558 11.156265L47.4685894375 11.1650495312L48.0779925 11.19032375L48.5495230625 11.2351935937L48.930937 11.302765L49.4546952656 11.4536804844L49.988685875 11.660440875L50.4569672969 11.8899875781L50.642735334 12.0029749863L50.783598 12.109262L51.0175018437 12.3585860937L51.26022775 12.6852815L51.4695760312 13.0269574062L51.603347 13.321223L51.6284521152 13.4601332461L51.6518505469 13.7202999062L51.693920875 14.6159895L51.7303450156 16.0314658437L51.76191 17.989903L51.7961588437 20.2010664844L51.83384325 21.599631875L51.8833000313 22.3955015781L51.9150483164 22.6330200488L51.952866 22.798578L52.086543 23.247387L50.431291 23.247387L48.77604 23.247387L48.68701 22.926809L48.6239925 22.628362875L48.5975 22.360996L48.596987 22.115762L48.319153 22.393135L48.1676443359 22.5228646465L47.9685640625 22.6603951719L47.7319103828 22.8007894551L47.4676815 22.939110375L46.8964909375 23.1897836406L46.6095256641 23.2922617441L46.334978 23.372918L46.0541620195 23.4293728027L45.7283440937 23.4685319844L45.3719163711 23.4905294551L44.999271 23.495499125L44.6248001289 23.4835749043L44.2628959062 23.4548907031L43.9279504805 23.4095804316L43.634356 23.347778L43.634431 23.34778M47.239247 20.577682L47.4776076895 20.4161962988L47.6816213906 20.2297302656L47.8535465527 20.0135256309L47.995641625 19.762824125L48.1101650566 19.4728674785L48.1993752969 19.1388974219L48.2655307949 18.7561556855L48.31089 18.319884L48.3385235625 17.9126134531L48.335586 17.698601125L48.3200265234 17.6471476426L48.2936724375 17.6237057344L48.2554731328 17.6215077402L48.204378 17.633786L46.930055 17.996668L46.3097628262 18.1833475371L45.7997070469 18.3637411719L45.3914021504 18.5438088145L45.076362625 18.729510375L44.9511656541 18.8263363464L44.846102959 18.9268057637L44.7601138508 19.0316636155L44.6921376406 19.1416548906L44.6411136394 19.2575245779L44.6059811582 19.380017666L44.579148 19.647854L44.6045087539 19.9429116465L44.6362377202 20.0745612112L44.6806906563 20.1956426094L44.7378862446 20.3061693455L44.807843168 20.4061549238L44.8905801089 20.4956128489L44.98611575 20.574556625L45.0944687739 20.6429997566L45.2156578633 20.700955748L45.4966189687 20.7854603281L45.8291485273 20.8281784004L46.213396 20.829218L46.5468799531 20.8037411875L46.807191375 20.7586785L47.0270678594 20.6860015625L47.239247 20.577682L47.239247 20.577682M0.12561983 15.338215L0.12561983 7.4290405L2.1132054 7.4519905L4.1007909 7.4749405L4.1227279 13.607579L4.1446649 19.740218L7.1575354 19.762678L10.170406 19.785148L10.193546 21.516271L10.216686 23.247393L5.1711504 23.247393L0.12561503 23.247393L0.12561503 15.33822L0.12561983 15.338215M26.113835 15.339815L26.113835 7.4322165L29.982146 7.4336165L33.00633 7.458787625L34.153692125 7.48529098437L34.845145 7.5174065L35.4062407334 7.57973137512L35.9309886016 7.6709090791L36.4197580439 7.79129654236L36.8729185 7.94125069531L37.2908394092 8.12112846838L37.6738902109 8.33128679199L38.0224403447 8.57208259656L38.33685925 8.8438728125L38.6175163662 9.14701437024L38.8647811328 9.4818642002L39.0790229893 9.84877923279L39.260611375 10.2481163984L39.4099157295 10.6802326276L39.5273054922 11.1454848506L39.6131501025 11.6442299979L39.667819 12.176825L39.6825606255 12.5600437434L39.6716767227 12.9331917285L39.6355369976 13.2956279001L39.5745111562 13.6467112031L39.4889689048 13.9858005823L39.3792799492 14.3122549824L39.2458139956 14.6254333484L39.08894075 14.924694625L38.9090299185 15.2093977571L38.706451207 15.4789016895L38.4815743218 15.7325653669L38.2347689688 15.9697477344L37.966404854 16.1898077366L37.6768516836 16.3921043184L37.3664791636 16.5759964246L37.035657 16.740843L36.544891 16.964127L38.295483 20.041679L39.532166 22.23444375L40.04719 23.184742L39.8683155312 23.2083823125L39.380475 23.224322L37.775975 23.227482L35.503646 23.204722L33.986632 20.426376L32.469619 17.648031L31.300684 17.624251L30.131749 17.600461L30.131749 20.423963L30.131749 23.247464L28.122792 23.247464L26.113835 23.247464L26.113835 15.339866L26.113835 15.339815M34.817 14.249753L34.9805617852 14.1257778262L35.1245650938 13.9833656719L35.2490934805 13.8223509629L35.3542305 13.642568125L35.440059707 13.443851584L35.5066646562 13.2260357656L35.5541289023 12.9889550957L35.582536 12.732444L35.5927624629 12.4718730352L35.5845720781 12.2313497812L35.5574289355 12.0089923242L35.510797125 11.80291875L35.4441407363 11.6112471445L35.3569238594 11.4320955937L35.248610584 11.2635821836L35.118665 11.103825L34.942264375 10.9273095703L34.7536254375 10.7891416875L34.5290859688 10.6847559609L34.24498375 10.609587L33.8776565625 10.5590694141L33.4034421875 10.5286378125L32.039703 10.509771L30.131749 10.509771L30.131749 12.524063L30.131749 14.538355L32.296806 14.511645L34.461863 14.484935L34.817 14.249748L34.817 14.249753M21.326532 9.8633065L20.9836802656 9.69990023438L20.587331875 9.531162125L20.1865755469 9.37697870313L19.8305 9.2572365L19.3716861406 9.13073278125L18.947939375 9.06011475L18.3991179219 9.02855859375L17.56508 9.0192405L16.9581415312 9.02402772852L16.433326375 9.04619495312L15.9692194063 9.09013798242L15.5444055 9.160252625L15.1374695313 9.26093468945L14.726996375 9.39657998437L14.2915709063 9.57158431836L13.809778 9.7903435L13.226191625 10.0388775L13.0374847656 10.0984774844L12.954903 10.101359L12.322271 9.1716835L12.3186900378 9.12613609863L12.3522774746 9.06999122656L12.5196044844 8.9310673125L12.8015459082 8.76522824219L13.175395625 8.5827905L13.6184475137 8.39407057031L14.1079954531 8.2093849375L14.6213333223 8.03905008594L15.135755 7.8933825L15.6736003438 7.7666985625L16.14203975 7.6940135L16.6826100313 7.6604191875L17.436848 7.6510075L18.3607345938 7.66520739062L18.7354275195 7.68911720898L19.07788725 7.727909125L19.4075640742 7.78433977539L19.7439082813 7.86116579687L20.5144 8.0870305L20.8166499648 8.19540471484L21.1774207188 8.34272453125L21.95269075 8.695411L22.5965424063 9.02750996875L22.7930401914 9.14909541016L22.8466064966 9.19234196729L22.865308 9.2214415L22.8356924258 9.29440144531L22.7570481563 9.42469903125L22.51388825 9.774058625L22.2582577188 10.1030232812L22.164025168 10.2078271953L22.112586 10.245096L21.857178 10.1295696875L21.326532 9.8633065L21.326532 9.8633065M23.591952 7.4212995L23.0668340156 7.115563875L22.403839875 6.78816825L21.6991410469 6.4835535L21.048909 6.2461605L20.6258550527 6.11955188281L20.2051552969 6.0114235L19.7834659863 5.92127617969L19.357443375 5.84861075L18.9237437168 5.79292803906L18.4790232656 5.753728875L18.0199382754 5.73051408594L17.543145 5.7227845L16.7855611074 5.74265175781L16.0526605469 5.803172625L15.3417633691 5.90499449219L14.650189625 6.04876475L13.9752593652 6.23513078906L13.3142926406 6.46474L12.664609502 6.73823977344L12.02353 7.0562775L11.391075625 7.382578125L11.115379 7.5023085L10.641524 6.7986035L10.4641458281 6.53747846094L10.3431368125 6.34194125L10.307885543 6.26224514551L10.2916643281 6.19111847656L10.2961190898 6.12595206934L10.32289575 6.06413675L10.3736402305 6.00306334473L10.4499984531 5.94012267969L10.6861398125 5.798202875L11.538208 5.3771525L12.2976015937 5.02226541992L13.002558875 4.73261754687L13.6779093437 4.50268530664L14.3484825 4.326945125L15.0391078437 4.19987342773L15.774614875 4.11594664062L16.5798330937 4.06964118945L17.479592 4.0554335L18.2342477852 4.0649082168L18.9124358437 4.09527098437L19.5313052305 4.14942972852L20.108005 4.230292375L20.659684207 4.34076684961L21.2034919063 4.48376107812L21.7565771523 4.66218298633L22.336089 4.8789405L22.7464923672 5.05080521289L23.1794459375 5.24821451562L24.0177385 5.668801375L24.6604363125 6.03897004688L24.8488964453 6.17335661523L24.8994846885 6.22231204175L24.917009 6.2569895L24.8796965547 6.3566539043L24.7804704375 6.52868317187L24.4725445 6.983864625L24.1457658125 7.41059051562L24.0229737578 7.54705033008L23.952669 7.5969175L23.80370325 7.54276775L23.591952 7.4212995L23.591952 7.4212995M25.344447 4.5571865L24.7573050391 4.21166524414L24.1265886875 3.88795976563L23.4572093672 3.58785737305L22.7540785 3.313145375L22.0221075078 3.06561108008L21.2662078125 2.84704179688L20.4912908359 2.65922483398L19.702268 2.5039475L19.288007207 2.44603066602L18.7839694687 2.39722470313L17.6696245 2.332771625L16.6853557812 2.32224073438L16.3439133555 2.34083750586L16.157286 2.3772845L15.88527775 2.45143075L15.475256 2.5127115L14.8943521016 2.58929287305L14.2998374375 2.70111279687L13.6930286797 2.84775247852L13.0752425 3.028793125L12.4477955703 3.24381594336L11.8120045625 3.49240214062L11.1691861484 3.77413292383L10.520657 4.0885895L9.2210239 4.7488025L8.6721983 3.9603095L8.278103275 3.382546L8.1012891 3.1006995L8.11501635461 3.06648640015L8.16884451504 3.0140176543L8.38174818281 2.86250579688L8.7098893623 2.66254907227L9.1231573125 2.430532625L10.0846305609 1.93586114063L10.5726143771 1.70597639258L11.025282 1.5095725L11.6000394893 1.28727892008L12.1864409453 1.08656968764L12.7832777256 0.907555080559L13.3893411875 0.750345376719L14.0034226885 0.615050853992L14.6243135859 0.501781790254L15.2508052373 0.410648463381L15.881689 0.34176115125L16.5157562314 0.295230131736L17.1517982891 0.271165682715L17.7886065303 0.269678082063L18.4249723125 0.290877607656L19.0596869932 0.334874537371L19.6915419297 0.401779149082L20.3193284795 0.491701720667L20.941838 0.60475253L21.4300904863 0.71463306582L21.9542047031 0.853679822188L22.5004939121 1.01716614746L23.055271375 1.20036539L23.6048503535 1.39855089816L24.1355441094 1.60699602031L24.6336659043 1.8209741048L25.085529 2.0357585L25.8300108125 2.42690590625L26.458186 2.7867395L26.8922514375 3.06828209375L27.0121795234 3.16501389453L27.054404 3.2245565L27.0083536211 3.32986814453L26.8859700937 3.53174240625L26.50873525 4.08856375L26.1157627812 4.62179046875L25.9737072227 4.79417144922L25.900116 4.8581925L25.701623625 4.7680405L25.344447 4.5571865L25.344447 4.5571865"
       style="fill:#000000" />
  </g>
</svg>
