<?xml version="1.0" encoding="UTF-8" standalone="no"?>
<!-- Created with Inkscape (http://www.inkscape.org/) -->

<svg
   xmlns:dc="http://purl.org/dc/elements/1.1/"
   xmlns:cc="http://creativecommons.org/ns#"
   xmlns:rdf="http://www.w3.org/1999/02/22-rdf-syntax-ns#"
   xmlns:svg="http://www.w3.org/2000/svg"
   xmlns="http://www.w3.org/2000/svg"
   xmlns:sodipodi="http://sodipodi.sourceforge.net/DTD/sodipodi-0.dtd"
   xmlns:inkscape="http://www.inkscape.org/namespaces/inkscape"
   id="svg3377"
   version="1.1"
   inkscape:version="0.91 r13725"
   width="7.2715425mm"
   height="4.7771645mm"
   viewBox="0 0 25.765309 16.92696"
   sodipodi:docname="LoRa_logo_7x4mm.svg">
  <sodipodi:namedview
     pagecolor="#ffffff"
     bordercolor="#666666"
     borderopacity="1"
     objecttolerance="10"
     gridtolerance="10"
     guidetolerance="10"
     inkscape:pageopacity="0"
     inkscape:pageshadow="2"
     inkscape:window-width="1865"
     inkscape:window-height="1056"
     id="namedview3379"
     showgrid="false"
     inkscape:document-units="mm"
     units="mm"
     fit-margin-top="0"
     fit-margin-left="0"
     fit-margin-right="0"
     fit-margin-bottom="0"
     inkscape:zoom="15.921053"
     inkscape:cx="11.482794"
     inkscape:cy="7.664011"
     inkscape:window-x="55"
     inkscape:window-y="24"
     inkscape:window-maximized="1"
     inkscape:current-layer="layer1" />
  <metadata
     id="metadata3383">
    <rdf:RDF>
      <cc:Work
         rdf:about="">
        <dc:format>image/svg+xml</dc:format>
        <dc:type
           rdf:resource="http://purl.org/dc/dcmitype/StillImage" />
        <dc:title />
      </cc:Work>
    </rdf:RDF>
  </metadata>
  <defs
     id="defs3381" />
  <g
     inkscape:groupmode="layer"
     id="layer1"
     inkscape:label="SilkS"
     transform="translate(-0.12557843,-17.479831)">
    <path
       inkscape:connector-curvature="0"
       id="path3418"
       d="M8.3243115 34.371534L6.6406959125 34.05988925L5.168911 33.484606L4.3011064 32.942829L4.8863986 32.156568L5.163444 32.298237L7.0353911375 33.10200225L9.0139024 33.383499L10.97613455 33.097405625L12.803748 32.324983L13.02026 32.194815L13.29482 32.583008L13.569381 33.016159L11.667782 33.967467L9.9906898 34.331805375L8.3243115 34.371534L8.3243115 34.371534M8.3034148 32.550117L7.8018942 32.464558L5.9705808 31.842681L5.4290104 31.537513L5.3338664 31.464943L5.5273514 31.173406L5.8038804 30.8298025L6.1510558 30.973663L7.534171675 31.54682225L9.0139027 31.73814L10.2994436375 31.59244325L11.521506 31.142848L12.07231 30.868923L12.511652 31.54478L11.151992 32.215614L10.2070784375 32.470601L9.1601795 32.553184L8.3034151 32.550084L8.3034148 32.550117M8.5959685 30.793896L7.5511339 30.583364L6.3809191 30.011144L6.7418857 29.523585L7.0239835 29.649926L7.95399661563 30.0172714844L8.96825005 30.145124625L9.99127233438 30.0329059531L10.947592 29.680036L11.200799 29.569603L11.50762 30.084591L10.9201916125 30.404692625L9.9558559 30.713035L8.5959685 30.793895L8.5959685 30.793896M8.1319487 29.003414L7.233300175 28.657135375L6.5125533 28.07427L5.9788492 27.015982L5.8968803375 26.055887125L5.9736492 25.093486L6.400668025 24.1683312031L7.0952393 23.500366875L8.025648525 23.1102436094L9.1601812 23.018612L9.8870293 23.112142125L10.518466 23.345818L11.417676875 24.084992625L11.923281 25.177073L11.993636375 26.09720575L11.902141 26.98848L11.6268445187 27.6765834375L11.20270165 28.242363L10.6413067562 28.6740838125L9.9542542 28.960011L8.1319494 29.003411L8.1319487 29.003414M9.5224159 27.61127L10.082504 27.027362L10.249765875 26.1458685L10.147534 25.254895L9.713965325 24.59036275L8.9930097 24.371065L8.412793825 24.4737168281L7.98677045 24.792697625L7.72429545 25.3165553594L7.6347247 26.033838L7.73137054531 26.7671700313L8.0097028875 27.30487675L8.45231393594 27.6262155938L9.0417959 27.710444L9.5224199 27.611274L9.5224159 27.61127M21.675169 28.987557L21.0874104063 28.7125849219L20.673157 28.262239125L20.4566800938 27.6763932656L20.462251 26.994921L20.6253789062 26.4889897656L20.92819825 26.077995125L21.997558 25.497265L23.568448 25.173504L23.975934 25.120834L23.97585 24.845952L23.80781075 24.291690125L23.223634 24.13237L22.653882 24.279112875L22.402673 24.72449L22.377083 24.884521L21.549024 24.884521L20.696457 24.844871L20.860689 24.02044L21.294982 23.468581625L22.033781 23.121774L23.160944 23.027344L24.264537 23.098964L25.170271 23.493247L25.571033 24.085754L25.648553 26.368191L25.741913 28.719069L25.807263 28.938484L24.998039 28.938484L24.188816 28.938484L24.145296 28.781759L24.101536 28.505142L24.101285 28.385252L23.965457 28.520855L22.995428 28.999854L21.675141 28.987564L21.675169 28.987557M23.437501 27.633305L23.807289625 27.234934625L23.961409 26.529506L23.909339 26.194085L23.286345 26.371491L22.3801065 26.72976525L22.137027 27.178728L22.3359865 27.63177675L22.935983 27.756276L23.437503 27.633305L23.437501 27.633305M0.40446507 25.07182L0.40446507 21.205161L1.3761613 21.216381L2.3478575 21.227601L2.3585825 24.225742L2.3693075 27.223883L3.8422478 27.234863L5.3151881 27.245843L5.3265021 28.092159L5.3378151 28.938476L2.87114 28.938476L0.40446501 28.938476L0.40446501 25.071817L0.40446507 25.07182M13.109654 25.072589L13.109654 21.2067L15.000804 21.207362L17.37824 21.248322L18.3695835469 21.455532375L19.085279125 21.89680875L19.5368856406 22.583319L19.735962 23.526231L19.6903472188 24.2448330156L19.45296025 24.869616875L19.0353696563 25.3805250469L18.449144 25.7575L18.209217 25.86666L19.065051 27.371222L19.92143 28.907811L18.811072 28.928711L17.70017 28.917581L16.958528 27.559296L16.216887 26.201011L15.645415 26.189381L15.073943 26.177751L15.073943 27.558113L15.073943 28.938474L14.091798 28.938474L13.109654 28.938474L13.109654 25.072586L13.109654 25.072589M17.364481 24.539676L17.627123625 24.24283425L17.738738 23.79789L17.70367075 23.343461125L17.51196 23.001686L17.08483175 22.760062125L16.006708 22.711264L15.073943 22.711264L15.073943 23.696016L15.073943 24.680769L16.132402 24.667709L17.19086 24.654649L17.364481 24.53967L17.364481 24.539676M10.769224 22.395232L10.03784 22.098934L8.9303156 21.982582L7.9424429375 22.051529L7.0944137 22.359561L6.6764799 22.511611L6.3671971 22.057109L6.784274925 21.7692095L7.7426609 21.43217L8.8676255 21.313677L9.66990095 21.3512575L10.372187 21.526841L11.521505 22.081435L11.153513 22.581882L10.769224 22.395232L10.769224 22.395232M11.876749 21.201377L10.6335 20.626871L8.9195923 20.371002L7.505276175 20.530368125L6.2211476 21.022924L5.7771686 21.240981L5.5455091 20.896952L5.38973695 20.537883L5.983882 20.202028L7.3577768125 19.688600375L8.8885222 19.555863L10.1735078 19.64134775L11.26278 19.958461L12.524547 20.632165L12.053098 21.287233L11.876749 21.201373L11.876749 21.201377M12.733513 19.801161L11.4671274 19.192971125L9.9751502 18.797368L8.2420697 18.735445L7.908637 18.801655L6.7353117 19.053959625L5.4864191 19.572074L4.851051 19.894839L4.5827396 19.509359L4.3036319 19.08911L5.7331217 18.311235L6.88886937812 17.9400620469L8.107335075 17.740312375L9.35070215938 17.7154362656L10.581154 17.868884L12.606933 18.568479L13.569482 19.149662L13.00517 19.948318L12.733513 19.801161L12.733513 19.801161"
       style="fill:#000000" />
  </g>
</svg>
