<?xml version="1.0" encoding="UTF-8" standalone="no"?>
<!-- Created with Inkscape (http://www.inkscape.org/) -->

<svg
   xmlns:dc="http://purl.org/dc/elements/1.1/"
   xmlns:cc="http://creativecommons.org/ns#"
   xmlns:rdf="http://www.w3.org/1999/02/22-rdf-syntax-ns#"
   xmlns:svg="http://www.w3.org/2000/svg"
   xmlns="http://www.w3.org/2000/svg"
   xmlns:sodipodi="http://sodipodi.sourceforge.net/DTD/sodipodi-0.dtd"
   xmlns:inkscape="http://www.inkscape.org/namespaces/inkscape"
   id="svg3653"
   version="1.1"
   inkscape:version="0.91 r13725"
   width="24.965609mm"
   height="19.214327mm"
   viewBox="0 0 88.460815 68.082262"
   sodipodi:docname="ttn-logo_V1.svg">
  <sodipodi:namedview
     pagecolor="#ffffff"
     bordercolor="#666666"
     borderopacity="1"
     objecttolerance="10"
     gridtolerance="10"
     guidetolerance="10"
     inkscape:pageopacity="0"
     inkscape:pageshadow="2"
     inkscape:window-width="1865"
     inkscape:window-height="1056"
     id="namedview3655"
     showgrid="false"
     inkscape:zoom="8.7342892"
     inkscape:cx="41.903078"
     inkscape:cy="30.272403"
     inkscape:window-x="55"
     inkscape:window-y="24"
     inkscape:window-maximized="1"
     inkscape:current-layer="svg3653"
     inkscape:document-units="mm"
     units="mm"
     fit-margin-top="0"
     fit-margin-left="0"
     fit-margin-right="0"
     fit-margin-bottom="0" />
  <metadata
     id="metadata3659">
    <rdf:RDF>
      <cc:Work
         rdf:about="">
        <dc:format>image/svg+xml</dc:format>
        <dc:type
           rdf:resource="http://purl.org/dc/dcmitype/StillImage" />
        <dc:title></dc:title>
      </cc:Work>
    </rdf:RDF>
  </metadata>
  <defs
     id="defs3657" />
  <path
     inkscape:connector-curvature="0"
     id="path3663"
     d="M56.632927 67.995355L56.3649175125 67.9177700659L56.1085802559 67.8207075586L55.8645125393 67.7049077954L55.6333116719 67.5711110938L55.4155749626 67.420057771L55.2118997207 67.2524881445L55.0228832551 67.0691425317L54.849122875 66.87076125L54.6912158894 66.6580846167L54.5497596074 66.4318529492L54.4253513381 66.1928065649L54.3185883906 65.9416857813L54.230068074 65.6792309155L54.1603876973 65.4061822852L54.1101445696 65.1232802075L54.079936 64.831265L54.0711503571 64.5342274969L54.0847809353 64.246139585L54.1198162758 63.9674740973L54.1752449199 63.6987038672L54.250055409 63.4403017279L54.3432362844 63.1927405127L54.4537760874 62.9564930548L54.5806633594 62.7320321875L54.7228866416 62.519830744L54.8794344753 62.3203615576L55.049295402 62.1340974615L55.2314579629 61.9615112891L55.4249106993 61.8030758734L55.6286421526 61.6592640479L55.841640864 61.5305486456L56.062895375 61.4174025L56.2913942268 61.3202984442L56.5261259607 61.2397093115L56.7660791181 61.1761079352L57.0102422402 61.1299671484L57.2576038685 61.1017597845L57.5071525442 61.0919586768L57.7578768086 61.1010366583L58.0087652031 61.1294665625L58.258806269 61.1777212225L58.5069885476 61.2462734717L58.7523005802 61.3355961432L58.9937309082 61.4461620703L59.2302680728 61.5784440863L59.4609006155 61.7329150244L59.6846170774 61.9100477179L59.900406 62.110315L60.0716417124 62.2939960358L60.2267805823 62.4849989502L60.3660155208 62.6825912665L60.4895394395 62.8860405078L60.5975452494 63.0946141974L60.6902258621 63.3075798584L60.7677741887 63.524205014L60.8303831406 63.7437571875L60.9115545657 64.1887126807L60.9352834277 64.6365865234L60.9031130173 65.0815189014L60.816586625 65.51765L60.6772475413 65.9391200049L60.4866390566 66.3400691016L60.2463044617 66.7146374756L59.9577870469 67.0569653125L59.7959420603 67.2142078375L59.6226301028 67.3611927979L59.4380440855 67.4971877167L59.2423769199 67.6214601172L59.0358215172 67.7332775226L58.8185707888 67.8319074561L58.590817646 67.9166174408L58.352755 67.986675L57.9483211563 68.0570803125L57.49273975 68.0822025L57.0372089687 68.0618109375L56.632927 67.995675L56.632927 67.995355M58.294421 66.406845L58.5083383125 66.2798116797L58.693190875 66.1261540625L58.8492215 65.9453956641L58.976673 65.73706L59.0757881875 65.5006705859L59.146809875 65.2357509375L59.189980875 64.9418245703L59.205544 64.618415L59.2000029316 64.3513657227L59.1790542031 64.1142814063L59.1408220293 63.9020485742L59.083430625 63.70955375L59.0050042051 63.531683457L58.9036669844 63.3633242187L58.7775431777 63.1993625586L58.624757 63.034685L58.4577000039 62.882989082L58.2875157188 62.7595401562L58.1128210742 62.6639277148L57.932233 62.59574125L57.7443684258 62.5545702539L57.5478442813 62.5400042187L57.3412774961 62.5516326367L57.123285 62.589045L56.8182817227 62.6858648438L56.5495177188 62.830554375L56.3183577305 63.0210885938L56.1261665 63.2554425L55.9743087695 63.5315910937L55.8641492813 63.847509375L55.7970527773 64.2011723437L55.774384 64.590555L55.7818270227 64.8187751855L55.803959916 65.0347433594L55.8404884177 65.2381184473L55.8911182656 65.428559375L55.9555551975 65.6057250684L56.0335049512 65.7692744531L56.1246732644 65.9188664551L56.228765875 66.05416L56.3454885208 66.1748140137L56.4745469395 66.2804874219L56.6156468689 66.3708391504L56.7684940469 66.445528125L56.9327942112 66.5042132715L57.1082530996 66.5465535156L57.29457645 66.5722077832L57.49147 66.580835L57.726087875 66.5724070312L57.92304675 66.54386125L58.104955 66.4903048437L58.294421 66.406845L58.294421 66.406845M0.89627985 64.621105L0.89627985 61.219025L1.6631814 61.238425L2.4300829 61.257825L3.7751987 63.351275L5.1203144 65.444725L5.1384684 63.334105L5.1566224 61.223475L5.9111497 61.223475L6.6656741 61.223475L6.6656741 64.623305L6.6656741 68.023145L5.8929849 68.022145L5.1202957 68.021145L3.780968 65.929765L2.4416399 63.838375L2.4234849 65.931065L2.4053289 68.023745L1.6508041 68.023745L0.89627706 68.023745L0.89627706 64.621655L0.89627985 64.621105M38.788397 64.700005L38.12423875 62.32831125L37.847997 61.298225L37.8608963281 61.2807746094L37.899553375 61.265628125L38.053895 61.242275L38.668969 61.223525L39.489941 61.223525L39.549861 61.446745L40.119229 63.779045L40.49128275 65.25431625L40.613998375 65.6919935937L40.670393 65.839555L40.857337375 65.1999775L41.248212 63.730465L41.845545 61.446745L41.906775 61.223525L42.475405 61.223525L43.044038 61.223525L43.655874 63.559125L44.10937825 65.2063075L44.262141 65.6979946875L44.3106683828 65.8290973047L44.337062 65.871605L44.4050102187 65.695069375L44.538743 65.231475L44.926241 63.724885L45.494614 61.412395L45.543164 61.223525L46.407746 61.223525L46.8259045156 61.2276140625L47.086046375 61.2417625L47.2147415469 61.2687921875L47.2380997402 61.2880193359L47.23856 61.311525L46.334032 64.488135L45.393556 67.799965L45.323846 68.023185L44.47329 68.023185L43.622735 68.023185L43.525855 67.696945L42.995244 65.843865L42.677558875 64.7763575L42.5720731406 64.4600390625L42.522827 64.353865L42.34347625 64.90836875L41.966616 66.189765L41.449091 67.988845L40.588949 68.007945L39.728804 68.027045L38.788404 64.699955L38.788397 64.700005M68.686881 64.623405L68.686881 61.223575L70.116767 61.223575L71.0921614531 61.2378190625L71.4445952715 61.2598573047L71.728959875 61.2956025L71.9618350566 61.3478767578L72.1598006094 61.4195021875L72.3394363262 61.5133008984L72.517322 61.632095L72.7278609199 61.8157418555L72.9061587344 62.0351785938L73.0502959004 62.2843357227L73.158352875 62.55714375L73.2284101152 62.8475331836L73.2585480781 63.1494345313L73.2468472207 63.4567783008L73.191388 63.763495L73.1191684785 63.9950997852L73.0257677031 64.2125151563L72.9132868574 64.4131288867L72.783827125 64.59432875L72.6394896895 64.7535025195L72.4823757344 64.8880379688L72.3145864434 64.9953228711L72.138223 65.072745L71.980876875 65.1402725L71.916035 65.195365L72.24941575 65.62912375L73.04931 66.607135L74.181558 67.997975L73.90049625 68.0157875L73.224756 68.023175L72.267955 68.023175L71.294977 66.752485L70.58958325 65.84378625L70.259959 65.443445L70.2469285703 65.4603995898L70.2350355625 65.5254642188L70.2154015 65.78477875L70.197919 66.714135L70.197919 68.023175L69.4424 68.023175L68.686884 68.023175L68.686884 64.623345L68.686881 64.623405M71.227194 64.051465L71.3939793438 63.8967271875L71.4541334648 63.8114226953L71.4997655 63.7183775L71.5316031602 63.6157538672L71.5503741563 63.5017140625L71.551627 63.232035L71.5213904512 63.0306317969L71.4609782969 62.857915625L71.3696105254 62.7133066406L71.246507125 62.596225L71.090888084 62.5060908594L70.9019733906 62.442324375L70.6789830332 62.4043457031L70.421137 62.391575L70.129232 62.391215L70.129232 63.279055L70.1330436563 63.7506546875L70.14941275 64.02378L70.1857404687 64.1552978125L70.2137016836 64.1857248047L70.249428 64.202075L70.3495805391 64.2199466992L70.4737708125 64.2245985938L70.7587995 64.19971375L71.0335839375 64.1383620313L71.1449688984 64.097430332L71.227194 64.051485L71.227194 64.051465M81.462009 64.623405L81.462009 61.223575L82.250446 61.223575L83.038886 61.223575L83.057466 62.597605L83.076046 63.971635L84.160869 62.672155L84.95414025 61.73190125L85.337994 61.296075L85.4357989687 61.2642125L85.636293 61.2439L86.330883 61.238675L87.231482 61.257875L86.218357 62.431945L84.844078 64.021655L84.48291 64.437295L85.050966 65.079805L86.635315 66.872755L87.651612 68.023205L86.599908 68.023205L85.548201 68.023205L84.312125 66.602365L83.076046 65.181535L83.057466 66.602365L83.038886 68.023205L82.25042 68.023205L81.461955 68.023205L81.461955 64.623365L81.462009 64.623405M14.701661 64.589005L14.701661 61.223515L16.624798 61.223515L18.547936 61.223515L18.547936 61.874345L18.547936 62.525185L17.397487 62.543985L16.247039 62.562785L16.227279 63.198105L16.207519 63.833435L17.343375 63.833435L18.47923 63.833435L18.47923 64.518565L18.47923 65.203695L17.363124 65.222595L16.247017 65.241495L16.227347 65.911165L16.207677 66.580825L17.377782 66.580825L18.547888 66.580825L18.547888 67.267665L18.547888 67.954495L16.62475 67.954495L14.701613 67.954495L14.701613 64.589005L14.701661 64.589005M27.68284 65.275845L27.68284 62.597185L26.858639 62.597185L26.034437 62.597185L26.034437 61.910355L26.034437 61.223515L28.404017 61.223515L30.773597 61.223515L30.773597 61.910355L30.773597 62.597185L29.983737 62.597185L29.193877 62.597185L29.193877 65.275845L29.193877 67.954495L28.438359 67.954495L27.68284 67.954495L27.68284 65.275845L27.68284 65.275845M73.116963 57.470225L72.8266614331 57.415180791L72.5398292461 57.3443500781L72.257153647 57.2581838574L71.9793218438 57.157133125L71.7070210444 57.041648877L71.440938457 56.9121821094L71.1817612896 56.7691838184L70.93017675 56.613105L70.6868720464 56.4443966504L70.4525343867 56.2635097656L70.227850979 56.0708953418L70.0135090312 55.867004375L69.8101957515 55.6522878613L69.6185983477 55.4271967969L69.4394040278 55.1921821777L69.2733 54.947695L69.0517937085 54.5695753979L68.8601099336 54.1758844336L68.6982388872 53.7688688696L68.5661707812 53.3507754688L68.4638958276 52.9238509937L68.3914042383 52.490342207L68.3486862251 52.0524958716L68.335732 51.61255875L68.3525317749 51.172777605L68.3990757617 50.7353991992L68.4753541724 50.3026702954L68.5813572188 49.8768376563L68.7170751128 49.4601480444L68.8824980664 49.0548482227L69.0776162915 48.6631849536L69.30242 48.287405L69.4905839409 48.0158247827L69.6904197773 47.7595085742L69.9016592173 47.5186092896L70.1240339687 47.2932798438L70.3572757397 47.0836731519L70.6011162383 46.8899421289L70.8552871724 46.7122396899L71.11952025 46.55071875L71.3935471792 46.4055322241L71.677099668 46.2768330273L71.9699094243 46.1647740747L72.2717081563 46.0695082813L72.5822275718 45.991188562L72.9011993789 45.929967832L73.2283552856 45.8859990063L73.563427 45.859435L74.1769763125 45.85214625L74.75028325 45.9002L75.0301342656 45.9461146875L75.3098708125 46.00722625L75.882262 46.176855L76.3869624062 46.3760626562L76.6160961602 46.4885206055L76.835308 46.61292875L77.2606330937 46.9077379688L77.696272 47.280775L78.177871 47.727215L77.330172 48.670555L76.8444288125 49.2062620313L76.5803935 49.46967125L76.5051103203 49.5212031445L76.4535669375 49.5309873437L76.4152009609 49.5077994336L76.37945 49.460415L76.1478823594 49.161593125L75.876424375 48.8947025L75.5673402031 48.661693125L75.222894 48.464515L74.9197258281 48.3222935938L74.683893875 48.24546375L74.4237939844 48.2140295313L74.047822 48.207995L73.6819855937 48.2142259375L73.4254375 48.2424675L73.2044446563 48.3070428125L72.945274 48.422275L72.6434673228 48.5909196802L72.3657401133 48.7937685352L72.1129915425 49.0276675366L71.8861207812 49.2894626563L71.6860270005 49.5759998657L71.5136093711 49.8841251367L71.369767064 50.2106844409L71.25539925 50.55252375L71.1714051001 50.9064890356L71.1186837852 51.2694262695L71.0981344761 51.6381814233L71.1106563438 52.0096004688L71.1571485591 52.3805293774L71.238510293 52.7478141211L71.3556407163 53.1083006714L71.509439 53.458835L71.6419155781 53.7019691016L71.7873299375 53.9279246875L71.9455813906 54.1365979297L72.11656925 54.327885L72.3001928281 54.5016820703L72.4963514375 54.6578853125L72.7049443906 54.7963908984L72.925871 54.917095L73.1923343594 55.0398367188L73.408408125 55.10756125L73.6452788281 55.1352676563L73.974133 55.137955L74.266165625 55.1265670313L74.515302 55.09815125L74.738056375 55.0500798438L74.950943 54.979725L75.2305122285 54.8467380469L75.4945542656 54.673299375L75.7363912637 54.4675497656L75.949345375 54.23763L76.126738752 53.9916808594L76.2618935469 53.737843125L76.3481319121 53.4842575781L76.378776 53.239065L76.379497 52.981505L75.108852 52.981505L73.838207 52.981505L73.838207 51.985595L73.838207 50.989685L76.448179 50.989685L79.058151 50.989685L79.058151 52.185215L79.0540667656 52.8794090625L79.028402125 53.30896L78.9610391719 53.6378909375L78.83186 54.030225L78.6042851406 54.6086070313L78.481847873 54.8602723242L78.349153875 55.09425625L78.2028355176 55.3160606445L78.0395251719 55.5311873438L77.855855209 55.7451381836L77.648458 55.963415L77.3914378887 56.2064668945L77.1242829219 56.4266776563L76.8445786504 56.6253936523L76.549910625 56.80396125L76.2378643965 56.9637268164L75.9060255156 57.1060367188L75.5519795332 57.2322373242L75.173312 57.343675L74.7315802187 57.41843L74.1330855 57.47112L73.5406335312 57.491725L73.2975503555 57.486864375L73.11703 57.470225L73.116963 57.470225M83.049518 57.441125L82.6877218281 57.3621923242L82.3050808125 57.2517960938L81.9133800781 57.1150615039L81.52440475 56.95711375L81.1499399531 56.7830780273L80.8017708125 56.5980795313L80.4916824531 56.407243457L80.23146 56.215695L79.996832 56.022795L80.560234 55.061285L81.0013755 54.3082970313L81.1383440781 54.0988916211L81.243419 53.98197375L81.2895841035 53.9537668188L81.3344811094 53.9433647852L81.42941125 53.9688860938L81.702399 54.155605L82.0387009551 54.3736514063L82.3696213906 54.5649275L82.6933484121 54.7287235938L83.008070125 54.86433L83.3119746348 54.9710370313L83.6032500469 55.048135L83.8800844668 55.0949142188L84.140666 55.110665L84.4388809121 55.0951529688L84.7113468594 55.04970375L84.9552437832 54.9759476562L85.167751625 54.875515L85.3460503262 54.7500360938L85.4873198281 54.60114125L85.5887400723 54.4304607813L85.647491 54.239625L85.6720043555 53.9988974023L85.6654625278 53.8887505298L85.6445290938 53.7836242188L85.6078096011 53.6821754272L85.5539095977 53.5830611133L85.4814346313 53.4849382349L85.38899025 53.38646375L85.1386154336 53.183087793L84.7916295313 52.9621889063L84.3368769258 52.7130227539L83.763202 52.424845L83.1012314844 52.0935190625L82.649206875 51.8424225L82.3215005781 51.6194996875L82.032485 51.372695L81.8561634841 51.199246228L81.6960925449 51.0205735742L81.552339845 50.8369412817L81.4249730469 50.6486135938L81.3140598132 50.4558547534L81.2196678066 50.2589290039L81.1418646897 50.0581005884L81.080718125 49.85363375L81.0362957751 49.6457927319L81.0086653027 49.4348417773L80.9978943704 49.2210451294L81.0040506406 49.0046670313L81.0272017761 48.7859717261L81.0674154395 48.565223457L81.1247592932 48.3426864673L81.199301 48.118625L81.2872584448 47.9028707593L81.3880642773 47.695896543L81.5014192446 47.4979457349L81.6270240938 47.3092617188L81.7645795718 47.1300878784L81.9137864258 46.9606675977L82.0743454028 46.8012442603L82.24595725 46.65206125L82.621142543 46.3853897461L83.0369482813 46.1626001563L83.4909804414 45.9856395508L83.980845 45.856455L84.2958044375 45.7989626563L84.557968 45.77543125L84.8346530625 45.7839867188L85.193177 45.822755L85.5614138477 45.8806059961L85.9377730313 45.9611317188L86.3151758867 46.0618837695L86.68654375 46.18041375L87.044797957 46.3142732617L87.3828598438 46.4610139063L87.6936507461 46.6181872852L87.970092 46.783345L88.125097 46.884905L87.59734 47.908645L87.2130755 48.625285L87.0872017188 48.8383253125L87.030309 48.910675L86.6813031035 48.7272407227L86.3457839531 48.5701264063L86.0243879824 48.4395248242L85.717751625 48.33562875L85.4265113145 48.258630957L85.1513034844 48.2087242188L84.8927645684 48.1861013086L84.651531 48.190955L84.3881357676 48.2255264844L84.1582605781 48.2840975L83.9621728184 48.3664528906L83.800139875 48.4723775L83.6724291348 48.6016561719L83.5793079844 48.75407375L83.5210438105 48.9294150781L83.497904 49.127465L83.5132828496 49.3071433594L83.5757362344 49.4753575L83.6949681582 49.6396247656L83.880682625 49.8074625L84.1425836387 49.9863880469L84.4903752031 50.18391875L84.9337613223 50.4075719531L85.482446 50.664865L86.2682917344 51.0390659375L86.825885375 51.34875L87.0487536465 51.4979566016L87.2501580781 51.6533040625L87.636041 52.012115L87.8218642754 52.2163531641L87.9829590781 52.4257140625L88.119795623 52.6412498047L88.232844125 52.8640125L88.3225747988 53.0950542578L88.3894578594 53.3354271875L88.4339635215 53.5861833984L88.456562 53.848375L88.4588078748 54.1698334277L88.4370365449 54.4799616406L88.3916283293 54.7782540332L88.3229635469 55.064205L88.2314225164 55.3373089355L88.1173855566 55.5970602344L87.9812329866 55.842953291L87.823345125 56.0744825L87.6441022908 56.2911422559L87.4438848027 56.4924269531L87.2230729797 56.6778309863L86.9820471406 56.84684875L86.7211876042 56.9989746387L86.4408746895 57.1337030469L86.1414887151 57.2505283691L85.82341 57.348945L85.5864894727 57.3951755859L85.2616918438 57.4333640625L84.4614675 57.48186L83.6487414063 57.4869234375L83.3083165898 57.4708212891L83.049518 57.441045L83.049518 57.441125M2.6820506 52.776945L2.6820506 48.242325L1.3410215 48.242325L-7.62939498933e-06 48.242325L0.01885745 47.126215L0.03772252 46.010105L4.0041939 45.992405L7.9706655 45.974705L7.9706655 47.108535L7.9706655 48.242375L6.6318317 48.242375L5.2929982 48.242375L5.2753232 52.758315L5.2576482 57.274255L3.9698327 57.292955L2.6820176 57.311655L2.6820176 52.777025L2.6820506 52.776945M9.481716 51.642155L9.481716 45.975765L10.75236 45.975765L12.023004 45.975765L12.023004 48.242325L12.023004 50.508875L13.843117 50.508875L15.663229 50.508875L15.663229 48.242325L15.663229 45.975765L16.933874 45.975765L18.204518 45.975765L18.204518 51.642155L18.204518 57.308545L16.933874 57.308545L15.663229 57.308545L15.663229 55.041985L15.663229 52.775435L13.843117 52.775435L12.023004 52.775435L12.023004 55.041985L12.023004 57.308545L10.75236 57.308545L9.481716 57.308545L9.481716 51.642155L9.481716 51.642155M20.40239 51.642155L20.40239 45.975765L23.630515 45.975765L26.858639 45.975765L26.858639 47.143385L26.858639 48.311005L24.935501 48.311005L23.012363 48.311005L23.012363 49.409935L23.012363 50.508875L24.866817 50.508875L26.721272 50.508875L26.721272 51.642155L26.721272 52.775435L24.866817 52.775435L23.012363 52.775435L23.012363 53.908715L23.012363 55.041985L24.969842 55.041985L26.927322 55.041985L26.927322 56.175265L26.927322 57.308545L23.664856 57.308545L20.40239 57.308545L20.40239 51.642155L20.40239 51.642155M34.482506 52.776945L34.482506 48.242325L33.141477 48.242325L31.800445 48.242325L31.819305 47.126215L31.838175 46.010105L35.804646 45.992405L39.771116 45.974705L39.771116 47.108535L39.771116 48.242375L38.432281 48.242375L37.093448 48.242375L37.075768 52.758315L37.058088 57.274255L35.770274 57.292955L34.482458 57.311655L34.482458 52.777025L34.482506 52.776945M41.230257 51.659325L41.247827 46.010105L42.535646 45.991405L43.823461 45.972705L43.823461 48.240775L43.823461 50.508845L45.643571 50.508845L47.463681 50.508845L47.463681 48.242285L47.463681 45.975735L48.734326 45.975735L50.004971 45.975735L50.004971 51.642125L50.004971 57.308515L48.734326 57.308515L47.463681 57.308515L47.463681 55.041955L47.463681 52.775405L45.643571 52.775405L43.823461 52.775405L43.823461 55.041955L43.823461 57.308515L42.518072 57.308515L41.212688 57.308515L41.230258 51.659295L41.230257 51.659325M52.219614 51.659325L52.237184 46.010105L53.524998 45.991405L54.812813 45.972705L54.812813 51.640605L54.812813 57.308515L53.507429 57.308515L52.202044 57.308515L52.219614 51.659295L52.219614 51.659325M57.010687 51.642125L57.010687 45.975735L58.274784 45.975735L59.538881 45.975735L61.718838 49.392735L63.285792 51.83553625L63.991941 52.910315L64.0059235195 52.9184849438L64.018481625 52.9094317383L64.039612875 52.8290776563L64.0679535 52.34533125L64.081575375 51.2898242188L64.085091 49.493305L64.085091 45.975735L65.355733 45.975735L66.626378 45.975735L66.626378 51.642125L66.626378 57.308505L65.338563 57.308305L64.050748 57.308095L61.893509 53.925625L60.342891125 51.50721875L59.644124 50.442585L59.6303702402 50.4346445264L59.6180053281 50.4440923047L59.59716525 50.5253178125L59.5691065 51.008245L59.555519 52.0540096875L59.551974 53.825255L59.551974 57.308505L58.281332 57.308505L57.010687 57.308505L57.010687 51.642125L57.010687 51.642125M8.8635645 40.845845L8.28947895996 40.7647376562L7.71653254219 40.6467875L7.1479090002 40.4931673437L6.5867920875 40.30505L6.03636555762 40.0836082812L5.49981316406 39.830015L4.98031866035 39.5454429687L4.4810658 39.231065L4.19852928789 39.0251051758L3.88918706563 38.7723707812L3.5648249168 38.4844381836L3.237228625 38.17288375L2.91818397383 37.8492838477L2.61947674688 37.5252148437L2.35289272773 37.2122531055L2.1302177 36.921975L1.9288702723 36.6243582813L1.72764744094 36.296305625L1.3424060275 35.5827475L1.00815438031 34.849010625L0.870668756758 34.4957345312L0.75855342 34.162805L0.650069927239 33.7827066162L0.556565260879 33.3997937109L0.478034192556 33.0146096533L0.414471493906 32.6276978125L0.332230292168 31.8508642578L0.30979982875 31.07364L0.321000553 30.6862397803L0.347138276738 30.3003719922L0.388207771599 29.9165800049L0.444203809219 29.5354071875L0.515121161233 29.1573969092L0.600954599277 28.7830925391L0.701698894988 28.4130374463L0.81734882 28.047775L1.03267354244 27.4709035791L1.27933904186 26.9153259766L1.55628798452 26.3820215576L1.86246303672 25.8719696875L2.19680686471 25.3861497314L2.55826213479 24.9255410547L2.94577151321 24.4911230225L3.35827766625 24.083875L3.79472326019 23.7047763525L4.25405096131 23.3548064453L4.73520343587 23.0349446436L5.23712335016 22.7461703125L5.75875337044 22.4894628174L6.29903616299 22.2658015234L6.85691439408 22.0761657959L7.43133073 21.921535L8.09394303 21.765865L8.13211503 21.490625L8.22551623312 21.0437920312L8.386013205 20.48929375L8.58519873937 19.9161860937L8.79466563 19.413525L8.97501038046 19.0497932422L9.17108103996 18.6944907812L9.3825532644 18.3479443359L9.60910270969 18.010480625L9.85040503173 17.6824263672L10.1061358864 17.3641082812L10.3759709297 17.0558530859L10.6595858175 16.7579875L10.9566562057 16.4708382422L11.2668577501 16.1947320312L11.5898661068 15.9299955859L11.9253569316 15.676955625L12.2730058804 15.4359388672L12.6324886091 15.2072720312L13.0034807737 14.9912818359L13.38565803 14.788295L14.0027506081 14.5140610937L14.757130405 14.23298625L15.5181325144 13.9902382812L16.15509203 13.830985L16.54393003 13.755985L16.66061203 13.227295L16.8185747026 12.6345828059L17.0265144734 12.0556105488L17.2820005967 11.4926122166L17.5826023269 10.9478217969L17.9258889184 10.4234732776L18.3094296257 9.92180064648L18.7307937031 9.44503789136L19.187550405 8.995419L19.6772689858 8.57517796021L20.1975186999 8.18654875977L20.7458688017 7.83176538647L21.3198885456 7.51306182812L21.917147186 7.23267207251L22.5352139773 6.99283010742L23.1716581738 6.79576992065L23.82404903 6.6437255L24.1349562566 6.59605870312L24.5049022175 6.560516125L25.34292803 6.5266005L26.1801618425 6.543572375L26.5491178034 6.57163917187L26.85863903 6.6130255L27.3401084948 6.71483229687L27.8319185612 6.85115175L28.326278487 7.01863370312L28.81539753 7.213928L29.291484948 7.43368448437L29.7467499987 7.674553L30.1734019402 7.93318339062L30.56365003 8.2062255L31.0712381394 8.62916002344L31.588745655 9.1293641875L32.0666518581 9.65576388281L32.2752792429 9.91282639551L32.45543603 10.157285L32.83833503 10.695655L32.8520648542 10.6955418164L32.8723377488 10.6728364062L32.92860328 10.56810375L33.07664703 10.180535L33.2337931081 9.72906454494L33.4044951782 9.28468819347L33.5885020253 8.84763954432L33.7855624343 8.41815219619L34.2178390781 7.58279579789L34.6993153894 6.78048778828L35.2279816479 6.01309695709L35.8018281335 5.28249209404L36.4188451259 4.59054198885L37.077022905 3.93911543125L37.7743517505 3.33008121095L38.5088219421 2.76530811768L39.2784237597 2.24666494115L40.0811474831 1.77602047109L40.9149833921 1.35524349723L41.7779217663 0.986202809277L42.2196763404 0.821667569307L42.6679528857 0.67076719696L43.1225001873 0.533735290953L43.58306703 0.41080545L44.44296553 0.221568731319L45.27965078 0.0946092005555L46.152343155 0.0230502956248L47.12026303 1.5454443998e-05L47.9928464537 0.0196752186998L48.8284606689 0.0821848276561L49.6356124331 0.189464750597L50.4228085037 0.343435456805L51.1985556383 0.546017415566L51.9713605942 0.799131096163L52.749730129 1.10469696788L53.542171 1.4646355L54.2999981929 1.85798862488L55.0293322148 2.29108331152L55.7289176685 2.76232440295L56.3974991563 3.27011674219L57.0338212808 3.81286517224L57.6366286445 4.38897453613L58.2046658501 4.99684967688L58.7366775 5.6348954375L59.2314081968 6.30151666101L59.687602543 6.99511819043L60.1040051411 7.71410486877L60.4793605938 8.45688153906L60.8124135034 9.22185304431L61.1019084727 10.0074242275L61.346590104 10.8119999318L61.545203 11.633985L61.6746212031 12.2388479687L61.7251606543 12.4063518164L61.780453125 12.49662125L61.8132097395 12.515773689L61.8511482051 12.5191942773L61.9478954844 12.4836089063L62.262145 12.276115L62.8521142759 11.9118628345L63.4611189414 11.5972837695L64.0866666909 11.3323495776L64.7262652188 11.1170320312L65.3774222192 10.9513029028L66.0376453867 10.8351339648L66.7044424155 10.7684969897L67.375321 10.75136375L68.0477888345 10.7837060181L68.7193536133 10.8654955664L69.3875230308 10.9967041675L70.0498047813 11.1773035937L70.7037065591 11.4072656177L71.3467360586 11.6865620117L71.9764009741 12.0151645483L72.590209 12.393045L73.1318158367 12.771612168L73.6430459434 13.1664307812L74.1237978401 13.5773390039L74.5739700469 14.004175L74.9934610837 14.4467769336L75.3821694707 14.9049829688L75.7399937278 15.3786312695L76.066832375 15.86756L76.3625839324 16.3716073242L76.6271469199 16.8906114063L76.8604198577 17.4244104102L77.0623012656 17.9728425L77.2326896638 18.5357458398L77.3714835723 19.1129585938L77.478581511 19.7043189258L77.553882 20.309665L77.5943230156 21.0144010156L77.5785649375 21.706595625L77.5074584531 22.3826511719L77.38185425 23.03897L77.2026030156 23.6719544531L76.9705554375 24.278006875L76.8349988594 24.5698093066L76.6865622031 24.8535296094L76.5253518047 25.1287180762L76.351474 25.394925L76.1288225 25.73185375L76.048803 25.880975L76.656851 26.183045L76.9630605388 26.3444638989L77.2628304355 26.5257399414L77.5551797356 26.725692771L77.8391274844 26.9431420313L78.1136927273 27.1769073657L78.3778945098 27.425808418L78.6307518772 27.6886648315L78.871283875 27.96429625L79.0985095486 28.2515223169L79.3114479434 28.5491626758L79.5091181047 28.8560369702L79.6905390781 29.1709648438L79.8547299089 29.4927659399L80.0007096426 29.8202599023L80.1274973245 30.1522663745L80.234112 30.487605L80.3034307637 30.7897830273L80.3574601094 31.1485085938L80.3957084941 31.5482326758L80.417684375 31.97340625L80.422896209 32.408480293L80.4108524531 32.8379057813L80.3810615645 33.2461336914L80.333032 33.617615L80.2339342693 34.1274772461L80.1068511074 34.6260185938L79.9525123098 35.112235332L79.7716476719 35.58512375L79.564986989 36.0436801367L79.3332600566 36.4869007813L79.0771966702 36.9137819727L78.797526625 37.32332L78.4949797166 37.7145111523L78.1702857402 38.0863517187L77.8241744915 38.4378379883L77.4573757656 38.76796625L77.0706193582 39.075732793L76.6646350645 39.3601339062L76.2401526799 39.6201658789L75.797902 39.854825L75.2207111719 40.119155625L74.644433375 40.341175L74.0367393906 40.532159375L73.3653 40.703385L72.70486 40.856085L40.904405 40.864085L18.3747200875 40.86181L8.8635594 40.845885L8.8635645 40.845845M85.621331 22.867965L85.4336933027 22.7871804102L85.2633947969 22.6900220312L85.1105739863 22.5766404492L84.975369375 22.44718625L84.8579194668 22.3018100195L84.7583627656 22.1406623438L84.6768377754 21.9638938086L84.613483 21.771655L84.5813797188 21.592601875L84.58556425 21.371815L84.6316306563 21.048758125L84.725173 20.562895L84.809630043 20.0740863477L84.8761518438 19.5379870312L84.9242012852 18.9708032617L84.95324125 18.38874125L84.9627346211 17.808007207L84.9521442812 17.2448073437L84.9209331133 16.7153478711L84.868564 16.235835L84.79462033 15.7678972021L84.7053309678 15.3062658137L84.6009045416 14.8511885307L84.4815496797 14.4029130488L84.3474750101 13.9616870638L84.1988891611 13.5277582712L84.0360007609 13.101374367L83.8590184375 12.6827830469L83.6681508192 12.2722320065L83.4636065342 11.8699689417L83.2455942106 11.4762415481L83.0143224766 11.0912975215L82.7699999603 10.7153845576L82.51283529 10.3487503523L82.2430370939 9.99164260117L81.960814 9.644309L81.6663746366 9.30699724454L81.3599276318 8.97995503052L81.0416816139 8.66343005368L80.7118452109 8.35767000977L80.3706270511 8.06292259451L80.0182357627 7.77943550366L79.6548799738 7.50745643295L79.2807683125 7.24723307813L78.8961094071 6.99901313492L78.5011118857 6.76304429907L78.0959843766 6.53957426633L77.6809355078 6.32885073242L77.2561739076 6.1311213931L76.8219082041 5.94663394409L76.3783470255 5.77563608115L75.925699 5.6183755L75.2631845469 5.3833295625L75.0247414316 5.27933671094L74.835745125 5.176643L74.6868736777 5.06945772656L74.5688051406 4.9519901875L74.4722175645 4.81844967969L74.387789 4.6630455L74.3063702024 4.46156681836L74.2538686348 4.25661604688L74.2289332849 4.0504623457L74.2302131406 3.845374875L74.2563571897 3.64362279492L74.3060144199 3.44747526563L74.3778338191 3.25920144727L74.470464375 3.0810705L74.5825550754 2.91535158398L74.7127549082 2.76431385938L74.8597128611 2.63022648633L75.0220779219 2.515358625L75.1984990784 2.42197943555L75.3876253184 2.35235807813L75.5881056296 2.30876371289L75.798589 2.2934655L75.9372495605 2.30668005078L76.1323116094 2.34458753125L76.650980375 2.48244425L77.2732757031 2.68296159375L77.917878 2.9220655L78.8316517844 3.31703186218L79.7115453691 3.75990327246L80.5562006638 4.24912696643L81.3642595781 4.78315017969L82.1343640217 5.36042014783L82.8651559043 5.97938410645L83.5552771355 6.63848929114L84.203369625 7.3361829375L84.8080752825 8.07091228113L85.3680360176 8.84112455762L85.88189374 9.64526700256L86.3482903594 10.4817868516L86.7658677854 11.3491313402L87.1332679277 12.2457477041L87.449132696 13.1700831788L87.712104 14.120585L87.9347067031 15.118029375L88.0120085918 15.5624553125L88.069784125 15.9989725L88.1103882676 16.4487975L88.1361759844 16.933146875L88.152722 18.090285L88.136931625 19.1553825L88.084164 19.998405L87.980699375 20.760585L87.812818 21.583155L87.7562779453 21.7934378711L87.686149625 21.9872773438L87.6026544297 22.164348457L87.50601375 22.32432625L87.3964489766 22.4668857617L87.2741815 22.5917020313L87.1394327109 22.6984500977L86.992424 22.786805L86.8495940937 22.8469948828L86.684429 22.8937253125L86.5040167812 22.9265774609L86.3154455 22.9451325L86.1258032187 22.9489716016L85.942178 22.9376759375L85.7716579062 22.9108266797L85.621331 22.868005L85.621331 22.867965M80.362625 21.391605L80.1120641738 21.2953782617L79.8857760781 21.1682617188L79.6865764121 21.0137296289L79.517280875 20.83525625L79.380705166 20.6363158398L79.2796649844 20.4203826563L79.2169760293 20.190930957L79.195454 19.951435L79.228432875 19.6114275L79.307725 19.176545L79.3538217656 18.9072012695L79.3885158125 18.5761120313L79.42261875 17.81321875L79.4078798125 17.0569085938L79.3815215156 16.7340482617L79.342145 16.476225L79.2225206536 15.9832723535L79.075541166 15.5093660156L78.90157749 15.0549058887L78.7010005781 14.620291875L78.4741813831 14.205923877L78.2214908574 13.8122017969L77.9432999539 13.4395255371L77.639979625 13.088295L77.3119008235 12.7589100879L76.959434502 12.4517707031L76.582951613 12.167276748L76.1828231094 11.905828125L75.7594199436 11.6678247363L75.3131130684 11.4536664844L74.8442734363 11.2637532715L74.353272 11.098485L74.057198752 10.990074708L73.7999132656 10.8570457891L73.5816278027 10.6996561787L73.402554625 10.5181638125L73.2629059941 10.312826626L73.1628941719 10.0839025547L73.1027314199 9.83164953418L73.08263 9.5563255L73.0961383223 9.32392091016L73.1359535156 9.10192690625L73.2010109199 8.89231938672L73.290245875 8.69707425L73.4025937207 8.51816739453L73.5369897969 8.35757471875L73.6923694434 8.21727212109L73.867668 8.0992355L74.1494203594 7.96122940625L74.2803835488 7.91946383984L74.411819625 7.89500675L74.549039748 7.88722075391L74.6973550781 7.89546846875L75.048516 7.9575155L75.4640757185 8.06382642029L75.8772311699 8.19163458105L76.2868911731 8.34020558215L76.6919645469 8.50880502344L77.0913601101 8.69669850476L77.4839866816 8.90315162598L77.8687530803 9.12742998694L78.244568125 9.3687991875L78.6103406345 9.62652482751L78.9649794277 9.89987250684L79.3073933235 10.1881078253L79.6364911406 10.4904963828L79.951181698 10.8063037792L80.2503738145 11.1347956143L80.5329763088 11.4752374879L80.797898 11.826895L81.0943284355 12.2702436523L81.3721659844 12.7452904688L81.6294298848 13.2472892383L81.864139375 13.77149375L82.0743136934 14.313157793L82.2579720781 14.8675351563L82.4131337676 15.4298796289L82.537818 15.995445L82.5914486211 16.3552501758L82.6297265313 16.7822020313L82.6526536758 17.2538775586L82.660232 17.74785375L82.6524634492 18.2417075977L82.6293499688 18.7130160938L82.5908935039 19.1393562305L82.537096 19.498305L82.4070667656 20.104434375L82.3445745918 20.3295590625L82.278910375 20.5146375L82.2064338613 20.668605L82.1235047969 20.800396875L82.0264829277 20.9189484375L81.911728 21.033195L81.7486382012 21.1642763086L81.5705220469 21.2721623438L81.3805261504 21.3561250195L81.181797125 21.41543625L80.977481584 21.4493679492L80.7707261406 21.4571920313L80.5646774082 21.4381804102L80.362482 21.391605L80.362625 21.391605"
     style="fill:#000000" />
</svg>
