<?xml version="1.0" encoding="UTF-8" standalone="no"?>
<!-- Created with Inkscape (http://www.inkscape.org/) -->

<svg
   xmlns:dc="http://purl.org/dc/elements/1.1/"
   xmlns:cc="http://creativecommons.org/ns#"
   xmlns:rdf="http://www.w3.org/1999/02/22-rdf-syntax-ns#"
   xmlns:svg="http://www.w3.org/2000/svg"
   xmlns="http://www.w3.org/2000/svg"
   xmlns:sodipodi="http://sodipodi.sourceforge.net/DTD/sodipodi-0.dtd"
   xmlns:inkscape="http://www.inkscape.org/namespaces/inkscape"
   width="30mm"
   height="20mm"
   viewBox="0 0 106.29921 70.866141"
   id="svg4057"
   version="1.1"
   inkscape:version="0.91 r13725"
   sodipodi:docname="ttn-logo_V2_letras.svg">
  <defs
     id="defs4059" />
  <sodipodi:namedview
     id="base"
     pagecolor="#ffffff"
     bordercolor="#666666"
     borderopacity="1.0"
     inkscape:pageopacity="0.0"
     inkscape:pageshadow="2"
     inkscape:zoom="5.6"
     inkscape:cx="42.345288"
     inkscape:cy="47.369926"
     inkscape:document-units="mm"
     inkscape:current-layer="layer1"
     showgrid="false"
     inkscape:window-width="1865"
     inkscape:window-height="1056"
     inkscape:window-x="55"
     inkscape:window-y="24"
     inkscape:window-maximized="1" />
  <metadata
     id="metadata4062">
    <rdf:RDF>
      <cc:Work
         rdf:about="">
        <dc:format>image/svg+xml</dc:format>
        <dc:type
           rdf:resource="http://purl.org/dc/dcmitype/StillImage" />
        <dc:title></dc:title>
      </cc:Work>
    </rdf:RDF>
  </metadata>
  <g
     inkscape:label="SilkS"
     inkscape:groupmode="layer"
     id="layer1"
     transform="translate(0,-981.49606)">
    <g
       style="font-style:normal;font-variant:normal;font-weight:bold;font-stretch:normal;font-size:15.53254604px;line-height:125%;font-family:'Bitstream Vera Sans';-inkscape-font-specification:'Bitstream Vera Sans, Bold';text-align:start;letter-spacing:0px;word-spacing:0px;writing-mode:lr-tb;text-anchor:start;fill:#000000;fill-opacity:1;stroke:none;stroke-width:1px;stroke-linecap:butt;stroke-linejoin:miter;stroke-opacity:1"
       id="text4065">
      <path
         d="m 0.19531127,1009.4639 10.43592973,0 0,2.207 -3.7542046,0 0,9.1163 -2.9199366,0 0,-9.1163 -3.76178853,0 0,-2.207 z"
         style=""
         id="path4070" />
      <path
         d="m 12.132922,1009.4639 2.919937,0 0,4.3154 4.307854,0 0,-4.3154 2.919937,0 0,11.3233 -2.919937,0 0,-4.8009 -4.307854,0 0,4.8009 -2.919937,0 0,-11.3233 z"
         style=""
         id="path4072" />
      <path
         d="m 25.147496,1009.4639 7.880037,0 0,2.207 -4.9601,0 0,2.1084 4.664314,0 0,2.207 -4.664314,0 0,2.5939 5.126953,0 0,2.207 -8.04689,0 0,-11.3233 z"
         style=""
         id="path4074" />
      <path
         d="m 39.81544,1009.4639 10.435929,0 0,2.207 -3.754204,0 0,9.1163 -2.919937,0 0,-9.1163 -3.761788,0 0,-2.207 z"
         style=""
         id="path4076" />
      <path
         d="m 51.753049,1009.4639 2.919936,0 0,4.3154 4.307855,0 0,-4.3154 2.919937,0 0,11.3233 -2.919937,0 0,-4.8009 -4.307855,0 0,4.8009 -2.919936,0 0,-11.3233 z"
         style=""
         id="path4078" />
      <path
         d="m 64.767625,1009.4639 2.919936,0 0,11.3233 -2.919936,0 0,-11.3233 z"
         style=""
         id="path4080" />
      <path
         d="m 70.561993,1009.4639 3.261228,0 4.118249,7.7663 0,-7.7663 2.768251,0 0,11.3233 -3.261228,0 -4.118248,-7.7663 0,7.7663 -2.768252,0 0,-11.3233 z"
         style=""
         id="path4082" />
      <path
         d="m 93.75463,1019.9453 q -1.092132,0.5309 -2.267691,0.7964 -1.175559,0.2654 -2.42696,0.2654 -2.828926,0 -4.482292,-1.5775 -1.653367,-1.5851 -1.653367,-4.2927 0,-2.7379 1.683704,-4.3079 1.683703,-1.5699 4.611224,-1.5699 1.130054,0 2.161512,0.2124 1.039042,0.2123 1.956737,0.6295 l 0,2.3435 q -0.948032,-0.5385 -1.888479,-0.8039 -0.932863,-0.2655 -1.87331,-0.2655 -1.744378,0 -2.692409,0.9784 -0.940447,0.9708 -0.940447,2.7834 0,1.7975 0.91011,2.7758 0.91011,0.9784 2.58623,0.9784 0.455055,0 0.841851,-0.053 0.394382,-0.061 0.705336,-0.182 l 0,-2.1994 -1.782299,0 0,-1.9568 4.55055,0 0,5.4455 z"
         style=""
         id="path4084" />
      <path
         d="m 104.19815,1009.8203 0,2.3967 q -0.93286,-0.4172 -1.82022,-0.6295 -0.88736,-0.2124 -1.67612,-0.2124 -1.046627,0 -1.547188,0.2882 -0.50056,0.2882 -0.50056,0.895 0,0.455 0.333707,0.7129 0.341291,0.2503 1.228651,0.4323 l 1.24381,0.2503 q 1.88848,0.3792 2.68483,1.1528 0.79635,0.7736 0.79635,2.1994 0,1.8733 -1.11489,2.791 -1.1073,0.9101 -3.39016,0.9101 -1.076963,0 -2.161511,-0.2048 -1.084548,-0.2047 -2.169096,-0.6067 l 0,-2.4649 q 1.084548,0.5764 2.093253,0.8722 1.01629,0.2882 1.956734,0.2882 0.95562,0 1.46376,-0.3185 0.50815,-0.3186 0.50815,-0.9101 0,-0.5309 -0.34888,-0.8191 -0.34129,-0.2882 -1.37275,-0.5158 l -1.13005,-0.2502 q -1.698872,-0.3641 -2.487634,-1.1604 -0.781178,-0.7964 -0.781178,-2.1464 0,-1.6913 1.092132,-2.6014 1.092132,-0.9101 3.13988,-0.9101 0.93286,0 1.91882,0.1441 0.98595,0.1365 2.04016,0.4171 z"
         style=""
         id="path4086" />
    </g>
  </g>
</svg>
