<?xml version="1.0" encoding="UTF-8" standalone="no"?>
<svg
   xmlns:dc="http://purl.org/dc/elements/1.1/"
   xmlns:cc="http://creativecommons.org/ns#"
   xmlns:rdf="http://www.w3.org/1999/02/22-rdf-syntax-ns#"
   xmlns:svg="http://www.w3.org/2000/svg"
   xmlns="http://www.w3.org/2000/svg"
   xmlns:sodipodi="http://sodipodi.sourceforge.net/DTD/sodipodi-0.dtd"
   xmlns:inkscape="http://www.inkscape.org/namespaces/inkscape"
   width="793.700787402"
   height="1122.51968504"
   version="1.1"
   id="svg3302"
   sodipodi:docname="ttn-logo_V1_nube.svg"
   inkscape:version="0.92.3 (2405546, 2018-03-11)">
  <metadata
     id="metadata3306">
    <rdf:RDF>
      <cc:Work
         rdf:about="">
        <dc:format>image/svg+xml</dc:format>
        <dc:type
           rdf:resource="http://purl.org/dc/dcmitype/StillImage" />
        <dc:title></dc:title>
      </cc:Work>
    </rdf:RDF>
  </metadata>
  <sodipodi:namedview
     pagecolor="#ffffff"
     bordercolor="#666666"
     borderopacity="1"
     objecttolerance="10"
     gridtolerance="10"
     guidetolerance="10"
     inkscape:pageopacity="0"
     inkscape:pageshadow="2"
     inkscape:window-width="1863"
     inkscape:window-height="1025"
     id="namedview3304"
     showgrid="false"
     inkscape:zoom="0.7391296"
     inkscape:cx="396.8504"
     inkscape:cy="561.25983"
     inkscape:window-x="57"
     inkscape:window-y="27"
     inkscape:window-maximized="1"
     inkscape:current-layer="g3300" />
  <desc
     id="desc3282">/home/akirasan/Documentos/lora_pcb_rfm95/lora_node_rfm95_minipro/ttn-logo_V1_nube.dxf - scale = 1.000000, origin = (0.000000, 0.000000), method = manual</desc>
  <defs
     id="defs3296">
    <marker
       id="DistanceX"
       orient="auto"
       refX="0.0"
       refY="0.0"
       style="overflow:visible">
      <path
         d="M 3,-3 L -3,3 M 0,-5 L  0,5"
         style="stroke:#000000; stroke-width:0.5"
         id="path3284" />
    </marker>
    <pattern
       height="8"
       id="Hatch"
       patternUnits="userSpaceOnUse"
       width="8"
       x="0"
       y="0">
      <path
         d="M8 4 l-4,4"
         linecap="square"
         stroke="#000000"
         stroke-width="0.25"
         id="path3287" />
      <path
         d="M6 2 l-4,4"
         linecap="square"
         stroke="#000000"
         stroke-width="0.25"
         id="path3289" />
      <path
         d="M4 0 l-4,4"
         linecap="square"
         stroke="#000000"
         stroke-width="0.25"
         id="path3291" />
    </pattern>
    <symbol
       id="*MODEL_SPACE" />
    <symbol
       id="*PAPER_SPACE" />
  </defs>
  <g
     inkscape:groupmode="layer"
     inkscape:label="0"
     id="g3300">
    <path
       d="m 37.190985,1121.5925 -2.438999,-0.3446 -2.434162,-0.5011 -2.4158,-0.6527 -2.383905,-0.7992 -2.338485,-0.9408 -2.279542,-1.0774 -2.207074,-1.2089 -2.121074,-1.3358 -1.200349,-0.875 -1.314245,-1.0736 -1.37805,-1.2234 -1.391792,-1.3237 -1.355469,-1.3747 -1.269057,-1.3769 -1.1325764,-1.3295 -0.946037,-1.2333 -0.8554229,-1.2645 -0.8548901,-1.3937 -1.6367025,-3.0316 -1.4200663,-3.1172 -0.5841075,-1.501 -0.4763192,-1.4143 -0.4608949,-1.6149 -0.3972577,-1.6267 -0.3336317,-1.6367 -0.270046,-1.6437 -0.34940326,-3.3003 -0.0953024,-3.3022 0.0475913,-1.6458 0.11104366,-1.6392 0.1744895,-1.6306 0.237895,-1.6195 0.3012913,-1.6059 0.3646588,-1.5903 0.428016,-1.5722 0.4913408,-1.5517 0.9148079,-2.451 1.0479558,-2.3604 1.1766194,-2.2656 1.3007802,-2.167 1.4204608,-2.0639 1.5356404,-1.957 1.646337,-1.8455 1.752531,-1.7303 1.854239,-1.6106 1.951454,-1.4868 2.044174,-1.359 2.1324,-1.2268 2.216147,-1.0906 2.295399,-0.9502 2.370139,-0.8058 2.440408,-0.6569 2.815103,-0.6613 0.162181,-1.1693 0.396821,-1.8985 0.681868,-2.3557 0.846237,-2.4349 0.889923,-2.1355 0.766193,-1.5453 0.833004,-1.5096 0.898442,-1.4723 0.962492,-1.4336 1.025174,-1.3938 1.086471,-1.3524 1.146399,-1.3096 1.204936,-1.2655 1.262096,-1.22 1.317892,-1.173 1.372302,-1.1247 1.425329,-1.0751 1.476993,-1.0239 1.527267,-0.9715 1.576157,-0.9176 1.623677,-0.8625 2.62172,-1.165 3.204972,-1.1942 3.233124,-1.0313 2.706116,-0.6766 1.651977,-0.3186 0.49573,-2.2461 0.671099,-2.5182 0.88344,-2.45972 1.08543,-2.39192 1.277101,-2.31453 1.458458,-2.22768 1.629475,-2.13136 1.790161,-2.02554 1.940521,-1.9102 2.080576,-1.7854 2.210279,-1.65108 2.329665,-1.5073 2.438725,-1.35402 2.537453,-1.19122 2.625855,-1.01897 2.703931,-0.83722 2.771672,-0.64595 1.3209,-0.20253 1.57171,-0.15099 3.56035,-0.14413 3.55699,0.0721 1.56752,0.1192 1.31499,0.17584 2.04552,0.43252 2.08945,0.57916 2.1003,0.71154 2.07802,0.82971 2.02265,0.93364 1.9342,1.02332 1.81263,1.0988 1.65796,1.16002 2.1565,1.79683 2.19861,2.12511 2.03039,2.23641 0.88635,1.09213 0.7654,1.03858 1.62675,2.28726 0.0582,-4.6e-4 0.0861,-0.0965 0.23904,-0.44495 0.62897,-1.64658 0.66765,-1.91808 0.7252,-1.88793 0.78177,-1.8568 0.83722,-1.82466 1.83651,-3.54902 2.04557,-3.40862 2.24602,-3.26022 2.43798,-3.104 2.6214,-2.93975 2.79627,-2.76756 2.9626,-2.58749 3.1204,-2.39945 3.26965,-2.20344 3.41036,-1.99952 3.54255,-1.78768 3.66619,-1.56787 1.8768,-0.69902 1.90452,-0.64111 1.93112,-0.58217 1.95672,-0.52227 3.65329,-0.80398 3.55465,-0.53938 3.70763,-0.30405 4.11221,-0.0978 3.70717,0.0835 3.55013,0.26559 3.42914,0.45578 3.34442,0.65415 3.29577,0.86066 3.28326,1.07536 3.30691,1.29818 3.36667,1.52922 3.21963,1.67115 3.09858,1.84 2.97217,2.00207 2.84049,2.15735 2.70341,2.30588 2.56104,2.44758 2.41329,2.58258 2.26024,2.71072 2.10188,2.83214 1.93814,2.94678 1.76908,3.05459 1.59467,3.15569 1.415,3.24999 1.2299,3.33749 1.03955,3.41824 0.84381,3.49221 0.5498,2.56975 0.21467,0.7116 0.23491,0.3835 0.13924,0.081 0.16118,0.014 0.41103,-0.1511 1.3351,-0.8816 2.50649,-1.54752 2.58737,-1.33648 2.65763,-1.12556 2.71733,-0.91479 2.76645,-0.70411 2.80496,-0.49353 2.83288,-0.2831 2.85021,-0.0728 2.857,0.13742 2.85312,0.34749 2.83873,0.55742 2.8137,0.76729 2.77813,0.977 2.73187,1.18658 2.67514,1.39607 2.60778,1.60542 2.30099,1.6084 2.17197,1.6774 2.04247,1.7457 1.91256,1.8134 1.78221,1.8804 1.65144,1.9468 1.52019,2.0122 1.38858,2.0773 1.25652,2.1413 1.124,2.205 0.99104,2.2679 0.85768,2.33 0.72389,2.3915 0.5897,2.4523 0.45502,2.5124 0.3199,2.5718 0.17162,2.9941 -0.0672,2.9408 -0.30196,2.8721 -0.53363,2.7884 -0.76155,2.6893 -0.98584,2.5748 -0.57589,1.2397 -0.6307,1.2054 -0.68488,1.1691 -0.73873,1.131 -0.94591,1.4314 -0.33998,0.6336 2.58326,1.2832 1.30095,0.6859 1.27358,0.7702 1.24205,0.8494 1.20637,0.9239 1.16649,0.9932 1.12244,1.0574 1.07426,1.1168 1.0219,1.171 0.96537,1.2202 0.90468,1.2646 0.83979,1.3038 0.77078,1.3379 0.69758,1.3672 0.62017,1.3913 0.53863,1.4105 0.45299,1.4248 0.2946,1.2837 0.22975,1.5242 0.16261,1.6982 0.0935,1.8062 0.0226,1.8485 -0.0512,1.8246 -0.12651,1.7341 -0.20386,1.5783 -0.42103,2.1662 -0.5399,2.1182 -0.6557,2.0656 -0.76843,2.0089 -0.87799,1.9482 -0.9845,1.883 -1.08786,1.8136 -1.18819,1.74 -1.28539,1.6621 -1.37943,1.5797 -1.47048,1.4932 -1.55835,1.4025 -1.64308,1.3076 -1.72487,1.2083 -1.80339,1.1047 -1.8789,0.997 -2.45218,1.123 -2.44834,0.9433 -2.58178,0.8113 -2.8526,0.7274 -2.80589,0.6488 -135.10419,0.034 -95.717339,-0.012 -40.408156,-0.068 1.6e-5,-4e-4"
       style="fill:none;stroke:#000000;stroke-width:1.11958444"
       id="path3298"
       inkscape:connector-curvature="0" />
  </g>
</svg>
