  0
SECTION
  2
HEADER
  9
$ACADVER
  1
AC1014
  9
$HANDSEED
  5
FFFF
  9
$MEASUREMENT
 70
     1
  0
ENDSEC
  0
SECTION
  2
TABLES
  0
TABLE
  2
VPORT
  5
8
330
0
100
AcDbSymbolTable
 70
     4
  0
VPORT
  5
2E
330
8
100
AcDbSymbolTableRecord
100
AcDbViewportTableRecord
  2
*ACTIVE
 70
     0
 10
0.0
 20
0.0
 11
1.0
 21
1.0
 12
210.0
 22
148.5
 13
0.0
 23
0.0
 14
10.0
 24
10.0
 15
10.0
 25
10.0
 16
0.0
 26
0.0
 36
1.0
 17
0.0
 27
0.0
 37
0.0
 40
341.0
 41
1.24
 42
50.0
 43
0.0
 44
0.0
 50
0.0
 51
0.0
 71
     0
 72
   100
 73
     1
 74
     3
 75
     0
 76
     0
 77
     0
 78
     0
  0
ENDTAB
  0
TABLE
  2
LTYPE
  5
5
330
0
100
AcDbSymbolTable
 70
     1
  0
LTYPE
  5
14
330
5
100
AcDbSymbolTableRecord
100
AcDbLinetypeTableRecord
  2
BYBLOCK
 70
     0
  3

 72
    65
 73
     0
 40
0.0
  0
LTYPE
  5
15
330
5
100
AcDbSymbolTableRecord
100
AcDbLinetypeTableRecord
  2
BYLAYER
 70
     0
  3

 72
    65
 73
     0
 40
0.0
  0
LTYPE
  5
16
330
5
100
AcDbSymbolTableRecord
100
AcDbLinetypeTableRecord
  2
CONTINUOUS
 70
     0
  3
Solid line
 72
    65
 73
     0
 40
0.0
  0
ENDTAB
  0
TABLE
  2
LAYER
  5
2
100
AcDbSymbolTable
 70
1
  0
LAYER
  5
50
100
AcDbSymbolTableRecord
100
AcDbLayerTableRecord
  2
0
 70
0
  6
CONTINUOUS
  0
ENDTAB
  0
TABLE
  2
STYLE
  5
3
330
0
100
AcDbSymbolTable
 70
     1
  0
STYLE
  5
11
330
3
100
AcDbSymbolTableRecord
100
AcDbTextStyleTableRecord
  2
STANDARD
 70
     0
 40
0.0
 41
1.0
 50
0.0
 71
     0
 42
2.5
  3
txt
  4

  0
ENDTAB
  0
TABLE
  2
VIEW
  5
6
330
0
100
AcDbSymbolTable
 70
     0
  0
ENDTAB
  0
TABLE
  2
UCS
  5
7
330
0
100
AcDbSymbolTable
 70
     0
  0
ENDTAB
  0
TABLE
  2
APPID
  5
9
330
0
100
AcDbSymbolTable
 70
     2
  0
APPID
  5
12
330
9
100
AcDbSymbolTableRecord
100
AcDbRegAppTableRecord
  2
ACAD
 70
     0
  0
ENDTAB
  0
TABLE
  2
DIMSTYLE
  5
A
330
0
100
AcDbSymbolTable
 70
     1
  0
DIMSTYLE
105
27
330
A
100
AcDbSymbolTableRecord
100
AcDbDimStyleTableRecord
  2
ISO-25
 70
     0
  3

  4

  5

  6

  7

 40
1.0
 41
2.5
 42
0.625
 43
3.75
 44
1.25
 45
0.0
 46
0.0
 47
0.0
 48
0.0
140
2.5
141
2.5
142
0.0
143
0.03937007874016
144
1.0
145
0.0
146
1.0
147
0.625
 71
     0
 72
     0
 73
     0
 74
     0
 75
     0
 76
     0
 77
     1
 78
     8
170
     0
171
     3
172
     1
173
     0
174
     0
175
     0
176
     0
177
     0
178
     0
270
     2
271
     2
272
     2
273
     2
274
     3
340
11
275
     0
280
     0
281
     0
282
     0
283
     0
284
     8
285
     0
286
     0
287
     3
288
     0
  0
ENDTAB
  0
TABLE
  2
BLOCK_RECORD
  5
1
330
0
100
AcDbSymbolTable
 70
     1
  0
BLOCK_RECORD
  5
1F
330
1
100
AcDbSymbolTableRecord
100
AcDbBlockTableRecord
  2
*MODEL_SPACE
  0
BLOCK_RECORD
  5
1B
330
1
100
AcDbSymbolTableRecord
100
AcDbBlockTableRecord
  2
*PAPER_SPACE
  0
ENDTAB
  0
ENDSEC
  0
SECTION
  2
BLOCKS
  0
BLOCK
  5
20
330
1F
100
AcDbEntity
  8
0
100
AcDbBlockBegin
  2
*MODEL_SPACE
 70
     0
 10
0.0
 20
0.0
 30
0.0
  3
*MODEL_SPACE
  1

  0
ENDBLK
  5
21
330
1F
100
AcDbEntity
  8
0
100
AcDbBlockEnd
  0
BLOCK
  5
1C
330
1B
100
AcDbEntity
 67
     1
  8
0
100
AcDbBlockBegin
  2
*PAPER_SPACE
  1

  0
ENDBLK
  5
1D
330
1B
100
AcDbEntity
 67
     1
  8
0
100
AcDbBlockEnd
  0
ENDSEC
  0
SECTION
  2
ENTITIES
  0
LWPOLYLINE
  5
100
100
AcDbEntity
  8
0
 62
7
100
AcDbPolyline
 90
270
 70
0
 10
9.840115
 20
0.245318
 30
0.0
 10
9.194796
 20
0.336493
 30
0.0
 10
8.550758
 20
0.469076
 30
0.0
 10
7.911577
 20
0.641769
 30
0.0
 10
7.280836
 20
0.853224
 30
0.0
 10
6.662111
 20
1.102144
 30
0.0
 10
6.058983
 20
1.387206
 30
0.0
 10
5.475028
 20
1.707061
 30
0.0
 10
4.913827
 20
2.060492
 30
0.0
 10
4.596235
 20
2.292002
 30
0.0
 10
4.248507
 20
2.576059
 30
0.0
 10
3.883898
 20
2.899750
 30
0.0
 10
3.515653
 20
3.249979
 30
0.0
 10
3.157019
 20
3.613702
 30
0.0
 10
2.821247
 20
3.978006
 30
0.0
 10
2.521586
 20
4.329770
 30
0.0
 10
2.271281
 20
4.656081
 30
0.0
 10
2.044950
 20
4.990646
 30
0.0
 10
1.818761
 20
5.359396
 30
0.0
 10
1.385716
 20
6.161507
 30
0.0
 10
1.009990
 20
6.986266
 30
0.0
 10
0.855445
 20
7.383406
 30
0.0
 10
0.729419
 20
7.757606
 30
0.0
 10
0.607474
 20
8.184881
 30
0.0
 10
0.502366
 20
8.615279
 30
0.0
 10
0.414093
 20
9.048323
 30
0.0
 10
0.342643
 20
9.483218
 30
0.0
 10
0.250197
 20
10.356423
 30
0.0
 10
0.224982
 20
11.230130
 30
0.0
 10
0.237573
 20
11.665581
 30
0.0
 10
0.266954
 20
12.099286
 30
0.0
 10
0.313121
 20
12.530716
 30
0.0
 10
0.376064
 20
12.959208
 30
0.0
 10
0.455780
 20
13.384103
 30
0.0
 10
0.552263
 20
13.804870
 30
0.0
 10
0.665509
 20
14.220848
 30
0.0
 10
0.795510
 20
14.631401
 30
0.0
 10
1.037553
 20
15.279895
 30
0.0
 10
1.314824
 20
15.904418
 30
0.0
 10
1.626138
 20
16.503858
 30
0.0
 10
1.970303
 20
17.077210
 30
0.0
 10
2.346133
 20
17.623283
 30
0.0
 10
2.752438
 20
18.141073
 30
0.0
 10
3.188031
 20
18.629361
 30
0.0
 10
3.651722
 20
19.087170
 30
0.0
 10
4.142322
 20
19.513308
 30
0.0
 10
4.658645
 20
19.906690
 30
0.0
 10
5.199499
 20
20.266259
 30
0.0
 10
5.763697
 20
20.590850
 30
0.0
 10
6.350052
 20
20.879405
 30
0.0
 10
6.957376
 20
21.130812
 30
0.0
 10
7.584476
 20
21.344013
 30
0.0
 10
8.230167
 20
21.517818
 30
0.0
 10
8.974996
 20
21.692787
 30
0.0
 10
9.017907
 20
22.002164
 30
0.0
 10
9.122899
 20
22.504475
 30
0.0
 10
9.303310
 20
23.127754
 30
0.0
 10
9.527210
 20
23.771988
 30
0.0
 10
9.762669
 20
24.337006
 30
0.0
 10
9.965391
 20
24.745867
 30
0.0
 10
10.185790
 20
25.145282
 30
0.0
 10
10.423503
 20
25.534828
 30
0.0
 10
10.678162
 20
25.914134
 30
0.0
 10
10.949406
 20
26.282911
 30
0.0
 10
11.236868
 20
26.640733
 30
0.0
 10
11.540186
 20
26.987231
 30
0.0
 10
11.858992
 20
27.322062
 30
0.0
 10
12.192922
 20
27.644853
 30
0.0
 10
12.541614
 20
27.955210
 30
0.0
 10
12.904702
 20
28.252786
 30
0.0
 10
13.281820
 20
28.537240
 30
0.0
 10
13.672608
 20
28.808147
 30
0.0
 10
14.076697
 20
29.065190
 30
0.0
 10
14.493722
 20
29.307971
 30
0.0
 10
14.923320
 20
29.536174
 30
0.0
 10
15.616984
 20
29.844414
 30
0.0
 10
16.464966
 20
30.160379
 30
0.0
 10
17.320397
 20
30.433244
 30
0.0
 10
18.036390
 20
30.612261
 30
0.0
 10
18.473475
 20
30.696558
 30
0.0
 10
18.604637
 20
31.290838
 30
0.0
 10
18.782199
 20
31.957112
 30
0.0
 10
19.015942
 20
32.607913
 30
0.0
 10
19.303129
 20
33.240775
 30
0.0
 10
19.641029
 20
33.853161
 30
0.0
 10
20.026912
 20
34.442568
 30
0.0
 10
20.458044
 20
35.006490
 30
0.0
 10
20.931691
 20
35.542414
 30
0.0
 10
21.445121
 20
36.047822
 30
0.0
 10
21.995606
 20
36.520209
 30
0.0
 10
22.580409
 20
36.957057
 30
0.0
 10
23.196800
 20
37.355863
 30
0.0
 10
23.842046
 20
37.714114
 30
0.0
 10
24.513414
 20
38.029291
 30
0.0
 10
25.208171
 20
38.298894
 30
0.0
 10
25.923586
 20
38.520408
 30
0.0
 10
26.656924
 20
38.691316
 30
0.0
 10
27.006412
 20
38.744902
 30
0.0
 10
27.422261
 20
38.784851
 30
0.0
 10
28.364270
 20
38.822986
 30
0.0
 10
29.305390
 20
38.803909
 30
0.0
 10
29.720130
 20
38.772371
 30
0.0
 10
30.068054
 20
38.725847
 30
0.0
 10
30.609265
 20
38.611409
 30
0.0
 10
31.162098
 20
38.458173
 30
0.0
 10
31.717803
 20
38.269911
 30
0.0
 10
32.267612
 20
38.050384
 30
0.0
 10
32.802772
 20
37.803358
 30
0.0
 10
33.314529
 20
37.532605
 30
0.0
 10
33.794121
 20
37.241881
 30
0.0
 10
34.232789
 20
36.934959
 30
0.0
 10
34.803363
 20
36.459548
 30
0.0
 10
35.385079
 20
35.897279
 30
0.0
 10
35.922286
 20
35.305562
 30
0.0
 10
36.156799
 20
35.016603
 30
0.0
 10
36.359312
 20
34.741812
 30
0.0
 10
36.789722
 20
34.136641
 30
0.0
 10
36.805121
 20
34.136763
 30
0.0
 10
36.827902
 20
34.162295
 30
0.0
 10
36.891148
 20
34.280021
 30
0.0
 10
37.057563
 20
34.715679
 30
0.0
 10
37.234212
 20
35.223171
 30
0.0
 10
37.426088
 20
35.722686
 30
0.0
 10
37.632931
 20
36.213964
 30
0.0
 10
37.854445
 20
36.696739
 30
0.0
 10
38.340355
 20
37.635750
 30
0.0
 10
38.881579
 20
38.537614
 30
0.0
 10
39.475839
 20
39.400214
 30
0.0
 10
40.120887
 20
40.221481
 30
0.0
 10
40.814466
 20
40.999290
 30
0.0
 10
41.554313
 20
41.731540
 30
0.0
 10
42.338167
 20
42.416147
 30
0.0
 10
43.163773
 20
43.051001
 30
0.0
 10
44.028868
 20
43.633995
 30
0.0
 10
44.931192
 20
44.163034
 30
0.0
 10
45.868492
 20
44.636025
 30
0.0
 10
46.838505
 20
45.050857
 30
0.0
 10
47.335075
 20
45.235806
 30
0.0
 10
47.838979
 20
45.405433
 30
0.0
 10
48.349921
 20
45.559465
 30
0.0
 10
48.867637
 20
45.697649
 30
0.0
 10
49.834236
 20
45.910369
 30
0.0
 10
50.774738
 20
46.053080
 30
0.0
 10
51.755715
 20
46.133527
 30
0.0
 10
52.843737
 20
46.159403
 30
0.0
 10
53.824592
 20
46.137310
 30
0.0
 10
54.763898
 20
46.067039
 30
0.0
 10
55.671191
 20
45.946448
 30
0.0
 10
56.556069
 20
45.773370
 30
0.0
 10
57.428074
 20
45.545654
 30
0.0
 10
58.296770
 20
45.261132
 30
0.0
 10
59.171724
 20
44.917655
 30
0.0
 10
60.062488
 20
44.513049
 30
0.0
 10
60.914349
 20
44.070890
 30
0.0
 10
61.734181
 20
43.584057
 30
0.0
 10
62.520568
 20
43.054343
 30
0.0
 10
63.272114
 20
42.483544
 30
0.0
 10
63.987392
 20
41.873447
 30
0.0
 10
64.665000
 20
41.225858
 30
0.0
 10
65.303516
 20
40.542550
 30
0.0
 10
65.901538
 20
39.825339
 30
0.0
 10
66.457661
 20
39.076002
 30
0.0
 10
66.970460
 20
38.296333
 30
0.0
 10
67.438529
 20
37.488139
 30
0.0
 10
67.860452
 20
36.653196
 30
0.0
 10
68.234838
 20
35.793303
 30
0.0
 10
68.560249
 20
34.910259
 30
0.0
 10
68.835296
 20
34.005849
 30
0.0
 10
69.058555
 20
33.081869
 30
0.0
 10
69.204022
 20
32.401956
 30
0.0
 10
69.260821
 20
32.213678
 30
0.0
 10
69.322974
 20
32.112211
 30
0.0
 10
69.359814
 20
32.090779
 30
0.0
 10
69.402460
 20
32.087075
 30
0.0
 10
69.511212
 20
32.127054
 30
0.0
 10
69.864457
 20
32.360310
 30
0.0
 10
70.527632
 20
32.769758
 30
0.0
 10
71.212207
 20
33.123369
 30
0.0
 10
71.915372
 20
33.421173
 30
0.0
 10
72.634332
 20
33.663211
 30
0.0
 10
73.366289
 20
33.849507
 30
0.0
 10
74.108434
 20
33.980087
 30
0.0
 10
74.857967
 20
34.054990
 30
0.0
 10
75.612085
 20
34.074252
 30
0.0
 10
76.368000
 20
34.037893
 30
0.0
 10
77.122888
 20
33.945953
 30
0.0
 10
77.873968
 20
33.798469
 30
0.0
 10
78.618427
 20
33.595457
 30
0.0
 10
79.353473
 20
33.336959
 30
0.0
 10
80.076281
 20
33.023010
 30
0.0
 10
80.784078
 20
32.653633
 30
0.0
 10
81.474053
 20
32.228865
 30
0.0
 10
82.082857
 20
31.803310
 30
0.0
 10
82.657524
 20
31.359498
 30
0.0
 10
83.197928
 20
30.897614
 30
0.0
 10
83.703959
 20
30.417819
 30
0.0
 10
84.175502
 20
29.920296
 30
0.0
 10
84.612446
 20
29.405206
 30
0.0
 10
85.014663
 20
28.872811
 30
0.0
 10
85.382058
 20
28.323192
 30
0.0
 10
85.714512
 20
27.756640
 30
0.0
 10
86.011904
 20
27.173234
 30
0.0
 10
86.274116
 20
26.573185
 30
0.0
 10
86.501044
 20
25.956706
 30
0.0
 10
86.692573
 20
25.323955
 30
0.0
 10
86.848598
 20
24.675117
 30
0.0
 10
86.968989
 20
24.010378
 30
0.0
 10
87.053629
 20
23.329923
 30
0.0
 10
87.099037
 20
22.537734
 30
0.0
 10
87.081257
 20
21.759647
 30
0.0
 10
87.001363
 20
20.999737
 30
0.0
 10
86.860174
 20
20.261973
 30
0.0
 10
86.658680
 20
19.550429
 30
0.0
 10
86.397843
 20
18.869180
 30
0.0
 10
86.245472
 20
18.541176
 30
0.0
 10
86.078600
 20
18.222247
 30
0.0
 10
85.897392
 20
17.912923
 30
0.0
 10
85.701936
 20
17.613679
 30
0.0
 10
85.451664
 20
17.234954
 30
0.0
 10
85.361711
 20
17.067314
 30
0.0
 10
86.045199
 20
16.727801
 30
0.0
 10
86.389408
 20
16.546323
 30
0.0
 10
86.726376
 20
16.342541
 30
0.0
 10
87.055002
 20
16.117804
 30
0.0
 10
87.374188
 20
15.873356
 30
0.0
 10
87.682821
 20
15.610571
 30
0.0
 10
87.979800
 20
15.330801
 30
0.0
 10
88.264032
 20
15.035314
 30
0.0
 10
88.534409
 20
14.725487
 30
0.0
 10
88.789830
 20
14.402643
 30
0.0
 10
89.029193
 20
14.068051
 30
0.0
 10
89.251388
 20
13.723087
 30
0.0
 10
89.455323
 20
13.369101
 30
0.0
 10
89.639891
 20
13.007363
 30
0.0
 10
89.803978
 20
12.639248
 30
0.0
 10
89.946491
 20
12.266053
 30
0.0
 10
90.066344
 20
11.889075
 30
0.0
 10
90.144290
 20
11.549429
 30
0.0
 10
90.205078
 20
11.146151
 30
0.0
 10
90.248102
 20
10.696836
 30
0.0
 10
90.272841
 20
10.218945
 30
0.0
 10
90.278820
 20
9.729863
 30
0.0
 10
90.265274
 20
9.247104
 30
0.0
 10
90.231801
 20
8.788290
 30
0.0
 10
90.177863
 20
8.370698
 30
0.0
 10
90.066466
 20
7.797558
 30
0.0
 10
89.923617
 20
7.237118
 30
0.0
 10
89.750130
 20
6.690594
 30
0.0
 10
89.546816
 20
6.159073
 30
0.0
 10
89.314515
 20
5.643611
 30
0.0
 10
89.054032
 20
5.145401
 30
0.0
 10
88.766203
 20
4.665553
 30
0.0
 10
88.451828
 20
4.205178
 30
0.0
 10
88.111735
 20
3.765414
 30
0.0
 10
87.746761
 20
3.347451
 30
0.0
 10
87.357696
 20
2.952376
 30
0.0
 10
86.945383
 20
2.581298
 30
0.0
 10
86.510651
 20
2.235328
 30
0.0
 10
86.054279
 20
1.915632
 30
0.0
 10
85.577132
 20
1.623347
 30
0.0
 10
85.080007
 20
1.359558
 30
0.0
 10
84.431201
 20
1.062430
 30
0.0
 10
83.783411
 20
0.812849
 30
0.0
 10
83.100315
 20
0.598193
 30
0.0
 10
82.345564
 20
0.405735
 30
0.0
 10
81.603173
 20
0.234073
 30
0.0
 10
45.856856
 20
0.225077
 30
0.0
 10
20.531643
 20
0.228252
 30
0.0
 10
9.840319
 20
0.246244
 30
0.0
 10
9.840323
 20
0.246350
 30
0.0
  0
ENDSEC
  0
SECTION
  2
OBJECTS
  0
DICTIONARY
  5
C
330
0
100
AcDbDictionary
  3
ACAD_GROUP
350
D
  3
ACAD_MLINESTYLE
350
17
  0
DICTIONARY
  5
D
330
C
100
AcDbDictionary
  0
DICTIONARY
  5
1A
330
C
100
AcDbDictionary
  0
DICTIONARY
  5
17
330
C
100
AcDbDictionary
  3
STANDARD
350
18
  0
DICTIONARY
  5
19
330
C
100
AcDbDictionary
  0
ENDSEC
  0
EOF
