<?xml version="1.0" encoding="UTF-8" standalone="no"?>
<!-- Created with Inkscape (http://www.inkscape.org/) -->

<svg
   xmlns:dc="http://purl.org/dc/elements/1.1/"
   xmlns:cc="http://creativecommons.org/ns#"
   xmlns:rdf="http://www.w3.org/1999/02/22-rdf-syntax-ns#"
   xmlns:svg="http://www.w3.org/2000/svg"
   xmlns="http://www.w3.org/2000/svg"
   xmlns:sodipodi="http://sodipodi.sourceforge.net/DTD/sodipodi-0.dtd"
   xmlns:inkscape="http://www.inkscape.org/namespaces/inkscape"
   id="svg3431"
   version="1.1"
   inkscape:version="0.91 r13725"
   width="29.43364mm"
   height="7.4218264mm"
   viewBox="0 0 104.29242 26.297811"
   sodipodi:docname="ttn-logo_V1_letras.svg">
  <sodipodi:namedview
     pagecolor="#ffffff"
     bordercolor="#666666"
     borderopacity="1"
     objecttolerance="10"
     gridtolerance="10"
     guidetolerance="10"
     inkscape:pageopacity="0"
     inkscape:pageshadow="2"
     inkscape:window-width="1865"
     inkscape:window-height="1056"
     id="namedview3433"
     showgrid="false"
     inkscape:document-units="mm"
     units="mm"
     fit-margin-top="0"
     fit-margin-left="0"
     fit-margin-right="0"
     fit-margin-bottom="0"
     inkscape:zoom="8.6082566"
     inkscape:cx="49.185522"
     inkscape:cy="7.6434695"
     inkscape:window-x="55"
     inkscape:window-y="24"
     inkscape:window-maximized="1"
     inkscape:current-layer="layer1" />
  <metadata
     id="metadata3437">
    <rdf:RDF>
      <cc:Work
         rdf:about="">
        <dc:format>image/svg+xml</dc:format>
        <dc:type
           rdf:resource="http://purl.org/dc/dcmitype/StillImage" />
        <dc:title></dc:title>
      </cc:Work>
    </rdf:RDF>
  </metadata>
  <defs
     id="defs3435" />
  <g
     transform="translate(-6.5716232,-260.95382)"
     inkscape:label="SilkS"
     id="layer1"
     inkscape:groupmode="layer">
    <path
       style="fill:#000000"
       d="M71.903953 286.82488L71.055549 286.44928L70.366635 285.91871L69.830975 285.22693L69.442323 284.3677L69.293077 283.73344L69.235387 283.0349L69.270287 282.33899L69.398898 281.71262L69.827455 280.79062L70.475373 280.01063L71.291282 279.42073L72.223835 279.06898L73.437582 279.00288L74.182827 279.07498L74.800042 279.31462L75.316796 279.60461L75.77221 279.94865L76.163964 280.34307L76.489757 280.7842L76.74727 281.26836L76.934191 281.79191L77.04821 282.35114L77.08699 282.9424L77.00346 283.96543L76.70761 284.83128L76.302031 285.49802L75.772576 286.06377L75.14148 286.50919L74.430929 286.81493L73.842219 286.93167L73.150825 286.97257L72.467745 286.93707L71.903951 286.82485L71.903951 286.82484M74.116828 284.99103L74.510925 284.66945L74.80562 284.2441L74.998884 283.745L75.088694 283.20217L75.073024 282.64564L74.949851 282.10541L74.717143 281.61151L74.37288 281.19396L74.066171 280.95487L73.749483 280.80248L73.400575 280.72928L72.997193 280.72728L72.530703 280.81388L72.136249 281.00337L71.807863 281.29975L71.539564 281.70705L71.336953 282.21357L71.235602 282.73539L71.230802 283.25352L71.316512 283.74894L71.488025 284.20261L71.740189 284.59554L72.06784 284.90871L72.465832 285.12309L72.869634 285.21419L73.312621 285.22019L73.745072 285.14429L74.117283 284.99094L74.117283 284.99094M8.602144 283.02055L8.602144 279.14729L9.5333909 279.14729L10.464639 279.14729L11.939504 281.45041L13.414368 283.75353L13.435108 281.45041L13.455838 279.14729L14.393645 279.14729L15.33145 279.14729L15.33145 283.02295L15.33145 286.89862L14.374644 286.87662L13.417838 286.85462L11.968533 284.59368L10.519226 282.33275L10.498496 284.61324L10.477766 286.89374L9.5399762 286.89374L8.6021872 286.89374L8.6021872 283.02049L8.6021533 283.02047M24.329912 282.98137L24.329912 279.06899L26.599091 279.06899L28.868266 279.06899L28.868266 279.89059L28.868266 280.71219L27.538059 280.71219L26.207853 280.71219L26.207853 281.41642L26.207853 282.12064L27.459817 282.12064L28.711772 282.12064L28.711772 282.94224L28.711772 283.76384L27.459817 283.76384L26.207853 283.76384L26.207853 284.50719L26.207853 285.25054L27.538059 285.25054L28.868266 285.25054L28.868266 286.07215L28.868266 286.89374L26.599091 286.89374L24.329912 286.89374L24.329912 282.98137M39.118701 283.80297L39.118701 280.71219L38.223888 280.71219L37.329074 280.71219L37.304514 279.89042L37.279874 279.06866L40.038105 279.06882L42.796329 279.06897L42.796329 279.89057L42.796329 280.71217L41.896482 280.71217L40.996635 280.71217L40.996635 283.80295L40.996635 286.89373L40.057666 286.89373L39.118697 286.89373L39.118697 283.80295L39.118697 283.80297M52.848945 286.79593L50.699331 279.18158L51.701781 279.14728L52.704231 279.14728L53.322246 281.68959L53.995518 284.17395L54.696874 281.62889L55.342966 279.14177L56.050164 279.16407L56.757353 279.18637L57.441169 281.79721L58.157246 284.44032L59.401542 279.4798L59.481612 279.14725L60.48954 279.14725L61.500199 279.20595L60.428669 283.07921L59.354407 286.89377L58.328074 286.89377L57.301741 286.89377L56.724189 284.85869L56.092026 282.88294L55.593532 284.50722L55.031605 286.48297L54.91357 286.89377L53.899454 286.89377L53.10675 286.87167L52.848922 286.79607L52.848922 286.79605M85.832457 283.02728L85.832457 279.16071L86.421975 279.10541L88.202101 279.08301L89.268945 279.14291L89.823083 279.31473L90.404531 279.65683L90.801278 280.07733L91.037348 280.61252L91.136778 281.29868L91.090318 282.02723L90.876218 282.65042L90.500565 283.15667L89.969406 283.53441L89.725871 283.68994L89.758591 283.82656L90.957666 285.29043L92.160522 286.75819L92.191632 286.83319L92.07918 286.87379L91.097301 286.89379L89.926659 286.89379L88.838105 285.47334L87.749543 284.0529L87.728213 285.47334L87.706883 286.89379L86.769668 286.89379L85.832469 286.89379L85.832469 283.02721L85.832461 283.02722M88.843341 282.27874L89.073472 281.93777L89.150062 281.53362L89.073062 281.1294L88.842568 280.78823L88.581064 280.63361L88.138222 280.56981L87.632141 280.53761L87.632141 281.53395L87.632141 282.53026L88.138222 282.49806L88.581363 282.43416L88.843327 282.2789L88.843351 282.2789M100.46477 283.0207L100.46477 279.14745L101.36296 279.14745L102.26115 279.14745L102.28235 280.67419L102.30355 282.20092L103.57605 280.67419L104.84855 279.14745L105.99429 279.14745L106.9565 279.16735L107.06137 279.20835L107.02307 279.28435L104.1259 282.63892L104.068 282.76641L104.21747 283.03517L105.74217 284.80616L107.50691 286.85067L106.27452 286.89297L105.04211 286.89216L103.67278 285.31319L102.30345 283.73422L102.28225 285.31413L102.26105 286.89404L101.36282 286.89404L100.4646 286.89404L100.4646 283.02078L100.46459 283.02089M102.49902 274.92069L101.58246 274.71539L100.61002 274.3715L99.713343 273.94339L99.024074 273.48542L98.720734 273.23075L99.407264 272.06163L100.18138 270.79978L100.38458 270.81798L100.89495 271.13088L101.58464 271.55779L102.20353 271.84615L102.80389 272.01561L103.438 272.08571L104.11564 272.07971L104.53283 271.93384L104.93421 271.64092L105.16794 271.28003L105.22174 270.88344L105.08345 270.48337L104.85831 270.20991L104.47337 269.92007L102.89922 269.08285L101.65389 268.42796L100.96918 267.85123L100.49342 267.31773L100.18312 266.81553L100.00665 266.27702L99.9324 265.63458L99.9381 264.95083L100.063364 264.37322L100.470524 263.46962L101.089754 262.70835L101.899764 262.10966L102.879274 261.69381L103.519284 261.55774L104.405094 261.56374L105.619234 261.70449L106.798954 262.08545L107.634864 262.50375L108.054564 262.83919L107.462734 264.07123L106.870884 265.21588L106.268864 264.91318L105.212324 264.48337L104.270064 264.35842L103.795874 264.39592L103.412184 264.50701L103.124074 264.68943L102.936624 264.94098L102.821074 265.43694L102.881174 265.66091L103.029564 265.87975L103.620144 266.33456L104.650784 266.86653L105.985694 267.49308L106.716244 267.91777L107.368634 268.44864L107.903954 269.04862L108.283274 269.68065L108.408774 270.19099L108.453674 270.891L108.417174 271.62858L108.298324 272.25163L107.892324 273.13393L107.275454 273.84788L106.446774 274.3943L105.405314 274.77402L103.977104 274.95416L102.498934 274.92026L102.498924 274.92026M90.355237 274.80073L89.586554 274.55844L88.861735 274.21404L88.176134 273.7649L87.525121 273.20842L86.953305 272.58274L86.47585 271.9037L86.091464 271.18098L85.79887 270.42424L85.596792 269.64317L85.483944 268.84742L85.459064 268.04667L85.520874 267.2506L85.668035 266.46888L85.899305 265.71116L86.213407 264.98714L86.609048 264.3065L87.08496 263.67887L87.639857 263.11396L88.272464 262.62143L88.981488 262.21094L89.641073 261.92825L90.293232 261.74L90.988917 261.63512L91.779067 261.60252L92.782091 261.65222L93.6683 261.8093L94.482996 262.08534L95.271507 262.49187L96.183158 263.19234L96.708663 263.77214L95.800211 264.87153L94.796419 265.89924L94.400358 265.51489L93.906551 265.00428L93.340148 264.64341L92.694613 264.42916L91.963419 264.35846L91.259744 264.43676L90.629836 264.67693L90.059337 265.0867L89.533889 265.67386L89.204711 266.18859L88.968747 266.73684L88.818377 267.34131L88.745987 268.02469L88.798097 269.21894L88.935126 269.73056L89.162761 270.27497L89.454393 270.77163L89.829488 271.22671L90.264048 271.61519L90.734069 271.91208L91.238631 272.10618L91.93556 272.14398L92.636407 272.10548L93.171203 271.91666L93.632934 271.64128L94.039636 271.2803L94.358109 270.8691L94.555138 270.44303L94.656585 270.07346L94.646245 269.96474L94.569975 269.89514L94.143809 269.83894L93.226672 269.83594L91.779094 269.83594L91.779094 268.62311L91.779094 267.41027L94.752501 267.41027L97.725908 267.41027L97.725908 268.88405L97.697548 270.18923L97.561964 270.85722L97.273709 271.58825L96.911243 272.25534L96.477547 272.85576L95.975563 273.38676L95.408271 273.84561L94.778613 274.22956L94.089554 274.53588L93.344051 274.76184L92.641693 274.87168L91.815507 274.91608L91.006418 274.89318L90.355325 274.80098L90.355325 274.80098M10.71464 269.56214L10.71464 264.43692L9.1888127 264.43692L7.6629853 264.43692L7.6629853 263.10672L7.6629853 261.77651L12.201344 261.77651L16.739701 261.77651L16.739701 263.10672L16.739701 264.43692L15.213874 264.43692L13.688047 264.43692L13.688047 269.56214L13.688047 274.68735L12.201344 274.68735L10.71464 274.68735L10.71464 269.56214M18.3829 268.23193L18.3829 261.77651L19.908726 261.77651L21.434556 261.77651L21.434556 264.35868L21.434556 266.94085L23.429869 266.94085L25.425181 266.94085L25.425181 264.35868L25.425181 261.77651L26.95101 261.77651L28.476831 261.77651L28.476831 268.23193L28.476831 274.68735L26.95101 274.68735L25.425181 274.68735L25.425181 272.10519L25.425181 269.52302L23.429869 269.52302L21.434556 269.52302L21.434556 272.10519L21.434556 274.68735L19.908726 274.68735L18.3829 274.68735L18.3829 268.23193M30.902507 268.23193L30.902507 261.77651L34.619268 261.77651L38.336029 261.77651L38.336029 263.10672L38.336029 264.43692L36.105968 264.43692L33.875914 264.43692L33.875914 265.68889L33.875914 266.94085L36.027725 266.94085L38.179528 266.94085L38.179528 268.27106L38.179528 269.60126L36.027725 269.60126L33.875914 269.60126L33.875914 270.85322L33.875914 272.10519L36.105968 272.10519L38.336029 272.10519L38.336029 273.39627L38.336029 274.68735L34.619268 274.68735L30.902507 274.68735L30.902507 268.23193M46.943256 269.56214L46.943256 264.43692L45.367156 264.43692L43.791064 264.43692L43.841314 263.95596L43.891564 262.62575L43.891564 261.77651L48.429921 261.77651L52.968279 261.77651L52.968279 263.10672L52.968279 264.43692L51.442458 264.43692L49.916629 264.43692L49.916629 269.56214L49.916629 274.68735L48.429921 274.68735L46.943222 274.68735L46.943222 269.56214M54.61148 268.23193L54.61148 261.77651L56.09818 261.77651L57.584887 261.77651L57.584887 264.35868L57.584887 266.94085L59.619326 266.94085L61.653757 266.94085L61.653757 264.35868L61.653757 261.77651L63.179586 261.77651L64.705415 261.77651L64.705415 268.23193L64.705415 274.68735L63.179586 274.68735L61.653757 274.68735L61.653757 272.10519L61.653757 269.52302L59.619326 269.52302L57.584887 269.52302L57.584887 272.10519L57.584887 274.68735L56.09818 274.68735L54.61148 274.68735L54.61148 268.23193M67.131091 268.23193L67.131091 261.77651L68.61779 261.77651L70.10449 261.77651L70.10449 268.23193L70.10449 274.68735L68.61779 274.68735L67.131091 274.68735L67.131091 268.23193M72.530166 268.23193L72.530166 261.77651L74.042842 261.77651L75.555517 261.77651L78.053029 265.68671L80.550541 269.59691L80.570821 265.68671L80.591101 261.77651L82.116203 261.77651L83.641313 261.77651L83.641313 268.23193L83.641313 274.68735L82.095915 274.68535L80.550534 274.68335L78.085736 270.81834L75.620938 266.95333L75.600658 270.82054L75.580378 274.68775L74.055284 274.68775L72.53019 274.68775L72.53019 268.23232L72.530174 268.23211"
       id="path3641"
       inkscape:connector-curvature="0"
       sodipodi:nodetypes="cssssscssccssssssccccccccccccccccccccccccccccccccccccccccccccccccccccccccccccccccccsscssscccscscscscccsssscsccccssssscscscccccccccccscccsccccccccccscssscccccccccccscssssssssscssssscsscsssssccsssssscsssssssscscccccsssscccccccccccccccccccccccccccccccccccccccccccccccccccccccccccccccccccccccsscccccccccccccccccccccccccccccccccccccccccccccccccccccccccccccccccccc" />
  </g>
</svg>
