<?xml version="1.0" encoding="UTF-8" standalone="no"?>
<!-- Created with Inkscape (http://www.inkscape.org/) -->

<svg
   xmlns:dc="http://purl.org/dc/elements/1.1/"
   xmlns:cc="http://creativecommons.org/ns#"
   xmlns:rdf="http://www.w3.org/1999/02/22-rdf-syntax-ns#"
   xmlns:svg="http://www.w3.org/2000/svg"
   xmlns="http://www.w3.org/2000/svg"
   xmlns:sodipodi="http://sodipodi.sourceforge.net/DTD/sodipodi-0.dtd"
   xmlns:inkscape="http://www.inkscape.org/namespaces/inkscape"
   id="svg3502"
   version="1.1"
   inkscape:version="0.91 r13725"
   width="109.05925mm"
   height="83.984062mm"
   viewBox="0 0 386.4304 297.58133"
   sodipodi:docname="ttnlogo_V1_letras.svg">
  <sodipodi:namedview
     pagecolor="#ffffff"
     bordercolor="#666666"
     borderopacity="1"
     objecttolerance="10"
     gridtolerance="10"
     guidetolerance="10"
     inkscape:pageopacity="0"
     inkscape:pageshadow="2"
     inkscape:window-width="1865"
     inkscape:window-height="1056"
     id="namedview3504"
     showgrid="false"
     inkscape:document-units="mm"
     units="mm"
     fit-margin-top="0"
     fit-margin-left="0"
     fit-margin-right="0"
     fit-margin-bottom="0"
     inkscape:zoom="2.1520641"
     inkscape:cx="213.86222"
     inkscape:cy="163.18297"
     inkscape:window-x="55"
     inkscape:window-y="24"
     inkscape:window-maximized="1"
     inkscape:current-layer="svg3502" />
  <metadata
     id="metadata3508">
    <rdf:RDF>
      <cc:Work
         rdf:about="">
        <dc:format>image/svg+xml</dc:format>
        <dc:type
           rdf:resource="http://purl.org/dc/dcmitype/StillImage" />
        <dc:title></dc:title>
      </cc:Work>
    </rdf:RDF>
  </metadata>
  <defs
     id="defs3506" />
  <g
     inkscape:label="SilkS"
     id="layer1"
     inkscape:groupmode="layer"
     transform="translate(5.4732545,171.22842)" />
  <path
     inkscape:connector-curvature="0"
     id="path4007"
     d="m 246.29999,297.01512 -0.87184,-0.30561 -0.83249,-0.34163 -0.79353,-0.37802 -0.75493,-0.41478 -0.71672,-0.45191 -0.67887,-0.48942 -0.64139,-0.52731 -0.6043,-0.56556 -0.56758,-0.60419 -0.53123,-0.64319 -0.49525,-0.68257 -0.45966,-0.72232 -0.42442,-0.76244 -0.38958,-0.80294 -0.3551,-0.84382 -0.32099,-0.88505 -0.17572,-0.5708 -0.15398,-0.59823 -0.13218,-0.62165 -0.11031,-0.64107 -0.0884,-0.65646 -0.0664,-0.66786 -0.0443,-0.67525 -0.0222,-0.67863 0,-0.67799 0.0223,-0.67336 0.0446,-0.66471 0.067,-0.65205 0.0894,-0.6354 0.11195,-0.61471 0.13454,-0.59004 0.15719,-0.56135 0.15266,-0.46535 0.1685,-0.45936 0.18395,-0.45301 0.19901,-0.44631 0.21368,-0.43923 0.22799,-0.43181 0.24189,-0.42402 0.25541,-0.41587 0.26856,-0.40736 0.28132,-0.3985 0.29368,-0.38926 0.30567,-0.37968 0.31728,-0.36974 0.32849,-0.35942 0.33933,-0.34875 0.34977,-0.33773 0.35984,-0.32634 0.36952,-0.3146 0.37881,-0.30249 0.38772,-0.29002 0.39625,-0.27719 0.40439,-0.26401 0.41214,-0.25046 0.41952,-0.23656 0.42651,-0.22228 0.4331,-0.20766 0.43933,-0.19268 0.44516,-0.17733 0.45061,-0.16162 0.45567,-0.14556 0.46035,-0.12913 0.46465,-0.11234 0.40996,-0.0764 0.48585,-0.0651 0.54833,-0.053 0.59739,-0.0403 0.63304,-0.0267 0.65528,-0.0125 0.66411,0.002 0.65953,0.0181 0.90758,0.0426 0.75069,0.0539 0.63587,0.0747 0.56312,0.10526 0.53245,0.14542 0.54383,0.19518 0.5973,0.25458 0.69283,0.32361 0.51687,0.25776 0.50258,0.27137 0.48816,0.28476 0.4736,0.29794 0.45891,0.31088 0.44406,0.32362 0.4291,0.33613 0.41397,0.34842 0.39873,0.36049 0.38333,0.37234 0.36781,0.38398 0.35213,0.39538 0.33633,0.40659 0.32039,0.41755 0.30429,0.42831 0.28808,0.43883 0.27172,0.44916 0.25521,0.45924 0.23858,0.46912 0.2218,0.47877 0.20488,0.48821 0.18783,0.49742 0.17064,0.50641 0.1533,0.51519 0.13584,0.52374 0.11823,0.53208 0.10047,0.54019 0.0826,0.54809 0.0646,0.55576 0.0464,0.56321 0.0281,0.57045 0.01,0.57747 -0.0175,1.10542 -0.0566,1.00915 -0.0996,0.93244 -0.14656,0.87524 -0.19743,0.83758 -0.25224,0.81946 -0.31097,0.82086 -0.37363,0.8418 -0.33958,0.6713 -0.37324,0.65058 -0.40559,0.6287 -0.4366,0.60566 -0.46628,0.58147 -0.49463,0.55611 -0.52165,0.52959 -0.54734,0.50192 -0.5717,0.47308 -0.59472,0.44309 -0.61643,0.41194 -0.63679,0.37963 -0.65583,0.34615 -0.67353,0.31153 -0.68991,0.27573 -0.70496,0.23879 -0.50409,0.13909 -0.54865,0.12098 -0.58655,0.10285 -0.6178,0.0847 -0.64241,0.0665 -0.66037,0.0483 -0.67168,0.0301 -0.67633,0.0118 -0.67434,-0.006 -0.66571,-0.0248 -0.65042,-0.0431 -0.62847,-0.0615 -0.5999,-0.0799 -0.56465,-0.0983 -0.52277,-0.11676 -0.47424,-0.13524 0,-4e-5 m 8.48411,-7.03081 0.41305,-0.26464 0.3896,-0.29491 0.36602,-0.32337 0.34232,-0.35003 0.31849,-0.37489 0.29456,-0.39796 0.27049,-0.41923 0.24631,-0.4387 0.22201,-0.45638 0.19757,-0.47224 0.17303,-0.48632 0.14836,-0.4986 0.12357,-0.50908 0.0987,-0.51776 0.0736,-0.52463 0.0485,-0.52973 0.0232,-0.533 -0.002,-0.5345 -0.0277,-0.53418 -0.0534,-0.53207 -0.0791,-0.52816 -0.105,-0.52246 -0.13101,-0.51495 -0.15713,-0.50565 -0.18338,-0.49455 -0.20975,-0.48164 -0.23623,-0.46695 -0.26284,-0.45045 -0.28958,-0.43216 -0.31643,-0.41206 -0.3434,-0.39017 -0.37049,-0.36648 -0.29506,-0.26191 -0.29345,-0.23978 -0.29318,-0.2181 -0.29423,-0.19687 -0.29663,-0.1761 -0.30035,-0.15577 -0.3054,-0.1359 -0.3118,-0.11649 -0.31951,-0.0975 -0.32857,-0.079 -0.33896,-0.0609 -0.35067,-0.0433 -0.36372,-0.0262 -0.37811,-0.009 -0.39383,0.007 -0.41087,0.0226 -0.47428,0.0469 -0.45594,0.0708 -0.43797,0.095 -0.42034,0.11938 -0.40308,0.14403 -0.38618,0.16893 -0.36963,0.19407 -0.35344,0.21944 -0.3376,0.24505 -0.32214,0.27092 -0.30702,0.29701 -0.29227,0.32335 -0.27787,0.34992 -0.26382,0.37675 -0.25015,0.40381 -0.23682,0.43111 -0.23168,0.476 -0.20649,0.48309 -0.18161,0.48904 -0.15704,0.49384 -0.13276,0.49752 -0.10882,0.50004 -0.0852,0.50144 -0.0618,0.50169 -0.0388,0.5008 -0.0161,0.49878 0.006,0.49561 0.0284,0.4913 0.0502,0.48587 0.0717,0.47927 0.0929,0.47156 0.11377,0.4627 0.13432,0.45269 0.15458,0.44156 0.17452,0.42928 0.19416,0.41586 0.21347,0.4013 0.2325,0.38561 0.2512,0.36877 0.2696,0.3508 0.2877,0.33168 0.30547,0.31143 0.32295,0.29005 0.34011,0.2675 0.35696,0.24384 0.37351,0.21903 0.38975,0.19309 0.40568,0.16599 0.36253,0.1189 0.38086,0.0977 0.3962,0.0768 0.40857,0.056 0.41796,0.0355 0.42437,0.0153 0.4278,-0.005 0.42826,-0.0245 0.42573,-0.044 0.42023,-0.0633 0.41176,-0.0823 0.40029,-0.10115 0.38586,-0.11971 0.36845,-0.13805 0.34805,-0.15615 0.32469,-0.174 0,0 m -251.1841153,-7.55447 0,-14.85 3.57039,0 3.5703903,0 5.65461,8.83012 5.65461,8.83012 0.0795,-8.83012 0.0795,-8.83012 3.59554,0 3.59553,0 0,14.85923 0,14.85924 -3.66838,-0.0842 -3.66838,-0.0842 -5.55662,-8.66841 -5.55662,-8.6684 -0.0795,8.7434 -0.0795,8.74341 -3.5954703,0 -3.59547,0 0,-14.85 -1.3e-4,-7e-5 m 60.3000003,-0.15 0,-15 8.7,0 8.7,0 0,3.15 0,3.15 -5.1,0 -5.1,0 0,2.7 0,2.7 4.8,0 4.8,0 0,3.15 0,3.15 -4.8,0 -4.8,0 0,2.85 0,2.85 5.1,0 5.1,0 0,3.15 0,3.15 -8.7,0 -8.7,0 0,-15 0,0 m 56.699995,3.15 0,-11.85 -3.4307,0 -3.43069,0 -0.0943,-3.15063 -0.0943,-3.15063 10.575,6e-4 10.575,6e-4 0,3.15 0,3.14999 -3.45,0 -3.45,0 0,11.85 0,11.85 -3.6,0 -3.6,0 0,-11.85 -10e-6,7e-5 m 52.6416,11.475 -0.4092,-1.39562 -0.95947,-3.36015 -2.82406,-9.97259 -2.78809,-9.90673 -0.91452,-3.27784 -0.34626,-1.28037 0.0784,-0.0265 0.22483,-0.0247 0.82573,-0.0419 1.22208,-0.0283 1.49231,-0.0104 3.84338,0 2.36945,9.74715 0.93673,3.76711 0.79894,3.05156 0.32132,1.15979 0.25511,0.86369 0.17831,0.52854 0.057,0.12637 0.0199,0.0266 0.014,10e-4 0.0931,-0.23925 0.18461,-0.59943 0.59956,-2.1193 0.83316,-3.07974 0.97854,-3.72001 2.47712,-9.53557 2.71135,0.0856 2.71136,0.0856 2.62174,10.00992 1.02773,3.89643 0.86021,3.20942 0.60259,2.18989 0.17654,0.60872 0.0784,0.22915 0.037,-0.0599 0.0733,-0.21638 0.25431,-0.89706 0.39573,-1.50756 0.53459,-2.10785 1.47551,-5.97565 2.00018,-8.2541 0.30707,-1.275 3.86438,0 1.50129,0.0178 1.23101,0.0483 0.83357,0.0715 0.22802,0.0422 0.0599,0.0223 0.0211,0.0229 -0.32083,1.24137 -0.88156,3.21362 -2.90586,10.39501 -4.11872,14.625 -3.93493,0 -3.93494,0 -2.21435,-7.80248 -0.87631,-3.0116 -0.74907,-2.43208 -0.30196,-0.92103 -0.24034,-0.68295 -0.16876,-0.41378 -0.0544,-0.0962 -0.0192,-0.0188 -0.0136,10e-4 -0.0768,0.16816 -0.13878,0.3936 -0.4322,1.3614 -0.58611,1.95668 -0.67732,2.34764 -2.15442,7.575 -0.45256,1.575 -3.88813,0 -1.81147,-0.0201 -0.68239,-0.0264 -0.54533,-0.0384 -0.41717,-0.0512 -0.29788,-0.0649 -0.18749,-0.0793 -0.0551,-0.0454 -0.0309,-0.0493 0,0 m 126.45841,-14.44941 0,-14.82439 2.2602,-0.2118 0.54719,-0.04 0.69059,-0.0323 1.6994,-0.0403 1.93705,-0.005 1.95077,0.0322 1.38465,0.0426 1.10939,0.0476 0.88493,0.0599 0.71127,0.0795 0.58842,0.10629 0.51637,0.14038 0.49511,0.18172 0.52466,0.23033 0.62875,0.30734 0.58017,0.31961 0.53303,0.33404 0.48732,0.35064 0.44307,0.36944 0.40025,0.39039 0.35887,0.41352 0.31892,0.43884 0.28043,0.4663 0.24336,0.49597 0.20774,0.5278 0.17356,0.56181 0.14082,0.59799 0.10952,0.63634 0.0797,0.67687 0.0512,0.71957 0.0169,0.73374 -0.0243,0.71059 -0.0652,0.68672 -0.10572,0.66218 -0.14588,0.63692 -0.18568,0.61099 -0.22511,0.58436 -0.26419,0.55703 -0.3029,0.52901 -0.34125,0.5003 -0.37924,0.47088 -0.41686,0.44078 -0.45413,0.40999 -0.49102,0.3785 -0.52756,0.34631 -0.56374,0.31343 -0.35409,0.18547 -0.26958,0.15557 -0.19118,0.13414 -0.11887,0.12114 -0.0527,0.11661 0.007,0.12053 0.0615,0.1329 0.10937,0.15373 4.59726,5.61248 4.61172,5.62739 0.10885,0.16263 0.0199,0.0668 -0.01,0.058 -0.044,0.0497 -0.0833,0.0421 -0.12743,0.0352 -0.17649,0.0288 -0.5197,0.0411 -0.77459,0.0232 -2.47023,0.0125 -4.48821,0 -4.17351,-5.44598 -4.17354,-5.44598 -0.0818,5.44598 -0.0817,5.44598 -3.59325,0 -3.59322,0 0,-14.82441 -3e-5,0 m 11.54367,-2.86966 0.27578,-0.29087 0.23898,-0.31736 0.20218,-0.34006 0.16538,-0.35898 0.12857,-0.37412 0.0918,-0.38547 0.055,-0.39306 0.0182,-0.39685 -0.0186,-0.39687 -0.0554,-0.39311 -0.0922,-0.38556 -0.12897,-0.37423 -0.16575,-0.35913 -0.20254,-0.34024 -0.23931,-0.31758 -0.2761,-0.29112 -0.22495,-0.19307 -0.23456,-0.16082 -0.25545,-0.13208 -0.28763,-0.10683 -0.33108,-0.0851 -0.38581,-0.0668 -0.45184,-0.0521 -0.52913,-0.0409 -1.94031,-0.12355 0,3.8199 0,3.81989 1.94031,-0.12354 0.52981,-0.0409 0.45216,-0.0521 0.38593,-0.0669 0.3311,-0.0853 0.28769,-0.10712 0.25568,-0.13255 0.23509,-0.16153 0.2259,-0.19405 9e-5,0 m 44.55633,2.84407 0,-14.84999 3.44367,0 3.44364,0 0.0814,5.85348 0.0813,5.8535 4.87875,-5.8535 4.87876,-5.85348 4.39275,0 2.42857,0.0122 0.75692,0.023 0.50361,0.0411 0.1689,0.029 0.12009,0.0354 0.0761,0.0425 0.037,0.0503 0.003,0.0587 -0.0268,0.0677 -0.12265,0.1651 -5.90997,6.85705 -5.19775,6.00432 -0.0983,0.11387 -0.0757,0.11134 -0.0442,0.12094 -0.004,0.14266 0.0462,0.17652 0.10487,0.22249 0.17263,0.2806 0.24943,0.35082 0.33528,0.43318 0.43018,0.52766 1.1812,1.38727 1.66929,1.9107 2.22973,2.53113 2.62712,2.99229 2.15138,2.47534 1.45364,1.70117 0.39578,0.47991 0.1381,0.18991 -0.0245,0.0169 -0.0719,0.0164 -0.27639,0.0309 -1.01514,0.052 -1.5024,0.0345 -1.83463,0.0117 -4.725,-0.004 -5.25001,-6.05373 -5.25,-6.05373 -0.0812,6.05733 -0.0812,6.05733 -3.44379,0 -3.44379,0 0,-14.85 -3e-5,4e-4 m 7.8,-31.05604 -0.83084,-0.13556 -0.86789,-0.17854 -0.89705,-0.21826 -0.91832,-0.25473 -0.93171,-0.28795 -0.93721,-0.3179 -0.93483,-0.34459 -0.92456,-0.36803 -0.90641,-0.38822 -0.88036,-0.40514 -0.84644,-0.41881 -0.80462,-0.42922 -0.75492,-0.43638 -0.69734,-0.44027 -0.63187,-0.44091 -0.55851,-0.43829 -1.16301,-0.9764 2.63217,-4.48238 1.04851,-1.76848 0.90908,-1.50164 0.67227,-1.07606 0.2169,-0.32883 0.12117,-0.16291 0.0528,-0.0439 0.0633,-0.0299 0.0749,-0.0154 0.0876,-3.7e-4 0.21799,0.0464 0.28256,0.11287 0.35616,0.18349 0.43881,0.25831 0.53052,0.33732 0.63126,0.42054 0.69747,0.4631 0.67111,0.42637 0.64788,0.39082 0.62779,0.35646 0.61082,0.32325 0.59699,0.29123 0.58629,0.26039 0.57871,0.23072 0.57428,0.20222 0.57297,0.17491 0.57479,0.14876 0.57975,0.12379 0.58783,0.10001 0.59905,0.0774 0.61339,0.0559 0.63088,0.0357 0.85651,0.0297 0.69692,0.01 0.56972,-0.0153 0.47492,-0.0444 0.41251,-0.0781 0.38249,-0.11626 0.38487,-0.15889 0.41964,-0.20598 0.44241,-0.24957 0.40444,-0.27166 0.36574,-0.2918 0.32629,-0.31003 0.28613,-0.3263 0.24522,-0.34067 0.20357,-0.35308 0.16121,-0.36357 0.1181,-0.37213 0.0743,-0.37876 0.0297,-0.38346 -0.0156,-0.38621 -0.0616,-0.38705 -0.10843,-0.38594 -0.15594,-0.38291 -0.20417,-0.37795 -0.17539,-0.26713 -0.19909,-0.2617 -0.22764,-0.25938 -0.26107,-0.2602 -0.29936,-0.26413 -0.34252,-0.27117 -0.39054,-0.28135 -0.44343,-0.29463 -0.50118,-0.31104 -0.5638,-0.33057 -1.33493,-0.73221 -1.64379,-0.84777 -1.99159,-0.98828 -1.62053,-0.79963 -1.29301,-0.65762 -1.02988,-0.5567 -0.83114,-0.49689 -0.69681,-0.47815 -0.62687,-0.50052 -0.62132,-0.56398 -0.68018,-0.66853 -0.52211,-0.53679 -0.47678,-0.51714 -0.43334,-0.50153 -0.3918,-0.48998 -0.35215,-0.48248 -0.3144,-0.47903 -0.27855,-0.47963 -0.24458,-0.48428 -0.21251,-0.49298 -0.18234,-0.50573 -0.15406,-0.52254 -0.12768,-0.54339 -0.10319,-0.56829 -0.0806,-0.59725 -0.0599,-0.63026 -0.0411,-0.66731 -0.0291,-0.77427 -0.008,-0.67962 0.0162,-0.60804 0.0424,-0.55954 0.0711,-0.5341 0.10213,-0.53175 0.13559,-0.55245 0.17145,-0.59624 0.14788,-0.46024 0.16169,-0.45277 0.17536,-0.44516 0.18885,-0.43739 0.2022,-0.42947 0.21539,-0.4214 0.2284,-0.41318 0.24127,-0.4048 0.25398,-0.39628 0.26651,-0.3876 0.27891,-0.37876 0.29113,-0.36979 0.30319,-0.36065 0.31511,-0.35137 0.66529,-0.67428 0.71101,-0.63531 0.75545,-0.59515 0.79861,-0.55375 0.8405,-0.51116 0.88112,-0.46734 0.92045,-0.42232 0.95852,-0.37607 0.99531,-0.32862 0.6759,-0.19426 0.60555,-0.14925 0.57827,-0.10791 0.59409,-0.0703 0.65298,-0.0363 0.75497,-0.006 0.90004,0.0206 1.0882,0.0435 1.30227,0.0761 1.18589,0.11006 1.10557,0.15191 1.06127,0.20161 1.05302,0.25918 1.08082,0.32459 1.14466,0.39785 1.24453,0.47898 0.81772,0.35081 0.83208,0.39944 0.80839,0.42525 0.74669,0.42822 0.64695,0.40837 0.50919,0.36569 0.19105,0.15971 0.14236,0.14047 0.0889,0.1184 0.0307,0.0935 -0.0463,0.15688 -0.13274,0.31952 -0.48751,1.0494 -0.7215,1.46742 -0.88105,1.73043 -2.26911,4.38855 -2.30814,-1.16052 -1.11604,-0.53883 -1.03528,-0.45097 -0.97231,-0.36804 -0.4681,-0.15447 -0.45903,-0.13559 -0.45219,-0.11732 -0.44756,-0.0997 -0.44517,-0.0827 -0.44499,-0.0662 -0.44705,-0.0504 -0.45132,-0.0353 -0.92435,-0.0275 -0.48597,0.009 -0.4652,0.0271 -0.44412,0.045 -0.42275,0.0627 -0.40105,0.0804 -0.37907,0.0979 -0.35677,0.11522 -0.33418,0.13245 -0.31127,0.14955 -0.28806,0.1665 -0.26454,0.18334 -0.24073,0.20003 -0.21661,0.2166 -0.19218,0.23302 -0.16745,0.24932 -0.14241,0.26549 -0.21509,0.50813 -0.0825,0.24466 -0.0653,0.23904 -0.0476,0.2339 -0.0295,0.22925 -0.011,0.22509 0.008,0.22142 0.0274,0.21824 0.0473,0.21554 0.0675,0.21333 0.0883,0.21162 0.10942,0.21038 0.131,0.20964 0.15303,0.20937 0.17548,0.20962 0.19836,0.21033 0.22169,0.21153 0.51508,0.42865 0.61358,0.43933 0.71556,0.45391 0.821,0.4724 0.92993,0.49479 1.04232,0.52109 1.1582,0.55128 5.11806,2.40217 0.72015,0.36114 0.70842,0.39324 0.69436,0.42312 0.67796,0.45079 0.65924,0.47622 0.63817,0.49944 0.61479,0.52045 0.58906,0.53922 0.56101,0.55579 0.53062,0.57013 0.49791,0.58225 0.46286,0.59214 0.42548,0.59983 0.38577,0.60529 0.34372,0.60853 0.29935,0.60955 0.14906,0.38911 0.12992,0.46188 0.11072,0.52556 0.0915,0.58011 0.0722,0.62556 0.0528,0.6619 0.0334,0.68912 0.0139,0.70723 -0.006,0.71624 -0.0251,0.71612 -0.0448,0.70691 -0.0644,0.68858 -0.0842,0.66113 -0.10396,0.62458 -0.12381,0.57892 -0.14369,0.52414 -0.15049,0.45825 -0.16307,0.44812 -0.17566,0.438 -0.18826,0.42788 -0.20085,0.41777 -0.21348,0.40767 -0.22608,0.39757 -0.23872,0.38748 -0.25134,0.37739 -0.26399,0.36731 -0.27663,0.35724 -0.28928,0.34717 -0.30195,0.33711 -0.31461,0.32706 -0.32729,0.31701 -0.33997,0.30697 -0.35266,0.29693 -0.36535,0.2869 -0.37806,0.27688 -0.39077,0.26686 -0.40348,0.25685 -0.41622,0.24684 -0.87062,0.46371 -0.92161,0.42375 -0.97265,0.38387 -1.02375,0.34402 -1.07491,0.30422 -0.53153,0.12404 -0.59151,0.11409 -0.64335,0.10372 -0.68704,0.093 -1.47262,0.15193 -1.54972,0.10391 -1.56169,0.0526 -1.50853,-0.002 -0.71398,-0.0225 -0.67626,-0.0373 -0.63041,-0.0526 -0.57642,-0.0683 -3e-5,0 m -46.55874,-0.4583 -0.75351,-0.19607 -0.74217,-0.22007 -0.7311,-0.24423 -0.72032,-0.26855 -0.70981,-0.29301 -0.69957,-0.31764 -0.68962,-0.34243 -0.67995,-0.36737 -0.67055,-0.39246 -0.66143,-0.41772 -0.65258,-0.44312 -0.64402,-0.46869 -0.63573,-0.49442 -0.62772,-0.52029 -0.61999,-0.54632 -0.61254,-0.57252 -0.58227,-0.5785 -0.55942,-0.59303 -0.53666,-0.60697 -0.51398,-0.62034 -0.49137,-0.63312 -0.46883,-0.64533 -0.44638,-0.65696 -0.42399,-0.66801 -0.4017,-0.67847 -0.37947,-0.68836 -0.35732,-0.69767 -0.33524,-0.7064 -0.31325,-0.71456 -0.29134,-0.72212 -0.26949,-0.72911 -0.24772,-0.73553 -0.22603,-0.74136 -0.20443,-0.74661 -0.18288,-0.75129 -0.16143,-0.75538 -0.14005,-0.7589 -0.11874,-0.76184 -0.0975,-0.76419 -0.0764,-0.76596 -0.0553,-0.76717 -0.0343,-0.76778 -0.0134,-0.76782 0.007,-0.76728 0.0282,-0.76616 0.0489,-0.76446 0.0695,-0.76219 0.0901,-0.75932 0.11055,-0.75589 0.13094,-0.75186 0.15125,-0.74728 0.17148,-0.74209 0.19163,-0.73635 0.21171,-0.73 0.23171,-0.72309 0.25164,-0.7156 0.27148,-0.70753 0.29125,-0.69887 0.31095,-0.68964 0.33057,-0.67983 0.3501,-0.66944 0.36957,-0.65847 0.38896,-0.64692 0.40827,-0.63479 0.4275,-0.62208 0.44666,-0.6088 0.46574,-0.59493 0.48474,-0.58048 0.50367,-0.56545 0.52252,-0.54985 0.54129,-0.53367 0.55999,-0.5169 0.57861,-0.49955 0.59715,-0.48164 0.61562,-0.46313 0.63401,-0.44405 0.65232,-0.42439 0.67055,-0.40414 0.68872,-0.38333 0.7068,-0.36193 0.64556,-0.30723 0.63462,-0.2826 0.62675,-0.25865 0.62191,-0.23535 0.62013,-0.21272 0.62141,-0.19076 0.62573,-0.16945 0.6331,-0.14881 0.64354,-0.12883 0.65702,-0.10952 0.67355,-0.0909 0.69313,-0.0729 0.71577,-0.0556 0.74146,-0.0389 0.7702,-0.0229 0.80199,-0.008 1.01289,0.0114 0.97675,0.0351 0.94333,0.0594 0.91262,0.0845 0.88463,0.11023 0.85935,0.13666 0.83679,0.16378 0.81693,0.1916 0.79981,0.22009 0.78538,0.24929 0.77367,0.27918 0.76469,0.30975 0.75841,0.34103 0.75484,0.37298 0.754,0.40563 0.75587,0.43898 0.38718,0.24458 0.41632,0.28392 0.89021,0.65924 0.91717,0.73677 0.88438,0.76109 0.79185,0.73216 0.63958,0.65003 0.24401,0.27758 0.18354,0.23709 0.11561,0.18995 0.03,0.0752 0.0102,0.0609 -0.0197,0.0631 -0.0573,0.10237 -0.21805,0.31176 -0.33979,0.43653 -0.44218,0.53978 -1.11421,1.30328 -1.29176,1.45819 -1.3146,1.44102 -1.18276,1.25176 -0.49359,0.50114 -0.40263,0.38929 -0.29231,0.25595 -0.0987,0.0712 -0.0639,0.0298 -0.0885,-0.0197 -0.12988,-0.0788 -0.16506,-0.13184 -0.19402,-0.17883 -0.44998,-0.47448 -0.49107,-0.58994 -0.44859,-0.54388 -0.46481,-0.50745 -0.48143,-0.47119 -0.49842,-0.43513 -0.51583,-0.39925 -0.53361,-0.36356 -0.55178,-0.32806 -0.57036,-0.29273 -0.58932,-0.2576 -0.60867,-0.22264 -0.62842,-0.18789 -0.64855,-0.1533 -0.66908,-0.11892 -0.69,-0.0847 -0.71132,-0.0507 -0.73301,-0.0168 -0.70399,0.0185 -0.68373,0.0559 -0.66434,0.0938 -0.6458,0.13208 -0.62813,0.17087 -0.61131,0.21011 -0.59536,0.24982 -0.58026,0.29 -0.56603,0.33064 -0.55265,0.37175 -0.54013,0.41333 -0.52848,0.45536 -0.51769,0.49787 -0.50775,0.54084 -0.49868,0.58428 -0.49046,0.62818 -0.35061,0.48607 -0.3269,0.49003 -0.30366,0.49534 -0.28087,0.50201 -0.25854,0.51005 -0.23665,0.51944 -0.21524,0.53019 -0.19427,0.5423 -0.17375,0.55578 -0.1537,0.5706 -0.1341,0.58679 -0.11495,0.60435 -0.0963,0.62325 -0.078,0.64353 -0.0603,0.66515 -0.0429,0.68814 -0.0415,1.3073 2.4e-4,0.60291 0.0152,0.57447 0.031,0.55005 0.0474,0.52968 0.0647,0.51332 0.0827,0.50101 0.10139,0.49274 0.12086,0.48848 0.14107,0.48827 0.16204,0.49209 0.18376,0.49994 0.20621,0.51182 0.4828,1.07544 0.24449,0.48576 0.26881,0.48028 0.29168,0.47331 0.31313,0.46485 0.33312,0.45489 0.35168,0.44342 0.36881,0.43046 0.3845,0.416 0.39874,0.40004 0.41156,0.38259 0.42293,0.36364 0.43286,0.34318 0.44136,0.32124 0.44842,0.29779 0.45404,0.27284 0.45823,0.24639 0.54634,0.26768 0.47941,0.2084 0.45015,0.15641 0.45858,0.11169 0.50466,0.0742 0.58845,0.044 0.70989,0.0211 0.86902,0.005 0.85688,-0.006 0.70957,-0.0221 0.59811,-0.045 0.52247,-0.0744 0.48269,-0.11045 0.47874,-0.15308 0.51063,-0.2023 0.57836,-0.25811 0.45537,-0.22578 0.44816,-0.25264 0.43896,-0.27738 0.42776,-0.30002 0.41458,-0.32053 0.3994,-0.33892 0.38224,-0.35519 0.36308,-0.36934 0.34195,-0.38138 0.31881,-0.3913 0.29369,-0.39909 0.26658,-0.40478 0.23747,-0.40834 0.20639,-0.40978 0.1733,-0.4091 0.13824,-0.40631 0.24832,-0.81674 0.0883,-0.32508 0.0523,-0.2751 0.007,-0.22926 -0.0161,-0.0987 -0.0308,-0.0888 -0.0466,-0.0794 -0.0635,-0.0706 -0.0816,-0.0622 -0.1008,-0.0544 -0.26376,-0.0874 -0.35418,-0.0623 -0.4537,-0.0413 -0.56227,-0.0245 -1.48656,-0.0151 -2.02974,0.002 -5.55,0 0,-4.65 0,-4.65 11.4,0 11.4,0 0,5.65046 -0.005,1.67111 -0.0166,1.35465 -0.0332,1.09279 -0.0544,0.8855 -0.0801,0.73282 -0.1103,0.63472 -0.14507,0.59122 -0.18436,0.6023 -0.24901,0.7231 -0.26732,0.70826 -0.28545,0.69327 -0.30341,0.67812 -0.3212,0.6628 -0.33879,0.64731 -0.35622,0.63166 -0.37346,0.61585 -0.39054,0.59988 -0.40743,0.58373 -0.42415,0.56743 -0.44068,0.55096 -0.45705,0.53432 -0.47323,0.51753 -0.48923,0.50057 -0.50507,0.48344 -0.52072,0.46615 -0.53619,0.44869 -0.55149,0.43108 -0.56662,0.41329 -0.58155,0.39535 -0.59632,0.37724 -0.61091,0.35897 -0.62532,0.34052 -0.63955,0.32193 -0.65361,0.30315 -0.66749,0.28423 -0.68119,0.26512 -0.69472,0.24587 -0.70806,0.22645 -0.72123,0.20686 -0.73423,0.18711 -0.59916,0.12843 -0.65416,0.11307 -0.7007,0.0976 -0.73882,0.082 -0.76849,0.0663 -0.78971,0.0505 -0.80251,0.0346 -0.80685,0.0186 -0.80275,0.002 -0.79022,-0.0138 -0.76925,-0.0301 -0.73982,-0.0466 -0.70197,-0.0632 -0.65566,-0.0799 -0.60093,-0.0967 -0.53774,-0.11356 0,0 m -305.338525,-20.08609 0,-19.65 -5.8500002,0 -5.85000005879,0 0,-5.1 0,-5.10001 17.40000025879,0 17.4,0 0,5.10001 0,5.1 -5.85,0 -5.85,0 0,19.65 0,19.65 -5.7,0 -5.7,0 0,-19.65 0,0 m 29.4,-5.1 0,-24.75001 5.85,0 5.85,0 0,9.90001 0,9.9 7.65,0 7.65,0 0,-9.9 0,-9.90001 5.85,0 5.85,0 0,24.75001 0,24.75 -5.85,0 -5.85,0 0,-9.9 0,-9.9 -7.65,0 -7.65,0 0,9.9 0,9.9 -5.85,0 -5.85,0 0,-24.75 0,0 m 48,0 0,-24.75001 14.249995,0 14.25,0 0,5.10001 0,5.1 -8.55,0 -8.55,0 0,4.8 0,4.8 8.25,0 8.25,0 0,5.1 0,5.1 -8.25,0 -8.25,0 0,4.8 0,4.8 8.55,0 8.55,0 0,4.95 0,4.95 -14.25,0 -14.249995,0 0,-24.75 0,0 m 61.499995,5.1 0,-19.65 -6.04273,0 -6.04274,0 0.19273,-1.84401 0.0748,-0.97291 0.0613,-1.28587 0.0414,-1.43148 0.0152,-1.40974 0,-3.256 17.4,0 17.4,0 0,5.10001 0,5.1 -5.85,0 -5.85,0 0,19.65 0,19.65 -5.7,0 -5.7,0 0,-19.65 0,0 m 29.40001,-5.1 0,-24.75001 5.7,0 5.7,0 0,9.90001 0,9.9 7.8,0 7.8,0 0,-9.9 0,-9.90001 5.85,0 5.85,0 0,24.75001 0,24.75 -5.85,0 -5.85,0 0,-9.9 0,-9.9 -7.8,0 -7.8,0 0,9.9 0,9.9 -5.7,0 -5.7,0 0,-24.75 0,0 m 48,0 0,-24.75001 5.7,0 5.7,0 0,24.75001 0,24.75 -5.7,0 -5.7,0 0,-24.75 0,0 m 20.7,0 0,-24.75001 5.79957,0 5.79957,0 9.57543,14.99168 9.57543,14.99167 0.0778,-14.99167 0.0778,-14.99168 5.84723,0 5.84722,0 0,24.75001 0,24.75 -5.925,-0.008 -5.925,-0.008 -9.45,-14.8184 -9.45,-14.81838 -0.0778,14.82682 -0.0778,14.82682 -5.8472,0 -5.8472,0 0,-24.75 -5e-5,-6e-5 m -210.417325,-46.96715 -0.878144,-0.11176 -0.872149,-0.12933 -0.865978,-0.14672 -0.859626,-0.16394 -0.853095,-0.181 -0.846386,-0.19788 -0.839498,-0.21458 -0.832431,-0.23111 -0.825185,-0.24748 -0.81776,-0.26366 -0.810156,-0.27968 -0.802374,-0.29552 -0.794412,-0.31119 -0.786272,-0.32669 -0.777952,-0.34202 -0.769454,-0.35716 -0.760777,-0.37215 -0.751921,-0.38695 -0.742886,-0.40159 -0.733672,-0.41605 -0.724279,-0.43034 -0.714708,-0.44446 -0.704957,-0.45839 -0.695027,-0.47217 -0.684919,-0.48577 -0.674633,-0.4992 -0.664165,-0.51245 -0.653521,-0.52553 -0.642697,-0.53843 -0.631695,-0.55118 -0.620512,-0.56373 -0.609152,-0.57613 -0.597612,-0.58834 -0.585894,-0.60039 -0.573996,-0.61226 -0.561921,-0.62396 -0.549665,-0.63549 -0.537231,-0.64684 -0.524618,-0.65802 -0.5118264,-0.66904 -0.4988557,-0.67987 -0.485706,-0.69053 -0.4723776,-0.70102 -0.4588701,-0.71135 -0.4451839,-0.72149 -0.4313186,-0.73146 -0.4172745,-0.74126 -0.4030515,-0.7509 L 5.598181,155.80589 5.2241122,155.03626 4.864803,154.25752 4.5204324,153.46984 4.1911793,152.67339 3.8772226,151.86836 3.5787412,151.0549 3.295914,150.2332 3.0289199,149.40342 2.7779377,148.56574 2.5431465,147.72033 2.324725,146.86737 l -0.2018729,-0.86035 -0.1851452,-0.86756 -0.1682388,-0.8746 -0.1511534,-0.88147 -0.095352,-0.66424 -0.083944,-0.73192 -0.072453,-0.78969 -0.060879,-0.83756 -0.086705,-1.77912 -0.039417,-1.85176 0.00853,-1.84521 0.057145,-1.75942 0.047009,-0.82279 0.05941,-0.77164 0.071893,-0.71058 0.08446,-0.63964 0.2145936,-1.30253 0.2474269,-1.28322 0.2805286,-1.26458 0.3138982,-1.24661 0.3475362,-1.22931 0.3814423,-1.2127 0.4156165,-1.19675 0.450059,-1.18147 0.4847695,-1.16688 0.5197483,-1.15295 0.5549952,-1.1397 0.5905103,-1.12712 0.6262935,-1.11522 0.662345,-1.10398 0.6986646,-1.09343 0.7352523,-1.08355 0.4075475,-0.55979 0.4633027,-0.59428 0.5125801,-0.62236 0.555381,-0.644 0.591703,-0.65924 0.621548,-0.66804 1.30672,-1.33684 1.348369,-1.29501 0.673609,-0.61578 0.664588,-0.58606 0.649089,-0.54992 0.627114,-0.50736 0.59866,-0.45838 0.563729,-0.40299 0.793929,-0.5294 0.818248,-0.51637 0.839825,-0.50213 0.85866,-0.486685 0.874753,-0.47002 0.888103,-0.452143 0.898711,-0.433055 0.906577,-0.412754 0.911701,-0.39124 0.914082,-0.368514 0.91372,-0.344575 0.910618,-0.319425 0.904772,-0.29306 0.896185,-0.265484 0.884854,-0.236696 0.870782,-0.206694 2.25116,-0.49908 0.77975,-3.225112 0.366501,-1.391826 0.422126,-1.376426 0.476501,-1.359852 0.529625,-1.342104 0.581499,-1.323184 0.632125,-1.303091 0.681499,-1.281825 0.729623,-1.259385 0.776498,-1.235772 0.822123,-1.210987 0.866498,-1.185028 0.909622,-1.157896 0.951497,-1.129591 0.992122,-1.100113 1.031497,-1.069462 1.069622,-1.037637 1.106496,-1.00464 1.142121,-0.97047 1.176497,-0.93513 1.209621,-0.89861 1.241496,-0.86092 1.272121,-0.82205 1.301496,-0.78202 1.329621,-0.74081 1.356496,-0.69843 1.382122,-0.65488 1.406496,-0.61014 1.429621,-0.56425 1.451497,-0.51717 1.472122,-0.46892 1.491497,-0.4195 1.509622,-0.36891 0.884764,-0.20474 0.699428,-0.1756 0.537702,-0.15673 0.399587,-0.14814 0.285081,-0.14982 0.106979,-0.0787 0.08721,-0.083 0.07038,-0.0886 0.05652,-0.0954 0.08322,-0.21652 1.0045,-3.41915 0.338814,-1.08472 0.374994,-1.07306 0.41048,-1.06071 0.445273,-1.04766 0.479373,-1.03392 0.51278,-1.01947 0.545494,-1.00433 0.577514,-0.98849 0.608842,-0.97196 0.639477,-0.95473 0.669418,-0.93681 0.698667,-0.91818 0.727222,-0.89887 0.755085,-0.87885 0.782253,-0.85814 0.80873,-0.83673 0.834513,-0.81462 0.859603,-0.79183 0.883999,-0.76832 0.907704,-0.74414 0.930714,-0.71924 0.953032,-0.69365 0.974656,-0.66737 0.995588,-0.64039 1.015826,-0.61272 1.035371,-0.58433 1.054224,-0.55527 1.072383,-0.52551 1.089849,-0.49504 1.106622,-0.46388 1.122701,-0.43203 1.138089,-0.39947 1.604587,-0.50734 0.77636,-0.22216 0.76423,-0.20195 0.75595,-0.18235 0.75155,-0.16337 0.751,-0.14497 0.75432,-0.12718 0.76151,-0.11001 0.77255,-0.0934 0.78747,-0.0775 0.80624,-0.0621 0.82889,-0.0473 0.85539,-0.0332 1.80575,-0.0263 1.21297,0.0136 1.17944,0.0426 1.14939,0.0724 1.12283,0.10307 1.09975,0.13454 1.08015,0.16685 1.06402,0.2 1.0514,0.23399 1.04223,0.26881 1.03656,0.30446 1.03437,0.34096 1.03566,0.37828 1.04043,0.41644 1.04868,0.45544 1.06042,0.49528 1.07563,0.53594 0.97719,0.52276 0.97025,0.5611 0.96099,0.59739 0.94936,0.63161 0.9354,0.66379 0.91909,0.69392 0.90044,0.72198 0.87943,0.74801 0.8561,0.77196 0.8304,0.79387 0.80237,0.81373 0.77199,0.83153 0.73927,0.84728 0.7042,0.86097 0.66678,0.87262 0.62703,0.8822 0.92084,1.32501 0.29247,0.38226 0.20685,0.21703 0.0775,0.0516 0.0635,0.0164 0.052,-0.0168 0.0429,-0.048 0.0686,-0.18151 0.062,-0.28198 0.16585,-0.69672 0.23854,-0.80721 0.30486,-0.90407 0.36484,-0.98728 0.41845,-1.05685 0.4657,-1.11277 0.5066,-1.15506 0.54113,-1.18371 0.56932,-1.1987 0.59114,-1.20007 0.60659,-1.18779 0.6157,-1.16187 0.61845,-1.1223 0.61484,-1.0691 0.60486,-1.00226 0.58853,-0.92176 0.69729,-1.0323 0.73172,-1.03481 0.76355,-1.03446 0.79279,-1.03125 0.81942,-1.02518 0.84346,-1.01626 0.86489,-1.00447 0.88374,-0.98984 0.89998,-0.97233 0.91362,-0.95198 0.92466,-0.92875 0.93311,-0.90269 0.93896,-0.87375 0.9422,-0.84195 0.94286,-0.80731 0.94091,-0.7698 0.8732,-0.68426 0.88758,-0.66943 0.90153,-0.65443 0.91505,-0.63923 0.92815,-0.62387 0.94082,-0.60832 0.95305,-0.59261 0.96486,-0.5767 0.97625,-0.56063 0.98719,-0.54438 0.99773,-0.52795 1.00782,-0.51134 1.01748,-0.49455 1.02673,-0.47759 1.03554,-0.46045 1.04392,-0.44313 1.05188,-0.42564 1.0594,-0.40796 1.0665,-0.39011 1.07317,-0.37208 1.07942,-0.35388 1.08523,-0.33549 1.09061,-0.31693 1.09557,-0.2982 1.1001,-0.27927 1.1042,-0.26019 1.10787,-0.24091 1.11111,-0.22146 1.11393,-0.20184 1.11632,-0.18204 1.11827,-0.16205 1.11981,-0.14189 0.89882,-0.0881 1.01999,-0.0689 1.12338,-0.0503 1.209,-0.0322 1.27685,-0.014699999 1.32694,0.001999999 1.35924,0.0188 1.37379,0.0347 1.37057,0.05 1.34957,0.0648 1.31079,0.079 1.25427,0.0927 1.17995,0.1059 1.08788,0.11851 0.97803,0.13056 0.85041,0.14207 1.1816,0.23214 1.15286,0.24437 1.12727,0.25765 1.10486,0.27201 1.08562,0.28743 1.06954,0.3039 1.05664,0.32144 1.0469,0.34005 1.04034,0.3597 1.03693,0.38044 1.03671,0.40222 1.03964,0.42507 1.04575,0.44899 1.05502,0.47396 1.06748,0.5 1.08308,0.5271 1.10083,0.55813 1.08718,0.5768 1.07342,0.59534 1.05953,0.61375 1.0455,0.63206 1.03136,0.65022 1.01708,0.66829 1.00267,0.68621 0.98815,0.70403 0.97348,0.72172 0.9587,0.73928 0.94378,0.75674 0.92874,0.77405 0.91357,0.79127 0.89828,0.80834 0.88285,0.82531 0.86729,0.84214 0.85162,0.85886 0.83581,0.87546 0.81988,0.89193 0.80381,0.90829 0.78763,0.92451 0.77131,0.94063 0.75486,0.95662 0.73829,0.97248 0.72159,0.98823 0.70476,1.00385 0.68781,1.01936 0.67072,1.03474 0.65352,1.04999 0.63618,1.06514 0.61871,1.08015 0.56885,1.04486 0.55962,1.08815 0.54841,1.12603 0.53522,1.15848 0.52006,1.18551 0.50291,1.20711 0.4838,1.22331 0.4627,1.23408 0.43963,1.23943 0.41458,1.23936 0.38754,1.23386 0.35855,1.22295 0.32755,1.20662 0.2946,1.18487 0.25966,1.15769 0.22275,1.1251 0.51113,2.77868 1.96176,-1.2653 0.70493,-0.44536 0.70969,-0.42989 0.7143,-0.41442 0.71874,-0.39898 0.72303,-0.38353 0.72716,-0.36809 0.73112,-0.35266 0.73493,-0.33725 0.73858,-0.32182 0.74207,-0.30643 0.7454,-0.29102 0.74857,-0.27563 0.75157,-0.26026 0.75443,-0.24487 0.75711,-0.22951 0.75965,-0.21415 0.76202,-0.1988 0.76422,-0.18346 0.76628,-0.16812 0.76818,-0.1528 0.7699,-0.13747 0.77148,-0.12216 0.77289,-0.10686 0.77414,-0.0916 0.77524,-0.0763 0.77617,-0.061 0.77695,-0.0457 0.77756,-0.0305 0.77802,-0.0152 0.77831,5e-5 0.77845,0.0153 0.77842,0.0305 0.77825,0.0458 0.7779,0.061 0.77739,0.0762 0.77674,0.0914 0.77591,0.10658 0.77493,0.12176 0.77379,0.13695 0.77249,0.15212 0.77103,0.16728 0.76941,0.18243 0.76764,0.19759 0.76569,0.21272 0.76359,0.22786 0.76133,0.24298 0.75892,0.2581 0.75634,0.2732 0.7536,0.28831 0.75071,0.3034 0.74765,0.31848 0.74443,0.33356 0.74105,0.34863 0.73753,0.3637 0.73382,0.37874 0.72997,0.3938 0.72596,0.40883 0.72178,0.42386 0.71745,0.43888 0.71296,0.4539 0.7083,0.46891 0.70349,0.4839 0.69852,0.4989 0.69339,0.51388 1.24182,0.96411 1.20294,0.98814 1.16376,1.01161 1.12433,1.03451 1.08462,1.05685 1.04463,1.0786 1.00439,1.0998 0.96386,1.12043 0.92306,1.14048 0.88199,1.15997 0.84066,1.1789 0.79904,1.19724 0.75715,1.21502 0.715,1.232244 0.67258,1.248884 0.62987,1.264961 0.58691,1.280469 0.54365,1.295408 0.50015,1.309779 0.45636,1.323581 0.4123,1.336815 0.36797,1.349479 0.32336,1.361575 0.27849,1.373103 0.23335,1.384062 0.18793,1.394452 0.14224,1.404274 0.0963,1.413526 0.05,1.422211 0.004,1.430327 -0.0432,1.437874 -0.0903,1.444852 -0.0977,1.064565 -0.12389,1.041203 -0.15049,1.018986 -0.17748,0.997913 -0.20485,0.977983 -0.23258,0.9592 -0.26071,0.94156 -0.2892,0.92507 -0.31809,0.90971 -0.34734,0.89551 -0.37697,0.88244 -0.40699,0.87052 -0.43738,0.85975 -0.46816,0.85013 -0.4993,0.84163 -0.53083,0.8343 -1.13199,1.76667 -0.32758,0.54777 -0.0818,0.15369 -0.0186,0.0597 1.44267,0.55195 0.35581,0.14076 0.37054,0.16401 0.7806,0.39367 0.82538,0.47445 0.86069,0.54712 0.88654,0.61168 0.90292,0.66812 0.90984,0.71644 0.90728,0.75664 0.89527,0.78874 0.87379,0.81272 0.84284,0.82858 0.80242,0.83632 0.75255,0.83596 0.6932,0.82747 0.62438,0.81087 0.54611,0.78615 0.6663,1.05603 0.61309,1.04835 0.56075,1.04399 0.5093,1.04291 0.45872,1.04514 0.40904,1.05066 0.36023,1.05948 0.3123,1.07161 0.26527,1.08703 0.2191,1.10575 0.17383,1.12776 0.12944,1.15308 0.0859,1.18169 0.0433,1.21361 0.002,1.24881 -0.0393,1.28733 -0.0513,0.92424 -0.0695,0.91406 -0.0877,0.90396 -0.10596,0.89396 -0.12426,0.88405 -0.14258,0.87421 -0.16096,0.86448 -0.17936,0.85483 -0.1978,0.84526 -0.21629,0.83579 -0.23481,0.82641 -0.25336,0.81711 -0.27197,0.8079 -0.2906,0.79878 -0.30928,0.78974 -0.32799,0.78081 -0.34674,0.77195 -0.36554,0.76318 -0.38436,0.75451 -0.40323,0.74592 -0.42213,0.73741 -0.44108,0.72901 -0.46007,0.72068 -0.47908,0.71244 -0.49814,0.7043 -0.51724,0.69624 -0.53638,0.68827 -0.55555,0.68039 -0.57477,0.67259 -0.59402,0.66489 -0.6133,0.65728 -0.63264,0.64974 -1.07053,1.03785 -1.09624,0.98546 -1.12367,0.93393 -1.15281,0.88329 -1.18364,0.83351 -1.21618,0.7846 -1.25044,0.73657 -1.28639,0.68941 -1.32405,0.64311 -1.36342,0.59769 -1.4045,0.55313 -1.44728,0.50946 -1.49177,0.46665 -1.53797,0.42471 -1.58586,0.38364 -1.63547,0.34344 -0.57343,0.0945 -0.81301,0.0832 -1.23667,0.0727 -1.84438,0.063 -2.63615,0.054 -3.61199,0.0459 -4.77189,0.0385 -6.11584,0.0319 -16.99981,0.0469 -24.58438,0.0297 -77.81245,0.0326 -53.80419,-0.005 -44.37154,-0.04 -17.210755,-0.0312 -13.127265,-0.0376 -8.468664,-0.0431 -2.307635,-0.0233 -0.927318,-0.0244 0,0 m 335.576177,-78.55203 -0.45332,-0.17262 -0.4349,-0.197956 -0.41579,-0.222513 -0.396,-0.246284 -0.37552,-0.269268 -0.35436,-0.291465 -0.33251,-0.312875 -0.31,-0.333499 -0.28678,-0.353337 -0.26288,-0.372387 -0.23831,-0.390652 -0.21305,-0.408129 -0.18711,-0.42482 -0.16047,-0.440725 -0.13317,-0.455843 -0.10517,-0.470174 -0.0263,-0.277817 0.003,-0.388654 0.0317,-0.487478 0.0587,-0.574288 0.0842,-0.649087 0.10831,-0.711872 0.28335,-1.564045 0.23253,-1.230907 0.2071,-1.227586 0.18168,-1.224198 0.15626,-1.220745 0.13086,-1.217226 0.10547,-1.213641 0.0801,-1.20999 0.0547,-1.206274 0.0293,-1.202491 0.004,-1.198643 -0.0214,-1.19473 -0.0467,-1.190749 -0.072,-1.186704 -0.0974,-1.182592 -0.12269,-1.178415 -0.14798,-1.174167 -0.17328,-1.16987 -0.19857,-1.16548 -0.22384,-1.16105 -0.24911,-1.15654 -0.27437,-1.15197 -0.29963,-1.14733 -0.32486,-1.14263 -0.35009,-1.13786 -0.37532,-1.13302 -0.40054,-1.12812 -0.42573,-1.12316 -0.45094,-1.11812 -0.47612,-1.11302 -0.5013,-1.10786 -0.52646,-1.10263 -0.55163,-1.09733 -0.42941,-0.81102 -0.48015,-0.86819 -1.04771,-1.79997 -1.05629,-1.7049 -0.49088,-0.74935 -0.44443,-0.64464 -0.46405,-0.6317 -0.52049,-0.67382 -0.57016,-0.70871 -0.61306,-0.73639 -1.32774,-1.52686 -1.41812,-1.5508 -1.45437,-1.51692 -1.43646,-1.42521 -0.69459,-0.66015 -0.66982,-0.61554 -0.63827,-0.5637 -0.59996,-0.50464 -1.12458,-0.8935 -1.15544,-0.86836 -1.18468,-0.84238 -1.2123,-0.81556 -1.2383,-0.78789 -1.26268,-0.7594 -1.28545,-0.73004 -1.3066,-0.69986 -1.32613,-0.66884 -1.34405,-0.63697 -1.36034,-0.60425 -1.37501,-0.57071 -1.38807,-0.53632 -1.39952,-0.50108 -1.40934,-0.46501 -1.41754,-0.42809 -0.46265,-0.14129 -0.43681,-0.15022 -0.41202,-0.15997 -0.38828,-0.17053 -0.36558,-0.18189 -0.34392,-0.19406 -0.32329,-0.20703 -0.30373,-0.22082 -0.28519,-0.23542 -0.2677,-0.25081 -0.25125,-0.26702 -0.23585,-0.28404 -0.22149,-0.30186 -0.20817,-0.3205 -0.1959,-0.33993 -0.18466,-0.36018 -0.18562,-0.40501 -0.14476,-0.37388 -0.10703,-0.36447 -0.0724,-0.37673 -0.0409,-0.41068 -0.0125,-0.46632 0.0127,-0.54365 0.0349,-0.64268 0.0439,-0.51533 0.0642,-0.49311 0.085,-0.4716 0.10616,-0.45079 0.12771,-0.43068 0.14966,-0.41128 0.17202,-0.39256 0.19475,-0.37456 0.2179,-0.35726 0.24143,-0.34065 0.26536,-0.32475 0.28968,-0.30954 0.31441,-0.29505 0.33952,-0.28125 0.36504,-0.26815 0.39094,-0.25576 0.43932,-0.26187 0.39106,-0.2071 0.36563,-0.15823 0.36304,-0.1153 0.38329,-0.0783 0.42637,-0.0472 0.4923,-0.022 0.58107,-0.003 0.41334,0.0166 0.45325,0.0431 0.49105,0.0688 0.52672,0.0936 0.56029,0.11757 0.59173,0.14063 1.26933,0.3469 1.3697,0.42857 1.45314,0.5032 1.51965,0.57081 1.56922,0.63139 1.60186,0.68494 1.61755,0.73145 1.61632,0.77093 1.59815,0.8034 1.56305,0.82882 1.51101,0.84722 1.44203,0.85859 1.35613,0.86292 1.64216,1.11381 1.60178,1.14755 1.56121,1.18096 1.52044,1.21407 1.47946,1.24684 1.43829,1.27929 1.39692,1.31144 1.35534,1.34324 1.31358,1.37474 1.27161,1.40592 1.22944,1.43676 1.18707,1.4673 1.1445,1.4975 1.10174,1.5274 1.05877,1.55697 1.01561,1.58621 0.97225,1.61514 0.92868,1.64375 0.88492,1.67203 0.84096,1.7 0.79679,1.72764 0.75244,1.75496 0.70788,1.78197 0.66312,1.80865 0.61816,1.83501 0.57301,1.86105 0.52765,1.88677 0.48209,1.91216 0.43634,1.93725 0.39039,1.962 0.34424,1.98644 0.29788,2.01055 0.0886,0.77036 0.0769,0.906347 0.0652,1.022786 0.0534,1.119685 0.0716,2.451893 0.0246,2.604976 -0.0225,2.601721 -0.0697,2.442125 -0.0525,1.112359 -0.0644,1.013832 -0.0762,0.895764 -0.088,0.758154 -0.21547,1.449141 -0.24796,1.471175 -0.26942,1.442043 -0.27985,1.361748 -0.27922,1.230291 -0.26758,1.04767 -0.2449,0.813885 -0.11049,0.303285 -0.10069,0.225652 -0.10701,0.180739 -0.1474,0.209329 -0.38946,0.474457 -0.47147,0.498902 -0.50049,0.463405 -0.39322,0.316197 -0.40289,0.283696 -0.41255,0.251195 -0.42221,0.218694 -0.43188,0.1862 -0.44155,0.15369 -0.45121,0.1212 -0.46088,0.0887 -0.47054,0.0562 -0.4802,0.0237 -0.48987,-0.009 -0.49954,-0.0413 -0.5092,-0.0738 -0.51887,-0.10631 -0.52853,-0.13881 -0.5382,-0.17131 -1.6e-4,0 m -22.73152,-6.312947 -0.31186,-0.0838 -0.31326,-0.102115 -0.31319,-0.11942 -0.31167,-0.135717 -0.61283,-0.31629 -0.58906,-0.369375 -0.55351,-0.41439 -0.25975,-0.221555 -0.24646,-0.229783 -0.23168,-0.237003 -0.21545,-0.243215 -0.19775,-0.248417 -0.17856,-0.252612 -0.24925,-0.38738 -0.21778,-0.367014 -0.18678,-0.354757 -0.15624,-0.350607 -0.12615,-0.354562 -0.0965,-0.366625 -0.0674,-0.386795 -0.0387,-0.415072 -0.0104,-0.451455 0.0174,-0.495947 0.0447,-0.548544 0.0716,-0.609248 0.22194,-1.433039 0.32392,-1.77314 0.14601,-0.844986 0.11794,-0.850467 0.0901,-0.855131 0.0626,-0.858976 0.0352,-0.862005 0.008,-0.864216 -0.0186,-0.86561 -0.0451,-0.866186 -0.0714,-0.865945 -0.0975,-0.864887 -0.12324,-0.863011 -0.14878,-0.860318 -0.17405,-0.856808 -0.19906,-0.852476 -0.22384,-0.84734 -0.24834,-0.84137 -0.27261,-0.83459 -0.29661,-0.82699 -0.32035,-0.81858 -0.34386,-0.80935 -0.36709,-0.7993 -0.39009,-0.78843 -0.41281,-0.77674 -0.4353,-0.76425 -0.45752,-0.75093 -0.47949,-0.73678 -0.50121,-0.72184 -0.52267,-0.70606 -0.54388,-0.68948 -0.56484,-0.67207 -0.58554,-0.65384 -0.60598,-0.63481 -0.67661,-0.66385 -0.70114,-0.64399 -0.7246,-0.6235 -0.74694,-0.60234 -0.7682,-0.58052 -0.78836,-0.55806 -0.80742,-0.53492 -0.82538,-0.51115 -0.84226,-0.48671 -0.85803,-0.46161 -0.87271,-0.43587 -0.88629,-0.40946 -0.89878,-0.38241 -0.91016,-0.35468 -0.92047,-0.32631 -0.92966,-0.29729 -0.76055,-0.24968 -0.71089,-0.27385 -0.66136,-0.29814 -0.61191,-0.32255 -0.56257,-0.34707 -0.51334,-0.37171 -0.46422,-0.39646 -0.41519,-0.42134 -0.36627,-0.44632 -0.31747,-0.47143 -0.26875,-0.49665 -0.22015,-0.52199 -0.17166,-0.54744 -0.12325,-0.57302 -0.075,-0.5987 -0.0268,-0.6245 0.0139,-0.5492 0.0461,-0.53822 0.0777,-0.52622 0.10877,-0.51319 0.13926,-0.49913 0.16919,-0.48404 0.19856,-0.46791 0.22736,-0.45076 0.25561,-0.43258 0.28328,-0.41337 0.31039,-0.39312 0.33695,-0.37186 0.36294,-0.34954 0.38837,-0.32622 0.41323,-0.30185 0.43753,-0.27646 0.42467,-0.24028 0.37216,-0.18388 0.35068,-0.13298 0.36023,-0.0876 0.40081,-0.0478 0.47244,-0.0134 0.57508,0.0154 0.70876,0.0387 0.80808,0.0734 0.84439,0.12189 0.87768,0.16922 0.90798,0.21532 0.93524,0.26021 0.95951,0.30387 0.98076,0.34631 0.99899,0.38754 1.01421,0.42755 1.02643,0.46633 1.03562,0.50389 1.04181,0.54025 1.04499,0.57537 1.04514,0.60927 1.04229,0.64197 1.03643,0.67343 0.67515,0.46692 0.70475,0.51854 0.72811,0.56424 0.74523,0.60398 0.75611,0.63779 0.76076,0.66565 0.75915,0.68758 0.75131,0.70356 0.73722,0.71359 0.71691,0.7177 0.69034,0.71585 0.65753,0.70807 0.61849,0.69435 0.5732,0.67467 0.52168,0.64907 0.46391,0.61752 0.67559,0.96277 0.64885,0.97916 0.62199,0.9949 0.59496,1.00995 0.5678,1.02435 0.5405,1.03807 0.51305,1.05113 0.48546,1.06351 0.45772,1.07524 0.42985,1.08629 0.40182,1.09667 0.37366,1.10639 0.34535,1.11544 0.31689,1.12382 0.28831,1.13154 0.25956,1.13857 0.23068,1.14496 0.20166,1.15066 0.17248,1.155698 0.14318,1.160074 0.11371,1.163779 0.0841,1.166815 0.0544,1.169184 0.0245,1.170884 -0.006,1.171916 -0.0357,1.17228 -0.066,1.171977 -0.0965,1.171005 -0.12709,1.169365 -0.15784,1.167057 -0.18873,1.164081 -0.21976,1.160438 -0.23632,1.03058 -0.28302,1.031875 -0.29417,0.913376 -0.14017,0.374814 -0.12962,0.300265 -0.27185,0.501888 -0.32051,0.470191 -0.36571,0.437049 -0.4074,0.402461 -0.44563,0.366426 -0.48035,0.328947 -0.5116,0.290021 -0.53935,0.249649 -0.56363,0.207833 -0.58441,0.16457 -0.60172,0.119861 -0.61553,0.07371 -0.62587,0.02611 -0.6327,-0.02294 -0.63607,-0.07343 -0.63594,-0.125369 0,0"
     style="fill:#000000" />
</svg>
